<svg width="463" height="172" viewBox="0 0 463 172" fill="none" xmlns="http://www.w3.org/2000/svg">
<rect y="41.5962" width="452" height="130" rx="19" transform="rotate(-5.28026 0 41.5962)" fill="#EBAA48"/>
<path d="M25.2921 92.0247L25.3775 92.9488L22.2867 93.2344L23.2305 103.447L22.1152 103.55L21.1714 93.3375L18.0646 93.6246L17.9792 92.7005L25.2921 92.0247ZM27.169 98.6802C27.0866 97.788 27.1897 96.9911 27.4783 96.2896C27.7767 95.5765 28.2224 95.0104 28.8157 94.5913C29.4187 94.1607 30.1184 93.9085 30.915 93.8349C31.7435 93.7583 32.4728 93.8838 33.1029 94.2112C33.7437 94.5376 34.2243 94.9859 34.5448 95.5562L34.3681 93.6443L35.4834 93.5412L36.2873 102.24L35.1721 102.343L34.9939 100.415C34.7727 101.036 34.3776 101.57 33.8085 102.019C33.249 102.457 32.5551 102.714 31.7266 102.79C30.9406 102.863 30.2118 102.743 29.5402 102.43C28.8792 102.116 28.3367 101.636 27.9127 100.99C27.4994 100.342 27.2515 99.5724 27.169 98.6802ZM34.7701 97.9938C34.7053 97.2928 34.505 96.69 34.1692 96.1854C33.8333 95.6808 33.4025 95.3082 32.8768 95.0676C32.3617 94.826 31.8068 94.7327 31.212 94.7876C30.5959 94.8446 30.0564 95.0337 29.5933 95.355C29.1303 95.6763 28.7799 96.1157 28.5422 96.6733C28.3141 97.2193 28.2335 97.8534 28.3002 98.5757C28.366 99.2873 28.562 99.9012 28.8882 100.417C29.2241 100.922 29.6495 101.295 30.1646 101.537C30.6787 101.768 31.2438 101.855 31.8598 101.798C32.4546 101.743 32.9831 101.549 33.4452 101.217C33.9179 100.884 34.2731 100.439 34.5108 99.8817C34.7485 99.3241 34.8349 98.6948 34.7701 97.9938ZM38.4354 91.6134C38.2123 91.634 38.0138 91.572 37.8397 91.4274C37.6657 91.2828 37.5679 91.0937 37.5463 90.86C37.5247 90.6264 37.5867 90.4278 37.7322 90.2644C37.8768 90.0903 38.0607 89.993 38.2837 89.9724C38.5068 89.9518 38.7053 90.0138 38.8794 90.1584C39.0524 90.2923 39.1498 90.4762 39.1714 90.7098C39.1929 90.9435 39.1314 91.1474 38.9868 91.3214C38.8423 91.4955 38.6584 91.5928 38.4354 91.6134ZM39.1447 93.2029L39.9486 101.902L38.8334 102.005L38.0294 93.3059L39.1447 93.2029ZM42.4997 89.7756L43.5894 101.565L42.4741 101.668L41.3845 89.8786L42.4997 89.7756ZM49.9344 101.107C49.1165 101.183 48.3617 101.071 47.6698 100.77C46.9875 100.459 46.4243 99.9857 45.9801 99.3519C45.5455 98.7065 45.2865 97.9324 45.203 97.0296C45.1196 96.1268 45.2381 95.3231 45.5587 94.6186C45.8782 93.9035 46.3506 93.335 46.9757 92.913C47.5999 92.4804 48.3209 92.2263 49.1387 92.1507C49.9566 92.0751 50.712 92.1927 51.4048 92.5036C52.1074 92.8029 52.6759 93.2753 53.1105 93.9207C53.5547 94.5545 53.8185 95.3228 53.902 96.2256C53.9844 97.1178 53.8659 97.9215 53.5463 98.6366C53.2268 99.3517 52.7496 99.926 52.1148 100.36C51.4791 100.783 50.7522 101.032 49.9344 101.107ZM49.8446 100.136C50.4181 100.083 50.9374 99.9061 51.4024 99.606C51.8665 99.2953 52.2232 98.866 52.4725 98.3181C52.7314 97.7585 52.8255 97.0964 52.7549 96.3316C52.6842 95.5669 52.4761 94.938 52.1306 94.4451C51.7841 93.9415 51.3548 93.5848 50.8427 93.3751C50.3295 93.1547 49.7862 93.071 49.2126 93.124C48.6391 93.177 48.1203 93.3589 47.6562 93.6696C47.1912 93.9696 46.8345 94.3989 46.5862 94.9575C46.3475 95.5044 46.2635 96.1603 46.3342 96.925C46.4049 97.6898 46.6082 98.3244 46.944 98.829C47.2895 99.322 47.7135 99.6791 48.216 99.9005C48.7282 100.11 49.271 100.189 49.8446 100.136ZM56.791 93.1306C56.9853 92.5663 57.3182 92.1124 57.7899 91.7689C58.2723 91.4244 58.8799 91.2183 59.6128 91.1505L59.7203 92.3136L59.4176 92.3416C58.6103 92.4162 57.9825 92.6938 57.5342 93.1744C57.0859 93.655 56.9088 94.4052 57.0031 95.4248L57.4521 100.284L56.3369 100.387L55.5329 91.6883L56.6482 91.5852L56.791 93.1306ZM69.5364 94.3308C69.5718 94.7132 69.5881 95.0062 69.5856 95.21L62.3683 95.877C62.461 96.5326 62.6724 97.0808 63.0024 97.5216C63.3323 97.9625 63.7423 98.2834 64.2322 98.4845C64.7211 98.675 65.2417 98.7447 65.7941 98.6937C66.5163 98.6269 67.1055 98.3957 67.5617 98.0001C68.0285 97.6034 68.3141 97.1004 68.4185 96.4908L69.5974 96.3819C69.4636 97.2512 69.0711 97.9891 68.4202 98.5956C67.7789 99.1905 66.9325 99.5365 65.8809 99.6337C65.0631 99.7093 64.3135 99.5964 63.6322 99.2952C62.95 98.9833 62.3921 98.51 61.9585 97.8752C61.5345 97.2288 61.2808 96.4542 61.1974 95.5514C61.1139 94.6486 61.2214 93.8406 61.5197 93.1274C61.818 92.4143 62.2744 91.8472 62.8889 91.4262C63.5035 91.0052 64.225 90.7564 65.0534 90.6798C65.8819 90.6033 66.6208 90.7171 67.2703 91.0213C67.9303 91.3245 68.4534 91.7689 68.8396 92.3545C69.2354 92.9285 69.4677 93.5873 69.5364 94.3308ZM68.4023 94.4035C68.3531 93.7546 68.1692 93.2145 67.8509 92.7833C67.5431 92.3512 67.1448 92.0398 66.6558 91.8493C66.1669 91.6589 65.6463 91.5891 65.094 91.6402C64.2655 91.7168 63.5837 92.0476 63.0486 92.6326C62.5135 93.2177 62.2588 93.9964 62.2844 94.9689L68.4023 94.4035ZM71.1068 94.6195C71.0243 93.7273 71.1327 92.9299 71.432 92.2274C71.7303 91.5143 72.1761 90.9482 72.7694 90.5291C73.3723 90.0985 74.0721 89.8463 74.8687 89.7727C75.6335 89.702 76.341 89.8241 76.9914 90.1389C77.6418 90.4537 78.1379 90.8953 78.4796 91.4636L78.0202 86.4928L79.1355 86.3897L80.2251 98.1795L79.1099 98.2825L78.9302 96.3388C78.7206 96.9688 78.3313 97.5082 77.7622 97.9572C77.1921 98.3955 76.4981 98.6525 75.6803 98.728C74.8837 98.8017 74.1496 98.682 73.4779 98.3692C72.8169 98.0554 72.2744 97.5752 71.8505 96.9289C71.4371 96.2815 71.1892 95.5117 71.1068 94.6195ZM78.7079 93.9331C78.6431 93.2321 78.4428 92.6293 78.1069 92.1247C77.771 91.6201 77.3403 91.2475 76.8146 91.0069C76.2995 90.7653 75.7445 90.6719 75.1497 90.7269C74.5337 90.7838 73.9941 90.973 73.5311 91.2943C73.068 91.6156 72.7176 92.055 72.4799 92.6126C72.2519 93.1586 72.1712 93.7927 72.238 94.5149C72.3037 95.2266 72.4997 95.8405 72.826 96.3567C73.1618 96.8612 73.5873 97.2343 74.1024 97.4759C74.6165 97.7069 75.1816 97.794 75.7976 97.737C76.3924 97.6821 76.9208 97.4886 77.3829 97.1567C77.8556 96.8238 78.2108 96.3785 78.4485 95.8209C78.6862 95.2634 78.7727 94.6341 78.7079 93.9331ZM97.8103 87.781L95.8898 96.7317L94.7746 96.8348L91.6945 89.7602L89.9631 97.2795L88.8319 97.384L85.3036 88.9369L86.4348 88.8323L89.3009 96.1998L91.0391 88.4068L92.1544 88.3037L95.261 95.6651L96.711 87.8826L97.8103 87.781ZM107.562 90.8165C107.597 91.1988 107.614 91.4919 107.611 91.6957L100.394 92.3627C100.486 93.0183 100.698 93.5665 101.028 94.0073C101.358 94.4482 101.768 94.7691 102.258 94.9702C102.747 95.1607 103.267 95.2304 103.82 95.1794C104.542 95.1126 105.131 94.8814 105.587 94.4858C106.054 94.0891 106.34 93.5861 106.444 92.9765L107.623 92.8676C107.489 93.7369 107.097 94.4748 106.446 95.0813C105.804 95.6762 104.958 96.0222 103.906 96.1194C103.089 96.195 102.339 96.0821 101.658 95.7809C100.975 95.469 100.418 94.9957 99.9839 94.3609C99.56 93.7145 99.3063 92.9399 99.2228 92.0371C99.1394 91.1343 99.2468 90.3263 99.5451 89.6131C99.8434 88.9 100.3 88.3329 100.914 87.9119C101.529 87.4909 102.25 87.2421 103.079 87.1655C103.907 87.089 104.646 87.2028 105.296 87.507C105.956 87.8102 106.479 88.2546 106.865 88.8402C107.261 89.4142 107.493 90.073 107.562 90.8165ZM106.428 90.8892C106.378 90.2403 106.195 89.7002 105.876 89.269C105.569 88.8369 105.17 88.5255 104.681 88.335C104.192 88.1446 103.672 88.0748 103.119 88.1259C102.291 88.2025 101.609 88.5333 101.074 89.1183C100.539 89.7034 100.284 90.4821 100.31 91.4546L106.428 90.8892ZM110.519 88.5507C110.75 87.9188 111.145 87.3842 111.704 86.9468C112.275 86.5085 112.969 86.2515 113.786 86.176C114.583 86.1023 115.312 86.2224 115.973 86.5363C116.633 86.8395 117.17 87.3148 117.583 87.9622C118.006 88.5979 118.259 89.3619 118.341 90.2541C118.423 91.1463 118.316 91.949 118.017 92.6621C117.73 93.3743 117.284 93.9457 116.681 94.3763C116.089 94.806 115.4 95.0572 114.614 95.1298C113.785 95.2064 113.051 95.0868 112.412 94.771C111.781 94.4436 111.3 93.9899 110.968 93.41L111.145 95.3219L110.046 95.4235L108.956 83.6337L110.055 83.5321L110.519 88.5507ZM117.21 90.3587C117.143 89.6364 116.942 89.0283 116.607 88.5344C116.282 88.0288 115.862 87.6605 115.348 87.4295C114.834 87.1985 114.269 87.1115 113.653 87.1684C113.058 87.2234 112.525 87.4173 112.052 87.7503C111.59 88.0822 111.24 88.5269 111.002 89.0845C110.765 89.6421 110.678 90.2714 110.743 90.9724C110.808 91.6734 111.008 92.2762 111.344 92.7808C111.68 93.2853 112.105 93.6584 112.62 93.9001C113.146 94.1407 113.706 94.2335 114.301 94.1786C114.917 94.1216 115.457 93.9325 115.92 93.6112C116.382 93.2793 116.726 92.835 116.953 92.2784C117.19 91.7102 117.276 91.0703 117.21 90.3587ZM123.804 94.2805C122.805 94.3728 121.966 94.22 121.287 93.8222C120.617 93.4127 120.208 92.8132 120.06 92.0234L121.207 91.9174C121.305 92.4011 121.571 92.7783 122.003 93.049C122.444 93.3081 123.01 93.4058 123.701 93.342C124.306 93.286 124.766 93.0989 125.079 92.7808C125.403 92.4616 125.545 92.0896 125.506 91.6647C125.479 91.3673 125.36 91.1319 125.152 90.9583C124.943 90.7848 124.685 90.6587 124.377 90.58C124.08 90.4896 123.676 90.4038 123.165 90.3225C122.501 90.2124 121.96 90.0911 121.54 89.9584C121.121 89.8258 120.753 89.6081 120.435 89.3053C120.128 88.991 119.948 88.5523 119.896 87.9894C119.857 87.5645 119.948 87.1598 120.169 86.7751C120.391 86.3904 120.726 86.0702 121.173 85.8146C121.621 85.559 122.142 85.4037 122.737 85.3487C123.672 85.2624 124.448 85.4316 125.066 85.8566C125.682 86.2709 126.05 86.8904 126.169 87.7149L125.054 87.818C124.975 87.3111 124.736 86.9208 124.335 86.6472C123.945 86.3619 123.431 86.2487 122.794 86.3076C122.231 86.3596 121.786 86.5346 121.46 86.8325C121.134 87.1305 120.989 87.4759 121.026 87.8689C121.057 88.2088 121.184 88.4809 121.407 88.6853C121.639 88.8781 121.914 89.024 122.234 89.123C122.553 89.2114 122.98 89.3059 123.514 89.4065C124.156 89.5185 124.671 89.637 125.057 89.762C125.444 89.8869 125.784 90.0911 126.078 90.3746C126.372 90.6581 126.548 91.0543 126.605 91.5631C126.649 92.0305 126.56 92.4618 126.339 92.8571C126.118 93.2418 125.789 93.5614 125.351 93.8161C124.914 94.0707 124.398 94.2255 123.804 94.2805ZM128.52 83.2878C128.297 83.3084 128.099 83.2464 127.925 83.1018C127.751 82.9572 127.653 82.7681 127.631 82.5344C127.61 82.3007 127.672 82.1022 127.817 81.9388C127.962 81.7647 128.146 81.6674 128.369 81.6468C128.592 81.6262 128.79 81.6882 128.964 81.8328C129.137 81.9667 129.235 82.1506 129.256 82.3842C129.278 82.6179 129.216 82.8218 129.072 82.9958C128.927 83.1698 128.743 83.2672 128.52 83.2878ZM129.23 84.8773L130.033 93.5762L128.918 93.6793L128.114 84.9803L129.23 84.8773ZM133.292 85.4499L133.791 90.8508C133.84 91.3819 133.975 91.739 134.195 91.9222C134.416 92.1053 134.781 92.1734 135.291 92.1262L136.31 92.032L136.399 92.9879L135.204 93.0984C134.418 93.171 133.817 93.0444 133.401 92.7186C132.984 92.3822 132.737 91.7945 132.66 90.9554L132.161 85.5544L130.95 85.6663L130.863 84.7263L132.074 84.6144L131.872 82.4317L133.003 82.3272L133.205 84.5099L135.595 84.289L135.682 85.229L133.292 85.4499ZM145.665 87.295C145.7 87.6774 145.717 87.9704 145.714 88.1742L138.497 88.8412C138.59 89.4968 138.801 90.045 139.131 90.4858C139.461 90.9267 139.871 91.2477 140.361 91.4488C140.85 91.6392 141.37 91.7089 141.923 91.6579C142.645 91.5912 143.234 91.3599 143.69 90.9643C144.157 90.5676 144.443 90.0646 144.547 89.455L145.726 89.3461C145.592 90.2154 145.2 90.9533 144.549 91.5598C143.908 92.1547 143.061 92.5007 142.01 92.5979C141.192 92.6735 140.442 92.5607 139.761 92.2594C139.079 91.9475 138.521 91.4742 138.087 90.8394C137.663 90.193 137.41 89.4184 137.326 88.5156C137.243 87.6128 137.35 86.8048 137.648 86.0916C137.947 85.3785 138.403 84.8114 139.018 84.3904C139.632 83.9694 140.354 83.7206 141.182 83.6441C142.011 83.5675 142.75 83.6813 143.399 83.9855C144.059 84.2887 144.582 84.7331 144.968 85.3187C145.364 85.8927 145.596 86.5515 145.665 87.295ZM144.531 87.3677C144.482 86.7188 144.298 86.1787 143.98 85.7475C143.672 85.3154 143.273 85.004 142.785 84.8136C142.296 84.6231 141.775 84.5534 141.223 84.6044C140.394 84.681 139.712 85.0118 139.177 85.5968C138.642 86.1819 138.387 86.9606 138.413 87.9331L144.531 87.3677ZM155.528 91.3486C154.529 91.4408 153.69 91.2881 153.011 90.8902C152.341 90.4808 151.932 89.8812 151.784 89.0915L152.931 88.9855C153.03 89.4692 153.295 89.8463 153.727 90.1171C154.169 90.3762 154.735 90.4738 155.425 90.41C156.03 90.3541 156.49 90.167 156.803 89.8488C157.127 89.5296 157.27 89.1576 157.23 88.7328C157.203 88.4354 157.085 88.1999 156.876 88.0264C156.667 87.8529 156.409 87.7268 156.102 87.648C155.804 87.5577 155.4 87.4719 154.889 87.3906C154.225 87.2805 153.684 87.1591 153.264 87.0265C152.845 86.8939 152.477 86.6762 152.16 86.3734C151.852 86.059 151.672 85.6204 151.62 85.0575C151.581 84.6326 151.672 84.2278 151.894 83.8431C152.115 83.4585 152.45 83.1383 152.898 82.8827C153.345 82.6271 153.866 82.4718 154.461 82.4168C155.396 82.3304 156.172 82.4997 156.79 82.9247C157.407 83.339 157.775 83.9584 157.894 84.783L156.778 84.886C156.699 84.3792 156.46 83.9889 156.06 83.7152C155.669 83.43 155.155 83.3168 154.518 83.3757C153.955 83.4277 153.51 83.6027 153.184 83.9006C152.858 84.1985 152.714 84.544 152.75 84.937C152.781 85.2769 152.908 85.549 153.131 85.7534C153.363 85.9462 153.639 86.0921 153.958 86.1911C154.277 86.2795 154.704 86.3739 155.238 86.4745C155.88 86.5866 156.395 86.7051 156.781 86.83C157.168 86.955 157.508 87.1592 157.802 87.4427C158.096 87.7262 158.272 88.1223 158.33 88.6312C158.373 89.0985 158.284 89.5298 158.064 89.9252C157.842 90.3098 157.513 90.6295 157.076 90.8841C156.639 91.1388 156.123 91.2936 155.528 91.3486ZM164.462 90.5229C163.644 90.5984 162.889 90.4861 162.197 90.1858C161.515 89.874 160.952 89.4011 160.508 88.7673C160.073 88.1219 159.814 87.3478 159.731 86.445C159.647 85.5422 159.766 84.7385 160.086 84.034C160.406 83.3189 160.878 82.7504 161.503 82.3284C162.127 81.8958 162.848 81.6417 163.666 81.5661C164.484 81.4905 165.24 81.6081 165.932 81.919C166.635 82.2183 167.203 82.6907 167.638 83.3361C168.082 83.9699 168.346 84.7382 168.43 85.641C168.512 86.5332 168.393 87.3369 168.074 88.052C167.754 88.7671 167.277 89.3414 166.642 89.775C166.007 90.198 165.28 90.4473 164.462 90.5229ZM164.372 89.551C164.946 89.498 165.465 89.3215 165.93 89.0214C166.394 88.7107 166.751 88.2814 167 87.7335C167.259 87.1739 167.353 86.5118 167.282 85.747C167.212 84.9823 167.004 84.3534 166.658 83.8605C166.312 83.3569 165.882 83.0002 165.37 82.7905C164.857 82.5701 164.314 82.4864 163.74 82.5394C163.167 82.5924 162.648 82.7743 162.184 83.085C161.719 83.385 161.362 83.8143 161.114 84.3729C160.875 84.9198 160.791 85.5757 160.862 86.3404C160.932 87.1052 161.136 87.7398 161.472 88.2444C161.817 88.7374 162.241 89.0945 162.744 89.3159C163.256 89.5256 163.799 89.604 164.372 89.551ZM170.89 77.9098L171.98 89.6995L170.864 89.8026L169.775 78.0128L170.89 77.9098ZM181.237 80.0707L182.041 88.7697L180.926 88.8727L180.784 87.3432C180.58 87.9085 180.225 88.3591 179.72 88.6949C179.216 89.0308 178.634 89.2291 177.976 89.29C176.935 89.3862 176.056 89.1461 175.338 88.5697C174.62 87.9826 174.204 87.0784 174.091 85.8569L173.622 80.7746L174.721 80.673L175.179 85.6278C175.266 86.5731 175.567 87.2738 176.08 87.7298C176.604 88.1849 177.275 88.3746 178.093 88.299C178.932 88.2214 179.577 87.8941 180.027 87.3169C180.477 86.7397 180.654 85.9359 180.559 84.9056L180.122 80.1738L181.237 80.0707ZM185.32 80.6414L185.819 86.0424C185.868 86.5735 186.003 86.9306 186.223 87.1137C186.444 87.2969 186.809 87.3649 187.319 87.3178L188.339 87.2236L188.427 88.1795L187.232 88.2899C186.446 88.3626 185.845 88.236 185.429 87.9102C185.013 87.5738 184.765 86.986 184.688 86.1469L184.189 80.746L182.978 80.8579L182.891 79.9179L184.102 79.806L183.9 77.6233L185.031 77.5187L185.233 79.7014L187.623 79.4806L187.71 80.4205L185.32 80.6414ZM189.868 77.618C189.645 77.6386 189.447 77.5766 189.273 77.4321C189.098 77.2875 189.001 77.0983 188.979 76.8647C188.957 76.631 189.019 76.4324 189.165 76.269C189.31 76.095 189.493 75.9976 189.716 75.977C189.94 75.9564 190.138 76.0184 190.312 76.163C190.485 76.297 190.583 76.4808 190.604 76.7145C190.626 76.9481 190.564 77.152 190.42 77.326C190.275 77.5001 190.091 77.5974 189.868 77.618ZM190.577 79.2075L191.381 87.9064L190.266 88.0095L189.462 79.3106L190.577 79.2075ZM197.726 87.4486C196.909 87.5242 196.154 87.4118 195.462 87.1115C194.78 86.7997 194.216 86.3268 193.772 85.693C193.338 85.0476 193.079 84.2735 192.995 83.3707C192.912 82.4679 193.03 81.6642 193.351 80.9597C193.67 80.2446 194.143 79.6761 194.768 79.2541C195.392 78.8215 196.113 78.5674 196.931 78.4918C197.749 78.4162 198.504 78.5338 199.197 78.8447C199.899 79.144 200.468 79.6164 200.903 80.2618C201.347 80.8956 201.611 81.6639 201.694 82.5667C201.776 83.4589 201.658 84.2626 201.338 84.9777C201.019 85.6928 200.542 86.2671 199.907 86.7007C199.271 87.1237 198.544 87.373 197.726 87.4486ZM197.637 86.4767C198.21 86.4237 198.729 86.2472 199.194 85.9471C199.659 85.6364 200.015 85.2071 200.264 84.6592C200.523 84.0996 200.618 83.4375 200.547 82.6727C200.476 81.908 200.268 81.2791 199.923 80.7862C199.576 80.2826 199.147 79.9259 198.635 79.7162C198.122 79.4958 197.578 79.4121 197.005 79.4651C196.431 79.5181 195.912 79.7 195.448 80.0107C194.983 80.3107 194.627 80.74 194.378 81.2986C194.14 81.8455 194.056 82.5014 194.126 83.2661C194.197 84.0309 194.4 84.6655 194.736 85.1701C195.082 85.6631 195.506 86.0202 196.008 86.2416C196.52 86.4513 197.063 86.5297 197.637 86.4767ZM207.389 77.4931C208.43 77.3969 209.309 77.6423 210.028 78.2294C210.745 78.8058 211.16 79.7047 211.273 80.9262L211.744 86.0245L210.645 86.1261L210.186 81.1553C210.098 80.21 209.793 79.5098 209.269 79.0548C208.755 78.5987 208.089 78.4085 207.272 78.4841C206.432 78.5617 205.788 78.889 205.338 79.4662C204.888 80.0434 204.71 80.8472 204.805 81.8775L205.244 86.6252L204.129 86.7283L203.325 78.0294L204.44 77.9263L204.577 79.408C204.804 78.8514 205.165 78.411 205.66 78.0867C206.154 77.7518 206.73 77.554 207.389 77.4931ZM217.218 85.6472C216.22 85.7394 215.381 85.5867 214.701 85.1888C214.031 84.7794 213.622 84.1798 213.474 83.3901L214.622 83.2841C214.72 83.7678 214.985 84.145 215.417 84.4157C215.859 84.6748 216.425 84.7724 217.115 84.7086C217.721 84.6527 218.18 84.4656 218.493 84.1474C218.817 83.8283 218.96 83.4562 218.92 83.0314C218.893 82.734 218.775 82.4985 218.566 82.325C218.357 82.1515 218.099 82.0254 217.792 81.9466C217.494 81.8563 217.09 81.7705 216.579 81.6892C215.915 81.5791 215.374 81.4578 214.955 81.3251C214.535 81.1925 214.167 80.9748 213.85 80.672C213.542 80.3576 213.362 79.919 213.31 79.3561C213.271 78.9312 213.362 78.5264 213.584 78.1418C213.805 77.7571 214.14 77.4369 214.588 77.1813C215.035 76.9257 215.557 76.7704 216.151 76.7154C217.086 76.629 217.862 76.7983 218.48 77.2233C219.097 77.6376 219.465 78.257 219.584 79.0816L218.469 79.1846C218.39 78.6778 218.15 78.2875 217.75 78.0138C217.359 77.7286 216.845 77.6154 216.208 77.6743C215.645 77.7263 215.201 77.9013 214.875 78.1992C214.549 78.4971 214.404 78.8426 214.44 79.2356C214.472 79.5755 214.598 79.8476 214.821 80.052C215.053 80.2448 215.329 80.3907 215.649 80.4897C215.968 80.5781 216.394 80.6725 216.928 80.7731C217.571 80.8852 218.085 81.0037 218.471 81.1286C218.858 81.2536 219.198 81.4578 219.492 81.7413C219.786 82.0248 219.962 82.4209 220.02 82.9298C220.063 83.3971 219.974 83.8285 219.754 84.2238C219.532 84.6084 219.203 84.9281 218.766 85.1827C218.329 85.4374 217.813 85.5922 217.218 85.6472ZM227.437 76.7489L227.937 82.1499C227.986 82.681 228.12 83.0381 228.341 83.2213C228.561 83.4044 228.926 83.4724 229.436 83.4253L230.456 83.3311L230.544 84.287L229.349 84.3974C228.563 84.4701 227.962 84.3435 227.547 84.0177C227.13 83.6813 226.883 83.0936 226.805 82.2545L226.306 76.8535L225.095 76.9654L225.008 76.0254L226.219 75.9135L226.018 73.7308L227.149 73.6262L227.35 75.8089L229.74 75.5881L229.827 76.5281L227.437 76.7489ZM236.203 83.8926C235.385 83.9681 234.63 83.8558 233.938 83.5555C233.256 83.2437 232.693 82.7708 232.249 82.137C231.814 81.4916 231.555 80.7175 231.472 79.8147C231.388 78.9119 231.507 78.1082 231.827 77.4037C232.147 76.6886 232.619 76.1201 233.244 75.6981C233.869 75.2655 234.59 75.0114 235.407 74.9358C236.225 74.8602 236.981 74.9778 237.674 75.2887C238.376 75.588 238.945 76.0604 239.379 76.7058C239.823 77.3396 240.087 78.1079 240.171 79.0107C240.253 79.9029 240.135 80.7066 239.815 81.4217C239.495 82.1368 239.018 82.7111 238.384 83.1447C237.748 83.5677 237.021 83.817 236.203 83.8926ZM236.113 82.9207C236.687 82.8677 237.206 82.6912 237.671 82.3911C238.135 82.0804 238.492 81.6511 238.741 81.1032C239 80.5436 239.094 79.8815 239.024 79.1167C238.953 78.352 238.745 77.7231 238.399 77.2302C238.053 76.7266 237.623 76.3699 237.111 76.1602C236.598 75.9398 236.055 75.8561 235.481 75.9091C234.908 75.9621 234.389 76.144 233.925 76.4547C233.46 76.7547 233.103 77.184 232.855 77.7426C232.616 78.2895 232.532 78.9454 232.603 79.7101C232.674 80.4749 232.877 81.1095 233.213 81.6141C233.558 82.1071 233.982 82.4642 234.485 82.6856C234.997 82.8953 235.54 82.9737 236.113 82.9207ZM249.686 74.6927L247.663 74.8797L248.38 82.6387L247.264 82.7417L246.547 74.9828L245.336 75.0947L245.25 74.1547L246.46 74.0428L246.404 73.4374C246.317 72.4921 246.492 71.7743 246.929 71.284C247.376 70.7928 248.141 70.4971 249.225 70.397L249.313 71.3529C248.591 71.4196 248.094 71.6048 247.822 71.9085C247.561 72.2111 247.46 72.6864 247.52 73.3343L247.576 73.9397L249.599 73.7527L249.686 74.6927ZM251.761 71.8979C251.538 71.9186 251.339 71.8566 251.165 71.712C250.991 71.5674 250.893 71.3782 250.872 71.1446C250.85 70.9109 250.912 70.7123 251.058 70.5489C251.202 70.3749 251.386 70.2775 251.609 70.2569C251.832 70.2363 252.031 70.2983 252.205 70.4429C252.378 70.5769 252.475 70.7607 252.497 70.9944C252.518 71.228 252.457 71.4319 252.312 71.6059C252.168 71.78 251.984 71.8773 251.761 71.8979ZM252.47 73.4874L253.274 82.1863L252.159 82.2894L251.355 73.5905L252.47 73.4874ZM256.532 74.06L257.031 79.461C257.08 79.9921 257.215 80.3492 257.436 80.5323C257.656 80.7155 258.021 80.7835 258.531 80.7364L259.551 80.6421L259.639 81.5981L258.444 81.7085C257.658 81.7811 257.057 81.6546 256.642 81.3288C256.225 80.9924 255.978 80.4046 255.9 79.5655L255.401 74.1646L254.19 74.2765L254.103 73.3365L255.314 73.2246L255.112 71.0419L256.244 70.9373L256.445 73.12L258.835 72.8991L258.922 73.8391L256.532 74.06ZM265.986 72.2382L268.309 79.4631L271.786 71.7023L272.949 71.5948L266.723 85.0729L265.544 85.1819L267.581 80.7998L264.744 72.3531L265.986 72.2382ZM277.571 80.0694C276.849 80.1361 276.198 80.0516 275.619 79.8159C275.04 79.5695 274.571 79.1951 274.214 78.6924C273.866 78.1782 273.659 77.56 273.593 76.8378C273.502 75.8606 273.642 74.9425 274.013 74.0834C274.382 73.2137 274.943 72.503 275.696 71.9515C276.447 71.3893 277.312 71.063 278.289 70.9727C279.011 70.9059 279.662 70.9957 280.242 71.2421C280.821 71.4778 281.289 71.8523 281.647 72.3655C282.004 72.8681 282.216 73.4806 282.283 74.2028C282.374 75.1906 282.229 76.1145 281.848 76.9746C281.467 77.8347 280.901 78.5458 280.149 79.108C279.408 79.6586 278.548 79.979 277.571 80.0694ZM277.611 79.1176C278.366 79.0479 279.021 78.7837 279.579 78.3252C280.147 77.8656 280.565 77.286 280.832 76.5864C281.11 75.8859 281.213 75.1479 281.142 74.3726C281.061 73.5016 280.745 72.8613 280.193 72.4517C279.652 72.0411 278.993 71.8717 278.218 71.9433C277.464 72.013 276.808 72.2772 276.25 72.7358C275.704 73.1934 275.296 73.772 275.029 74.4715C274.762 75.1711 274.664 75.9086 274.735 76.6839C274.815 77.5443 275.126 78.185 275.668 78.6063C276.21 79.0168 276.857 79.1873 277.611 79.1176ZM292.219 69.8138L291.493 78.6541L290.378 78.7572L290.508 77.2027C290.197 77.7777 289.767 78.2352 289.22 78.5749C288.673 78.9147 288.071 79.115 287.412 79.1759C286.52 79.2584 285.781 79.0856 285.195 78.6577C284.608 78.2192 284.272 77.5379 284.187 76.6139C284.155 76.274 284.153 75.9635 284.181 75.6824L284.603 70.5176L285.703 70.416L285.284 75.4519C285.264 75.7001 285.267 75.957 285.291 76.2225C285.356 76.9236 285.597 77.4423 286.014 77.7787C286.44 78.1035 286.998 78.234 287.689 78.1702C288.496 78.0956 289.169 77.787 289.708 77.2444C290.246 76.6912 290.572 75.9273 290.685 74.9528L291.104 69.9169L292.219 69.8138ZM295.29 71.0886C295.484 70.5243 295.817 70.0704 296.289 69.7269C296.772 69.3824 297.379 69.1762 298.112 69.1085L298.219 70.2715L297.917 70.2995C297.11 70.3741 296.482 70.6517 296.033 71.1324C295.585 71.613 295.408 72.3631 295.502 73.3828L295.951 78.2421L294.836 78.3452L294.032 69.6462L295.147 69.5432L295.29 71.0886ZM311.712 68.0122L312.516 76.7112L311.401 76.8142L311.26 75.2848C311.055 75.85 310.7 76.3006 310.196 76.6364C309.691 76.9723 309.109 77.1706 308.451 77.2315C307.41 77.3277 306.531 77.0876 305.813 76.5112C305.095 75.9241 304.679 75.0199 304.566 73.7984L304.097 68.7161L305.196 68.6145L305.654 73.5694C305.741 74.5147 306.042 75.2153 306.555 75.6713C307.079 76.1264 307.75 76.3161 308.568 76.2405C309.407 76.163 310.052 75.8356 310.502 75.2584C310.952 74.6812 311.13 73.8774 311.034 72.8471L310.597 68.1153L311.712 68.0122ZM318.322 67.2407C319.363 67.1445 320.243 67.3899 320.961 67.9769C321.679 68.5534 322.094 69.4523 322.207 70.6738L322.678 75.772L321.579 75.8736L321.119 70.9028C321.032 69.9575 320.726 69.2573 320.202 68.8023C319.689 68.3463 319.023 68.1561 318.205 68.2317C317.366 68.3092 316.721 68.6366 316.271 69.2138C315.821 69.791 315.644 70.5947 315.739 71.625L316.178 76.3728L315.062 76.4759L314.258 67.7769L315.374 67.6739L315.511 69.1555C315.738 68.599 316.099 68.1585 316.594 67.8343C317.088 67.4994 317.664 67.3015 318.322 67.2407ZM324.746 65.1526C324.523 65.1732 324.325 65.1112 324.151 64.9666C323.977 64.822 323.879 64.6329 323.857 64.3992C323.836 64.1656 323.898 63.967 324.043 63.8036C324.188 63.6295 324.372 63.5322 324.595 63.5116C324.818 63.491 325.016 63.553 325.19 63.6976C325.364 63.8315 325.461 64.0154 325.482 64.249C325.504 64.4827 325.443 64.6866 325.298 64.8606C325.153 65.0347 324.97 65.132 324.746 65.1526ZM325.456 66.7421L326.26 75.441L325.144 75.5441L324.341 66.8452L325.456 66.7421ZM327.872 70.8893C327.789 69.9971 327.898 69.1998 328.197 68.4972C328.495 67.7841 328.941 67.218 329.535 66.799C330.137 66.3683 330.837 66.1162 331.634 66.0426C332.452 65.967 333.181 66.0977 333.823 66.4347C334.464 66.7612 334.939 67.2047 335.248 67.7653L335.071 65.8534L336.186 65.7504L337.37 78.5598L336.255 78.6628L335.698 72.6405C335.497 73.2483 335.107 73.7771 334.527 74.227C333.957 74.6653 333.258 74.9228 332.43 74.9993C331.644 75.072 330.915 74.9519 330.243 74.639C329.582 74.3252 329.04 73.8451 328.616 73.1987C328.202 72.5513 327.954 71.7815 327.872 70.8893ZM335.473 70.2029C335.408 69.5019 335.208 68.8991 334.872 68.3945C334.536 67.89 334.105 67.5174 333.58 67.2767C333.065 67.0351 332.51 66.9418 331.915 66.9967C331.299 67.0537 330.759 67.2428 330.296 67.5641C329.833 67.8854 329.483 68.3249 329.245 68.8824C329.017 69.4284 328.936 70.0625 329.003 70.7848C329.069 71.4964 329.265 72.1103 329.591 72.6265C329.927 73.1311 330.352 73.5041 330.868 73.7458C331.382 73.9768 331.947 74.0638 332.563 74.0069C333.158 73.9519 333.686 73.7584 334.148 73.4265C334.621 73.0936 334.976 72.6484 335.214 72.0908C335.451 71.5332 335.538 70.9039 335.473 70.2029ZM346.268 64.8186L347.072 73.5175L345.957 73.6206L345.816 72.0911C345.611 72.6564 345.256 73.1069 344.751 73.4428C344.247 73.7786 343.665 73.977 343.007 74.0379C341.966 74.1341 341.087 73.8939 340.369 73.3175C339.651 72.7305 339.235 71.8262 339.122 70.6048L338.653 65.5224L339.752 65.4208L340.21 70.3757C340.297 71.321 340.598 72.0217 341.111 72.4777C341.635 72.9327 342.306 73.1224 343.124 73.0469C343.963 72.9693 344.608 72.6419 345.058 72.0647C345.508 71.4875 345.685 70.6838 345.59 69.6535L345.153 64.9217L346.268 64.8186ZM357.046 67.7593C357.081 68.1416 357.097 68.4347 357.095 68.6385L349.877 69.3055C349.97 69.9611 350.181 70.5093 350.511 70.9501C350.841 71.391 351.251 71.7119 351.741 71.913C352.23 72.1035 352.751 72.1732 353.303 72.1222C354.025 72.0554 354.615 71.8242 355.071 71.4286C355.538 71.0319 355.823 70.5288 355.928 69.9193L357.107 69.8104C356.973 70.6797 356.58 71.4176 355.929 72.0241C355.288 72.619 354.442 72.965 353.39 73.0622C352.572 73.1378 351.823 73.0249 351.141 72.7237C350.459 72.4118 349.901 71.9385 349.468 71.3037C349.044 70.6573 348.79 69.8827 348.706 68.9799C348.623 68.077 348.73 67.2691 349.029 66.5559C349.327 65.8428 349.784 65.2757 350.398 64.8547C351.013 64.4337 351.734 64.1849 352.563 64.1083C353.391 64.0318 354.13 64.1456 354.779 64.4498C355.439 64.753 355.963 65.1974 356.349 65.783C356.745 66.357 356.977 67.0158 357.046 67.7593ZM355.911 67.8319C355.862 67.1831 355.678 66.643 355.36 66.2118C355.052 65.7796 354.654 65.4683 354.165 65.2778C353.676 65.0873 353.155 65.0176 352.603 65.0687C351.775 65.1452 351.093 65.4761 350.558 66.0611C350.023 66.6462 349.768 67.4249 349.793 68.3974L355.911 67.8319ZM22.4873 120.789C22.7181 120.157 23.1132 119.622 23.6727 119.185C24.2428 118.747 24.9368 118.49 25.7546 118.414C26.5512 118.34 27.28 118.461 27.941 118.774C28.6011 119.078 29.1378 119.553 29.5511 120.2C29.9741 120.836 30.2268 121.6 30.3092 122.492C30.3917 123.384 30.2838 124.187 29.9855 124.9C29.6978 125.612 29.2525 126.184 28.6495 126.614C28.0572 127.044 27.3681 127.295 26.5821 127.368C25.7536 127.445 25.0195 127.325 24.3797 127.009C23.7496 126.682 23.2685 126.228 22.9364 125.648L23.1131 127.56L22.0137 127.662L20.9241 115.872L22.0235 115.77L22.4873 120.789ZM29.178 122.597C29.1113 121.875 28.9105 121.266 28.5756 120.773C28.2504 120.267 27.8307 119.899 27.3166 119.668C26.8025 119.437 26.2374 119.35 25.6214 119.407C25.0266 119.462 24.4928 119.655 24.0201 119.988C23.558 120.32 23.2081 120.765 22.9705 121.323C22.7328 121.88 22.6463 122.51 22.7111 123.211C22.7759 123.912 22.9762 124.514 23.3121 125.019C23.6479 125.523 24.0734 125.897 24.5885 126.138C25.1142 126.379 25.6744 126.472 26.2692 126.417C26.8853 126.36 27.4248 126.171 27.8879 125.849C28.35 125.517 28.6946 125.073 28.9216 124.517C29.1583 123.948 29.2438 123.308 29.178 122.597ZM39.4967 117.273L40.3007 125.972L39.1854 126.075L39.0441 124.545C38.8392 125.11 38.4845 125.561 37.98 125.897C37.4754 126.233 36.8939 126.431 36.2353 126.492C35.1944 126.588 34.3153 126.348 33.5978 125.772C32.8794 125.184 32.4638 124.28 32.3509 123.059L31.8812 117.976L32.9805 117.875L33.4384 122.83C33.5258 123.775 33.8262 124.476 34.3397 124.932C34.8638 125.387 35.5348 125.576 36.3526 125.501C37.1917 125.423 37.8363 125.096 38.2864 124.519C38.7366 123.942 38.914 123.138 38.8188 122.108L38.3815 117.376L39.4967 117.273ZM45.8539 125.587C44.8554 125.679 44.0165 125.526 43.337 125.129C42.6671 124.719 42.2582 124.12 42.1103 123.33L43.2574 123.224C43.3556 123.707 43.6208 124.085 44.0529 124.355C44.4946 124.614 45.0607 124.712 45.751 124.648C46.3565 124.592 46.8159 124.405 47.1293 124.087C47.4533 123.768 47.5956 123.396 47.5564 122.971C47.5289 122.674 47.4107 122.438 47.2018 122.265C46.993 122.091 46.735 121.965 46.4277 121.886C46.1302 121.796 45.7259 121.71 45.2149 121.629C44.5513 121.519 44.0098 121.397 43.5905 121.265C43.1712 121.132 42.8029 120.914 42.4857 120.612C42.1781 120.297 41.9983 119.859 41.9463 119.296C41.9071 118.871 41.9982 118.466 42.2197 118.081C42.4413 117.697 42.7759 117.377 43.2236 117.121C43.6713 116.865 44.1926 116.71 44.7874 116.655C45.722 116.569 46.4983 116.738 47.116 117.163C47.7327 117.577 48.1006 118.197 48.2197 119.021L47.1044 119.124C47.0255 118.617 46.7859 118.227 46.3856 117.954C45.9951 117.668 45.4811 117.555 44.8438 117.614C44.2809 117.666 43.8365 117.841 43.5105 118.139C43.1845 118.437 43.0397 118.782 43.076 119.175C43.1074 119.515 43.2344 119.787 43.4568 119.992C43.6888 120.185 43.9648 120.33 44.2846 120.429C44.6034 120.518 45.0299 120.612 45.5641 120.713C46.2065 120.825 46.7209 120.943 47.1073 121.068C47.4938 121.193 47.8341 121.398 48.1281 121.681C48.4221 121.964 48.5979 122.361 48.6557 122.869C48.6989 123.337 48.6102 123.768 48.3896 124.163C48.1681 124.548 47.8388 124.868 47.4017 125.122C46.9646 125.377 46.4487 125.532 45.8539 125.587ZM50.5705 114.594C50.3474 114.615 50.1489 114.553 49.9748 114.408C49.8008 114.264 49.703 114.074 49.6814 113.841C49.6598 113.607 49.7218 113.409 49.8674 113.245C50.012 113.071 50.1958 112.974 50.4188 112.953C50.6419 112.933 50.8404 112.995 51.0145 113.139C51.1875 113.273 51.2849 113.457 51.3065 113.691C51.3281 113.924 51.2666 114.128 51.122 114.302C50.9774 114.476 50.7935 114.574 50.5705 114.594ZM51.2798 116.184L52.0837 124.883L50.9685 124.986L50.1645 116.287L51.2798 116.184ZM57.8692 115.414C58.9101 115.318 59.7897 115.563 60.5081 116.15C61.2255 116.727 61.6407 117.626 61.7536 118.847L62.2248 123.945L61.1254 124.047L60.666 119.076C60.5787 118.131 60.2729 117.431 59.7488 116.976C59.2354 116.52 58.5697 116.329 57.7519 116.405C56.9128 116.483 56.2682 116.81 55.818 117.387C55.3679 117.964 55.1905 118.768 55.2857 119.798L55.7245 124.546L54.6092 124.649L53.8053 115.95L54.9205 115.847L55.0574 117.329C55.2845 116.772 55.6455 116.332 56.1404 116.008C56.6344 115.673 57.2106 115.475 57.8692 115.414ZM72.1185 118.194C72.1538 118.577 72.1702 118.87 72.1676 119.074L64.9504 119.741C65.0431 120.396 65.2545 120.944 65.5844 121.385C65.9144 121.826 66.3243 122.147 66.8143 122.348C67.3032 122.539 67.8238 122.608 68.3761 122.557C69.0984 122.491 69.6876 122.259 70.1438 121.864C70.6106 121.467 70.8962 120.964 71.0005 120.354L72.1795 120.246C72.0456 121.115 71.6532 121.853 71.0022 122.459C70.3609 123.054 69.5145 123.4 68.463 123.497C67.6452 123.573 66.8956 123.46 66.2143 123.159C65.532 122.847 64.9741 122.374 64.5405 121.739C64.1166 121.092 63.8629 120.318 63.7794 119.415C63.696 118.512 63.8034 117.704 64.1017 116.991C64.4 116.278 64.8565 115.711 65.471 115.29C66.0855 114.869 66.807 114.62 67.6355 114.543C68.464 114.467 69.2029 114.581 69.8523 114.885C70.5124 115.188 71.0355 115.633 71.4217 116.218C71.8175 116.792 72.0498 117.451 72.1185 118.194ZM70.9844 118.267C70.9351 117.618 70.7513 117.078 70.4329 116.647C70.1252 116.215 69.7269 115.903 69.2379 115.713C68.749 115.523 68.2284 115.453 67.676 115.504C66.8476 115.58 66.1658 115.911 65.6307 116.496C65.0956 117.081 64.8409 117.86 64.8665 118.833L70.9844 118.267ZM77.6092 122.652C76.6107 122.744 75.7718 122.592 75.0923 122.194C74.4224 121.784 74.0135 121.185 73.8656 120.395L75.0127 120.289C75.1109 120.773 75.3761 121.15 75.8082 121.421C76.2499 121.68 76.816 121.777 77.5063 121.714C78.1118 121.658 78.5712 121.471 78.8845 121.152C79.2085 120.833 79.3509 120.461 79.3117 120.036C79.2842 119.739 79.166 119.503 78.9571 119.33C78.7483 119.156 78.4903 119.03 78.183 118.952C77.8855 118.861 77.4812 118.775 76.9702 118.694C76.3066 118.584 75.7651 118.463 75.3458 118.33C74.9265 118.197 74.5582 117.98 74.241 117.677C73.9334 117.363 73.7536 116.924 73.7016 116.361C73.6624 115.936 73.7535 115.531 73.975 115.147C74.1966 114.762 74.5312 114.442 74.9789 114.186C75.4266 113.931 75.9479 113.775 76.5427 113.72C77.4773 113.634 78.2535 113.803 78.8713 114.228C79.488 114.642 79.8559 115.262 79.975 116.086L78.8597 116.19C78.7807 115.683 78.5411 115.292 78.1409 115.019C77.7504 114.733 77.2364 114.62 76.5991 114.679C76.0362 114.731 75.5918 114.906 75.2658 115.204C74.9398 115.502 74.795 115.847 74.8313 116.24C74.8627 116.58 74.9897 116.853 75.2121 117.057C75.4441 117.25 75.7201 117.396 76.0399 117.495C76.3587 117.583 76.7852 117.677 77.3194 117.778C77.9617 117.89 78.4762 118.009 78.8626 118.134C79.2491 118.258 79.5894 118.463 79.8834 118.746C80.1774 119.03 80.3532 119.426 80.411 119.935C80.4542 120.402 80.3655 120.833 80.1449 121.229C79.9234 121.613 79.5941 121.933 79.157 122.188C78.7199 122.442 78.2039 122.597 77.6092 122.652ZM85.7308 121.901C84.7324 121.994 83.8934 121.841 83.2139 121.443C82.5441 121.034 82.1352 120.434 81.9872 119.644L83.1343 119.538C83.2326 120.022 83.4977 120.399 83.9298 120.67C84.3715 120.929 84.9376 121.027 85.628 120.963C86.2334 120.907 86.6928 120.72 87.0062 120.402C87.3302 120.083 87.4726 119.711 87.4333 119.286C87.4058 118.988 87.2876 118.753 87.0788 118.579C86.8699 118.406 86.6119 118.28 86.3047 118.201C86.0071 118.111 85.6028 118.025 85.0918 117.943C84.4282 117.833 83.8868 117.712 83.4674 117.579C83.0481 117.447 82.6799 117.229 82.3626 116.926C82.0551 116.612 81.8753 116.173 81.8233 115.61C81.784 115.185 81.8751 114.781 82.0967 114.396C82.3182 114.011 82.6528 113.691 83.1005 113.436C83.5482 113.18 84.0695 113.025 84.6643 112.97C85.599 112.883 86.3752 113.053 86.9929 113.478C87.6097 113.892 87.9776 114.511 88.0966 115.336L86.9814 115.439C86.9024 114.932 86.6628 114.542 86.2626 114.268C85.872 113.983 85.3581 113.87 84.7208 113.929C84.1578 113.981 83.7134 114.156 83.3874 114.453C83.0615 114.751 82.9166 115.097 82.953 115.49C82.9844 115.83 83.1113 116.102 83.3337 116.306C83.5658 116.499 83.8417 116.645 84.1615 116.744C84.4803 116.832 84.9068 116.927 85.441 117.027C86.0834 117.139 86.5978 117.258 86.9843 117.383C87.3708 117.508 87.711 117.712 88.005 117.996C88.299 118.279 88.4749 118.675 88.5326 119.184C88.5758 119.651 88.4871 120.083 88.2666 120.478C88.045 120.863 87.7157 121.182 87.2786 121.437C86.8415 121.692 86.3256 121.846 85.7308 121.901ZM98.4773 111.661C99.5182 111.565 100.398 111.81 101.116 112.397C101.834 112.974 102.249 113.873 102.362 115.094L102.833 120.192L101.734 120.294L101.274 115.323C101.187 114.378 100.881 113.678 100.357 113.223C99.8436 112.767 99.1779 112.576 98.36 112.652C97.521 112.73 96.8764 113.057 96.4262 113.634C95.9761 114.211 95.7986 115.015 95.8939 116.045L96.3327 120.793L95.2174 120.896L94.4135 112.197L95.5287 112.094L95.6656 113.576C95.8927 113.019 96.2537 112.579 96.7486 112.255C97.2426 111.92 97.8188 111.722 98.4773 111.661ZM112.727 114.441C112.762 114.824 112.778 115.117 112.776 115.321L105.559 115.988C105.651 116.643 105.863 117.191 106.193 117.632C106.523 118.073 106.933 118.394 107.422 118.595C107.911 118.786 108.432 118.855 108.984 118.804C109.707 118.738 110.296 118.506 110.752 118.111C111.219 117.714 111.504 117.211 111.609 116.601L112.788 116.493C112.654 117.362 112.261 118.1 111.61 118.706C110.969 119.301 110.123 119.647 109.071 119.744C108.253 119.82 107.504 119.707 106.823 119.406C106.14 119.094 105.582 118.621 105.149 117.986C104.725 117.339 104.471 116.565 104.388 115.662C104.304 114.759 104.412 113.951 104.71 113.238C105.008 112.525 105.465 111.958 106.079 111.537C106.694 111.116 107.415 110.867 108.244 110.79C109.072 110.714 109.811 110.828 110.461 111.132C111.121 111.435 111.644 111.88 112.03 112.465C112.426 113.039 112.658 113.698 112.727 114.441ZM111.593 114.514C111.543 113.865 111.36 113.325 111.041 112.894C110.733 112.462 110.335 112.15 109.846 111.96C109.357 111.77 108.837 111.7 108.284 111.751C107.456 111.827 106.774 112.158 106.239 112.743C105.704 113.328 105.449 114.107 105.475 115.08L111.593 114.514ZM122.638 113.525C122.673 113.908 122.689 114.201 122.687 114.405L115.469 115.072C115.562 115.727 115.774 116.275 116.104 116.716C116.433 117.157 116.843 117.478 117.333 117.679C117.822 117.87 118.343 117.939 118.895 117.888C119.617 117.822 120.207 117.59 120.663 117.195C121.13 116.798 121.415 116.295 121.52 115.686L122.699 115.577C122.565 116.446 122.172 117.184 121.521 117.79C120.88 118.385 120.034 118.731 118.982 118.828C118.164 118.904 117.415 118.791 116.733 118.49C116.051 118.178 115.493 117.705 115.06 117.07C114.636 116.423 114.382 115.649 114.299 114.746C114.215 113.843 114.323 113.035 114.621 112.322C114.919 111.609 115.376 111.042 115.99 110.621C116.605 110.2 117.326 109.951 118.155 109.875C118.983 109.798 119.722 109.912 120.371 110.216C121.031 110.519 121.555 110.964 121.941 111.549C122.337 112.123 122.569 112.782 122.638 113.525ZM121.503 113.598C121.454 112.949 121.27 112.409 120.952 111.978C120.644 111.546 120.246 111.235 119.757 111.044C119.268 110.854 118.747 110.784 118.195 110.835C117.367 110.911 116.685 111.242 116.15 111.827C115.615 112.412 115.36 113.191 115.386 114.164L121.503 113.598ZM124.208 113.814C124.125 112.922 124.234 112.125 124.533 111.422C124.831 110.709 125.277 110.143 125.871 109.724C126.473 109.293 127.173 109.041 127.97 108.967C128.735 108.897 129.442 109.019 130.093 109.334C130.743 109.648 131.239 110.09 131.581 110.658L131.121 105.687L132.237 105.584L133.326 117.374L132.211 117.477L132.031 115.533C131.822 116.163 131.432 116.703 130.863 117.152C130.293 117.59 129.599 117.847 128.781 117.923C127.985 117.996 127.251 117.877 126.579 117.564C125.918 117.25 125.376 116.77 124.952 116.124C124.538 115.476 124.29 114.706 124.208 113.814ZM131.809 113.128C131.744 112.427 131.544 111.824 131.208 111.319C130.872 110.815 130.441 110.442 129.916 110.202C129.401 109.96 128.846 109.867 128.251 109.922C127.635 109.979 127.095 110.168 126.632 110.489C126.169 110.81 125.819 111.25 125.581 111.807C125.353 112.353 125.272 112.987 125.339 113.71C125.405 114.421 125.601 115.035 125.927 115.551C126.263 116.056 126.688 116.429 127.204 116.671C127.718 116.902 128.283 116.989 128.899 116.932C129.494 116.877 130.022 116.683 130.484 116.351C130.957 116.018 131.312 115.573 131.55 115.016C131.787 114.458 131.874 113.829 131.809 113.128ZM138.879 116.989C137.881 117.082 137.042 116.929 136.362 116.531C135.693 116.122 135.284 115.522 135.136 114.732L136.283 114.626C136.381 115.11 136.646 115.487 137.078 115.758C137.52 116.017 138.086 116.115 138.776 116.051C139.382 115.995 139.841 115.808 140.155 115.49C140.479 115.171 140.621 114.799 140.582 114.374C140.554 114.076 140.436 113.841 140.227 113.667C140.018 113.494 139.76 113.368 139.453 113.289C139.156 113.199 138.751 113.113 138.24 113.031C137.577 112.921 137.035 112.8 136.616 112.667C136.197 112.535 135.828 112.317 135.511 112.014C135.204 111.7 135.024 111.261 134.972 110.698C134.932 110.274 135.024 109.869 135.245 109.484C135.467 109.099 135.801 108.779 136.249 108.524C136.697 108.268 137.218 108.113 137.813 108.058C138.747 107.971 139.524 108.141 140.141 108.566C140.758 108.98 141.126 109.599 141.245 110.424L140.13 110.527C140.051 110.02 139.811 109.63 139.411 109.356C139.02 109.071 138.507 108.958 137.869 109.017C137.306 109.069 136.862 109.244 136.536 109.542C136.21 109.839 136.065 110.185 136.101 110.578C136.133 110.918 136.26 111.19 136.482 111.394C136.714 111.587 136.99 111.733 137.31 111.832C137.629 111.92 138.055 112.015 138.59 112.115C139.232 112.227 139.746 112.346 140.133 112.471C140.519 112.596 140.859 112.8 141.153 113.084C141.447 113.367 141.623 113.763 141.681 114.272C141.724 114.739 141.636 115.171 141.415 115.566C141.194 115.951 140.864 116.27 140.427 116.525C139.99 116.78 139.474 116.935 138.879 116.989ZM147.453 111.666C147.37 110.774 147.473 109.977 147.762 109.275C148.06 108.562 148.506 107.996 149.099 107.577C149.702 107.146 150.402 106.894 151.199 106.821C152.027 106.744 152.756 106.869 153.387 107.197C154.027 107.523 154.508 107.972 154.828 108.542L154.652 106.63L155.767 106.527L156.571 115.226L155.456 115.329L155.278 113.401C155.056 114.021 154.661 114.556 154.092 115.005C153.533 115.442 152.839 115.699 152.01 115.776C151.224 115.849 150.495 115.728 149.824 115.416C149.163 115.102 148.62 114.622 148.196 113.975C147.783 113.328 147.535 112.558 147.453 111.666ZM155.054 110.979C154.989 110.278 154.789 109.676 154.453 109.171C154.117 108.667 153.686 108.294 153.16 108.053C152.645 107.812 152.09 107.718 151.496 107.773C150.88 107.83 150.34 108.019 149.877 108.341C149.414 108.662 149.063 109.101 148.826 109.659C148.598 110.205 148.517 110.839 148.584 111.561C148.65 112.273 148.846 112.887 149.172 113.403C149.508 113.908 149.933 114.281 150.448 114.522C150.962 114.753 151.527 114.84 152.143 114.783C152.738 114.728 153.267 114.535 153.729 114.203C154.201 113.87 154.557 113.425 154.794 112.867C155.032 112.31 155.119 111.68 155.054 110.979ZM162.377 105.755C163.418 105.659 164.297 105.905 165.016 106.492C165.733 107.068 166.148 107.967 166.261 109.188L166.733 114.287L165.633 114.388L165.174 109.418C165.086 108.472 164.781 107.772 164.257 107.317C163.743 106.861 163.077 106.671 162.26 106.746C161.421 106.824 160.776 107.151 160.326 107.729C159.876 108.306 159.698 109.109 159.793 110.14L160.232 114.888L159.117 114.991L158.313 106.292L159.428 106.189L159.565 107.67C159.792 107.114 160.153 106.673 160.648 106.349C161.142 106.014 161.718 105.816 162.377 105.755ZM168.286 109.741C168.203 108.848 168.312 108.051 168.611 107.348C168.909 106.635 169.355 106.069 169.948 105.65C170.551 105.22 171.251 104.967 172.048 104.894C172.812 104.823 173.52 104.945 174.17 105.26C174.821 105.575 175.317 106.016 175.659 106.585L175.199 101.614L176.314 101.511L177.404 113.3L176.289 113.404L176.109 111.46C175.9 112.09 175.51 112.629 174.941 113.078C174.371 113.517 173.677 113.773 172.859 113.849C172.063 113.923 171.329 113.803 170.657 113.49C169.996 113.176 169.453 112.696 169.029 112.05C168.616 111.403 168.368 110.633 168.286 109.741ZM175.887 109.054C175.822 108.353 175.622 107.75 175.286 107.246C174.95 106.741 174.519 106.369 173.993 106.128C173.478 105.886 172.923 105.793 172.329 105.848C171.713 105.905 171.173 106.094 170.71 106.415C170.247 106.737 169.897 107.176 169.659 107.734C169.431 108.28 169.35 108.914 169.417 109.636C169.483 110.348 169.679 110.962 170.005 111.478C170.341 111.982 170.766 112.355 171.281 112.597C171.795 112.828 172.36 112.915 172.977 112.858C173.571 112.803 174.1 112.61 174.562 112.278C175.035 111.945 175.39 111.5 175.627 110.942C175.865 110.384 175.952 109.755 175.887 109.054ZM187.155 103.498C187.973 103.422 188.702 103.547 189.343 103.874C189.983 104.2 190.464 104.643 190.783 105.203L190.608 103.307L191.723 103.204L192.548 112.126C192.621 112.922 192.511 113.645 192.218 114.293C191.935 114.941 191.501 115.458 190.915 115.844C190.33 116.241 189.645 116.475 188.859 116.548C187.744 116.651 186.79 116.472 185.997 116.009C185.215 115.546 184.692 114.866 184.427 113.969L185.526 113.867C185.773 114.455 186.179 114.905 186.744 115.217C187.319 115.528 187.994 115.648 188.769 115.576C189.332 115.524 189.825 115.355 190.249 115.07C190.673 114.795 190.991 114.412 191.203 113.921C191.415 113.43 191.491 112.866 191.432 112.229L191.234 110.078C191.012 110.698 190.617 111.233 190.048 111.682C189.489 112.119 188.8 112.376 187.982 112.451C187.186 112.525 186.452 112.405 185.78 112.093C185.119 111.779 184.576 111.299 184.152 110.652C183.739 110.005 183.491 109.235 183.409 108.343C183.326 107.451 183.429 106.654 183.718 105.952C184.016 105.239 184.462 104.673 185.055 104.254C185.658 103.823 186.358 103.571 187.155 103.498ZM191.01 107.656C190.945 106.955 190.745 106.353 190.409 105.848C190.073 105.343 189.642 104.971 189.117 104.73C188.601 104.489 188.047 104.395 187.452 104.45C186.836 104.507 186.296 104.696 185.833 105.018C185.37 105.339 185.02 105.778 184.782 106.336C184.554 106.882 184.473 107.516 184.54 108.238C184.606 108.95 184.802 109.564 185.128 110.08C185.464 110.585 185.889 110.958 186.404 111.199C186.918 111.43 187.484 111.517 188.1 111.46C188.694 111.405 189.223 111.212 189.685 110.88C190.158 110.547 190.513 110.102 190.75 109.544C190.988 108.987 191.075 108.357 191.01 107.656ZM198.893 111.443C198.075 111.519 197.32 111.406 196.628 111.106C195.946 110.794 195.383 110.321 194.938 109.688C194.504 109.042 194.245 108.268 194.161 107.365C194.078 106.462 194.196 105.659 194.517 104.954C194.836 104.239 195.309 103.671 195.934 103.249C196.558 102.816 197.279 102.562 198.097 102.486C198.915 102.411 199.67 102.528 200.363 102.839C201.066 103.139 201.634 103.611 202.069 104.256C202.513 104.89 202.777 105.658 202.86 106.561C202.943 107.453 202.824 108.257 202.505 108.972C202.185 109.687 201.708 110.262 201.073 110.695C200.437 111.118 199.711 111.367 198.893 111.443ZM198.803 110.471C199.376 110.418 199.896 110.242 200.361 109.942C200.825 109.631 201.181 109.202 201.431 108.654C201.69 108.094 201.784 107.432 201.713 106.667C201.642 105.902 201.434 105.274 201.089 104.781C200.742 104.277 200.313 103.92 199.801 103.711C199.288 103.49 198.744 103.407 198.171 103.46C197.597 103.513 197.079 103.694 196.614 104.005C196.149 104.305 195.793 104.735 195.544 105.293C195.306 105.84 195.222 106.496 195.292 107.261C195.363 108.025 195.566 108.66 195.902 109.165C196.248 109.658 196.672 110.015 197.174 110.236C197.686 110.446 198.229 110.524 198.803 110.471ZM204.382 106.405C204.299 105.512 204.403 104.715 204.691 104.014C204.99 103.301 205.435 102.735 206.029 102.316C206.632 101.885 207.331 101.633 208.128 101.559C208.956 101.483 209.686 101.608 210.316 101.935C210.957 102.262 211.437 102.71 211.758 103.28L211.581 101.369L212.696 101.266L213.5 109.964L212.385 110.068L212.207 108.14C211.986 108.76 211.59 109.295 211.021 109.744C210.462 110.181 209.768 110.438 208.939 110.515C208.153 110.587 207.425 110.467 206.753 110.154C206.092 109.84 205.55 109.36 205.126 108.714C204.712 108.067 204.464 107.297 204.382 106.405ZM211.983 105.718C211.918 105.017 211.718 104.414 211.382 103.91C211.046 103.405 210.615 103.033 210.09 102.792C209.575 102.55 209.02 102.457 208.425 102.512C207.809 102.569 207.269 102.758 206.806 103.079C206.343 103.401 205.993 103.84 205.755 104.398C205.527 104.944 205.446 105.578 205.513 106.3C205.579 107.012 205.775 107.626 206.101 108.142C206.437 108.646 206.862 109.019 207.377 109.261C207.892 109.492 208.457 109.579 209.073 109.522C209.667 109.467 210.196 109.274 210.658 108.942C211.131 108.609 211.486 108.164 211.724 107.606C211.961 107.048 212.048 106.419 211.983 105.718ZM216.072 97.8364L217.161 109.626L216.046 109.729L214.957 97.9394L216.072 97.8364ZM222.694 109.243C221.696 109.336 220.857 109.183 220.177 108.785C219.507 108.376 219.098 107.776 218.95 106.986L220.097 106.88C220.196 107.364 220.461 107.741 220.893 108.012C221.335 108.271 221.901 108.369 222.591 108.305C223.197 108.249 223.656 108.062 223.969 107.744C224.293 107.424 224.436 107.052 224.396 106.628C224.369 106.33 224.251 106.095 224.042 105.921C223.833 105.748 223.575 105.622 223.268 105.543C222.97 105.453 222.566 105.367 222.055 105.285C221.391 105.175 220.85 105.054 220.431 104.921C220.011 104.789 219.643 104.571 219.326 104.268C219.018 103.954 218.838 103.515 218.786 102.952C218.747 102.527 218.838 102.123 219.06 101.738C219.281 101.353 219.616 101.033 220.064 100.777C220.511 100.522 221.033 100.367 221.627 100.312C222.562 100.225 223.338 100.394 223.956 100.819C224.573 101.234 224.941 101.853 225.06 102.678L223.945 102.781C223.866 102.274 223.626 101.884 223.226 101.61C222.835 101.325 222.321 101.212 221.684 101.27C221.121 101.322 220.677 101.497 220.351 101.795C220.025 102.093 219.88 102.439 219.916 102.832C219.948 103.172 220.074 103.444 220.297 103.648C220.529 103.841 220.805 103.987 221.125 104.086C221.444 104.174 221.87 104.269 222.404 104.369C223.047 104.481 223.561 104.6 223.947 104.725C224.334 104.85 224.674 105.054 224.968 105.337C225.262 105.621 225.438 106.017 225.496 106.526C225.539 106.993 225.45 107.425 225.23 107.82C225.008 108.205 224.679 108.524 224.242 108.779C223.805 109.034 223.289 109.188 222.694 109.243ZM228.007 108.704C227.773 108.726 227.57 108.664 227.396 108.52C227.232 108.374 227.14 108.184 227.118 107.951C227.096 107.717 227.153 107.519 227.288 107.357C227.433 107.183 227.622 107.085 227.855 107.063C228.079 107.042 228.272 107.105 228.435 107.251C228.608 107.385 228.706 107.568 228.727 107.802C228.749 108.036 228.687 108.24 228.543 108.414C228.409 108.587 228.23 108.683 228.007 108.704Z" fill="#00040E" fill-opacity="0.85"/>
<path d="M15.849 63.4565C15.6594 61.4052 15.9481 59.5307 16.7151 57.8329C17.5002 56.1133 18.6479 54.7318 20.1583 53.6884C21.6868 52.6232 23.4468 51.9986 25.4383 51.8146C27.7683 51.5992 29.8649 52.008 31.7278 53.041C33.5908 54.0739 34.9683 55.6137 35.8605 57.6602L31.051 58.1047C30.481 57.1532 29.7348 56.4689 28.8126 56.052C27.9102 55.6333 26.8914 55.4764 25.7563 55.5813C24.5414 55.6936 23.4828 56.0826 22.5802 56.7485C21.6957 57.3927 21.0325 58.2574 20.5905 59.3426C20.1684 60.4261 20.0218 61.6648 20.1506 63.0589C20.2776 64.433 20.6488 65.6239 21.2641 66.6316C21.8975 67.6175 22.709 68.3559 23.6983 68.847C24.7058 69.3162 25.8169 69.4947 27.0318 69.3825C28.1669 69.2776 29.1397 68.9366 29.95 68.3596C30.7784 67.7608 31.3856 66.9414 31.7715 65.9015L36.581 65.457C36.0809 67.6524 35.0099 69.4285 33.3678 70.7853C31.7437 72.1205 29.7567 72.8966 27.4067 73.1138C25.4152 73.2979 23.5715 73.0163 21.8755 72.2692C20.1977 71.5004 18.8162 70.3526 17.7311 68.826C16.6659 67.2976 16.0385 65.5077 15.849 63.4565ZM54.8545 53.7055L56.384 70.255L52.1719 70.6442L51.9787 68.5532C51.5072 69.3198 50.8527 69.9527 50.0151 70.4519C49.1955 70.9294 48.2779 71.215 47.2622 71.3089C45.9678 71.4285 44.7978 71.2655 43.7523 70.8198C42.705 70.3542 41.8439 69.6204 41.1688 68.6182C40.5118 67.5944 40.1151 66.3456 39.9789 64.8718L39.0817 55.1632L43.2639 54.7767L44.1059 63.8879C44.2274 65.2023 44.6499 66.1876 45.3733 66.8438C46.0949 67.4801 47.0233 67.7458 48.1585 67.6408C49.3136 67.5341 50.1875 67.1018 50.7803 66.3441C51.3712 65.5664 51.6059 64.5203 51.4845 63.2059L50.6424 54.0948L54.8545 53.7055ZM66.8682 69.5572C65.514 69.6823 64.2771 69.5556 63.1575 69.177C62.0361 68.7785 61.118 68.1905 60.4035 67.413C59.7088 66.6336 59.2846 65.7389 59.131 64.7287L63.3431 64.3394C63.4816 64.9694 63.8391 65.4686 64.4155 65.8371C65.0117 66.2038 65.7181 66.3494 66.5347 66.2739C67.3313 66.2003 67.9339 65.9839 68.3426 65.6248C68.7712 65.2638 68.9625 64.8344 68.9165 64.3365C68.8668 63.7988 68.5511 63.4263 67.9696 63.2189C67.4061 62.9898 66.5122 62.7711 65.2878 62.5629C64.0255 62.3783 62.9813 62.1635 62.1552 61.9185C61.3491 61.6716 60.6269 61.2463 59.9886 60.6424C59.3703 60.0368 59.0095 59.1763 58.9065 58.0611C58.8218 57.145 59.0034 56.2846 59.4513 55.48C59.919 54.6735 60.6206 54.0061 61.5559 53.4778C62.5112 52.9476 63.656 52.6209 64.9903 52.4976C66.9619 52.3154 68.5812 52.6678 69.8482 53.555C71.1134 54.4223 71.883 55.6868 72.1571 57.3486L68.1542 57.7186C68.0337 57.0669 67.707 56.5749 67.1742 56.2425C66.6594 55.8884 65.9938 55.749 65.1773 55.8245C64.4205 55.8944 63.8459 56.0881 63.4534 56.4056C63.0809 56.7212 62.9176 57.128 62.9636 57.6259C63.0152 58.1835 63.3336 58.5859 63.9188 58.8331C64.5022 59.0604 65.3952 59.2691 66.5978 59.4592C67.8203 59.6475 68.8346 59.8651 69.6408 60.1119C70.4469 60.3588 71.1601 60.795 71.7803 61.4206C72.4185 62.0244 72.7983 62.8731 72.9194 63.9666C73.0078 64.9225 72.818 65.8037 72.3503 66.6102C71.9024 67.4148 71.2009 68.0822 70.2456 68.6123C69.3084 69.1207 68.1826 69.4357 66.8682 69.5572ZM80.4459 54.805L81.1858 62.8109C81.2373 63.3685 81.4045 63.7648 81.6873 63.9998C81.9882 64.213 82.4573 64.2902 83.0946 64.2313L85.0363 64.0518L85.3621 67.5768L82.7333 67.8198C79.2083 68.1455 77.2876 66.5957 76.971 63.1703L76.2338 55.1943L74.2622 55.3765L73.9447 51.9412L75.9163 51.759L75.5381 47.6664L79.7502 47.2771L80.1284 51.3697L83.8326 51.0273L84.1501 54.4627L80.4459 54.805ZM95.7437 66.8885C94.1505 67.0357 92.6844 66.8197 91.3454 66.2405C90.0045 65.6414 88.9059 64.7286 88.0494 63.5022C87.2128 62.274 86.7163 60.8135 86.5599 59.1207C86.4034 57.4279 86.6338 55.9002 87.251 54.5376C87.8882 53.1732 88.8218 52.0827 90.0518 51.266C91.28 50.4294 92.6908 49.9375 94.284 49.7903C95.8772 49.643 97.3542 49.8681 98.7149 50.4654C100.074 51.0428 101.182 51.9447 102.038 53.171C102.914 54.3956 103.431 55.8542 103.587 57.547C103.744 59.2398 103.493 60.7693 102.836 62.1356C102.199 63.5 101.257 64.6015 100.008 65.4399C98.7784 66.2565 97.3568 66.7394 95.7437 66.8885ZM95.4069 63.244C96.1636 63.1741 96.8541 62.9295 97.4781 62.5103C98.1203 62.0693 98.6064 61.462 98.9366 60.6883C99.2668 59.9147 99.3832 59.0001 99.2856 57.9446C99.1402 56.3713 98.6106 55.2051 97.6969 54.4459C96.8012 53.6651 95.756 53.3298 94.561 53.4403C93.3661 53.5507 92.4 54.0718 91.6626 55.0036C90.9433 55.9137 90.6564 57.1554 90.8018 58.7287C90.9472 60.302 91.4478 61.4809 92.3036 62.2655C93.1775 63.0283 94.2119 63.3545 95.4069 63.244ZM126.421 46.8503C128.452 46.6626 130.143 47.139 131.494 48.2795C132.862 49.3983 133.65 51.073 133.856 53.3035L134.753 63.0121L130.571 63.3986L129.726 54.2576C129.607 52.9631 129.187 52.0076 128.467 51.3913C127.746 50.755 126.817 50.4893 125.682 50.5942C124.547 50.6991 123.673 51.1314 123.06 51.891C122.466 52.6288 122.228 53.645 122.348 54.9395L123.193 64.0805L119.01 64.467L118.166 55.326C118.046 54.0315 117.626 53.0761 116.906 52.4597C116.185 51.8234 115.256 51.5577 114.121 51.6626C112.966 51.7694 112.082 52.2026 111.47 52.9622C110.875 53.7 110.638 54.7162 110.757 56.0107L111.602 65.1517L107.42 65.5382L105.89 48.9888L110.073 48.6023L110.257 50.6037C110.731 49.857 111.367 49.2458 112.167 48.7702C112.986 48.2928 113.904 48.0071 114.92 47.9133C116.214 47.7936 117.395 47.9657 118.462 48.4294C119.528 48.8733 120.386 49.5773 121.037 50.5414C121.487 49.5358 122.193 48.6973 123.155 48.0259C124.137 47.3526 125.226 46.9608 126.421 46.8503ZM171.784 38.5605L167.886 59.95L162.957 60.4055L157.672 45.9204L154.951 61.1454L150.055 61.628L142.509 41.2661L146.99 40.8519L152.161 56.7034L154.906 40.1203L159.566 39.6896L165.057 55.4211L167.273 38.9773L171.784 38.5605ZM191.029 49.1042C191.084 49.7016 191.094 50.243 191.058 50.7284L178.96 51.8465C179.17 53.0322 179.675 53.9296 180.474 54.5386C181.273 55.1476 182.211 55.4024 183.286 55.303C184.84 55.1594 185.883 54.3901 186.417 52.9951L190.928 52.5782C190.597 54.2156 189.803 55.6146 188.544 56.7754C187.284 57.9162 185.668 58.5777 183.696 58.76C182.103 58.9072 180.637 58.6912 179.298 58.112C177.977 57.511 176.898 56.5964 176.062 55.3682C175.245 54.1381 174.758 52.6767 174.602 50.9839C174.444 49.2712 174.653 47.7354 175.231 46.3765C175.808 45.0176 176.692 43.9316 177.882 43.1186C179.072 42.3057 180.484 41.8237 182.117 41.6728C183.69 41.5274 185.126 41.7362 186.423 42.2992C187.74 42.8603 188.795 43.7369 189.588 44.929C190.399 46.0993 190.88 47.4911 191.029 49.1042ZM186.587 48.3096C186.467 47.236 186 46.4156 185.184 45.8482C184.367 45.261 183.41 45.0179 182.315 45.1192C181.279 45.2149 180.433 45.6145 179.774 46.3181C179.135 46.9998 178.786 47.9057 178.73 49.0357L186.587 48.3096ZM197.755 42.939C198.22 42.0927 198.897 41.3773 199.787 40.7929C200.696 40.2067 201.759 39.8575 202.974 39.7452C204.388 39.6145 205.694 39.8452 206.894 40.4374C208.113 41.0276 209.112 41.9396 209.888 43.1734C210.683 44.3854 211.159 45.8378 211.316 47.5306C211.472 49.2233 211.272 50.7582 210.717 52.1352C210.179 53.4904 209.366 54.5799 208.277 55.4036C207.208 56.2254 205.967 56.7017 204.553 56.8324C203.318 56.9465 202.211 56.8078 201.23 56.4164C200.268 56.0032 199.473 55.434 198.843 54.7088L199.061 57.0688L194.879 57.4553L192.836 35.3495L197.018 34.963L197.755 42.939ZM207.044 47.9254C206.952 46.9296 206.663 46.0926 206.179 45.4143C205.713 44.7142 205.123 44.2063 204.411 43.8905C203.719 43.5728 202.985 43.4499 202.208 43.5217C201.451 43.5916 200.753 43.857 200.112 44.3179C199.49 44.7571 199.004 45.3644 198.654 46.1399C198.324 46.9136 198.205 47.7983 198.297 48.794C198.389 49.7898 198.668 50.6377 199.134 51.3377C199.621 52.0359 200.211 52.5538 200.905 52.8914C201.617 53.2072 202.351 53.3301 203.108 53.2602C203.885 53.1884 204.583 52.923 205.204 52.464C205.844 52.0031 206.329 51.3858 206.659 50.6121C207.009 49.8366 207.138 48.941 207.044 47.9254ZM221.483 55.2677C220.129 55.3929 218.892 55.2662 217.772 54.8876C216.651 54.4891 215.733 53.9011 215.018 53.1236C214.323 52.3442 213.899 51.4494 213.746 50.4393L217.958 50.05C218.096 50.6799 218.454 51.1791 219.03 51.5477C219.626 51.9143 220.333 52.06 221.149 51.9845C221.946 51.9109 222.548 51.6945 222.957 51.3354C223.386 50.9744 223.577 50.545 223.531 50.0471C223.481 49.5094 223.166 49.1368 222.584 48.9295C222.021 48.7004 221.127 48.4817 219.902 48.2735C218.64 48.0889 217.596 47.8741 216.77 47.629C215.964 47.3822 215.241 46.9568 214.603 46.353C213.985 45.7473 213.624 44.8869 213.521 43.7716C213.436 42.8555 213.618 41.9952 214.066 41.1906C214.534 40.3841 215.235 39.7167 216.17 39.1884C217.126 38.6582 218.271 38.3315 219.605 38.2082C221.576 38.0259 223.196 38.3784 224.463 39.2656C225.728 40.1328 226.498 41.3974 226.772 43.0592L222.769 43.4291C222.648 42.7775 222.322 42.2854 221.789 41.9531C221.274 41.5989 220.608 41.4596 219.792 41.5351C219.035 41.605 218.46 41.7987 218.068 42.1162C217.695 42.4318 217.532 42.8385 217.578 43.3364C217.63 43.894 217.948 44.2965 218.533 44.5436C219.117 44.7709 220.01 44.9796 221.212 45.1698C222.435 45.3581 223.449 45.5756 224.255 45.8225C225.061 46.0694 225.775 46.5056 226.395 47.1312C227.033 47.735 227.413 48.5836 227.534 49.6771C227.622 50.6331 227.433 51.5143 226.965 52.3207C226.517 53.1254 225.815 53.7927 224.86 54.3229C223.923 54.8313 222.797 55.1463 221.483 55.2677ZM231.812 35.3626C231.076 35.4307 230.437 35.2588 229.897 34.8467C229.375 34.413 229.081 33.8475 229.017 33.1505C228.953 32.4535 229.138 31.8539 229.574 31.3516C230.027 30.8277 230.623 30.5316 231.36 30.4635C232.097 30.3954 232.726 30.5783 233.248 31.0121C233.788 31.4241 234.091 31.9786 234.155 32.6757C234.219 33.3727 234.025 33.9832 233.571 34.5072C233.136 35.0094 232.549 35.2945 231.812 35.3626ZM234.056 37.1437L235.585 53.6932L231.403 54.0797L229.874 37.5303L234.056 37.1437ZM243.375 39.7472L244.114 47.7531C244.166 48.3107 244.333 48.707 244.616 48.942C244.917 49.1552 245.386 49.2324 246.023 49.1735L247.965 48.994L248.291 52.519L245.662 52.7619C242.137 53.0877 240.216 51.5379 239.9 48.1125L239.163 40.1365L237.191 40.3187L236.873 36.8833L238.845 36.7011L238.467 32.6086L242.679 32.2193L243.057 36.3119L246.761 35.9695L247.079 39.4049L243.375 39.7472ZM265.885 42.1859C265.941 42.7834 265.95 43.3248 265.915 43.8101L253.817 44.9283C254.027 46.114 254.531 47.0113 255.331 47.6203C256.13 48.2293 257.068 48.4842 258.143 48.3848C259.696 48.2412 260.74 47.4719 261.274 46.0768L265.785 45.66C265.454 47.2973 264.659 48.6964 263.401 49.8571C262.14 50.998 260.524 51.6595 258.553 51.8417C256.96 51.989 255.494 51.773 254.155 51.1937C252.834 50.5927 251.755 49.6781 250.918 48.4499C250.102 47.2198 249.615 45.7584 249.459 44.0656C249.3 42.3529 249.51 40.8171 250.087 39.4582C250.665 38.0993 251.549 37.0134 252.739 36.2004C253.929 35.3874 255.341 34.9055 256.974 34.7545C258.547 34.6091 259.982 34.8179 261.28 35.3809C262.597 35.9421 263.652 36.8187 264.445 38.0108C265.256 39.1811 265.736 40.5728 265.885 42.1859ZM261.443 41.3914C261.324 40.3178 260.857 39.4973 260.041 38.93C259.223 38.3427 258.267 38.0997 257.172 38.2009C256.136 38.2966 255.289 38.6963 254.631 39.3998C253.991 40.0816 253.643 40.9875 253.587 42.1175L261.443 41.3914ZM276.094 50.2206C274.74 50.3458 273.503 50.219 272.383 49.8405C271.262 49.442 270.344 48.854 269.629 48.0764C268.934 47.2971 268.51 46.4023 268.357 45.3921L272.569 45.0029C272.707 45.6328 273.065 46.132 273.641 46.5005C274.237 46.8672 274.944 47.0128 275.76 46.9374C276.557 46.8637 277.159 46.6474 277.568 46.2882C277.997 45.9272 278.188 45.4978 278.142 44.9999C278.092 44.4622 277.777 44.0897 277.195 43.8823C276.632 43.6532 275.738 43.4346 274.513 43.2263C273.251 43.0417 272.207 42.8269 271.381 42.5819C270.575 42.335 269.852 41.9097 269.214 41.3059C268.596 40.7002 268.235 39.8398 268.132 38.7245C268.047 37.8084 268.229 36.948 268.677 36.1434C269.145 35.3369 269.846 34.6696 270.781 34.1412C271.737 33.6111 272.882 33.2843 274.216 33.161C276.187 32.9788 277.807 33.3313 279.074 34.2184C280.339 35.0857 281.109 36.3502 281.383 38.0121L277.38 38.382C277.259 37.7303 276.933 37.2383 276.4 36.9059C275.885 36.5518 275.219 36.4125 274.403 36.4879C273.646 36.5579 273.071 36.7516 272.679 37.069C272.306 37.3847 272.143 37.7914 272.189 38.2893C272.241 38.8469 272.559 39.2493 273.144 39.4965C273.728 39.7238 274.621 39.9325 275.823 40.1226C277.046 40.3109 278.06 40.5285 278.866 40.7754C279.672 41.0222 280.386 41.4584 281.006 42.084C281.644 42.6878 282.024 43.5365 282.145 44.63C282.233 45.5859 282.044 46.4671 281.576 47.2736C281.128 48.0782 280.426 48.7456 279.471 49.2758C278.534 49.7842 277.408 50.0991 276.094 50.2206ZM309.174 46.8922L306.697 44.8616C304.925 46.7727 302.645 47.8571 299.857 48.1148C298.323 48.2565 296.945 48.1228 295.722 47.7136C294.518 47.2826 293.552 46.6186 292.827 45.7216C292.099 44.8047 291.677 43.7089 291.559 42.4343C291.432 41.0602 291.706 39.7896 292.382 38.6224C293.057 37.4553 294.12 36.4633 295.571 35.6463C294.973 35.0388 294.526 34.4473 294.232 33.872C293.936 33.2767 293.756 32.6305 293.692 31.9335C293.603 30.9776 293.773 30.0982 294.201 29.2954C294.627 28.4727 295.278 27.8 296.154 27.2772C297.049 26.7525 298.114 26.4332 299.349 26.319C300.604 26.2031 301.701 26.3427 302.641 26.7378C303.582 27.133 304.308 27.7086 304.82 28.4647C305.331 29.2208 305.602 30.0896 305.633 31.0709L301.57 31.4464C301.529 30.7873 301.324 30.3042 300.954 29.9969C300.583 29.6697 300.108 29.5328 299.53 29.5862C298.973 29.6378 298.52 29.8503 298.173 30.2238C297.844 30.5756 297.704 31.0104 297.752 31.5282C297.798 32.026 297.993 32.5101 298.338 32.9804C298.681 33.4307 299.224 33.9831 299.967 34.6375L305.705 39.3494C305.741 39.3059 305.767 39.2633 305.784 39.2216C305.8 39.18 305.816 39.1383 305.832 39.0966L307.273 36.1013L311.634 35.6983L309.883 39.5659C309.556 40.3794 309.196 41.1558 308.802 41.8952L314.312 46.4173L309.174 46.8922ZM299.656 44.6385C301.289 44.4876 302.68 43.7766 303.828 42.5056L298.22 37.9021C296.367 38.937 295.514 40.2411 295.659 41.8144C295.742 42.7105 296.151 43.436 296.885 43.9908C297.617 44.5257 298.541 44.7416 299.656 44.6385ZM328.863 24.0433C331.053 23.8408 333.015 24.0914 334.747 24.795C336.499 25.4967 337.897 26.6028 338.94 28.1132C340.002 29.6018 340.629 31.3917 340.822 33.4828C341.015 35.5739 340.727 37.4484 339.956 39.1063C339.203 40.7425 338.03 42.0661 336.437 43.0771C334.863 44.0862 332.981 44.692 330.79 44.8944L323.501 45.5681L321.574 24.7169L328.863 24.0433ZM330.312 41.3534C332.503 41.1509 334.14 40.397 335.225 39.0917C336.309 37.7864 336.751 36.0483 336.55 33.8776C336.35 31.7068 335.596 30.0692 334.289 28.9649C332.98 27.8405 331.23 27.3796 329.039 27.5821L326.082 27.8554L327.355 41.6267L330.312 41.3534ZM359.5 33.5341C359.555 34.1316 359.565 34.6729 359.53 35.1583L347.431 36.2764C347.641 37.4621 348.146 38.3595 348.945 38.9685C349.745 39.5775 350.682 39.8323 351.758 39.7329C353.311 39.5894 354.355 38.82 354.889 37.425L359.399 37.0081C359.069 38.6455 358.274 40.0446 357.016 41.2053C355.755 42.3461 354.139 43.0077 352.168 43.1899C350.574 43.3371 349.108 43.1211 347.769 42.5419C346.448 41.9409 345.37 41.0263 344.533 39.7981C343.716 38.568 343.23 37.1066 343.073 35.4138C342.915 33.7011 343.125 32.1653 343.702 30.8064C344.279 29.4475 345.163 28.3615 346.354 27.5486C347.544 26.7356 348.955 26.2536 350.588 26.1027C352.162 25.9573 353.597 26.1661 354.894 26.7291C356.212 27.2902 357.267 28.1669 358.06 29.3589C358.871 30.5293 359.351 31.921 359.5 33.5341ZM355.058 32.7395C354.939 31.6659 354.471 30.8455 353.656 30.2781C352.838 29.6909 351.882 29.4479 350.786 29.5491C349.751 29.6448 348.904 30.0444 348.246 30.748C347.606 31.4298 347.258 32.3356 347.202 33.4656L355.058 32.7395ZM369.708 41.5687C368.354 41.6939 367.117 41.5672 365.998 41.1886C364.876 40.7901 363.958 40.2021 363.244 39.4246C362.549 38.6452 362.125 37.7504 361.971 36.7403L366.183 36.351C366.322 36.9809 366.679 37.4802 367.256 37.8487C367.852 38.2154 368.558 38.361 369.375 38.2855C370.172 38.2119 370.774 37.9955 371.183 37.6364C371.611 37.2754 371.803 36.846 371.757 36.3481C371.707 35.8104 371.391 35.4379 370.81 35.2305C370.246 35.0014 369.352 34.7827 368.128 34.5745C366.866 34.3899 365.822 34.1751 364.996 33.9301C364.189 33.6832 363.467 33.2579 362.829 32.654C362.211 32.0484 361.85 31.1879 361.747 30.0727C361.662 29.1566 361.844 28.2962 362.292 27.4916C362.759 26.6851 363.461 26.0177 364.396 25.4894C365.351 24.9592 366.496 24.6325 367.831 24.5092C369.802 24.327 371.421 24.6794 372.688 25.5666C373.954 26.4338 374.723 27.6984 374.997 29.3602L370.994 29.7302C370.874 29.0785 370.547 28.5865 370.014 28.2541C369.5 27.9 368.834 27.7606 368.018 27.8361C367.261 27.906 366.686 28.0997 366.294 28.4172C365.921 28.7328 365.758 29.1396 365.804 29.6374C365.855 30.1951 366.174 30.5975 366.759 30.8447C367.342 31.0719 368.235 31.2806 369.438 31.4708C370.661 31.6591 371.675 31.8767 372.481 32.1235C373.287 32.3704 374 32.8066 374.621 33.4322C375.259 34.036 375.639 34.8847 375.76 35.9781C375.848 36.9341 375.658 37.8153 375.191 38.6217C374.743 39.4264 374.041 40.0938 373.086 40.6239C372.149 41.1323 371.023 41.4473 369.708 41.5687ZM380.038 21.6637C379.301 21.7318 378.663 21.5598 378.123 21.1478C377.6 20.714 377.307 20.1486 377.243 19.4515C377.178 18.7545 377.364 18.1549 377.8 17.6527C378.253 17.1287 378.849 16.8326 379.585 16.7645C380.322 16.6964 380.952 16.8793 381.474 17.3131C382.014 17.7251 382.316 18.2796 382.381 18.9767C382.445 19.6737 382.251 20.2842 381.797 20.8082C381.361 21.3104 380.775 21.5956 380.038 21.6637ZM382.282 23.4448L383.811 39.9942L379.629 40.3808L378.099 23.8313L382.282 23.4448ZM392.871 22.1949C394.106 22.0808 395.214 22.2294 396.196 22.6408C397.176 23.0323 397.971 23.5915 398.581 24.3185L398.363 21.9586L402.575 21.5693L404.115 38.2382C404.257 39.7717 404.074 41.1644 403.567 42.4164C403.062 43.6883 402.225 44.7298 401.054 45.5409C399.886 46.372 398.425 46.8685 396.673 47.0305C394.323 47.2476 392.34 46.8785 390.726 45.9231C389.131 44.9658 388.146 43.5504 387.772 41.6768L391.925 41.2931C392.214 42.0296 392.737 42.5838 393.494 42.9557C394.274 43.3456 395.181 43.4927 396.216 43.397C397.431 43.2848 398.383 42.8252 399.072 42.0184C399.762 41.2315 400.039 40.1012 399.903 38.6275L399.666 36.0585C399.2 36.8849 398.513 37.6011 397.605 38.2073C396.717 38.8116 395.665 39.1698 394.45 39.2821C393.056 39.411 391.749 39.1703 390.527 38.5601C389.306 37.9499 388.297 37.0288 387.5 35.7969C386.721 34.5433 386.254 33.0701 386.097 31.3773C385.943 29.7044 386.134 28.1903 386.672 26.8351C387.229 25.4781 388.043 24.3986 389.114 23.5966C390.205 22.7928 391.457 22.3256 392.871 22.1949ZM399.127 30.2333C399.034 29.2176 398.754 28.3697 398.29 27.6896C397.823 26.9895 397.234 26.4816 396.522 26.1658C395.808 25.8301 395.063 25.6981 394.286 25.7699C393.509 25.8417 392.81 26.0971 392.188 26.5362C391.566 26.9754 391.079 27.5827 390.729 28.3582C390.397 29.112 390.277 29.9867 390.369 30.9825C390.461 31.9782 390.741 32.8361 391.21 33.556C391.696 34.2543 392.286 34.7721 392.98 35.1097C393.694 35.4454 394.429 35.5783 395.186 35.5084C395.963 35.4366 396.672 35.1802 397.314 34.7393C397.955 34.2784 398.441 33.6711 398.773 32.9173C399.103 32.1436 399.221 31.249 399.127 30.2333ZM415.808 20.1052C417.78 19.923 419.431 20.4031 420.762 21.5455C422.091 22.6679 422.858 24.3444 423.064 26.5749L423.962 36.2835L419.779 36.67L418.935 27.529C418.813 26.2146 418.392 25.2393 417.67 24.603C416.947 23.9468 416.017 23.6711 414.882 23.776C413.727 23.8828 412.844 24.3259 412.233 25.1054C411.64 25.8632 411.405 26.8993 411.526 28.2137L412.371 37.3547L408.189 37.7413L406.659 21.1918L410.842 20.8053L411.032 22.8665C411.523 22.098 412.179 21.475 412.998 20.9976C413.836 20.4984 414.773 20.2009 415.808 20.1052Z" fill="black"/>
</svg>
