<svg width="462" height="166" viewBox="0 0 462 166" fill="none" xmlns="http://www.w3.org/2000/svg">
<rect x="10.752" y="0.587646" width="452" height="130" rx="19" transform="rotate(4.46901 10.752 0.587646)" fill="#F1E1C8"/>
<path d="M28.8729 85.3693C28.1391 85.312 27.5004 85.1337 26.9567 84.8344C26.4237 84.536 26.0155 84.1456 25.7322 83.6634C25.4489 83.1812 25.3187 82.6575 25.3415 82.0922L26.5219 82.1845C26.5327 82.731 26.7345 83.2282 27.1275 83.6762C27.5213 84.1135 28.1276 84.3642 28.9464 84.4282C29.7014 84.4872 30.3119 84.3423 30.7778 83.9936C31.2552 83.635 31.5172 83.158 31.5637 82.5625C31.6011 82.0839 31.5088 81.6915 31.2866 81.3853C31.0653 81.0684 30.7793 80.8267 30.4285 80.6602C30.0786 80.4831 29.5912 80.2845 28.9665 80.0645C28.2379 79.8043 27.6631 79.5614 27.242 79.3359C26.821 79.1104 26.472 78.7836 26.1952 78.3554C25.9184 77.9272 25.807 77.3675 25.8611 76.6762C25.9059 76.102 26.0947 75.6032 26.4274 75.1798C26.7609 74.7458 27.2088 74.4224 27.7711 74.2096C28.3334 73.9967 28.9654 73.9177 29.6673 73.9726C30.6988 74.0532 31.5083 74.3733 32.0959 74.9327C32.6949 75.4824 33.011 76.1598 33.0444 76.9648L31.8321 76.8701C31.7934 76.407 31.5751 75.9834 31.1771 75.5992C30.78 75.2044 30.2199 74.9787 29.4968 74.9222C28.8268 74.8698 28.2544 75.007 27.7795 75.3336C27.3054 75.6497 27.0443 76.1161 26.9961 76.7328C26.9595 77.2008 27.0523 77.5878 27.2745 77.8941C27.4966 78.2003 27.7827 78.442 28.1326 78.6191C28.4931 78.7971 28.9805 78.9957 29.5946 79.2149C30.3019 79.4734 30.871 79.7212 31.3019 79.9582C31.7336 80.1845 32.0878 80.5117 32.3646 80.9399C32.6414 81.3682 32.7532 81.9226 32.7 82.6031C32.6593 83.1242 32.4824 83.6079 32.1694 84.0542C31.8563 84.5005 31.4174 84.846 30.8526 85.0908C30.2878 85.3355 29.6279 85.4283 28.8729 85.3693ZM42.8835 81.5213C42.8536 81.9042 42.8201 82.1958 42.7831 82.3962L35.5571 81.8314C35.5375 82.4932 35.6529 83.0693 35.9035 83.5597C36.154 84.05 36.5037 84.4358 36.9525 84.7169C37.4021 84.9874 37.9034 85.1443 38.4564 85.1875C39.1795 85.2441 39.7994 85.116 40.316 84.8033C40.8432 84.4914 41.2099 84.0439 41.4159 83.4609L42.5963 83.5531C42.3172 84.3873 41.8055 85.0481 41.0612 85.5356C40.3284 86.0132 39.4356 86.2109 38.3829 86.1287C37.564 86.0647 36.8444 85.8265 36.224 85.4143C35.6044 84.9914 35.1346 84.4304 34.8148 83.7314C34.5064 83.0225 34.3876 82.2161 34.4582 81.3122C34.5289 80.4083 34.7716 79.6302 35.1863 78.9779C35.6011 78.3255 36.1469 77.8439 36.8239 77.5331C37.5008 77.2222 38.254 77.0992 39.0835 77.164C39.913 77.2288 40.622 77.4661 41.2105 77.8759C41.8097 78.2865 42.25 78.8131 42.5314 79.4556C42.8243 80.0884 42.9417 80.777 42.8835 81.5213ZM41.7535 81.4009C41.8148 80.7531 41.7251 80.1897 41.4844 79.7108C41.2542 79.2328 40.9144 78.8585 40.4648 78.588C40.0151 78.3174 39.5138 78.1606 38.9608 78.1173C38.1314 78.0525 37.4034 78.2631 36.777 78.7491C36.1505 79.2351 35.7676 79.9595 35.6282 80.9222L41.7535 81.4009ZM44.3811 82.0878C44.4517 81.1839 44.694 80.411 45.1079 79.7693C45.5227 79.117 46.0632 78.635 46.7295 78.3233C47.3967 78.001 48.1397 77.8718 48.9585 77.9358C50.0326 78.0198 50.8944 78.3546 51.5441 78.9403C52.2044 79.5269 52.5998 80.2854 52.7304 81.2157L51.5341 81.1222C51.4342 80.4831 51.1481 79.9686 50.6757 79.5786C50.2148 79.1788 49.6175 78.9502 48.8837 78.8929C48.2988 78.8472 47.762 78.939 47.2734 79.1682C46.7847 79.3975 46.3813 79.7672 46.0633 80.2773C45.7567 80.7776 45.5735 81.4106 45.5136 82.1763C45.4538 82.9419 45.536 83.601 45.7603 84.1535C45.9952 84.7068 46.3363 85.1347 46.7834 85.4371C47.2305 85.7396 47.7465 85.9136 48.3314 85.9593C49.0652 86.0167 49.6904 85.889 50.207 85.5763C50.735 85.2538 51.0984 84.7794 51.2972 84.1529L52.4935 84.2464C52.2217 85.1239 51.7136 85.8064 50.9694 86.2939C50.2251 86.7814 49.3213 86.9836 48.2579 86.9005C47.439 86.8365 46.7247 86.5988 46.1149 86.1873C45.5059 85.7653 45.0469 85.2051 44.7377 84.5069C44.4293 83.7981 44.3104 82.9917 44.3811 82.0878ZM62.5595 79.1272L61.8788 87.8367L60.7622 87.7494L60.8819 86.2181C60.5843 86.7405 60.1584 87.1244 59.6043 87.37C59.0501 87.6156 58.4434 87.7126 57.7841 87.6611C56.7419 87.5796 55.9161 87.1941 55.3066 86.5045C54.698 85.8043 54.4415 84.8427 54.5371 83.6198L54.9348 78.5313L56.0354 78.6173L55.6477 83.5782C55.5737 84.5246 55.7512 85.266 56.18 85.8024C56.6195 86.3396 57.2486 86.6402 58.0675 86.7042C58.9076 86.7699 59.5983 86.5564 60.1397 86.0638C60.681 85.5711 60.992 84.809 61.0727 83.7775L61.4429 79.04L62.5595 79.1272ZM66.1044 80.961C66.3914 80.4378 66.7964 80.0468 67.3195 79.7881C67.8532 79.5303 68.487 79.43 69.2207 79.4874L69.1297 80.6518L68.8266 80.6281C68.0184 80.565 67.3527 80.7323 66.8295 81.13C66.3062 81.5278 66.0047 82.2371 65.9249 83.258L65.5446 88.1232L64.4281 88.0359L65.1088 79.3265L66.2254 79.4137L66.1044 80.961ZM78.4625 84.3021C78.4326 84.6849 78.3991 84.9766 78.3621 85.1769L71.1361 84.6122C71.1165 85.274 71.2319 85.8501 71.4825 86.3404C71.733 86.8308 72.0827 87.2165 72.5315 87.4977C72.9811 87.7682 73.4824 87.9251 74.0354 87.9683C74.7585 88.0248 75.3784 87.8967 75.895 87.584C76.4222 87.2722 76.7889 86.8247 76.9949 86.2417L78.1753 86.3339C77.8962 87.168 77.3845 87.8288 76.6402 88.3163C75.9074 88.794 75.0146 88.9917 73.9618 88.9094C73.143 88.8454 72.4234 88.6073 71.8029 88.195C71.1834 87.7721 70.7136 87.2112 70.3938 86.5121C70.0854 85.8033 69.9666 84.9969 70.0372 84.093C70.1079 83.1891 70.3506 82.4109 70.7653 81.7586C71.1801 81.1063 71.7259 80.6247 72.4029 80.3138C73.0798 80.003 73.833 79.8799 74.6625 79.9448C75.492 80.0096 76.201 80.2469 76.7895 80.6567C77.3887 81.0673 77.829 81.5938 78.1104 82.2364C78.4033 82.8691 78.5207 83.5577 78.4625 84.3021ZM77.3325 84.1817C77.3938 83.5338 77.3041 82.9705 77.0634 82.4916C76.8332 82.0135 76.4934 81.6392 76.0437 81.3687C75.5941 81.0982 75.0928 80.9413 74.5398 80.8981C73.7104 80.8333 72.9824 81.0439 72.356 81.5299C71.7295 82.0159 71.3466 82.7402 71.2072 83.703L77.3325 84.1817ZM84.3386 85.1947C84.4084 84.3014 84.645 83.5335 85.0483 82.891C85.463 82.2387 85.9982 81.7562 86.6539 81.4437C87.3211 81.1214 88.0534 80.9914 88.851 81.0537C89.6805 81.1185 90.378 81.3656 90.9436 81.795C91.5198 82.2252 91.9176 82.7485 92.1369 83.3648L92.2865 81.4506L93.4031 81.5379L92.7224 90.2473L91.6058 90.16L91.7566 88.2299C91.4336 88.8038 90.9536 89.2638 90.3167 89.6099C89.6913 89.9462 88.9638 90.0819 88.1344 90.0171C87.3474 89.9556 86.6495 89.7138 86.0405 89.2918C85.4422 88.8705 84.9888 88.3055 84.6805 87.5966C84.3827 86.8886 84.2688 86.088 84.3386 85.1947ZM91.9461 85.8053C92.001 85.1035 91.9056 84.4755 91.6601 83.9213C91.4145 83.3672 91.053 82.927 90.5757 82.6008C90.1089 82.2754 89.5778 82.0895 88.9823 82.0429C88.3655 81.9947 87.8017 82.0898 87.2909 82.328C86.7802 82.5663 86.3604 82.94 86.0317 83.4493C85.7145 83.9488 85.5277 84.5601 85.4711 85.2832C85.4155 85.9957 85.5047 86.6339 85.7388 87.1979C85.9843 87.752 86.3405 88.1918 86.8072 88.5171C87.2748 88.8319 87.817 89.0133 88.4337 89.0615C89.0293 89.1081 89.5828 89.0069 90.0944 88.758C90.6167 88.51 91.0422 88.1313 91.3708 87.622C91.6995 87.1128 91.8913 86.5072 91.9461 85.8053ZM100.048 81.8968C101.09 81.9782 101.916 82.369 102.524 83.0693C103.134 83.7588 103.391 84.7151 103.295 85.938L102.896 91.0425L101.796 90.9565L102.185 85.9796C102.259 85.0332 102.076 84.2914 101.636 83.7541C101.207 83.2178 100.584 82.9176 99.7648 82.8536C98.9247 82.7879 98.234 83.0014 97.6926 83.4941C97.1512 83.9867 96.8402 84.7488 96.7596 85.7803L96.3881 90.5338L95.2715 90.4465L95.9522 81.7371L97.0688 81.8244L96.9528 83.3079C97.2709 82.7978 97.7013 82.4248 98.244 82.1891C98.7875 81.9427 99.3889 81.8452 100.048 81.8968ZM105.197 86.8249C105.267 85.9316 105.509 85.1642 105.922 84.5225C106.337 83.8701 106.872 83.3877 107.528 83.0752C108.195 82.7528 108.928 82.6228 109.725 82.6852C110.491 82.745 111.168 82.9851 111.755 83.4056C112.343 83.826 112.757 84.3451 112.998 84.9631L113.387 79.9863L114.503 80.0735L113.581 91.8775L112.464 91.7903L112.616 89.8442C112.303 90.4296 111.828 90.8953 111.191 91.2414C110.555 91.5769 109.827 91.7126 109.009 91.6486C108.211 91.5863 107.508 91.3441 106.899 90.922C106.3 90.5008 105.847 89.9357 105.539 89.2269C105.241 88.5188 105.127 87.7182 105.197 86.8249ZM112.804 87.4356C112.859 86.7337 112.764 86.1057 112.518 85.5515C112.273 84.9974 111.911 84.5572 111.434 84.231C110.967 83.9057 110.436 83.7197 109.841 83.6732C109.224 83.625 108.66 83.72 108.149 83.9583C107.638 84.1965 107.219 84.5703 106.89 85.0795C106.573 85.579 106.386 86.1903 106.329 86.9134C106.274 87.6259 106.363 88.2642 106.597 88.8281C106.843 89.3823 107.199 89.822 107.665 90.1474C108.133 90.4621 108.675 90.6436 109.292 90.6918C109.888 90.7383 110.441 90.6371 110.953 90.3882C111.475 90.1402 111.9 89.7615 112.229 89.2523C112.558 88.743 112.75 88.1374 112.804 87.4356ZM128.762 88.2334C128.732 88.6162 128.699 88.9079 128.662 89.1082L121.436 88.5435C121.416 89.2053 121.532 89.7814 121.782 90.2717C122.033 90.7621 122.382 91.1478 122.831 91.429C123.281 91.6995 123.782 91.8564 124.335 91.8996C125.058 91.9561 125.678 91.828 126.195 91.5153C126.722 91.2035 127.089 90.756 127.295 90.173L128.475 90.2652C128.196 91.0993 127.684 91.7601 126.94 92.2476C126.207 92.7253 125.314 92.923 124.262 92.8407C123.443 92.7767 122.723 92.5386 122.103 92.1263C121.483 91.7034 121.013 91.1425 120.694 90.4434C120.385 89.7346 120.266 88.9282 120.337 88.0243C120.408 87.1204 120.65 86.3422 121.065 85.6899C121.48 85.0376 122.026 84.556 122.703 84.2451C123.38 83.9343 124.133 83.8112 124.962 83.8761C125.792 83.9409 126.501 84.1782 127.089 84.588C127.688 84.9986 128.129 85.5251 128.41 86.1677C128.703 86.8004 128.82 87.489 128.762 88.2334ZM127.632 88.113C127.694 87.4651 127.604 86.9018 127.363 86.4229C127.133 85.9448 126.793 85.5705 126.343 85.3C125.894 85.0295 125.393 84.8726 124.84 84.8294C124.01 84.7646 123.282 84.9752 122.656 85.4612C122.029 85.9472 121.646 86.6715 121.507 87.6343L127.632 88.113ZM134.467 85.6942L132.441 85.5358L131.834 93.3042L130.717 93.2169L131.324 85.4486L130.112 85.3538L130.185 84.4127L131.398 84.5074L131.445 83.9013C131.519 82.9548 131.813 82.277 132.326 81.8678C132.85 81.4594 133.655 81.2975 134.739 81.3823L134.665 82.3394C133.941 82.2829 133.42 82.3812 133.101 82.6345C132.792 82.8885 132.612 83.3399 132.562 83.9886L132.514 84.5947L134.54 84.753L134.467 85.6942ZM139.654 86.0996L137.628 85.9413L137.021 93.7096L135.904 93.6223L136.511 85.854L135.299 85.7592L135.373 84.8181L136.585 84.9129L136.632 84.3067C136.706 83.3603 137 82.6824 137.514 82.2732C138.038 81.8648 138.842 81.703 139.927 81.7878L139.852 82.7448C139.129 82.6883 138.608 82.7867 138.288 83.0399C137.979 83.2939 137.8 83.7453 137.749 84.394L137.702 85.0001L139.727 85.1585L139.654 86.0996ZM142.172 83.6965C141.949 83.679 141.763 83.5843 141.616 83.4123C141.469 83.2404 141.405 83.0374 141.423 82.8034C141.442 82.5695 141.536 82.3843 141.707 82.2479C141.879 82.1009 142.077 82.0361 142.3 82.0535C142.524 82.071 142.709 82.1657 142.856 82.3377C143.004 82.499 143.069 82.6967 143.05 82.9306C143.032 83.1646 142.937 83.3551 142.765 83.5021C142.593 83.6492 142.395 83.714 142.172 83.6965ZM142.602 85.3831L141.921 94.0926L140.805 94.0053L141.485 85.2959L142.602 85.3831ZM144.28 89.8956C144.35 88.9917 144.592 88.2189 145.006 87.5772C145.421 86.9248 145.962 86.4428 146.628 86.1311C147.295 85.8088 148.038 85.6796 148.857 85.7436C149.931 85.8276 150.793 86.1624 151.443 86.7481C152.103 87.3347 152.498 88.0932 152.629 89.0235L151.433 88.93C151.333 88.2909 151.047 87.7764 150.574 87.3864C150.113 86.9866 149.516 86.7581 148.782 86.7007C148.197 86.655 147.661 86.7468 147.172 86.9761C146.683 87.2053 146.28 87.575 145.962 88.0851C145.655 88.5854 145.472 89.2184 145.412 89.9841C145.352 90.7498 145.434 91.4088 145.659 91.9613C145.894 92.5146 146.235 92.9425 146.682 93.2449C147.129 93.5474 147.645 93.7214 148.23 93.7672C148.964 93.8245 149.589 93.6968 150.105 93.3841C150.634 93.0616 150.997 92.5872 151.196 91.9608L152.392 92.0543C152.12 92.9317 151.612 93.6142 150.868 94.1017C150.124 94.5892 149.22 94.7914 148.156 94.7083C147.337 94.6443 146.623 94.4066 146.013 93.9951C145.404 93.5731 144.945 93.0129 144.636 92.3147C144.328 91.6059 144.209 90.7995 144.28 89.8956ZM155.6 84.746C155.376 84.7285 155.191 84.6338 155.044 84.4618C154.897 84.2899 154.833 84.0869 154.851 83.8529C154.869 83.619 154.964 83.4338 155.135 83.2974C155.307 83.1503 155.505 83.0855 155.728 83.103C155.951 83.1204 156.137 83.2152 156.284 83.3871C156.432 83.5485 156.496 83.7461 156.478 83.9801C156.46 84.214 156.365 84.4045 156.193 84.5516C156.021 84.6986 155.823 84.7634 155.6 84.746ZM156.03 86.4326L155.349 95.142L154.232 95.0548L154.913 86.3453L156.03 86.4326ZM166.133 91.1542C166.103 91.537 166.069 91.8286 166.032 92.029L158.806 91.4643C158.787 92.1261 158.902 92.7022 159.153 93.1925C159.403 93.6829 159.753 94.0686 160.202 94.3498C160.651 94.6203 161.153 94.7772 161.706 94.8204C162.429 94.8769 163.049 94.7488 163.565 94.4361C164.092 94.1242 164.459 93.6768 164.665 93.0937L165.845 93.186C165.566 94.0201 165.055 94.6809 164.31 95.1684C163.578 95.6461 162.685 95.8438 161.632 95.7615C160.813 95.6975 160.094 95.4594 159.473 95.0471C158.853 94.6242 158.384 94.0632 158.064 93.3642C157.756 92.6553 157.637 91.849 157.707 90.9451C157.778 90.0411 158.021 89.263 158.435 88.6107C158.85 87.9584 159.396 87.4768 160.073 87.1659C160.75 86.855 161.503 86.732 162.333 86.7968C163.162 86.8617 163.871 87.099 164.46 87.5087C165.059 87.9193 165.499 88.4459 165.781 89.0885C166.073 89.7212 166.191 90.4098 166.133 91.1542ZM165.003 91.0338C165.064 90.3859 164.974 89.8225 164.733 89.3437C164.503 88.8656 164.164 88.4913 163.714 88.2208C163.264 87.9503 162.763 87.7934 162.21 87.7502C161.381 87.6854 160.653 87.8959 160.026 88.3819C159.4 88.8679 159.017 89.5923 158.877 90.555L165.003 91.0338ZM172.577 87.5654C173.619 87.6469 174.445 88.0377 175.053 88.7379C175.663 89.4275 175.92 90.3838 175.824 91.6067L175.425 96.7112L174.324 96.6251L174.713 91.6483C174.787 90.7019 174.605 89.96 174.165 89.4228C173.736 88.8864 173.112 88.5862 172.294 88.5223C171.454 88.4566 170.763 88.6701 170.221 89.1627C169.68 89.6554 169.369 90.4175 169.288 91.449L168.917 96.2025L167.8 96.1152L168.481 87.4058L169.598 87.493L169.482 88.9765C169.8 88.4664 170.23 88.0935 170.773 87.8577C171.316 87.6113 171.918 87.5139 172.577 87.5654ZM179.953 89.2493L179.531 94.6568C179.489 95.1885 179.561 95.5633 179.748 95.7811C179.934 95.999 180.282 96.1279 180.793 96.1677L181.814 96.2475L181.739 97.2046L180.542 97.1111C179.756 97.0496 179.185 96.8231 178.83 96.4316C178.476 96.0295 178.332 95.4084 178.398 94.5683L178.821 89.1608L177.608 89.066L177.682 88.1249L178.894 88.2197L179.065 86.0343L180.198 86.1228L180.027 88.3082L182.42 88.4952L182.346 89.4363L179.953 89.2493ZM187.787 93.296C187.858 92.3921 188.1 91.6193 188.514 90.9776C188.929 90.3253 189.47 89.8433 190.136 89.5316C190.803 89.2093 191.546 89.0801 192.365 89.1441C193.439 89.228 194.301 89.5629 194.951 90.1486C195.611 90.7352 196.006 91.4936 196.137 92.424L194.94 92.3305C194.841 91.6914 194.555 91.1769 194.082 90.7869C193.621 90.3871 193.024 90.1585 192.29 90.1012C191.705 90.0555 191.168 90.1473 190.68 90.3765C190.191 90.6058 189.788 90.9755 189.47 91.4856C189.163 91.9859 188.98 92.6189 188.92 93.3846C188.86 94.1502 188.942 94.8093 189.167 95.3618C189.402 95.9151 189.743 96.343 190.19 96.6454C190.637 96.9478 191.153 97.1219 191.738 97.1676C192.472 97.225 193.097 97.0973 193.613 96.7846C194.141 96.4621 194.505 95.9876 194.704 95.3612L195.9 95.4547C195.628 96.3322 195.12 97.0147 194.376 97.5022C193.632 97.9897 192.728 98.1919 191.664 98.1088C190.845 98.0448 190.131 97.807 189.521 97.3956C188.912 96.9735 188.453 96.4134 188.144 95.7152C187.836 95.0063 187.717 94.2 187.787 93.296ZM199.779 86.7385L198.857 98.5425L197.74 98.4553L198.663 86.6512L199.779 86.7385ZM205.188 99.1657C204.369 99.1017 203.644 98.8632 203.013 98.4501C202.393 98.0272 201.918 97.4658 201.588 96.7659C201.269 96.0562 201.145 95.2494 201.215 94.3455C201.286 93.4416 201.539 92.6696 201.974 92.0296C202.41 91.3789 202.972 90.8986 203.659 90.5886C204.348 90.2679 205.102 90.1396 205.92 90.2036C206.739 90.2676 207.464 90.5114 208.094 90.9351C208.736 91.3491 209.216 91.9109 209.535 92.6206C209.865 93.3204 209.995 94.1223 209.925 95.0262C209.855 95.9195 209.602 96.6915 209.166 97.3422C208.73 97.9928 208.162 98.4781 207.463 98.7979C206.765 99.1071 206.007 99.2297 205.188 99.1657ZM205.264 98.1927C205.838 98.2376 206.38 98.1515 206.889 97.9345C207.399 97.7069 207.823 97.3442 208.162 96.8464C208.511 96.3388 208.716 95.7021 208.776 94.9365C208.836 94.1708 208.737 93.5158 208.48 92.9715C208.224 92.4165 207.862 91.9922 207.392 91.6988C206.924 91.3947 206.403 91.2202 205.828 91.1753C205.254 91.1305 204.712 91.2218 204.202 91.4495C203.693 91.6664 203.269 92.0292 202.929 92.5376C202.602 93.0362 202.408 93.6684 202.348 94.434C202.288 95.1997 202.381 95.8596 202.626 96.4138C202.883 96.9581 203.241 97.3819 203.699 97.6852C204.168 97.9786 204.69 98.1478 205.264 98.1927ZM219.845 91.4203L219.165 100.13L218.048 100.042L218.168 98.5111C217.87 99.0335 217.444 99.4175 216.89 99.6631C216.336 99.9087 215.729 100.006 215.07 99.9541C214.028 99.8727 213.202 99.4872 212.593 98.7976C211.984 98.0974 211.727 97.1358 211.823 95.9128L212.221 90.8244L213.321 90.9104L212.934 95.8713C212.86 96.8177 213.037 97.5591 213.466 98.0955C213.905 98.6327 214.535 98.9333 215.353 98.9973C216.194 99.063 216.884 98.8495 217.426 98.3568C217.967 97.8642 218.278 97.1021 218.359 96.0706L218.729 91.333L219.845 91.4203ZM221.545 95.9184C221.615 95.0251 221.857 94.2577 222.271 93.616C222.686 92.9636 223.221 92.4812 223.876 92.1687C224.544 91.8463 225.276 91.7163 226.074 91.7787C226.839 91.8385 227.516 92.0786 228.104 92.499C228.691 92.9194 229.105 93.4386 229.346 94.0566L229.735 89.0798L230.852 89.167L229.929 100.971L228.812 100.884L228.964 98.9377C228.651 99.5231 228.176 99.9888 227.539 100.335C226.903 100.67 226.176 100.806 225.357 100.742C224.559 100.68 223.856 100.438 223.247 100.015C222.649 99.5942 222.195 99.0292 221.887 98.3204C221.589 97.6123 221.475 96.8117 221.545 95.9184ZM229.153 96.529C229.208 95.8272 229.112 95.1992 228.867 94.645C228.621 94.0909 228.26 93.6507 227.782 93.3245C227.316 92.9992 226.784 92.8132 226.189 92.7667C225.572 92.7185 225.008 92.8135 224.498 93.0517C223.987 93.29 223.567 93.6638 223.238 94.173C222.921 94.6725 222.734 95.2838 222.678 96.0069C222.622 96.7194 222.711 97.3576 222.945 97.9216C223.191 98.4758 223.547 98.9155 224.014 99.2409C224.481 99.5556 225.024 99.7371 225.64 99.7853C226.236 99.8318 226.789 99.7306 227.301 99.4817C227.823 99.2337 228.249 98.855 228.577 98.3457C228.906 97.8365 229.098 97.2309 229.153 96.529ZM239.844 101.874C238.845 101.796 238.044 101.504 237.441 100.996C236.85 100.48 236.549 99.8194 236.537 99.016L237.685 99.1057C237.7 99.5991 237.898 100.016 238.278 100.356C238.669 100.686 239.211 100.878 239.902 100.932C240.508 100.979 240.992 100.873 241.355 100.612C241.729 100.353 241.932 100.01 241.965 99.5847C241.988 99.2869 241.912 99.0349 241.735 98.8285C241.559 98.6221 241.326 98.4541 241.036 98.3245C240.758 98.1851 240.375 98.032 239.885 97.8653C239.249 97.6445 238.736 97.4332 238.345 97.2315C237.955 97.0297 237.629 96.7528 237.367 96.4007C237.117 96.0388 237.014 95.5761 237.058 95.0124C237.092 94.5871 237.25 94.2036 237.534 93.862C237.817 93.5204 238.201 93.2615 238.686 93.0854C239.17 92.9093 239.71 92.8445 240.306 92.891C241.241 92.9642 241.978 93.2624 242.515 93.7859C243.052 94.2987 243.31 94.9714 243.288 95.8042L242.171 95.717C242.179 95.204 242.009 94.7788 241.661 94.4413C241.324 94.0941 240.837 93.8955 240.199 93.8456C239.635 93.8016 239.168 93.8987 238.796 94.1372C238.424 94.3756 238.223 94.6915 238.192 95.085C238.166 95.4253 238.245 95.715 238.429 95.9541C238.625 96.1834 238.873 96.3739 239.171 96.5257C239.47 96.6667 239.875 96.8321 240.384 97.0217C240.998 97.2409 241.485 97.4448 241.845 97.6334C242.204 97.822 242.505 98.0809 242.747 98.41C242.989 98.7392 243.095 99.1594 243.066 99.6707C243.029 100.139 242.869 100.549 242.584 100.901C242.301 101.243 241.922 101.502 241.448 101.679C240.974 101.856 240.44 101.921 239.844 101.874ZM252.846 93.9995L246.676 106.405L245.512 106.313L247.527 102.298L244.631 93.3574L245.859 93.4534L248.245 101.119L251.697 93.9097L252.846 93.9995ZM256.668 103.189C255.668 103.111 254.867 102.819 254.265 102.311C253.674 101.794 253.373 101.134 253.361 100.331L254.509 100.421C254.524 100.914 254.721 101.331 255.101 101.671C255.493 102.001 256.034 102.193 256.726 102.247C257.332 102.294 257.816 102.188 258.179 101.927C258.552 101.667 258.756 101.325 258.789 100.9C258.812 100.602 258.735 100.35 258.559 100.143C258.383 99.937 258.15 99.769 257.86 99.6394C257.582 99.5 257.198 99.3469 256.708 99.1802C256.073 98.9594 255.56 98.7481 255.169 98.5464C254.778 98.3446 254.452 98.0677 254.191 97.7156C253.941 97.3537 253.838 96.891 253.882 96.3273C253.915 95.902 254.074 95.5185 254.357 95.1769C254.641 94.8353 255.025 94.5764 255.509 94.4003C255.994 94.2242 256.534 94.1594 257.129 94.2059C258.065 94.2791 258.801 94.5773 259.338 95.1008C259.876 95.6136 260.134 96.2863 260.111 97.1191L258.995 97.0319C259.003 96.5189 258.833 96.0937 258.485 95.7562C258.148 95.409 257.661 95.2104 257.023 95.1605C256.459 95.1165 255.991 95.2136 255.62 95.4521C255.248 95.6905 255.047 96.0064 255.016 96.3999C254.989 96.7402 255.068 97.0299 255.253 97.269C255.449 97.4983 255.696 97.6888 255.995 97.8406C256.294 97.9816 256.698 98.147 257.208 98.3366C257.822 98.5558 258.309 98.7597 258.668 98.9483C259.028 99.1369 259.329 99.3958 259.571 99.7249C259.812 100.054 259.919 100.474 259.889 100.986C259.853 101.454 259.692 101.864 259.408 102.216C259.125 102.557 258.746 102.817 258.272 102.994C257.798 103.171 257.263 103.236 256.668 103.189ZM263.869 95.808L263.447 101.215C263.405 101.747 263.477 102.122 263.664 102.34C263.85 102.558 264.198 102.687 264.709 102.726L265.73 102.806L265.655 103.763L264.458 103.67C263.671 103.608 263.101 103.382 262.746 102.99C262.392 102.588 262.248 101.967 262.314 101.127L262.737 95.7194L261.524 95.6247L261.598 94.6836L262.81 94.7783L262.981 92.593L264.114 92.6815L263.943 94.8668L266.335 95.0538L266.262 95.995L263.869 95.808ZM275.751 99.7217C275.722 100.105 275.688 100.396 275.651 100.597L268.425 100.032C268.405 100.694 268.521 101.27 268.771 101.76C269.022 102.25 269.372 102.636 269.82 102.917C270.27 103.188 270.771 103.345 271.324 103.388C272.047 103.444 272.667 103.316 273.184 103.004C273.711 102.692 274.078 102.244 274.284 101.661L275.464 101.754C275.185 102.588 274.673 103.248 273.929 103.736C273.196 104.214 272.304 104.411 271.251 104.329C270.432 104.265 269.712 104.027 269.092 103.615C268.472 103.192 268.003 102.631 267.683 101.932C267.374 101.223 267.256 100.417 267.326 99.5126C267.397 98.6087 267.64 97.8306 268.054 97.1782C268.469 96.5259 269.015 96.0443 269.692 95.7334C270.369 95.4226 271.122 95.2996 271.951 95.3644C272.781 95.4292 273.49 95.6665 274.078 96.0763C274.678 96.4869 275.118 97.0135 275.399 97.656C275.692 98.2888 275.81 98.9773 275.751 99.7217ZM274.621 99.6013C274.683 98.9534 274.593 98.3901 274.352 97.9112C274.122 97.4331 273.782 97.0589 273.333 96.7883C272.883 96.5178 272.382 96.3609 271.829 96.3177C270.999 96.2529 270.271 96.4635 269.645 96.9495C269.019 97.4355 268.636 98.1598 268.496 99.1226L274.621 99.6013ZM288.481 96.6242C289.502 96.704 290.306 97.0931 290.893 97.7917C291.492 98.4804 291.743 99.4363 291.648 100.659L291.249 105.764L290.148 105.678L290.537 100.701C290.611 99.7544 290.439 99.0134 290.021 98.4778C289.603 97.9423 289 97.6437 288.213 97.5822C287.394 97.5182 286.719 97.7383 286.188 98.2424C285.656 98.7465 285.35 99.5143 285.269 100.546L284.9 105.267L283.8 105.181L284.189 100.205C284.263 99.2582 284.091 98.5172 283.672 97.9816C283.254 97.4461 282.646 97.1471 281.849 97.0848C281.03 97.0208 280.355 97.2409 279.823 97.745C279.291 98.2491 278.985 99.0169 278.905 100.048L278.536 104.77L277.419 104.683L278.1 95.9733L279.216 96.0606L279.099 97.56C279.418 97.0393 279.844 96.6606 280.376 96.424C280.909 96.1768 281.489 96.0777 282.116 96.1267C282.871 96.1857 283.516 96.418 284.052 96.8237C284.598 97.2301 284.971 97.7942 285.171 98.516C285.459 97.8431 285.899 97.3479 286.491 97.0304C287.094 96.703 287.758 96.5676 288.481 96.6242ZM296.718 106.319C295.718 106.241 294.917 105.949 294.315 105.442C293.724 104.925 293.422 104.264 293.41 103.461L294.559 103.551C294.574 104.044 294.771 104.461 295.151 104.801C295.543 105.131 296.084 105.323 296.775 105.377C297.381 105.424 297.866 105.318 298.229 105.057C298.602 104.798 298.805 104.455 298.839 104.03C298.862 103.732 298.785 103.48 298.609 103.274C298.432 103.067 298.199 102.899 297.91 102.77C297.632 102.63 297.248 102.477 296.758 102.31C296.123 102.09 295.61 101.878 295.219 101.677C294.828 101.475 294.502 101.198 294.241 100.846C293.991 100.484 293.888 100.021 293.932 99.4575C293.965 99.0322 294.123 98.6487 294.407 98.3071C294.69 97.9654 295.074 97.7066 295.559 97.5305C296.043 97.3543 296.584 97.2896 297.179 97.3361C298.115 97.4092 298.851 97.7075 299.388 98.2309C299.926 98.7437 300.183 99.4165 300.161 100.249L299.045 100.162C299.052 99.6491 298.882 99.2239 298.534 98.8864C298.198 98.5391 297.71 98.3406 297.072 98.2907C296.509 98.2466 296.041 98.3438 295.669 98.5823C295.298 98.8207 295.096 99.1366 295.066 99.5301C295.039 99.8704 295.118 100.16 295.303 100.399C295.499 100.629 295.746 100.819 296.044 100.971C296.344 101.112 296.748 101.277 297.257 101.467C297.872 101.686 298.358 101.89 298.718 102.078C299.078 102.267 299.379 102.526 299.62 102.855C299.862 103.184 299.968 103.605 299.939 104.116C299.903 104.584 299.742 104.994 299.458 105.346C299.174 105.688 298.796 105.947 298.322 106.124C297.848 106.301 297.313 106.366 296.718 106.319ZM308.296 99.2803L307.874 104.688C307.832 105.219 307.904 105.594 308.091 105.812C308.277 106.03 308.625 106.159 309.136 106.199L310.157 106.279L310.082 107.236L308.885 107.142C308.098 107.081 307.528 106.854 307.173 106.463C306.819 106.06 306.675 105.439 306.741 104.599L307.164 99.1917L305.951 99.097L306.025 98.1559L307.237 98.2506L307.408 96.0653L308.541 96.1538L308.37 98.3391L310.762 98.5261L310.689 99.4673L308.296 99.2803ZM315.726 107.805C314.907 107.741 314.182 107.503 313.551 107.089C312.931 106.667 312.456 106.105 312.126 105.405C311.807 104.696 311.683 103.889 311.753 102.985C311.824 102.081 312.077 101.309 312.512 100.669C312.948 100.018 313.51 99.538 314.197 99.2279C314.886 98.9073 315.639 98.7789 316.458 98.8429C317.277 98.9069 318.002 99.1508 318.632 99.5745C319.274 99.9884 319.754 100.55 320.073 101.26C320.403 101.96 320.533 102.762 320.463 103.666C320.393 104.559 320.14 105.331 319.704 105.982C319.268 106.632 318.7 107.117 318.001 107.437C317.303 107.746 316.545 107.869 315.726 107.805ZM315.802 106.832C316.376 106.877 316.918 106.791 317.427 106.574C317.937 106.346 318.361 105.984 318.699 105.486C319.049 104.978 319.254 104.342 319.314 103.576C319.374 102.81 319.275 102.155 319.018 101.611C318.762 101.056 318.399 100.632 317.93 100.338C317.462 100.034 316.94 99.8596 316.366 99.8147C315.792 99.7698 315.25 99.8612 314.74 100.089C314.231 100.306 313.807 100.669 313.467 101.177C313.139 101.676 312.946 102.308 312.886 103.073C312.826 103.839 312.919 104.499 313.164 105.053C313.421 105.597 313.779 106.021 314.237 106.325C314.706 106.618 315.227 106.787 315.802 106.832ZM26.6187 109.282C25.6191 109.204 24.8181 108.912 24.2158 108.404C23.6249 107.888 23.3235 107.227 23.3114 106.424L24.4599 106.514C24.4748 107.007 24.6723 107.424 25.0523 107.764C25.4437 108.094 25.9851 108.286 26.6763 108.34C27.2825 108.387 27.7669 108.281 28.1296 108.02C28.503 107.761 28.7063 107.418 28.7396 106.993C28.7628 106.695 28.6862 106.443 28.5098 106.236C28.3333 106.03 28.1004 105.862 27.8109 105.733C27.5329 105.593 27.149 105.44 26.6592 105.273C26.0238 105.053 25.5107 104.841 25.1199 104.639C24.7291 104.438 24.403 104.161 24.1417 103.809C23.8918 103.447 23.7889 102.984 23.8329 102.42C23.8662 101.995 24.0245 101.612 24.308 101.27C24.5915 100.928 24.9755 100.67 25.46 100.493C25.9445 100.317 26.4846 100.252 27.0801 100.299C28.0159 100.372 28.7522 100.67 29.2891 101.194C29.8268 101.707 30.0844 102.379 30.0622 103.212L28.9456 103.125C28.9535 102.612 28.7835 102.187 28.4354 101.849C28.0988 101.502 27.6114 101.303 26.9734 101.254C26.4098 101.21 25.9421 101.307 25.5704 101.545C25.1987 101.784 24.9975 102.1 24.9667 102.493C24.9401 102.833 25.0191 103.123 25.2037 103.362C25.3998 103.591 25.647 103.782 25.9454 103.934C26.2447 104.075 26.649 104.24 27.1585 104.43C27.7726 104.649 28.2595 104.853 28.6192 105.041C28.979 105.23 29.2797 105.489 29.5215 105.818C29.7632 106.147 29.8695 106.567 29.8402 107.079C29.8036 107.547 29.6432 107.957 29.3589 108.309C29.0754 108.651 28.6967 108.91 28.2228 109.087C27.7489 109.264 27.2142 109.329 26.6187 109.282ZM39.987 101.436L39.3063 110.146L38.1897 110.058L38.3093 108.527C38.0117 109.049 37.5859 109.433 37.0317 109.679C36.4776 109.925 35.8708 110.022 35.2115 109.97C34.1693 109.889 33.3435 109.503 32.7341 108.813C32.1255 108.113 31.8689 107.152 31.9645 105.929L32.3622 100.84L33.4629 100.926L33.0751 105.887C33.0012 106.834 33.1786 107.575 33.6074 108.111C34.0469 108.649 34.6761 108.949 35.4949 109.013C36.335 109.079 37.0257 108.865 37.5671 108.373C38.1085 107.88 38.4195 107.118 38.5001 106.086L38.8704 101.349L39.987 101.436ZM43.4872 103.636C43.8094 103.072 44.2833 102.623 44.9087 102.286C45.5456 101.94 46.2788 101.8 47.1083 101.864C47.8952 101.926 48.5878 102.167 49.1861 102.588C49.7959 103 50.2497 103.56 50.5474 104.268C50.8566 104.966 50.9763 105.762 50.9065 106.655C50.8367 107.548 50.5944 108.321 50.1797 108.973C49.7755 109.626 49.2399 110.114 48.5728 110.437C47.9163 110.76 47.1945 110.891 46.4076 110.829C45.5888 110.765 44.8912 110.518 44.315 110.088C43.7396 109.647 43.3365 109.123 43.1057 108.517L42.6345 114.546L41.5338 114.46L42.5362 101.635L43.6368 101.721L43.4872 103.636ZM49.774 106.566C49.8305 105.843 49.7356 105.21 49.4892 104.666C49.2542 104.113 48.903 103.679 48.4354 103.364C47.9678 103.05 47.4257 102.868 46.8089 102.82C46.2134 102.773 45.6545 102.874 45.1322 103.122C44.6206 103.371 44.2005 103.75 43.8718 104.259C43.5431 104.769 43.3513 105.374 43.2965 106.076C43.2416 106.778 43.337 107.406 43.5825 107.96C43.8281 108.514 44.1843 108.954 44.651 109.279C45.1284 109.606 45.6648 109.792 46.2603 109.839C46.8771 109.887 47.4409 109.792 47.9517 109.553C48.4633 109.305 48.8781 108.925 49.1962 108.415C49.5257 107.895 49.7183 107.279 49.774 106.566ZM54.2513 104.477C54.5735 103.914 55.0473 103.464 55.6727 103.128C56.3096 102.781 57.0428 102.641 57.8723 102.706C58.6592 102.767 59.3519 103.009 59.9502 103.43C60.56 103.841 61.0138 104.401 61.3115 105.109C61.6207 105.807 61.7404 106.603 61.6706 107.496C61.6008 108.389 61.3585 109.162 60.9437 109.815C60.5396 110.468 60.004 110.956 59.3368 111.278C58.6803 111.601 57.9586 111.732 57.1716 111.67C56.3528 111.606 55.6553 111.359 55.079 110.929C54.5036 110.488 54.1006 109.965 53.8698 109.358L53.3985 115.388L52.2979 115.302L53.3002 102.477L54.4009 102.563L54.2513 104.477ZM60.538 107.408C60.5945 106.685 60.4996 106.051 60.2532 105.508C60.0183 104.954 59.667 104.52 59.1995 104.206C58.7319 103.891 58.1897 103.709 57.5729 103.661C56.9774 103.615 56.4185 103.715 55.8963 103.964C55.3847 104.212 54.9645 104.592 54.6358 105.101C54.3072 105.61 54.1154 106.216 54.0605 106.917C54.0057 107.619 54.101 108.247 54.3466 108.801C54.5922 109.356 54.9483 109.795 55.415 110.121C55.8924 110.447 56.4289 110.633 57.0244 110.68C57.6412 110.728 58.2049 110.633 58.7157 110.395C59.2273 110.146 59.6422 109.766 59.9602 109.256C60.2897 108.736 60.4823 108.12 60.538 107.408ZM67.186 112.453C66.3671 112.389 65.6422 112.15 65.0111 111.737C64.3915 111.314 63.9165 110.753 63.586 110.053C63.267 109.344 63.1428 108.537 63.2135 107.633C63.2841 106.729 63.5371 105.957 63.9723 105.317C64.4083 104.666 64.9701 104.186 65.6577 103.876C66.3461 103.555 67.0997 103.427 67.9185 103.491C68.7374 103.555 69.4619 103.799 70.0921 104.222C70.7338 104.636 71.2142 105.198 71.5332 105.908C71.8637 106.608 71.9936 107.41 71.9229 108.314C71.8531 109.207 71.6002 109.979 71.1642 110.629C70.7281 111.28 70.1606 111.765 69.4616 112.085C68.7633 112.394 68.0048 112.517 67.186 112.453ZM67.262 111.48C67.8363 111.525 68.378 111.439 68.8871 111.222C69.397 110.994 69.8213 110.632 70.1597 110.134C70.5097 109.626 70.7146 108.989 70.7744 108.224C70.8343 107.458 70.7357 106.803 70.4786 106.259C70.2224 105.704 69.8597 105.28 69.3905 104.986C68.9221 104.682 68.4008 104.508 67.8265 104.463C67.2523 104.418 66.7102 104.509 66.2002 104.737C65.6911 104.954 65.2669 105.316 64.9276 105.825C64.5997 106.324 64.4059 106.956 64.346 107.721C64.2862 108.487 64.3791 109.147 64.6246 109.701C64.8817 110.245 65.2391 110.669 65.6968 110.973C66.166 111.266 66.6878 111.435 67.262 111.48ZM75.2944 105.752C75.5813 105.229 75.9864 104.838 76.5095 104.58C77.0432 104.322 77.6769 104.221 78.4107 104.279L78.3197 105.443L78.0166 105.42C77.2084 105.356 76.5427 105.524 76.0194 105.921C75.4962 106.319 75.1946 107.029 75.1148 108.049L74.7346 112.915L73.618 112.827L74.2987 104.118L75.4153 104.205L75.2944 105.752ZM81.456 105.624L81.0333 111.032C80.9918 111.563 81.0641 111.938 81.2504 112.156C81.4366 112.374 81.785 112.503 82.2954 112.543L83.3163 112.622L83.2415 113.58L82.0452 113.486C81.2582 113.424 80.6875 113.198 80.3329 112.807C79.9792 112.404 79.8351 111.783 79.9008 110.943L80.3234 105.536L79.1111 105.441L79.1847 104.5L80.397 104.595L80.5678 102.409L81.7003 102.498L81.5295 104.683L83.9222 104.87L83.8487 105.811L81.456 105.624ZM97.3191 105.917L91.1498 118.322L89.9853 118.231L92.0003 114.216L89.1042 105.275L90.3324 105.371L92.7184 113.036L96.1706 105.827L97.3191 105.917ZM101.955 115.17C101.136 115.106 100.411 114.868 99.7801 114.455C99.1605 114.032 98.6855 113.471 98.355 112.771C98.036 112.061 97.9118 111.254 97.9825 110.35C98.0531 109.446 98.306 108.674 98.7412 108.034C99.1772 107.384 99.7391 106.903 100.427 106.593C101.115 106.273 101.869 106.144 102.688 106.208C103.506 106.272 104.231 106.516 104.861 106.94C105.503 107.354 105.983 107.916 106.302 108.625C106.633 109.325 106.763 110.127 106.692 111.031C106.622 111.924 106.369 112.696 105.933 113.347C105.497 113.998 104.93 114.483 104.231 114.803C103.532 115.112 102.774 115.234 101.955 115.17ZM102.031 114.197C102.605 114.242 103.147 114.156 103.656 113.939C104.166 113.712 104.59 113.349 104.929 112.851C105.279 112.344 105.484 111.707 105.543 110.941C105.603 110.176 105.505 109.521 105.248 108.976C104.991 108.421 104.629 107.997 104.159 107.704C103.691 107.399 103.17 107.225 102.596 107.18C102.021 107.135 101.479 107.227 100.969 107.454C100.46 107.671 100.036 108.034 99.6965 108.542C99.3687 109.041 99.1748 109.673 99.115 110.439C99.0552 111.204 99.148 111.864 99.3936 112.419C99.6506 112.963 100.008 113.387 100.466 113.69C100.935 113.983 101.457 114.153 102.031 114.197ZM116.613 107.425L115.932 116.135L114.815 116.047L114.935 114.516C114.637 115.038 114.212 115.422 113.657 115.668C113.103 115.913 112.497 116.01 111.837 115.959C110.795 115.877 109.969 115.492 109.36 114.802C108.751 114.102 108.495 113.141 108.59 111.918L108.988 106.829L110.089 106.915L109.701 111.876C109.627 112.822 109.804 113.564 110.233 114.1C110.673 114.637 111.302 114.938 112.121 115.002C112.961 115.068 113.651 114.854 114.193 114.362C114.734 113.869 115.045 113.107 115.126 112.075L115.496 107.338L116.613 107.425ZM120.158 109.259C120.445 108.736 120.85 108.345 121.373 108.086C121.906 107.828 122.54 107.728 123.274 107.785L123.183 108.95L122.88 108.926C122.072 108.863 121.406 109.03 120.883 109.428C120.359 109.826 120.058 110.535 119.978 111.556L119.598 116.421L118.481 116.334L119.162 107.624L120.278 107.712L120.158 109.259ZM130.268 110.434C130.603 109.851 131.083 109.391 131.708 109.054C132.344 108.719 133.072 108.583 133.89 108.647C134.688 108.709 135.386 108.951 135.984 109.372C136.583 109.783 137.032 110.342 137.33 111.05C137.639 111.749 137.759 112.544 137.689 113.438C137.619 114.331 137.377 115.104 136.962 115.756C136.558 116.409 136.022 116.897 135.355 117.219C134.698 117.542 133.977 117.673 133.19 117.612C132.36 117.547 131.657 117.305 131.08 116.885C130.514 116.456 130.117 115.927 129.888 115.299L129.738 117.214L128.638 117.128L129.56 105.324L130.661 105.41L130.268 110.434ZM136.556 113.349C136.613 112.626 136.518 111.993 136.271 111.449C136.036 110.896 135.685 110.462 135.218 110.147C134.75 109.832 134.208 109.651 133.591 109.603C132.996 109.556 132.437 109.657 131.914 109.905C131.403 110.154 130.983 110.533 130.654 111.042C130.325 111.551 130.134 112.157 130.079 112.859C130.024 113.561 130.119 114.189 130.365 114.743C130.61 115.297 130.966 115.737 131.433 116.062C131.911 116.388 132.447 116.575 133.043 116.621C133.659 116.669 134.223 116.574 134.734 116.336C135.246 116.087 135.66 115.708 135.978 115.198C136.308 114.678 136.501 114.062 136.556 113.349ZM147.627 109.849L146.947 118.559L145.83 118.471L145.95 116.94C145.652 117.462 145.226 117.846 144.672 118.092C144.118 118.337 143.511 118.434 142.852 118.383C141.81 118.301 140.984 117.916 140.375 117.226C139.766 116.526 139.509 115.565 139.605 114.342L140.003 109.253L141.103 109.339L140.716 114.3C140.642 115.247 140.819 115.988 141.248 116.524C141.687 117.062 142.317 117.362 143.135 117.426C143.975 117.492 144.666 117.278 145.208 116.786C145.749 116.293 146.06 115.531 146.141 114.499L146.511 109.762L147.627 109.849ZM152.485 119.12C151.485 119.042 150.684 118.749 150.082 118.242C149.491 117.725 149.19 117.065 149.178 116.261L150.326 116.351C150.341 116.844 150.538 117.261 150.918 117.601C151.31 117.931 151.851 118.123 152.542 118.177C153.149 118.225 153.633 118.118 153.996 117.858C154.369 117.598 154.572 117.255 154.606 116.83C154.629 116.532 154.552 116.28 154.376 116.074C154.199 115.867 153.967 115.7 153.677 115.57C153.399 115.43 153.015 115.277 152.525 115.111C151.89 114.89 151.377 114.679 150.986 114.477C150.595 114.275 150.269 113.998 150.008 113.646C149.758 113.284 149.655 112.821 149.699 112.258C149.732 111.832 149.891 111.449 150.174 111.107C150.458 110.766 150.842 110.507 151.326 110.331C151.811 110.155 152.351 110.09 152.946 110.136C153.882 110.21 154.618 110.508 155.155 111.031C155.693 111.544 155.951 112.217 155.928 113.05L154.812 112.962C154.82 112.449 154.65 112.024 154.302 111.687C153.965 111.339 153.478 111.141 152.84 111.091C152.276 111.047 151.808 111.144 151.437 111.383C151.065 111.621 150.864 111.937 150.833 112.33C150.806 112.671 150.885 112.96 151.07 113.2C151.266 113.429 151.513 113.619 151.812 113.771C152.111 113.912 152.515 114.077 153.025 114.267C153.639 114.486 154.126 114.69 154.485 114.879C154.845 115.067 155.146 115.326 155.388 115.655C155.629 115.985 155.736 116.405 155.706 116.916C155.67 117.384 155.509 117.794 155.225 118.146C154.942 118.488 154.563 118.747 154.089 118.924C153.615 119.101 153.08 119.166 152.485 119.12ZM158.995 109.085C158.772 109.067 158.586 108.972 158.439 108.8C158.292 108.628 158.228 108.425 158.246 108.191C158.264 107.958 158.359 107.772 158.53 107.636C158.702 107.489 158.9 107.424 159.123 107.442C159.347 107.459 159.532 107.554 159.679 107.726C159.827 107.887 159.891 108.085 159.873 108.319C159.855 108.553 159.76 108.743 159.588 108.89C159.416 109.037 159.218 109.102 158.995 109.085ZM159.425 110.771L158.744 119.481L157.627 119.393L158.308 110.684L159.425 110.771ZM166.049 111.128C167.091 111.21 167.917 111.601 168.525 112.301C169.135 112.991 169.392 113.947 169.296 115.17L168.897 120.274L167.797 120.188L168.186 115.211C168.26 114.265 168.077 113.523 167.637 112.986C167.209 112.449 166.585 112.149 165.766 112.085C164.926 112.02 164.235 112.233 163.694 112.726C163.152 113.218 162.841 113.98 162.761 115.012L162.389 119.765L161.273 119.678L161.953 110.969L163.07 111.056L162.954 112.54C163.272 112.029 163.702 111.656 164.245 111.421C164.789 111.174 165.39 111.077 166.049 111.128ZM179.622 116.282C179.592 116.665 179.559 116.956 179.522 117.157L172.296 116.592C172.276 117.254 172.391 117.83 172.642 118.32C172.893 118.81 173.242 119.196 173.691 119.477C174.141 119.748 174.642 119.905 175.195 119.948C175.918 120.004 176.538 119.876 177.054 119.564C177.582 119.252 177.948 118.804 178.154 118.221L179.335 118.313C179.056 119.148 178.544 119.808 177.8 120.296C177.067 120.774 176.174 120.971 175.121 120.889C174.302 120.825 173.583 120.587 172.962 120.175C172.343 119.752 171.873 119.191 171.553 118.492C171.245 117.783 171.126 116.976 171.197 116.073C171.267 115.169 171.51 114.391 171.925 113.738C172.34 113.086 172.885 112.604 173.562 112.293C174.239 111.983 174.993 111.86 175.822 111.924C176.651 111.989 177.36 112.226 177.949 112.636C178.548 113.047 178.988 113.573 179.27 114.216C179.563 114.849 179.68 115.537 179.622 116.282ZM178.492 116.161C178.553 115.513 178.464 114.95 178.223 114.471C177.993 113.993 177.653 113.619 177.203 113.348C176.754 113.078 176.252 112.921 175.699 112.878C174.87 112.813 174.142 113.023 173.515 113.509C172.889 113.995 172.506 114.72 172.367 115.683L178.492 116.161ZM184.279 121.605C183.279 121.527 182.478 121.234 181.876 120.727C181.285 120.21 180.983 119.55 180.971 118.746L182.12 118.836C182.135 119.329 182.332 119.746 182.712 120.086C183.104 120.416 183.645 120.608 184.336 120.662C184.942 120.71 185.427 120.603 185.789 120.343C186.163 120.083 186.366 119.74 186.399 119.315C186.423 119.017 186.346 118.765 186.17 118.559C185.993 118.352 185.76 118.184 185.471 118.055C185.193 117.915 184.809 117.762 184.319 117.596C183.684 117.375 183.171 117.164 182.78 116.962C182.389 116.76 182.063 116.483 181.801 116.131C181.552 115.769 181.449 115.306 181.493 114.743C181.526 114.317 181.684 113.934 181.968 113.592C182.251 113.251 182.635 112.992 183.12 112.816C183.604 112.64 184.144 112.575 184.74 112.621C185.676 112.694 186.412 112.993 186.949 113.516C187.487 114.029 187.744 114.702 187.722 115.535L186.605 115.447C186.613 114.934 186.443 114.509 186.095 114.172C185.759 113.824 185.271 113.626 184.633 113.576C184.07 113.532 183.602 113.629 183.23 113.867C182.859 114.106 182.657 114.422 182.627 114.815C182.6 115.156 182.679 115.445 182.864 115.684C183.06 115.914 183.307 116.104 183.605 116.256C183.904 116.397 184.309 116.562 184.818 116.752C185.432 116.971 185.919 117.175 186.279 117.364C186.639 117.552 186.94 117.811 187.181 118.14C187.423 118.47 187.529 118.89 187.5 119.401C187.463 119.869 187.303 120.279 187.019 120.631C186.735 120.973 186.357 121.232 185.883 121.409C185.409 121.586 184.874 121.651 184.279 121.605ZM192.41 122.24C191.41 122.162 190.609 121.869 190.007 121.362C189.416 120.845 189.115 120.185 189.103 119.382L190.251 119.472C190.266 119.965 190.464 120.382 190.844 120.722C191.235 121.052 191.776 121.244 192.468 121.298C193.074 121.345 193.558 121.239 193.921 120.978C194.294 120.718 194.498 120.376 194.531 119.951C194.554 119.653 194.478 119.401 194.301 119.194C194.125 118.988 193.892 118.82 193.602 118.69C193.324 118.551 192.94 118.398 192.45 118.231C191.815 118.01 191.302 117.799 190.911 117.597C190.52 117.396 190.194 117.119 189.933 116.767C189.683 116.405 189.58 115.942 189.624 115.378C189.657 114.953 189.816 114.569 190.099 114.228C190.383 113.886 190.767 113.627 191.251 113.451C191.736 113.275 192.276 113.21 192.871 113.257C193.807 113.33 194.543 113.628 195.08 114.152C195.618 114.665 195.876 115.337 195.853 116.17L194.737 116.083C194.745 115.57 194.575 115.145 194.227 114.807C193.89 114.46 193.403 114.261 192.765 114.211C192.201 114.167 191.733 114.265 191.362 114.503C190.99 114.741 190.789 115.057 190.758 115.451C190.731 115.791 190.81 116.081 190.995 116.32C191.191 116.549 191.438 116.74 191.737 116.892C192.036 117.033 192.44 117.198 192.95 117.388C193.564 117.607 194.051 117.811 194.411 117.999C194.77 118.188 195.071 118.447 195.313 118.776C195.554 119.105 195.661 119.525 195.631 120.037C195.595 120.504 195.434 120.915 195.15 121.267C194.867 121.608 194.488 121.868 194.014 122.045C193.54 122.222 193.005 122.287 192.41 122.24ZM206.273 114.304C207.092 114.368 207.79 114.615 208.366 115.046C208.942 115.476 209.34 115.994 209.561 116.599L209.709 114.701L210.825 114.789L210.127 123.721C210.065 124.519 209.834 125.212 209.435 125.802C209.047 126.392 208.531 126.828 207.889 127.109C207.245 127.401 206.53 127.517 205.743 127.455C204.626 127.368 203.717 127.029 203.014 126.439C202.322 125.85 201.921 125.091 201.812 124.163L202.912 124.249C203.056 124.87 203.38 125.382 203.884 125.785C204.398 126.189 205.043 126.421 205.819 126.482C206.383 126.526 206.897 126.443 207.363 126.234C207.828 126.034 208.206 125.711 208.498 125.263C208.79 124.815 208.961 124.272 209.011 123.634L209.179 121.481C208.856 122.054 208.376 122.514 207.739 122.861C207.114 123.197 206.392 123.333 205.573 123.269C204.775 123.207 204.072 122.964 203.463 122.542C202.865 122.121 202.411 121.556 202.103 120.847C201.805 120.139 201.691 119.339 201.761 118.445C201.831 117.552 202.067 116.784 202.471 116.142C202.885 115.489 203.421 115.007 204.076 114.694C204.743 114.372 205.476 114.242 206.273 114.304ZM209.369 119.056C209.423 118.354 209.328 117.726 209.082 117.172C208.837 116.618 208.475 116.178 207.998 115.851C207.531 115.526 207 115.34 206.405 115.294C205.788 115.245 205.224 115.34 204.713 115.579C204.203 115.817 203.783 116.191 203.454 116.7C203.137 117.199 202.95 117.811 202.894 118.534C202.838 119.246 202.927 119.885 203.161 120.449C203.407 121.003 203.763 121.442 204.23 121.768C204.697 122.083 205.239 122.264 205.856 122.312C206.452 122.359 207.005 122.258 207.517 122.009C208.039 121.761 208.465 121.382 208.793 120.873C209.122 120.363 209.314 119.758 209.369 119.056ZM214.37 116.622C214.657 116.099 215.062 115.708 215.585 115.449C216.119 115.192 216.753 115.091 217.487 115.149L217.396 116.313L217.092 116.289C216.284 116.226 215.619 116.394 215.095 116.791C214.572 117.189 214.27 117.898 214.191 118.919L213.81 123.784L212.694 123.697L213.375 114.988L214.491 115.075L214.37 116.622ZM222.276 124.574C221.457 124.51 220.732 124.272 220.101 123.859C219.481 123.436 219.006 122.875 218.676 122.175C218.357 121.465 218.232 120.658 218.303 119.754C218.374 118.85 218.627 118.078 219.062 117.438C219.498 116.788 220.06 116.307 220.747 115.997C221.436 115.677 222.189 115.548 223.008 115.612C223.827 115.676 224.551 115.92 225.182 116.344C225.823 116.758 226.304 117.32 226.623 118.029C226.953 118.729 227.083 119.531 227.012 120.435C226.943 121.328 226.69 122.1 226.254 122.751C225.818 123.402 225.25 123.887 224.551 124.207C223.853 124.516 223.094 124.638 222.276 124.574ZM222.352 123.601C222.926 123.646 223.467 123.56 223.977 123.343C224.487 123.116 224.911 122.753 225.249 122.255C225.599 121.748 225.804 121.111 225.864 120.345C225.924 119.58 225.825 118.925 225.568 118.38C225.312 117.825 224.949 117.401 224.48 117.108C224.012 116.803 223.49 116.629 222.916 116.584C222.342 116.539 221.8 116.631 221.29 116.858C220.781 117.075 220.356 117.438 220.017 117.946C219.689 118.445 219.495 119.077 219.436 119.843C219.376 120.608 219.469 121.268 219.714 121.822C219.971 122.367 220.329 122.791 220.786 123.094C221.256 123.387 221.777 123.557 222.352 123.601ZM240.873 117.137L237.465 125.633L236.348 125.546L234.511 118.052L231.531 125.169L230.398 125.081L228.351 116.158L229.484 116.247L231.061 123.993L234.094 116.607L235.21 116.694L237.026 124.475L239.773 117.051L240.873 117.137ZM243.773 118.311L243.351 123.718C243.309 124.25 243.382 124.625 243.568 124.842C243.754 125.06 244.102 125.189 244.613 125.229L245.634 125.309L245.559 126.266L244.363 126.172C243.576 126.111 243.005 125.884 242.65 125.493C242.297 125.091 242.153 124.47 242.218 123.63L242.641 118.222L241.429 118.127L241.502 117.186L242.714 117.281L242.885 115.096L244.018 115.184L243.847 117.369L246.24 117.556L246.166 118.498L243.773 118.311ZM252.241 117.865C252.9 117.916 253.48 118.101 253.979 118.418C254.489 118.736 254.871 119.194 255.124 119.791C255.388 120.379 255.488 121.082 255.424 121.901L255.025 127.006L253.925 126.92L254.314 121.943C254.388 120.996 254.205 120.255 253.765 119.717C253.337 119.181 252.713 118.881 251.894 118.817C251.054 118.751 250.363 118.965 249.822 119.457C249.28 119.95 248.969 120.712 248.889 121.744L248.517 126.497L247.401 126.41L248.323 114.606L249.44 114.693L249.082 119.271C249.399 118.772 249.835 118.399 250.389 118.154C250.954 117.909 251.571 117.813 252.241 117.865ZM257.68 127.293C257.446 127.275 257.255 127.18 257.108 127.008C256.972 126.837 256.913 126.634 256.931 126.4C256.95 126.166 257.039 125.981 257.199 125.844C257.371 125.697 257.574 125.632 257.808 125.65C258.032 125.668 258.212 125.762 258.348 125.933C258.496 126.095 258.561 126.292 258.542 126.526C258.524 126.76 258.429 126.951 258.257 127.098C258.096 127.246 257.903 127.311 257.68 127.293Z" fill="#00040E" fill-opacity="0.85"/>
<path d="M28.4263 44.5986C28.5868 42.5449 29.1888 40.7463 30.2322 39.2029C31.2972 37.6412 32.6623 36.474 34.3275 35.7014C36.0143 34.9104 37.8546 34.5928 39.8485 34.7487C42.1814 34.931 44.1784 35.6889 45.8396 37.0224C47.5007 38.3559 48.5976 40.1067 49.1303 42.2748L44.315 41.8984C43.9144 40.8641 43.2949 40.0634 42.4565 39.4963C41.6381 38.9308 40.6606 38.6037 39.5241 38.5149C38.3078 38.4198 37.1985 38.624 36.1962 39.1274C35.2155 39.6125 34.4154 40.3524 33.796 41.3471C33.1965 42.3435 32.8423 43.5395 32.7332 44.9352C32.6256 46.311 32.7898 47.5476 33.2256 48.6449C33.6829 49.7238 34.3576 50.589 35.2495 51.2405C36.163 51.8736 37.2278 52.2377 38.4441 52.3327C39.5807 52.4215 40.5971 52.2502 41.4934 51.8188C42.4113 51.3689 43.1484 50.6642 43.7049 49.7046L48.5202 50.081C47.6556 52.1599 46.2992 53.729 44.451 54.7882C42.6244 55.8291 40.5347 56.2575 38.1818 56.0737C36.1879 55.9178 34.4185 55.3281 32.8735 54.3046C31.3501 53.2628 30.1829 51.8977 29.372 50.2094C28.581 48.5226 28.2658 46.6523 28.4263 44.5986ZM57.4994 35.1352L55.7696 57.2677L51.5824 56.9405L53.3122 34.808L57.4994 35.1352ZM67.2431 58.4353C65.648 58.3106 64.2396 57.8495 63.0181 57.0519C61.7981 56.2343 60.8698 55.1487 60.2334 53.795C59.6169 52.4428 59.3748 50.9193 59.5073 49.2245C59.6398 47.5297 60.1255 46.0631 60.9646 44.8247C61.8236 43.5878 62.9283 42.6711 64.2789 42.0746C65.6311 41.4581 67.1047 41.2121 68.6999 41.3368C70.295 41.4615 71.7125 41.9334 72.9525 42.7525C74.194 43.5516 75.133 44.6281 75.7694 45.9818C76.4258 47.3371 76.6878 48.8621 76.5553 50.5569C76.4228 52.2518 75.9172 53.7168 75.0382 54.9521C74.1792 56.1889 73.0637 57.1148 71.6916 57.7298C70.341 58.3263 68.8582 58.5615 67.2431 58.4353ZM67.5283 54.7864C68.286 54.8456 69.0079 54.7215 69.6939 54.414C70.4015 54.0882 70.9834 53.5719 71.4399 52.8654C71.8963 52.1588 72.1659 51.2771 72.2484 50.2203C72.3716 48.6451 72.0471 47.4061 71.2751 46.5032C70.5246 45.5819 69.5512 45.0745 68.3549 44.981C67.1585 44.8875 66.1181 45.2375 65.2336 46.031C64.3705 46.8061 63.8775 47.9812 63.7544 49.5564C63.6312 51.1316 63.925 52.3783 64.6356 53.2965C65.3677 54.1963 66.332 54.6929 67.5283 54.7864ZM95.9166 43.7348L94.6216 60.3043L90.4044 59.9747L90.5681 57.8811C89.9736 58.5568 89.2214 59.0698 88.3113 59.4199C87.4228 59.7517 86.47 59.8778 85.4531 59.7983C84.1571 59.6971 83.0316 59.3383 82.0767 58.722C81.1234 58.0858 80.3989 57.2167 79.9033 56.1147C79.4291 54.9944 79.2497 53.6964 79.3651 52.2209L80.1248 42.5006L84.312 42.8278L83.599 51.95C83.4962 53.266 83.7457 54.3086 84.3476 55.0779C84.951 55.8272 85.821 56.2462 86.9576 56.335C88.114 56.4254 89.0485 56.1474 89.7611 55.501C90.4752 54.8346 90.8837 53.8434 90.9865 52.5274L91.6995 43.4052L95.9166 43.7348ZM98.3284 52.1985C98.4594 50.5236 98.9044 49.0638 99.6637 47.8192C100.443 46.5762 101.438 45.6509 102.649 45.0434C103.86 44.4359 105.173 44.1875 106.589 44.2981C107.666 44.3823 108.674 44.7018 109.614 45.2567C110.555 45.7917 111.284 46.4706 111.802 47.2934L112.416 39.4274L116.663 39.7593L114.934 61.8918L110.687 61.5599L110.878 59.1074C110.296 59.8844 109.517 60.4855 108.541 60.9107C107.565 61.3359 106.458 61.5002 105.222 61.4036C103.826 61.2945 102.578 60.8359 101.478 60.0277C100.378 59.2195 99.5391 58.1409 98.9625 56.7919C98.4073 55.4244 98.196 53.8933 98.3284 52.1985ZM111.364 53.2775C111.443 52.2606 111.312 51.3777 110.969 50.6287C110.628 49.8598 110.133 49.2594 109.485 48.8276C108.838 48.3758 108.126 48.1195 107.348 48.0587C106.571 47.998 105.838 48.1313 105.151 48.4587C104.463 48.7861 103.881 49.3023 103.405 50.0074C102.95 50.694 102.683 51.5358 102.605 52.5328C102.527 53.5297 102.658 54.4226 102.998 55.2115C103.359 55.982 103.853 56.5923 104.48 57.0425C105.126 57.4943 105.829 57.7498 106.586 57.809C107.364 57.8698 108.107 57.7372 108.814 57.4114C109.523 57.0656 110.105 56.5494 110.56 55.8627C111.017 55.1561 111.285 54.2944 111.364 53.2775ZM131.969 42.2194L130.337 63.0957L126.15 62.7685L127.782 41.8921L131.969 42.2194ZM144.97 47.328C146.944 47.4822 148.49 48.235 149.608 49.5862C150.728 50.9175 151.2 52.6998 151.026 54.933L150.266 64.6533L146.079 64.3261L146.794 55.174C146.897 53.858 146.647 52.8253 146.043 52.076C145.441 51.3068 144.572 50.8778 143.435 50.7889C142.279 50.6985 141.334 50.9858 140.6 51.6506C139.887 52.297 139.48 53.2783 139.377 54.5942L138.661 63.7463L134.474 63.4191L135.769 46.8496L139.956 47.1769L139.795 49.2406C140.409 48.5664 141.161 48.0634 142.05 47.7316C142.96 47.3815 143.933 47.2469 144.97 47.328ZM162.871 52.4283L159.97 52.2016L158.943 65.3315L154.696 64.9996L155.723 51.8696L153.838 51.7224L154.107 48.2829L155.991 48.4301L156.057 47.5927C156.216 45.5589 156.911 44.1086 158.142 43.2419C159.374 42.3752 161.153 42.063 163.481 42.3051L163.206 45.8344C162.19 45.7349 161.469 45.8491 161.042 46.1768C160.616 46.5046 160.366 47.137 160.292 48.0742L160.239 48.7621L163.14 48.9888L162.871 52.4283ZM169.839 52.1003C170.446 51.2651 171.198 50.6317 172.094 50.2002C173.011 49.7703 174.027 49.599 175.144 49.6863L174.8 54.0829L173.693 53.9964C172.377 53.8935 171.356 54.1247 170.63 54.6898C169.924 55.2565 169.511 56.3075 169.391 57.8428L168.745 66.0976L164.558 65.7704L165.853 49.2009L170.04 49.5282L169.839 52.1003ZM176.226 58.2867C176.357 56.6118 176.802 55.1521 177.561 53.9075C178.34 52.6644 179.325 51.7384 180.516 51.1293C181.727 50.5218 183.041 50.2734 184.456 50.3841C185.693 50.4807 186.75 50.8141 187.628 51.3842C188.526 51.956 189.225 52.6425 189.724 53.4438L189.909 51.081L194.126 51.4106L192.831 67.9801L188.614 67.6505L188.803 65.2279C188.204 65.9634 187.406 66.553 186.408 66.9966C185.432 67.4219 184.326 67.5862 183.089 67.4895C181.694 67.3805 180.446 66.9218 179.345 66.1136C178.265 65.307 177.436 64.2291 176.86 62.8801C176.305 61.5127 176.093 59.9816 176.226 58.2867ZM189.261 59.3657C189.341 58.3488 189.209 57.4659 188.866 56.7169C188.525 55.948 188.031 55.3476 187.382 54.9158C186.735 54.464 186.023 54.2078 185.246 54.147C184.468 54.0862 183.735 54.2195 183.048 54.5469C182.36 54.8744 181.778 55.3906 181.302 56.0956C180.847 56.7823 180.581 57.6241 180.503 58.621C180.425 59.618 180.556 60.5109 180.895 61.2997C181.256 62.0702 181.75 62.6806 182.377 63.1308C183.024 63.5825 183.726 63.838 184.484 63.8973C185.261 63.958 186.004 63.8255 186.711 63.4996C187.42 63.1538 188.002 62.6376 188.457 61.951C188.914 61.2444 189.182 60.3826 189.261 59.3657ZM203.24 69.0645C201.884 68.9585 200.687 68.6242 199.647 68.0615C198.609 67.4788 197.804 66.7439 197.232 65.8565C196.679 64.9708 196.413 64.0171 196.432 62.9955L200.649 63.3251C200.679 63.9694 200.947 64.522 201.453 64.9828C201.978 65.4451 202.65 65.7083 203.467 65.7722C204.265 65.8345 204.895 65.7233 205.359 65.4385C205.843 65.1554 206.104 64.7645 206.143 64.2661C206.185 63.7277 205.937 63.3071 205.399 63.0042C204.882 62.683 204.038 62.3161 202.867 61.9036C201.654 61.5079 200.661 61.1194 199.889 60.738C199.136 60.3582 198.496 59.8167 197.969 59.1135C197.462 58.4119 197.253 57.5028 197.34 56.3862C197.412 55.469 197.736 54.6518 198.314 53.9346C198.912 53.219 199.716 52.6801 200.727 52.3178C201.759 51.957 202.942 51.8288 204.278 51.9333C206.252 52.0875 207.788 52.7091 208.887 53.798C209.987 54.867 210.531 56.2436 210.52 57.9278L206.512 57.6146C206.504 56.9519 206.265 56.4117 205.796 55.9939C205.349 55.5577 204.716 55.3077 203.899 55.2438C203.141 55.1846 202.542 55.2782 202.102 55.5246C201.681 55.7726 201.451 56.1458 201.412 56.6443C201.369 57.2026 201.614 57.6531 202.149 57.9958C202.686 58.3186 203.53 58.6755 204.683 59.0665C205.856 59.4591 206.819 59.8453 207.572 60.2251C208.325 60.6049 208.954 61.1556 209.459 61.8772C209.986 62.5804 210.216 63.4811 210.151 64.5793C210.076 65.5364 209.74 66.3727 209.142 67.0883C208.564 67.8055 207.76 68.3445 206.729 68.7052C205.719 69.0476 204.556 69.1673 203.24 69.0645ZM219.12 56.8246L218.493 64.8401C218.45 65.3984 218.547 65.8173 218.786 66.0968C219.047 66.3579 219.496 66.5134 220.134 66.5632L222.078 66.7152L221.802 70.2444L219.17 70.0387C215.641 69.7629 214.01 67.9102 214.278 64.4806L214.903 56.495L212.929 56.3407L213.197 52.9012L215.171 53.0555L215.492 48.958L219.709 49.2876L219.389 53.3851L223.097 53.6749L222.828 57.1144L219.12 56.8246ZM230.095 56.8097C230.702 55.9745 231.454 55.3411 232.35 54.9097C233.266 54.4798 234.283 54.3084 235.399 54.3957L235.056 58.7923L233.949 58.7058C232.633 58.603 231.612 58.8341 230.886 59.3992C230.179 59.9659 229.766 61.0169 229.646 62.5522L229.001 70.8071L224.814 70.4798L226.109 53.9103L230.296 54.2376L230.095 56.8097ZM253.843 56.078L252.548 72.6474L248.331 72.3178L248.495 70.2242C247.9 70.9 247.148 71.4129 246.238 71.7631C245.349 72.0948 244.397 72.221 243.38 72.1415C242.084 72.0402 240.958 71.6814 240.003 71.0651C239.05 70.4289 238.326 69.5598 237.83 68.4579C237.356 67.3375 237.176 66.0396 237.292 64.5641L238.051 54.8437L242.239 55.171L241.526 64.2932C241.423 65.6091 241.672 66.6518 242.274 67.421C242.878 68.1703 243.748 68.5894 244.884 68.6782C246.041 68.7686 246.975 68.4905 247.688 67.8441C248.402 67.1777 248.81 66.1865 248.913 64.8705L249.626 55.7484L253.843 56.078ZM256.25 64.6014C256.384 62.8867 256.85 61.4185 257.648 60.1969C258.447 58.9554 259.492 58.0341 260.783 57.4328C262.075 56.8116 263.519 56.5634 265.114 56.688C267.168 56.8486 268.822 57.4994 270.077 58.6407C271.353 59.7636 272.148 61.2701 272.462 63.1603L267.946 62.8073C267.763 62.0708 267.397 61.4805 266.85 61.0366C266.325 60.5742 265.643 60.3103 264.806 60.2448C263.609 60.1513 262.628 60.516 261.862 61.3388C261.097 62.1416 260.652 63.3406 260.527 64.9357C260.404 66.5109 260.657 67.7645 261.287 68.6963C261.917 69.6083 262.831 70.111 264.027 70.2045C265.722 70.3369 266.888 69.6657 267.525 68.1909L272.041 68.5439C271.442 70.3025 270.424 71.6573 268.985 72.6081C267.547 73.5589 265.811 73.9548 263.777 73.7959C262.182 73.6712 260.793 73.2116 259.612 72.4171C258.431 71.6027 257.542 70.5301 256.944 69.1995C256.348 67.8489 256.116 66.3162 256.25 64.6014ZM280.573 61.6276L279.946 69.6432C279.903 70.2015 280 70.6204 280.239 70.8998C280.5 71.1609 280.949 71.3164 281.587 71.3663L283.531 71.5182L283.255 75.0474L280.623 74.8417C277.094 74.5659 275.464 72.7132 275.732 69.2837L276.356 61.298L274.382 61.1437L274.651 57.7042L276.625 57.8585L276.945 53.761L281.162 54.0906L280.842 58.1881L284.55 58.478L284.282 61.9175L280.573 61.6276ZM303.204 59.9359L301.909 76.5054L297.692 76.1758L297.856 74.0822C297.261 74.7579 296.509 75.2708 295.599 75.621C294.711 75.9528 293.758 76.0789 292.741 75.9994C291.445 75.8981 290.319 75.5394 289.365 74.9231C288.411 74.2869 287.687 73.4178 287.191 72.3158C286.717 71.1954 286.538 69.8975 286.653 68.422L287.413 58.7017L291.6 59.0289L290.887 68.1511C290.784 69.4671 291.033 70.5097 291.635 71.2789C292.239 72.0282 293.109 72.4473 294.245 72.5361C295.402 72.6265 296.336 72.3485 297.049 71.7021C297.763 71.0357 298.171 70.0445 298.274 68.7285L298.987 59.6063L303.204 59.9359ZM311.322 63.1582C311.929 62.323 312.681 61.6896 313.577 61.2582C314.493 60.8282 315.51 60.6569 316.626 60.7442L316.283 65.1408L315.176 65.0543C313.86 64.9514 312.839 65.1826 312.113 65.7477C311.406 66.3144 310.993 67.3654 310.873 68.9007L310.228 77.1555L306.041 76.8283L307.336 60.2588L311.523 60.5861L311.322 63.1582ZM334.211 70.3336C334.165 70.9318 334.083 71.467 333.965 71.9393L321.852 70.9926C321.859 72.1967 322.204 73.1666 322.889 73.9022C323.574 74.6378 324.454 75.0477 325.531 75.1318C327.086 75.2534 328.245 74.6719 329.008 73.3874L333.524 73.7404C332.921 75.2981 331.901 76.5424 330.464 77.4733C329.028 78.3842 327.324 78.7625 325.35 78.6082C323.755 78.4836 322.346 78.0224 321.125 77.2248C319.925 76.4088 319.016 75.3248 318.4 73.9726C317.803 72.622 317.571 71.0993 317.704 69.4045C317.838 67.6897 318.304 66.2116 319.103 64.9701C319.903 63.7286 320.957 62.808 322.268 62.2083C323.579 61.6086 325.052 61.3726 326.687 61.5004C328.262 61.6235 329.641 62.0724 330.824 62.8469C332.028 63.623 332.919 64.6657 333.499 65.9748C334.1 67.2656 334.338 68.7185 334.211 70.3336ZM329.968 68.7983C330.032 67.72 329.711 66.8322 329.003 66.135C328.296 65.4178 327.395 65.0163 326.298 64.9306C325.261 64.8495 324.359 65.1 323.592 65.6819C322.845 66.2455 322.349 67.0794 322.102 68.1835L329.968 68.7983Z" fill="black"/>
</svg>
