<svg width="460" height="159" viewBox="0 0 460 159" fill="none" xmlns="http://www.w3.org/2000/svg">
<rect y="28.6125" width="452" height="130" rx="19" transform="rotate(-3.62939 0 28.6125)" fill="#EBAA48"/>
<path d="M29.0888 98.7278C30.3237 98.6495 31.3971 98.8059 32.309 99.1969C33.2209 99.588 33.9377 100.189 34.4595 101C34.9812 101.812 35.2789 102.797 35.3525 103.958C35.4254 105.108 35.2543 106.118 34.8393 106.988C34.4236 107.848 33.7881 108.53 32.9329 109.033C32.077 109.526 31.0317 109.811 29.7968 109.889L26.4915 110.099L25.7835 98.9375L29.0888 98.7278ZM29.7381 108.963C31.2923 108.865 32.4483 108.385 33.206 107.525C33.9737 106.653 34.3113 105.488 34.2188 104.03C34.1256 102.561 33.6431 101.442 32.7715 100.675C31.9098 99.8956 30.7018 99.5554 29.1476 99.654L26.96 99.7927L27.5505 109.102L29.7381 108.963ZM45.349 104.077C45.3733 104.46 45.3812 104.754 45.3727 104.958L38.1393 105.416C38.2131 106.074 38.4085 106.628 38.7257 107.079C39.0428 107.529 39.4433 107.861 39.9273 108.076C40.4105 108.281 40.9289 108.366 41.4825 108.331C42.2063 108.285 42.802 108.07 43.2694 107.688C43.7474 107.305 44.0474 106.81 44.1692 106.204L45.3509 106.129C45.192 106.994 44.7785 107.721 44.1103 108.308C43.4521 108.884 42.5961 109.206 41.5422 109.273C40.7225 109.325 39.9765 109.19 39.3042 108.87C38.6312 108.538 38.0871 108.049 37.672 107.402C37.2669 106.744 37.0356 105.962 36.9782 105.057C36.9208 104.152 37.0515 103.348 37.3702 102.643C37.6889 101.939 38.1615 101.386 38.7879 100.982C39.4143 100.579 40.1427 100.351 40.973 100.299C41.8033 100.246 42.5387 100.381 43.1791 100.704C43.8301 101.026 44.3402 101.485 44.7094 102.082C45.0885 102.667 45.3017 103.332 45.349 104.077ZM44.2132 104.117C44.1827 103.467 44.0145 102.922 43.7087 102.482C43.4135 102.041 43.0243 101.718 42.5411 101.514C42.0578 101.309 41.5394 101.225 40.9859 101.26C40.1555 101.312 39.4645 101.624 38.9128 102.193C38.361 102.762 38.084 103.533 38.0815 104.506L44.2132 104.117ZM48.0671 96.8667L48.8166 108.683L47.6988 108.754L46.9493 96.9376L48.0671 96.8667ZM51.2493 98.1238C51.0258 98.138 50.8291 98.0703 50.6593 97.9208C50.4895 97.7712 50.3971 97.5793 50.3823 97.3451C50.3674 97.1109 50.4351 96.9143 50.5853 96.7551C50.7349 96.5853 50.9214 96.4933 51.145 96.4791C51.3685 96.4649 51.5652 96.5326 51.735 96.6822C51.9042 96.8211 51.9961 97.0076 52.011 97.2418C52.0259 97.476 51.9585 97.678 51.809 97.8478C51.6594 98.0176 51.4729 98.1096 51.2493 98.1238ZM51.9125 99.7331L52.4655 108.452L51.3478 108.522L50.7947 99.804L51.9125 99.7331ZM58.0256 107.009L60.4795 99.1896L61.6612 99.1147L58.7172 108.055L57.4557 108.135L53.4058 99.6383L54.6033 99.5624L58.0256 107.009ZM71.3124 102.43C71.3367 102.814 71.3446 103.107 71.3362 103.311L64.1027 103.769C64.1765 104.427 64.372 104.982 64.6891 105.432C65.0062 105.882 65.4068 106.214 65.8907 106.43C66.3739 106.634 66.8923 106.719 67.4459 106.684C68.1698 106.638 68.7654 106.424 69.2328 106.041C69.7109 105.658 70.0108 105.164 70.1327 104.557L71.3143 104.482C71.1554 105.348 70.7419 106.074 70.0738 106.661C69.4156 107.237 68.5595 107.559 67.5057 107.626C66.686 107.678 65.94 107.543 65.2676 107.223C64.5947 106.891 64.0506 106.402 63.6355 105.755C63.2303 105.097 62.999 104.315 62.9416 103.41C62.8843 102.505 63.0149 101.701 63.3336 100.997C63.6524 100.292 64.1249 99.7387 64.7513 99.3355C65.3777 98.9324 66.1061 98.7045 66.9364 98.6518C67.7668 98.5992 68.5021 98.7342 69.1425 99.057C69.7935 99.3791 70.3036 99.8384 70.6728 100.435C71.0519 101.02 71.2651 101.685 71.3124 102.43ZM70.1767 102.47C70.1461 101.82 69.9779 101.275 69.6721 100.835C69.377 100.394 68.9878 100.071 68.5045 99.867C68.0213 99.6625 67.5029 99.5778 66.9493 99.6129C66.119 99.6656 65.4279 99.9766 64.8762 100.546C64.3245 101.115 64.0474 101.887 64.045 102.859L70.1767 102.47ZM74.3253 99.8665C74.5357 99.3081 74.8816 98.864 75.363 98.5342C75.8551 98.2037 76.4684 98.0152 77.2029 97.9686L77.2768 99.1342L76.9735 99.1535C76.1644 99.2048 75.5289 99.4642 75.0669 99.9317C74.6049 100.399 74.4063 101.144 74.4711 102.166L74.78 107.036L73.6623 107.107L73.1093 98.3885L74.227 98.3176L74.3253 99.8665ZM79.3491 96.3414C79.1255 96.3556 78.9289 96.2879 78.759 96.1384C78.5892 95.9888 78.4969 95.797 78.4821 95.5628C78.4672 95.3286 78.5349 95.1319 78.6851 94.9727C78.8347 94.8029 79.0212 94.7109 79.2448 94.6968C79.4683 94.6826 79.665 94.7503 79.8348 94.8998C80.0039 95.0387 80.0959 95.2253 80.1108 95.4595C80.1256 95.6937 80.0583 95.8957 79.9087 96.0655C79.7592 96.2353 79.5726 96.3273 79.3491 96.3414ZM80.0123 97.9507L80.5653 106.669L79.4475 106.74L78.8945 98.0216L80.0123 97.9507ZM86.6211 97.3712C87.6643 97.305 88.5366 97.5757 89.2378 98.1832C89.9383 98.78 90.3274 99.6905 90.405 100.915L90.7291 106.024L89.6273 106.094L89.3113 101.112C89.2512 100.165 88.9658 99.4563 88.455 98.9863C87.9549 98.5157 87.295 98.3064 86.4753 98.3584C85.6343 98.4117 84.9806 98.7204 84.514 99.2844C84.0474 99.8484 83.8469 100.647 83.9124 101.679L84.2142 106.438L83.0965 106.509L82.5434 97.7901L83.6612 97.7192L83.7554 99.2043C83.9984 98.6544 84.3719 98.2246 84.876 97.9147C85.3794 97.5942 85.9611 97.413 86.6211 97.3712ZM96.2967 96.7895C97.1164 96.7375 97.8418 96.8839 98.4728 97.2286C99.1039 97.5734 99.5711 98.0301 99.8744 98.5987L99.7539 96.6985L100.872 96.6276L101.439 105.57C101.489 106.368 101.359 107.087 101.047 107.727C100.745 108.366 100.296 108.87 99.6996 109.239C99.1038 109.619 98.412 109.834 97.6242 109.884C96.5065 109.955 95.5582 109.748 94.7792 109.263C94.0109 108.777 93.5073 108.082 93.2682 107.178L94.37 107.108C94.6001 107.703 94.9928 108.164 95.548 108.492C96.1139 108.82 96.7854 108.959 97.5625 108.91C98.1267 108.874 98.6245 108.719 99.0561 108.446C99.4884 108.184 99.8174 107.81 100.043 107.325C100.269 106.841 100.362 106.279 100.321 105.641L100.184 103.485C99.9454 104.099 99.535 104.622 98.9532 105.054C98.3813 105.475 97.6856 105.711 96.8659 105.763C96.0675 105.814 95.3371 105.673 94.6748 105.341C94.0231 105.009 93.4947 104.513 93.0895 103.855C92.695 103.196 92.4694 102.419 92.4127 101.525C92.3559 100.631 92.482 99.8371 92.7907 99.1442C93.1094 98.4399 93.5714 97.8869 94.1765 97.4851C94.7916 97.072 95.4983 96.8402 96.2967 96.7895ZM100.03 101.058C99.9858 100.355 99.8029 99.7468 99.4817 99.2328C99.1606 98.7188 98.7407 98.3339 98.2221 98.0782C97.7142 97.8219 97.1622 97.7126 96.5661 97.7504C95.9486 97.7896 95.4039 97.9631 94.9317 98.2709C94.4596 98.5787 94.0967 99.0079 93.843 99.5584C93.5994 100.098 93.5005 100.729 93.5464 101.453C93.5916 102.166 93.7698 102.786 94.0811 103.311C94.4022 103.825 94.8168 104.21 95.3247 104.466C95.8319 104.712 96.3943 104.815 97.0117 104.776C97.6078 104.738 98.1416 104.56 98.6131 104.242C99.0952 103.923 99.4631 103.488 99.7167 102.937C99.9704 102.387 100.075 101.76 100.03 101.058ZM111.368 104.844C110.368 104.907 109.533 104.73 108.866 104.313C108.208 103.884 107.816 103.273 107.691 102.48L108.841 102.407C108.925 102.893 109.179 103.278 109.604 103.561C110.038 103.832 110.601 103.946 111.293 103.903C111.899 103.864 112.364 103.69 112.686 103.381C113.019 103.072 113.172 102.704 113.145 102.278C113.127 101.98 113.015 101.741 112.811 101.562C112.608 101.382 112.353 101.249 112.049 101.161C111.754 101.062 111.352 100.965 110.844 100.869C110.183 100.74 109.646 100.603 109.23 100.458C108.815 100.313 108.453 100.085 108.145 99.7735C107.846 99.4504 107.679 99.0067 107.644 98.4425C107.617 98.0167 107.719 97.6148 107.952 97.2366C108.184 96.8585 108.528 96.5481 108.983 96.3055C109.438 96.0629 109.963 95.9226 110.56 95.8848C111.496 95.8254 112.267 96.017 112.873 96.4596C113.477 96.8915 113.827 97.5213 113.922 98.3489L112.804 98.4198C112.74 97.9109 112.512 97.5138 112.12 97.2288C111.738 96.9324 111.227 96.8044 110.588 96.8449C110.024 96.8807 109.575 97.0428 109.24 97.3312C108.906 97.6196 108.751 97.9608 108.776 98.3547C108.798 98.6953 108.917 98.971 109.133 99.1817C109.36 99.3811 109.631 99.5349 109.948 99.6431C110.264 99.7406 110.688 99.8473 111.219 99.9633C111.858 100.094 112.369 100.227 112.751 100.363C113.134 100.499 113.468 100.713 113.754 101.005C114.04 101.297 114.204 101.698 114.247 102.208C114.277 102.676 114.176 103.105 113.944 103.494C113.711 103.872 113.373 104.182 112.929 104.424C112.485 104.666 111.964 104.806 111.368 104.844ZM124.081 99.0833C124.106 99.4665 124.114 99.7599 124.105 99.9635L116.872 100.422C116.945 101.08 117.141 101.634 117.458 102.085C117.775 102.535 118.176 102.867 118.66 103.083C119.143 103.287 119.661 103.372 120.215 103.337C120.939 103.291 121.534 103.077 122.002 102.694C122.48 102.311 122.78 101.816 122.902 101.21L124.083 101.135C123.924 102 123.511 102.727 122.843 103.314C122.185 103.89 121.328 104.212 120.275 104.279C119.455 104.331 118.709 104.196 118.037 103.876C117.364 103.544 116.82 103.055 116.404 102.408C115.999 101.75 115.768 100.968 115.711 100.063C115.653 99.1583 115.784 98.3537 116.103 97.6495C116.421 96.9452 116.894 96.3915 117.52 95.9884C118.147 95.5853 118.875 95.3574 119.705 95.3047C120.536 95.252 121.271 95.3871 121.911 95.7099C122.562 96.032 123.073 96.4913 123.442 97.0878C123.821 97.6729 124.034 98.3381 124.081 99.0833ZM122.946 99.1233C122.915 98.4732 122.747 97.9281 122.441 97.4879C122.146 97.047 121.757 96.7244 121.273 96.5199C120.79 96.3154 120.272 96.2307 119.718 96.2658C118.888 96.3185 118.197 96.6295 117.645 97.1989C117.093 97.7683 116.816 98.5394 116.814 99.5122L122.946 99.1233ZM125.643 99.4171C125.586 98.5229 125.712 97.7293 126.021 97.0364C126.34 96.3321 126.801 95.7791 127.407 95.3774C128.022 94.9643 128.728 94.7324 129.527 94.6817C130.357 94.6291 131.082 94.7755 131.703 95.1209C132.334 95.4656 132.802 95.9276 133.105 96.5069L132.984 94.5907L134.102 94.5198L134.655 103.238L133.537 103.309L133.414 101.377C133.175 101.991 132.765 102.514 132.183 102.946C131.611 103.367 130.91 103.604 130.08 103.657C129.292 103.707 128.567 103.566 127.905 103.234C127.253 102.901 126.725 102.405 126.32 101.747C125.925 101.088 125.699 100.311 125.643 99.4171ZM133.26 98.95C133.216 98.2474 133.033 97.6391 132.712 97.125C132.391 96.611 131.971 96.2261 131.452 95.9704C130.944 95.7141 130.392 95.6048 129.796 95.6426C129.179 95.6818 128.634 95.8553 128.162 96.1631C127.69 96.471 127.327 96.9001 127.073 97.4506C126.829 97.9898 126.731 98.6213 126.776 99.3452C126.822 100.058 127 100.678 127.311 101.203C127.632 101.717 128.047 102.102 128.555 102.359C129.062 102.604 129.624 102.708 130.242 102.669C130.838 102.631 131.372 102.453 131.843 102.134C132.325 101.815 132.693 101.38 132.947 100.83C133.2 100.279 133.305 99.6525 133.26 98.95ZM147.022 93.5399C148.044 93.4751 148.895 93.7471 149.575 94.356C150.265 94.9535 150.649 95.8644 150.727 97.0886L151.051 102.198L149.949 102.268L149.633 97.2862C149.573 96.3388 149.298 95.6294 148.808 95.1581C148.319 94.6868 147.68 94.4762 146.893 94.5261C146.073 94.5781 145.435 94.8911 144.98 95.4651C144.525 96.039 144.33 96.8423 144.396 97.8749L144.695 102.601L143.594 102.671L143.278 97.6893C143.218 96.7419 142.943 96.0325 142.453 95.5612C141.964 95.0899 141.32 94.8796 140.521 94.9303C139.702 94.9822 139.064 95.2952 138.609 95.8692C138.154 96.4432 137.959 97.2464 138.024 98.279L138.324 103.006L137.206 103.076L136.653 94.358L137.771 94.2871L137.866 95.788C138.109 95.2276 138.477 94.7928 138.97 94.4836C139.463 94.1637 140.023 93.9839 140.651 93.9441C141.407 93.8961 142.079 94.0352 142.666 94.3614C143.264 94.6869 143.712 95.1928 144.013 95.8792C144.203 95.1724 144.569 94.6201 145.11 94.2224C145.661 93.8133 146.299 93.5858 147.022 93.5399ZM153.901 90.1537L154.651 101.97L153.533 102.041L152.784 90.2246L153.901 90.1537ZM164.765 96.5027C164.79 96.8859 164.797 97.1794 164.789 97.383L157.556 97.8418C157.629 98.4998 157.825 99.0538 158.142 99.504C158.459 99.9542 158.86 100.287 159.344 100.502C159.827 100.706 160.345 100.791 160.899 100.756C161.623 100.71 162.218 100.496 162.686 100.114C163.164 99.7306 163.464 99.2359 163.586 98.6297L164.767 98.5547C164.608 99.4198 164.195 100.146 163.527 100.734C162.868 101.31 162.012 101.631 160.958 101.698C160.139 101.75 159.393 101.616 158.72 101.295C158.047 100.964 157.503 100.474 157.088 99.8274C156.683 99.169 156.452 98.3874 156.394 97.4826C156.337 96.5777 156.468 95.7732 156.786 95.0689C157.105 94.3647 157.578 93.811 158.204 93.4078C158.831 93.0047 159.559 92.7768 160.389 92.7241C161.22 92.6715 161.955 92.8065 162.595 93.1293C163.246 93.4514 163.756 93.9107 164.126 94.5072C164.505 95.0924 164.718 95.7575 164.765 96.5027ZM163.629 96.5427C163.599 95.8927 163.431 95.3475 163.125 94.9074C162.83 94.4665 162.441 94.1438 161.957 93.9393C161.474 93.7348 160.956 93.6501 160.402 93.6853C159.572 93.7379 158.881 94.049 158.329 94.6184C157.777 95.1878 157.5 95.9589 157.498 96.9316L163.629 96.5427ZM170.125 101.117C169.125 101.18 168.29 101.003 167.623 100.586C166.965 100.157 166.573 99.5464 166.448 98.7527L167.598 98.6798C167.682 99.1661 167.936 99.5508 168.36 99.8338C168.794 100.106 169.358 100.219 170.049 100.176C170.656 100.137 171.121 99.9633 171.443 99.6543C171.776 99.3446 171.929 98.9768 171.902 98.551C171.883 98.253 171.772 98.0142 171.568 97.8347C171.365 97.6553 171.11 97.5218 170.805 97.4342C170.511 97.3354 170.109 97.2379 169.601 97.1419C168.94 97.0128 168.403 96.8759 167.987 96.7312C167.572 96.5865 167.21 96.3583 166.902 96.0466C166.603 95.7235 166.436 95.2798 166.401 94.7156C166.373 94.2898 166.476 93.8878 166.709 93.5097C166.941 93.1315 167.285 92.8212 167.74 92.5785C168.195 92.3359 168.72 92.1957 169.316 92.1579C170.253 92.0985 171.024 92.2901 171.629 92.7326C172.234 93.1646 172.584 93.7943 172.679 94.622L171.561 94.6929C171.497 94.1839 171.269 93.7869 170.877 93.5018C170.494 93.2054 169.984 93.0775 169.345 93.118C168.781 93.1538 168.332 93.3159 167.997 93.6043C167.663 93.8927 167.508 94.2339 167.533 94.6277C167.555 94.9684 167.674 95.2441 167.89 95.4548C168.117 95.6542 168.388 95.808 168.705 95.9161C169.021 96.0137 169.445 96.1204 169.976 96.2363C170.615 96.3668 171.126 96.5001 171.508 96.6361C171.891 96.7722 172.225 96.9861 172.511 97.2779C172.797 97.5698 172.961 97.9708 173.004 98.4811C173.034 98.9495 172.933 99.3781 172.701 99.7669C172.468 100.145 172.13 100.455 171.686 100.697C171.241 100.939 170.721 101.079 170.125 101.117ZM178.265 100.6C177.264 100.664 176.43 100.487 175.762 100.07C175.105 99.6412 174.713 99.0301 174.588 98.2364L175.738 98.1635C175.822 98.6498 176.076 99.0344 176.5 99.3175C176.934 99.5892 177.497 99.7032 178.189 99.6593C178.796 99.6208 179.261 99.447 179.583 99.138C179.916 98.8283 180.069 98.4605 180.042 98.0347C180.023 97.7366 179.912 97.4979 179.708 97.3184C179.504 97.139 179.25 97.0055 178.945 96.9179C178.65 96.819 178.249 96.7216 177.74 96.6256C177.08 96.4965 176.542 96.3596 176.127 96.2149C175.712 96.0702 175.35 95.842 175.042 95.5302C174.743 95.2072 174.576 94.7635 174.54 94.1993C174.513 93.7735 174.616 93.3715 174.849 92.9934C175.081 92.6152 175.425 92.3048 175.88 92.0622C176.335 91.8196 176.86 91.6794 177.456 91.6416C178.393 91.5822 179.164 91.7737 179.769 92.2163C180.374 92.6483 180.724 93.278 180.819 94.1057L179.701 94.1766C179.637 93.6676 179.409 93.2706 179.017 92.9855C178.634 92.6891 178.124 92.5612 177.485 92.6017C176.921 92.6375 176.472 92.7996 176.137 93.088C175.803 93.3764 175.648 93.7175 175.673 94.1114C175.695 94.4521 175.814 94.7278 176.03 94.9385C176.257 95.1379 176.528 95.2917 176.845 95.3998C177.161 95.4973 177.585 95.6041 178.116 95.72C178.755 95.8505 179.265 95.9838 179.648 96.1198C180.031 96.2559 180.365 96.4698 180.651 96.7616C180.937 97.0535 181.101 97.4545 181.144 97.9648C181.174 98.4332 181.073 98.8618 180.841 99.2506C180.608 99.6287 180.27 99.9388 179.826 100.181C179.381 100.423 178.861 100.563 178.265 100.6ZM186.988 95.526C186.931 94.6318 187.058 93.8382 187.366 93.1453C187.685 92.441 188.147 91.888 188.752 91.4862C189.367 91.0731 190.074 90.8413 190.872 90.7906C191.703 90.738 192.428 90.8843 193.048 91.2297C193.679 91.5745 194.147 92.0365 194.451 92.6157L194.329 90.6996L195.447 90.6287L196 99.3472L194.882 99.4181L194.76 97.486C194.521 98.0996 194.111 98.6227 193.529 99.055C192.957 99.4761 192.256 99.7129 191.425 99.7656C190.638 99.8156 189.913 99.6745 189.25 99.3424C188.599 99.0097 188.07 98.5142 187.665 97.8558C187.271 97.1968 187.045 96.4202 186.988 95.526ZM194.606 95.0588C194.561 94.3562 194.378 93.7479 194.057 93.2339C193.736 92.7199 193.316 92.335 192.798 92.0793C192.29 91.823 191.738 91.7137 191.142 91.7515C190.524 91.7907 189.979 91.9642 189.507 92.272C189.035 92.5798 188.672 93.009 188.419 93.5595C188.175 94.0987 188.076 94.7302 188.122 95.4541C188.167 96.1673 188.345 96.7866 188.657 97.312C188.978 97.826 189.392 98.2112 189.9 98.4675C190.408 98.7133 190.97 98.8165 191.587 98.7774C192.183 98.7396 192.717 98.5614 193.189 98.2429C193.671 97.9238 194.039 97.4889 194.292 96.9385C194.546 96.388 194.65 95.7614 194.606 95.0588ZM202.077 90.0479C203.12 89.9817 203.992 90.2524 204.693 90.8599C205.394 91.4567 205.783 92.3672 205.86 93.5914L206.185 98.7012L205.083 98.7711L204.767 93.7891C204.707 92.8416 204.421 92.133 203.91 91.663C203.41 91.1924 202.75 90.9831 201.931 91.0351C201.09 91.0884 200.436 91.3971 199.969 91.9611C199.503 92.5251 199.302 93.3234 199.368 94.356L199.67 99.1144L198.552 99.1853L197.999 90.4668L199.117 90.3959L199.211 91.881C199.454 91.3311 199.827 90.9013 200.331 90.5914C200.835 90.2709 201.417 90.0897 202.077 90.0479ZM207.868 94.2016C207.811 93.3074 207.943 92.5135 208.262 91.8199C208.581 91.1156 209.043 90.5626 209.648 90.1608C210.263 89.7477 210.97 89.5158 211.768 89.4652C212.535 89.4166 213.238 89.559 213.879 89.8924C214.52 90.2258 215.004 90.6815 215.329 91.2594L215.013 86.2774L216.131 86.2065L216.88 98.0228L215.762 98.0937L215.639 96.1456C215.411 96.7692 215.006 97.2973 214.425 97.7296C213.842 98.1513 213.141 98.3882 212.321 98.4402C211.523 98.4908 210.793 98.3501 210.13 98.018C209.479 97.6853 208.95 97.1897 208.545 96.5314C208.15 95.8724 207.925 95.0958 207.868 94.2016ZM215.486 93.7344C215.441 93.0318 215.258 92.4235 214.937 91.9095C214.616 91.3955 214.196 91.0106 213.678 90.7549C213.17 90.4986 212.618 90.3893 212.022 90.4271C211.404 90.4663 210.859 90.6398 210.387 90.9476C209.915 91.2554 209.552 91.6846 209.299 92.2351C209.055 92.7743 208.956 93.4058 209.002 94.1297C209.047 94.8429 209.225 95.4622 209.537 95.9875C209.858 96.5016 210.272 96.8868 210.78 97.1431C211.287 97.3889 211.85 97.4921 212.467 97.453C213.063 97.4152 213.597 97.237 214.069 96.9185C214.551 96.5994 214.919 96.1645 215.172 95.614C215.426 95.0636 215.53 94.437 215.486 93.7344ZM223.715 87.1843C223.492 87.1985 223.295 87.1308 223.125 86.9813C222.955 86.8317 222.863 86.6399 222.848 86.4057C222.833 86.1715 222.901 85.9748 223.051 85.8156C223.201 85.6458 223.387 85.5538 223.611 85.5397C223.834 85.5255 224.031 85.5932 224.201 85.7427C224.37 85.8816 224.462 86.0682 224.477 86.3024C224.492 86.5366 224.424 86.7386 224.275 86.9084C224.125 87.0782 223.939 87.1702 223.715 87.1843ZM224.378 88.7936L224.931 97.5121L223.814 97.583L223.261 88.8645L224.378 88.7936ZM230.987 88.2141C232.03 88.1479 232.903 88.4186 233.604 89.0261C234.304 89.6229 234.693 90.5334 234.771 91.7577L235.095 96.8674L233.993 96.9373L233.677 91.9553C233.617 91.0079 233.332 90.2992 232.821 89.8292C232.321 89.3586 231.661 89.1493 230.841 89.2013C230 89.2546 229.347 89.5633 228.88 90.1273C228.414 90.6913 228.213 91.4896 228.279 92.5222L228.58 97.2806L227.463 97.3515L226.91 88.633L228.027 88.5621L228.122 90.0472C228.365 89.4973 228.738 89.0675 229.242 88.7576C229.746 88.4371 230.327 88.2559 230.987 88.2141ZM238.527 88.842L238.87 94.2552C238.904 94.7874 239.029 95.1483 239.244 95.3377C239.459 95.5271 239.822 95.6056 240.333 95.5732L241.355 95.5084L241.416 96.4665L240.218 96.5425C239.43 96.5924 238.833 96.4486 238.427 96.111C238.02 95.7627 237.79 95.1681 237.737 94.3271L237.393 88.914L236.18 88.9909L236.12 88.0488L237.334 87.9718L237.195 85.7842L238.329 85.7123L238.467 87.8999L240.863 87.748L240.922 88.6901L238.527 88.842ZM250.259 87.152L250.812 95.8705L249.694 95.9414L249.597 94.4085C249.376 94.9676 249.008 95.4077 248.494 95.7289C247.98 96.0501 247.393 96.2316 246.733 96.2735C245.69 96.3397 244.818 96.0743 244.117 95.4775C243.416 94.87 243.027 93.9541 242.949 92.7299L242.626 87.6361L243.728 87.5663L244.043 92.5323C244.103 93.4797 244.383 94.1887 244.883 94.6594C245.394 95.1293 246.059 95.3383 246.879 95.2863C247.72 95.2329 248.374 94.9243 248.84 94.3603C249.307 93.7963 249.507 92.998 249.442 91.9654L249.141 87.2229L250.259 87.152ZM253.265 85.31C253.042 85.3242 252.845 85.2565 252.675 85.1069C252.505 84.9574 252.413 84.7655 252.398 84.5313C252.383 84.2971 252.451 84.1004 252.601 83.9413C252.751 83.7715 252.937 83.6795 253.161 83.6653C253.384 83.6511 253.581 83.7188 253.751 83.8684C253.92 84.0073 254.012 84.1938 254.027 84.428C254.042 84.6622 253.974 84.8642 253.825 85.034C253.675 85.2038 253.489 85.2958 253.265 85.31ZM253.928 86.9192L254.481 95.6377L253.364 95.7086L252.811 86.9901L253.928 86.9192ZM257.972 87.6086L258.316 93.0218C258.35 93.554 258.474 93.9149 258.689 94.1043C258.904 94.2937 259.267 94.3722 259.778 94.3398L260.8 94.275L260.861 95.2331L259.663 95.309C258.875 95.359 258.279 95.2152 257.872 94.8775C257.465 94.5293 257.235 93.9346 257.182 93.0937L256.839 87.6805L255.625 87.7575L255.565 86.8154L256.779 86.7384L256.64 84.5508L257.774 84.4789L257.913 86.6665L260.308 86.5146L260.368 87.4567L257.972 87.6086ZM262.606 84.7175C262.382 84.7317 262.186 84.664 262.016 84.5145C261.846 84.3649 261.754 84.173 261.739 83.9389C261.724 83.7047 261.792 83.508 261.942 83.3488C262.091 83.179 262.278 83.087 262.501 83.0728C262.725 83.0587 262.922 83.1263 263.092 83.2759C263.261 83.4148 263.353 83.6013 263.367 83.8355C263.382 84.0697 263.315 84.2717 263.165 84.4415C263.016 84.6114 262.829 84.7033 262.606 84.7175ZM263.269 86.3268L263.822 95.0453L262.704 95.1162L262.151 86.3977L263.269 86.3268ZM269.382 93.6024L271.836 85.7834L273.018 85.7084L270.074 94.6487L268.812 94.7287L264.762 86.2321L265.96 86.1561L269.382 93.6024ZM282.669 89.0241C282.693 89.4074 282.701 89.7008 282.693 89.9044L275.459 90.3632C275.533 91.0212 275.728 91.5753 276.046 92.0254C276.363 92.4756 276.763 92.8082 277.247 93.0234C277.73 93.2278 278.249 93.3125 278.802 93.2774C279.526 93.2315 280.122 93.0174 280.589 92.635C281.067 92.252 281.367 91.7573 281.489 91.1511L282.671 91.0761C282.512 91.9412 282.098 92.6675 281.43 93.255C280.772 93.8312 279.916 94.1527 278.862 94.2195C278.042 94.2715 277.296 94.1371 276.624 93.8164C275.951 93.485 275.407 92.9958 274.992 92.3488C274.587 91.6904 274.356 90.9088 274.298 90.004C274.241 89.0991 274.371 88.2946 274.69 87.5903C275.009 86.8861 275.481 86.3324 276.108 85.9292C276.734 85.5261 277.463 85.2982 278.293 85.2456C279.123 85.1929 279.859 85.3279 280.499 85.6507C281.15 85.9728 281.66 86.4321 282.029 87.0286C282.408 87.6138 282.622 88.279 282.669 89.0241ZM281.533 89.0641C281.503 88.4141 281.334 87.8689 281.029 87.4288C280.733 86.9879 280.344 86.6652 279.861 86.4607C279.378 86.2562 278.859 86.1716 278.306 86.2067C277.475 86.2593 276.784 86.5704 276.233 87.1398C275.681 87.7092 275.404 88.4803 275.401 89.453L281.533 89.0641ZM296.984 88.1161C297.008 88.4994 297.016 88.7928 297.008 88.9964L289.774 89.4552C289.848 90.1132 290.043 90.6673 290.361 91.1174C290.678 91.5676 291.078 91.9002 291.562 92.1154C292.045 92.3198 292.564 92.4045 293.117 92.3694C293.841 92.3235 294.437 92.1094 294.904 91.727C295.382 91.344 295.682 90.8493 295.804 90.2431L296.986 90.1681C296.827 91.0332 296.413 91.7595 295.745 92.347C295.087 92.9232 294.231 93.2447 293.177 93.3115C292.357 93.3635 291.611 93.2291 290.939 92.9084C290.266 92.577 289.722 92.0878 289.307 91.4408C288.902 90.7824 288.671 90.0008 288.613 89.096C288.556 88.1911 288.686 87.3866 289.005 86.6823C289.324 85.9781 289.796 85.4244 290.423 85.0213C291.049 84.6181 291.778 84.3902 292.608 84.3376C293.438 84.2849 294.174 84.4199 294.814 84.7427C295.465 85.0648 295.975 85.5241 296.344 86.1206C296.723 86.7058 296.937 87.371 296.984 88.1161ZM295.848 88.1561C295.818 87.5061 295.649 86.961 295.344 86.5208C295.048 86.0799 294.659 85.7572 294.176 85.5527C293.693 85.3482 293.174 85.2636 292.621 85.2987C291.79 85.3513 291.099 85.6624 290.548 86.2318C289.996 86.8012 289.719 87.5723 289.716 88.545L295.848 88.1561ZM303.901 92.5031L301.426 89.133L299.477 92.7836L298.296 92.8586L300.83 88.3211L297.775 84.1381L299.036 84.0581L301.476 87.3823L303.411 83.7806L304.577 83.7066L302.072 88.1942L305.162 92.4231L303.901 92.5031ZM307.349 85.4547C307.588 84.8516 307.994 84.3396 308.566 83.9185C309.148 83.4862 309.854 83.2437 310.684 83.191C311.472 83.141 312.192 83.2824 312.843 83.6152C313.505 83.9366 314.033 84.4268 314.428 85.0858C314.832 85.7335 315.063 86.5045 315.119 87.3987C315.176 88.2929 315.045 89.0921 314.726 89.7964C314.418 90.4999 313.957 91.0583 313.342 91.4714C312.737 91.8838 312.041 92.115 311.253 92.165C310.434 92.217 309.708 92.0706 309.077 91.7258C308.445 91.3704 307.973 90.9088 307.659 90.3409L308.041 96.3767L306.94 96.4466L306.125 83.6084L307.227 83.5385L307.349 85.4547ZM313.986 87.4706C313.94 86.7467 313.756 86.1331 313.436 85.6297C313.125 85.115 312.717 84.7348 312.209 84.489C311.702 84.2433 311.14 84.1401 310.522 84.1792C309.926 84.217 309.387 84.3955 308.905 84.7147C308.434 85.0332 308.071 85.4676 307.817 86.0181C307.564 86.5686 307.459 87.1952 307.504 87.8978C307.548 88.6003 307.731 89.2087 308.052 89.7227C308.373 90.2367 308.788 90.6219 309.296 90.8783C309.814 91.134 310.372 91.2429 310.968 91.2051C311.585 91.1659 312.13 90.9924 312.602 90.6846C313.074 90.3661 313.431 89.932 313.674 89.3821C313.927 88.821 314.031 88.1838 313.986 87.4706ZM325.037 86.3367C325.061 86.72 325.069 87.0134 325.061 87.217L317.827 87.6758C317.901 88.3338 318.096 88.8879 318.414 89.338C318.731 89.7882 319.131 90.1208 319.615 90.336C320.098 90.5404 320.617 90.6251 321.17 90.59C321.894 90.5441 322.49 90.33 322.957 89.9476C323.435 89.5646 323.735 89.0699 323.857 88.4637L325.039 88.3887C324.88 89.2539 324.466 89.9802 323.798 90.5676C323.14 91.1438 322.284 91.4653 321.23 91.5321C320.41 91.5841 319.664 91.4497 318.992 91.129C318.319 90.7976 317.775 90.3084 317.36 89.6614C316.955 89.003 316.724 88.2214 316.666 87.3166C316.609 86.4117 316.739 85.6072 317.058 84.9029C317.377 84.1987 317.849 83.645 318.476 83.2419C319.102 82.8387 319.831 82.6108 320.661 82.5582C321.491 82.5055 322.227 82.6406 322.867 82.9633C323.518 83.2854 324.028 83.7447 324.397 84.3412C324.776 84.9264 324.99 85.5916 325.037 86.3367ZM323.901 86.3767C323.871 85.7267 323.702 85.1816 323.397 84.7414C323.101 84.3005 322.712 83.9778 322.229 83.7733C321.746 83.5689 321.227 83.4842 320.674 83.5193C319.843 83.5719 319.152 83.883 318.601 84.4524C318.049 85.0218 317.772 85.7929 317.769 86.7656L323.901 86.3767ZM328.05 83.7729C328.26 83.2144 328.606 82.7703 329.087 82.4405C329.58 82.11 330.193 81.9215 330.927 81.8749L331.001 83.0406L330.698 83.0598C329.889 83.1111 329.253 83.3705 328.791 83.8381C328.329 84.3056 328.131 85.0503 328.196 86.0722L328.505 90.9425L327.387 91.0134L326.834 82.2949L327.952 82.224L328.05 83.7729ZM333.074 80.2478C332.85 80.262 332.653 80.1943 332.484 80.0447C332.314 79.8952 332.221 79.7033 332.207 79.4691C332.192 79.2349 332.259 79.0382 332.41 78.8791C332.559 78.7093 332.746 78.6173 332.969 78.6031C333.193 78.5889 333.389 78.6566 333.559 78.8061C333.728 78.945 333.82 79.1316 333.835 79.3658C333.85 79.6 333.783 79.802 333.633 79.9718C333.484 80.1416 333.297 80.2336 333.074 80.2478ZM333.737 81.857L334.29 90.5755L333.172 90.6464L332.619 81.9279L333.737 81.857ZM344.404 85.1083C344.429 85.4915 344.436 85.7849 344.428 85.9885L337.195 86.4473C337.268 87.1053 337.464 87.6594 337.781 88.1096C338.098 88.5597 338.499 88.8924 338.982 89.1075C339.466 89.312 339.984 89.3967 340.538 89.3616C341.262 89.3156 341.857 89.1015 342.325 88.7192C342.803 88.3361 343.103 87.8415 343.224 87.2352L344.406 87.1603C344.247 88.0254 343.834 88.7517 343.166 89.3392C342.507 89.9153 341.651 90.2368 340.597 90.3037C339.778 90.3557 339.032 90.2213 338.359 89.9005C337.686 89.5691 337.142 89.0799 336.727 88.4329C336.322 87.7746 336.091 86.993 336.033 86.0881C335.976 85.1833 336.107 84.3787 336.425 83.6745C336.744 82.9702 337.217 82.4165 337.843 82.0134C338.47 81.6103 339.198 81.3824 340.028 81.3297C340.859 81.277 341.594 81.4121 342.234 81.7349C342.885 82.057 343.395 82.5163 343.765 83.1128C344.144 83.6979 344.357 84.3631 344.404 85.1083ZM343.268 85.1482C343.238 84.4982 343.07 83.9531 342.764 83.5129C342.469 83.072 342.08 82.7494 341.596 82.5449C341.113 82.3404 340.595 82.2557 340.041 82.2908C339.211 82.3435 338.52 82.6545 337.968 83.2239C337.416 83.7933 337.139 84.5644 337.137 85.5372L343.268 85.1482ZM350.279 80.6475C351.322 80.5813 352.194 80.8519 352.895 81.4594C353.596 82.0563 353.985 82.9668 354.063 84.191L354.387 89.3008L353.285 89.3706L352.969 84.3887C352.909 83.4412 352.623 82.7325 352.113 82.2626C351.613 81.792 350.953 81.5827 350.133 81.6347C349.292 81.688 348.638 81.9967 348.172 82.5607C347.705 83.1247 347.505 83.923 347.57 84.9556L347.872 89.714L346.754 89.7849L346.201 81.0664L347.319 80.9955L347.413 82.4805C347.656 81.9307 348.03 81.5009 348.534 81.191C349.037 80.8705 349.619 80.6893 350.279 80.6475ZM356.071 84.8171C356.014 83.9123 356.145 83.1131 356.464 82.4194C356.783 81.7152 357.25 81.1618 357.866 80.7594C358.481 80.3463 359.199 80.1137 360.018 80.0617C361.093 79.9935 361.994 80.2036 362.72 80.692C363.456 81.1797 363.954 81.8749 364.215 82.7776L363.017 82.8535C362.828 82.2349 362.472 81.7658 361.95 81.4463C361.437 81.1154 360.813 80.9732 360.079 81.0198C359.493 81.057 358.975 81.2234 358.523 81.5193C358.072 81.8151 357.725 82.238 357.482 82.7878C357.249 83.3263 357.156 83.9788 357.205 84.7452C357.254 85.5117 357.428 86.1526 357.728 86.668C358.038 87.1827 358.436 87.5583 358.922 87.7947C359.407 88.0311 359.942 88.1307 360.528 88.0936C361.262 88.047 361.863 87.8325 362.331 87.4502C362.808 87.0565 363.101 86.5356 363.209 85.8874L364.407 85.8115C364.261 86.7185 363.855 87.4657 363.186 88.0532C362.518 88.6407 361.652 88.9682 360.587 89.0357C359.768 89.0877 359.027 88.953 358.365 88.6316C357.703 88.2995 357.17 87.8096 356.765 87.1619C356.36 86.5036 356.129 85.722 356.071 84.8171ZM374.235 83.2161C374.259 83.5993 374.267 83.8928 374.259 84.0964L367.025 84.5552C367.099 85.2132 367.294 85.7672 367.612 86.2174C367.929 86.6676 368.329 87.0002 368.813 87.2153C369.296 87.4198 369.815 87.5045 370.368 87.4694C371.092 87.4235 371.688 87.2094 372.155 86.827C372.633 86.444 372.933 85.9493 373.055 85.3431L374.237 85.2681C374.078 86.1332 373.664 86.8595 372.996 87.447C372.338 88.0232 371.482 88.3447 370.428 88.4115C369.608 88.4635 368.862 88.3291 368.19 88.0084C367.517 87.677 366.973 87.1878 366.558 86.5408C366.153 85.8824 365.922 85.1008 365.864 84.196C365.807 83.2911 365.937 82.4866 366.256 81.7823C366.575 81.0781 367.047 80.5244 367.674 80.1212C368.3 79.7181 369.029 79.4902 369.859 79.4376C370.689 79.3849 371.425 79.5199 372.065 79.8427C372.716 80.1648 373.226 80.6241 373.595 81.2206C373.974 81.8058 374.188 82.471 374.235 83.2161ZM373.099 83.2561C373.069 82.6061 372.9 82.0609 372.595 81.6208C372.299 81.1799 371.91 80.8572 371.427 80.6527C370.944 80.4482 370.425 80.3636 369.872 80.3987C369.041 80.4513 368.35 80.7624 367.799 81.3318C367.247 81.9012 366.97 82.6723 366.967 83.645L373.099 83.2561ZM379.595 87.8301C378.594 87.8935 377.76 87.7167 377.092 87.2994C376.434 86.8709 376.043 86.2598 375.918 85.4661L377.068 85.3932C377.152 85.8795 377.406 86.2642 377.83 86.5472C378.264 86.8189 378.827 86.9329 379.519 86.889C380.126 86.8505 380.59 86.6767 380.913 86.3677C381.246 86.058 381.399 85.6902 381.372 85.2644C381.353 84.9664 381.242 84.7276 381.038 84.5481C380.834 84.3687 380.58 84.2352 380.275 84.1476C379.98 84.0488 379.579 83.9513 379.07 83.8553C378.41 83.7262 377.872 83.5893 377.457 83.4446C377.042 83.2999 376.68 83.0717 376.371 82.76C376.073 82.4369 375.906 81.9932 375.87 81.429C375.843 81.0032 375.946 80.6012 376.178 80.2231C376.411 79.8449 376.755 79.5346 377.21 79.2919C377.664 79.0493 378.19 78.9091 378.786 78.8713C379.723 78.8119 380.494 79.0035 381.099 79.446C381.704 79.878 382.054 80.5077 382.149 81.3354L381.031 81.4063C380.967 80.8973 380.738 80.5003 380.346 80.2152C379.964 79.9188 379.454 79.7909 378.815 79.8314C378.251 79.8672 377.801 80.0293 377.467 80.3177C377.133 80.6061 376.978 80.9473 377.003 81.3411C377.024 81.6818 377.144 81.9575 377.36 82.1682C377.586 82.3676 377.858 82.5214 378.175 82.6295C378.491 82.7271 378.915 82.8338 379.446 82.9497C380.084 83.0802 380.595 83.2135 380.978 83.3495C381.361 83.4856 381.695 83.6995 381.981 83.9913C382.266 84.2832 382.431 84.6842 382.474 85.1945C382.503 85.6629 382.402 86.0915 382.171 86.4803C381.938 86.8585 381.6 87.1685 381.155 87.4104C380.711 87.6524 380.191 87.7923 379.595 87.8301ZM30.9506 126.057L28.9226 126.185L29.4159 133.962L28.2981 134.033L27.8049 126.256L26.5913 126.333L26.5316 125.391L27.7451 125.314L27.7066 124.707C27.6466 123.76 27.8418 123.048 28.2925 122.57C28.7538 122.092 29.5274 121.818 30.6132 121.75L30.674 122.708C29.9501 122.753 29.4479 122.924 29.1674 123.22C28.8975 123.515 28.7832 123.987 28.8244 124.637L28.8629 125.243L30.8908 125.115L30.9506 126.057ZM37.0278 133.607C36.2082 133.659 35.4568 133.525 34.7739 133.205C34.1009 132.874 33.5515 132.385 33.1257 131.738C32.7099 131.081 32.4733 130.3 32.4159 129.395C32.3585 128.49 32.5002 127.69 32.8409 126.995C33.1809 126.289 33.6694 125.735 34.3065 125.331C34.9428 124.916 35.6709 124.683 36.4906 124.631C37.3103 124.579 38.0619 124.719 38.7456 125.049C39.4392 125.369 39.9939 125.857 40.4097 126.515C40.8354 127.161 41.077 127.937 41.1344 128.842C41.1911 129.736 41.0495 130.536 40.7095 131.241C40.3695 131.947 39.8759 132.507 39.2289 132.923C38.5812 133.327 37.8475 133.555 37.0278 133.607ZM36.9661 132.633C37.5409 132.597 38.0651 132.435 38.5385 132.149C39.0113 131.851 39.3802 131.433 39.6452 130.892C39.9202 130.34 40.0333 129.681 39.9847 128.915C39.9361 128.148 39.7462 127.514 39.4151 127.011C39.0832 126.498 38.6644 126.129 38.1585 125.904C37.6519 125.669 37.1112 125.57 36.5364 125.606C35.9615 125.643 35.4377 125.81 34.9649 126.107C34.4914 126.393 34.1225 126.812 33.8582 127.363C33.6039 127.903 33.501 128.556 33.5497 129.323C33.5983 130.089 33.7832 130.73 34.1044 131.244C34.4355 131.746 34.849 132.115 35.345 132.351C35.8509 132.576 36.3912 132.67 36.9661 132.633ZM44.1114 125.831C44.3218 125.273 44.6678 124.829 45.1492 124.499C45.6412 124.168 46.2545 123.98 46.9891 123.933L47.063 125.099L46.7596 125.118C45.9506 125.169 45.315 125.429 44.853 125.896C44.3911 126.364 44.1925 127.109 44.2573 128.131L44.5662 133.001L43.4484 133.072L42.8954 124.353L44.0132 124.282L44.1114 125.831ZM60.2481 123.253L55.8878 136.403L54.7221 136.477L56.1514 132.218L52.0246 123.774L53.2541 123.696L56.6961 130.949L59.0984 123.325L60.2481 123.253ZM66.1412 131.761C65.3215 131.813 64.5702 131.679 63.8872 131.358C63.2142 131.027 62.6649 130.538 62.2391 129.892C61.8233 129.234 61.5867 128.453 61.5293 127.548C61.4719 126.643 61.6136 125.843 61.9542 125.148C62.2943 124.443 62.7828 123.888 63.4198 123.484C64.0562 123.07 64.7842 122.837 65.6039 122.785C66.4236 122.733 67.1753 122.872 67.8589 123.203C68.5525 123.522 69.1072 124.011 69.523 124.668C69.9488 125.315 70.1904 126.09 70.2478 126.995C70.3045 127.889 70.1628 128.689 69.8228 129.395C69.4828 130.1 68.9893 130.661 68.3423 131.076C67.6946 131.48 66.9609 131.709 66.1412 131.761ZM66.0794 130.787C66.6543 130.75 67.1784 130.589 67.6519 130.302C68.1247 130.005 68.4936 129.586 68.7586 129.045C69.0335 128.494 69.1467 127.834 69.0981 127.068C69.0495 126.302 68.8596 125.667 68.5284 125.164C68.1966 124.651 67.7777 124.282 67.2719 124.058C66.7653 123.822 66.2246 123.723 65.6497 123.76C65.0749 123.796 64.5511 123.963 64.0783 124.26C63.6048 124.547 63.2359 124.966 62.9716 125.517C62.7173 126.057 62.6144 126.71 62.663 127.476C62.7116 128.243 62.8965 128.883 63.2177 129.397C63.5489 129.9 63.9624 130.269 64.4583 130.505C64.9642 130.729 65.5046 130.823 66.0794 130.787ZM79.5616 122.028L80.1146 130.746L78.9969 130.817L78.8996 129.284C78.6786 129.843 78.3111 130.283 77.797 130.604C77.283 130.926 76.696 131.107 76.036 131.149C74.9927 131.215 74.1209 130.95 73.4203 130.353C72.7191 129.745 72.3297 128.83 72.2521 127.605L71.929 122.512L73.0307 122.442L73.3457 127.408C73.4058 128.355 73.6859 129.064 74.1861 129.535C74.6969 130.005 75.3621 130.214 76.1818 130.162C77.0227 130.108 77.6765 129.8 78.1431 129.236C78.6096 128.672 78.8102 127.873 78.7447 126.841L78.4439 122.098L79.5616 122.028ZM83.3295 123.344C83.5399 122.785 83.8858 122.341 84.3672 122.011C84.8593 121.681 85.4726 121.492 86.2071 121.446L86.2811 122.611L85.9777 122.631C85.1686 122.682 84.5331 122.941 84.0711 123.409C83.6091 123.876 83.4105 124.621 83.4753 125.643L83.7843 130.513L82.6665 130.584L82.1135 121.866L83.2313 121.795L83.3295 123.344ZM92.0451 125.596C91.9884 124.702 92.1144 123.909 92.4231 123.216C92.7419 122.511 93.2038 121.958 93.8089 121.557C94.424 121.144 95.1307 120.912 95.9291 120.861C96.7594 120.808 97.4848 120.955 98.1053 121.3C98.7364 121.645 99.2039 122.107 99.5078 122.686L99.3863 120.77L100.504 120.699L101.057 129.418L99.9393 129.489L99.8167 127.556C99.5778 128.17 99.1674 128.693 98.5856 129.125C98.0138 129.547 97.3127 129.783 96.4824 129.836C95.6946 129.886 94.9696 129.745 94.3072 129.413C93.6555 129.08 93.1271 128.585 92.7219 127.926C92.3274 127.267 92.1018 126.491 92.0451 125.596ZM99.6628 125.129C99.6182 124.427 99.4354 123.818 99.1142 123.304C98.793 122.79 98.3731 122.405 97.8546 122.15C97.3466 121.893 96.7946 121.784 96.1985 121.822C95.5811 121.861 95.0363 122.035 94.5642 122.342C94.092 122.65 93.7291 123.079 93.4755 123.63C93.2318 124.169 93.1329 124.801 93.1788 125.525C93.224 126.238 93.4023 126.857 93.7135 127.382C94.0347 127.896 94.4492 128.282 94.9571 128.538C95.4644 128.784 96.0267 128.887 96.6441 128.848C97.2403 128.81 97.7741 128.632 98.2455 128.313C98.7276 127.994 99.0955 127.559 99.3491 127.009C99.6028 126.458 99.7074 125.832 99.6628 125.129ZM110.609 120.058L111.162 128.777L110.044 128.848L109.947 127.315C109.726 127.874 109.358 128.314 108.844 128.635C108.33 128.956 107.743 129.138 107.083 129.18C106.04 129.246 105.168 128.981 104.467 128.384C103.766 127.776 103.377 126.86 103.299 125.636L102.976 120.542L104.078 120.472L104.393 125.438C104.453 126.386 104.733 127.095 105.233 127.566C105.744 128.035 106.409 128.244 107.229 128.192C108.07 128.139 108.723 127.83 109.19 127.266C109.657 126.702 109.857 125.904 109.792 124.872L109.491 120.129L110.609 120.058ZM112.925 124.272C112.868 123.378 113 122.584 113.319 121.89C113.638 121.186 114.1 120.633 114.705 120.231C115.32 119.818 116.027 119.586 116.825 119.536C117.591 119.487 118.295 119.629 118.936 119.963C119.577 120.296 120.06 120.752 120.386 121.33L120.07 116.348L121.187 116.277L121.937 128.093L120.819 128.164L120.696 126.216C120.468 126.84 120.063 127.368 119.481 127.8C118.899 128.222 118.198 128.459 117.378 128.511C116.58 128.561 115.849 128.421 115.187 128.088C114.535 127.756 114.007 127.26 113.602 126.602C113.207 125.943 112.982 125.166 112.925 124.272ZM120.543 123.805C120.498 123.102 120.315 122.494 119.994 121.98C119.673 121.466 119.253 121.081 118.734 120.825C118.227 120.569 117.675 120.46 117.078 120.498C116.461 120.537 115.916 120.71 115.444 121.018C114.972 121.326 114.609 121.755 114.355 122.306C114.112 122.845 114.013 123.476 114.059 124.2C114.104 124.913 114.282 125.533 114.593 126.058C114.915 126.572 115.329 126.957 115.837 127.214C116.344 127.459 116.907 127.563 117.524 127.523C118.12 127.486 118.654 127.307 119.125 126.989C119.608 126.67 119.975 126.235 120.229 125.684C120.483 125.134 120.587 124.507 120.543 123.805ZM124.39 117.533C124.167 117.547 123.97 117.479 123.8 117.33C123.63 117.18 123.538 116.988 123.523 116.754C123.508 116.52 123.576 116.323 123.726 116.164C123.876 115.994 124.062 115.902 124.286 115.888C124.509 115.874 124.706 115.942 124.876 116.091C125.045 116.23 125.137 116.417 125.152 116.651C125.167 116.885 125.099 117.087 124.95 117.257C124.8 117.427 124.614 117.519 124.39 117.533ZM125.053 119.142L125.606 127.86L124.489 127.931L123.936 119.213L125.053 119.142ZM135.721 122.393C135.745 122.776 135.753 123.07 135.745 123.273L128.511 123.732C128.585 124.39 128.78 124.944 129.098 125.395C129.415 125.845 129.815 126.177 130.299 126.392C130.782 126.597 131.301 126.682 131.854 126.647C132.578 126.601 133.174 126.386 133.641 126.004C134.119 125.621 134.419 125.126 134.541 124.52L135.723 124.445C135.564 125.31 135.15 126.037 134.482 126.624C133.824 127.2 132.968 127.522 131.914 127.589C131.094 127.641 130.348 127.506 129.676 127.185C129.003 126.854 128.459 126.365 128.044 125.718C127.639 125.06 127.408 124.278 127.35 123.373C127.293 122.468 127.423 121.664 127.742 120.959C128.061 120.255 128.533 119.701 129.16 119.298C129.786 118.895 130.515 118.667 131.345 118.615C132.175 118.562 132.911 118.697 133.551 119.02C134.202 119.342 134.712 119.801 135.081 120.398C135.46 120.983 135.674 121.648 135.721 122.393ZM134.585 122.433C134.555 121.783 134.386 121.238 134.081 120.798C133.785 120.357 133.396 120.034 132.913 119.83C132.43 119.625 131.911 119.541 131.358 119.576C130.527 119.628 129.836 119.939 129.285 120.509C128.733 121.078 128.456 121.849 128.453 122.822L134.585 122.433ZM141.595 117.932C142.639 117.866 143.511 118.137 144.212 118.744C144.913 119.341 145.302 120.252 145.379 121.476L145.703 126.586L144.602 126.656L144.286 121.674C144.226 120.726 143.94 120.017 143.429 119.548C142.929 119.077 142.269 118.868 141.45 118.92C140.609 118.973 139.955 119.282 139.488 119.846C139.022 120.41 138.821 121.208 138.887 122.241L139.189 126.999L138.071 127.07L137.518 118.351L138.636 118.28L138.73 119.765C138.973 119.216 139.346 118.786 139.85 118.476C140.354 118.155 140.935 117.974 141.595 117.932ZM147.388 122.102C147.331 121.197 147.462 120.398 147.781 119.704C148.1 119 148.567 118.447 149.183 118.044C149.798 117.631 150.515 117.399 151.335 117.347C152.41 117.278 153.311 117.489 154.036 117.977C154.773 118.465 155.271 119.16 155.531 120.063L154.334 120.138C154.145 119.52 153.789 119.051 153.266 118.731C152.754 118.4 152.13 118.258 151.396 118.305C150.81 118.342 150.292 118.508 149.84 118.804C149.389 119.1 149.041 119.523 148.798 120.073C148.565 120.611 148.473 121.264 148.522 122.03C148.57 122.797 148.745 123.438 149.044 123.953C149.355 124.468 149.753 124.843 150.238 125.08C150.723 125.316 151.259 125.416 151.844 125.379C152.579 125.332 153.18 125.117 153.647 124.735C154.125 124.341 154.418 123.821 154.526 123.172L155.724 123.096C155.578 124.003 155.171 124.751 154.503 125.338C153.835 125.926 152.969 126.253 151.904 126.321C151.084 126.373 150.344 126.238 149.682 125.917C149.02 125.584 148.486 125.095 148.082 124.447C147.677 123.789 147.445 123.007 147.388 122.102ZM165.552 120.501C165.576 120.884 165.584 121.178 165.575 121.381L158.342 121.84C158.416 122.498 158.611 123.052 158.928 123.502C159.245 123.953 159.646 124.285 160.13 124.5C160.613 124.705 161.132 124.789 161.685 124.754C162.409 124.708 163.005 124.494 163.472 124.112C163.95 123.729 164.25 123.234 164.372 122.628L165.553 122.553C165.395 123.418 164.981 124.144 164.313 124.732C163.655 125.308 162.799 125.63 161.745 125.696C160.925 125.748 160.179 125.614 159.507 125.293C158.834 124.962 158.29 124.473 157.875 123.826C157.469 123.167 157.238 122.386 157.181 121.481C157.123 120.576 157.254 119.772 157.573 119.067C157.892 118.363 158.364 117.809 158.991 117.406C159.617 117.003 160.345 116.775 161.176 116.723C162.006 116.67 162.741 116.805 163.382 117.128C164.033 117.45 164.543 117.909 164.912 118.506C165.291 119.091 165.504 119.756 165.552 120.501ZM164.416 120.541C164.385 119.891 164.217 119.346 163.911 118.906C163.616 118.465 163.227 118.142 162.744 117.938C162.26 117.733 161.742 117.649 161.188 117.684C160.358 117.736 159.667 118.047 159.115 118.617C158.564 119.186 158.287 119.957 158.284 120.93L164.416 120.541ZM168.098 125.245C167.864 125.26 167.662 125.193 167.492 125.043C167.333 124.893 167.246 124.701 167.231 124.467C167.216 124.233 167.279 124.036 167.418 123.878C167.568 123.708 167.76 123.616 167.994 123.601C168.217 123.587 168.409 123.655 168.568 123.805C168.737 123.944 168.829 124.13 168.844 124.364C168.859 124.599 168.791 124.801 168.642 124.97C168.503 125.14 168.322 125.231 168.098 125.245Z" fill="#00040E" fill-opacity="0.85"/>
<path d="M46.8394 57.766L48.165 78.664L43.9734 78.9298L43.1112 65.3372L38.3747 79.285L35.201 79.4863L28.7102 66.2506L29.5724 79.8433L25.3808 80.1092L24.0552 59.2112L28.8157 58.9092L36.4479 74.0264L42.1089 58.066L46.8394 57.766ZM59.6914 78.2034C58.0946 78.3047 56.6353 78.0465 55.3136 77.429C53.9906 76.7915 52.9187 75.8474 52.0978 74.5969C51.297 73.345 50.8428 71.8708 50.7351 70.1743C50.6275 68.4777 50.9018 66.9573 51.5581 65.613C52.2342 64.2675 53.1989 63.2043 54.452 62.4234C55.7038 61.6226 57.1281 61.1715 58.7249 61.0702C60.3217 60.9689 61.7915 61.2364 63.1345 61.8727C64.4762 62.489 65.5575 63.4224 66.3783 64.673C67.219 65.9223 67.6932 67.3952 67.8009 69.0918C67.9085 70.7884 67.6142 72.3101 66.9181 73.6568C66.2419 75.0023 65.2679 76.0761 63.9961 76.8782C62.743 77.6591 61.3081 78.1009 59.6914 78.2034ZM59.4597 74.5507C60.2182 74.5026 60.9153 74.2781 61.5512 73.877C62.2058 73.4547 62.7093 72.8617 63.0616 72.0978C63.414 71.334 63.5566 70.4231 63.4895 69.3652C63.3895 67.7884 62.8937 66.6074 62.0023 65.8223C61.1295 65.0159 60.0943 64.6507 58.8967 64.7267C57.6991 64.8026 56.7183 65.2957 55.9544 66.2059C55.2092 67.0949 54.8866 68.3278 54.9866 69.9046C55.0866 71.4814 55.5531 72.6743 56.3859 73.4832C57.2375 74.2709 58.2621 74.6267 59.4597 74.5507ZM74.6949 62.7627C75.1832 61.9301 75.8805 61.2346 76.787 60.6761C77.7134 60.1163 78.7854 59.7978 80.003 59.7206C81.4201 59.6307 82.7197 59.8989 83.9017 60.5254C85.1037 61.1505 86.0752 62.0909 86.8162 63.3465C87.5758 64.5809 88.0095 66.0464 88.1171 67.743C88.2247 69.4396 87.981 70.9681 87.3859 72.3285C86.8095 73.6677 85.9653 74.7332 84.8532 75.5252C83.761 76.316 82.5064 76.7563 81.0892 76.8461C79.8517 76.9246 78.7487 76.7541 77.7802 76.3346C76.8304 75.8938 76.0514 75.302 75.4431 74.559L75.5932 76.9242L71.4016 77.1901L69.9963 55.0346L74.1878 54.7687L74.6949 62.7627ZM83.8357 68.0146C83.7724 67.0166 83.5084 66.1716 83.0436 65.4796C82.5976 64.7664 82.0232 64.2417 81.3205 63.9056C80.6378 63.5681 79.9072 63.4241 79.1288 63.4734C78.3703 63.5215 77.6644 63.7667 77.0111 64.209C76.3765 64.63 75.873 65.223 75.5007 65.9881C75.1483 66.752 75.0038 67.6329 75.0671 68.6309C75.1304 69.6289 75.3851 70.4845 75.8311 71.1977C76.2971 71.9096 76.8721 72.4443 77.5561 72.8017C78.2588 73.1379 78.9894 73.2819 79.7479 73.2338C80.5263 73.1844 81.2322 72.9393 81.8656 72.4983C82.5189 72.056 83.0217 71.453 83.3741 70.6892C83.7464 69.9241 83.9003 69.0325 83.8357 68.0146ZM92.6411 57.2055C91.9026 57.2523 91.2693 57.062 90.7412 56.6346C90.2318 56.186 89.9549 55.6123 89.9106 54.9137C89.8663 54.2151 90.0691 53.6211 90.519 53.1317C90.9876 52.621 91.5912 52.3422 92.3297 52.2954C93.0682 52.2485 93.6922 52.4494 94.2016 52.8981C94.7297 53.3255 95.0159 53.8885 95.0602 54.5871C95.1045 55.2857 94.8924 55.8903 94.4238 56.401C93.9739 56.8905 93.3796 57.1586 92.6411 57.2055ZM94.8323 59.0505L95.8844 75.6372L91.6928 75.903L90.6407 59.3164L94.8323 59.0505ZM102.812 52.9531L104.217 75.1086L100.026 75.3745L98.6204 53.219L102.812 52.9531ZM123.229 65.2153C123.267 65.8141 123.261 66.3555 123.212 66.8396L111.086 67.6088C111.262 68.8 111.74 69.7115 112.522 70.3433C113.303 70.9751 114.233 71.2568 115.311 71.1885C116.868 71.0897 117.933 70.3508 118.507 68.9717L123.028 68.685C122.65 70.3121 121.816 71.6877 120.524 72.8117C119.231 73.9158 117.597 74.5305 115.621 74.6558C114.024 74.7571 112.565 74.4989 111.243 73.8814C109.94 73.2426 108.888 72.2973 108.087 71.0455C107.307 69.7924 106.862 68.3175 106.755 66.621C106.646 64.9044 106.9 63.3753 107.516 62.0336C108.132 60.6919 109.047 59.6318 110.26 58.8535C111.473 58.0751 112.898 57.634 114.535 57.5302C116.112 57.4302 117.54 57.6803 118.821 58.2804C120.121 58.8793 121.151 59.7859 121.909 61.0004C122.686 62.1936 123.126 63.5985 123.229 65.2153ZM118.811 64.2931C118.723 63.2165 118.28 62.3829 117.481 61.7923C116.68 61.1817 115.731 60.9113 114.633 60.9809C113.596 61.0467 112.738 61.4218 112.06 62.1061C111.4 62.7692 111.026 63.6646 110.937 64.7925L118.811 64.2931ZM146.533 68.4265L138.21 68.9545L137.085 73.0238L132.684 73.303L138.871 51.8984L143.751 51.5888L152.594 72.0401L148.163 72.3212L146.533 68.4265ZM145.182 65.1454L141.604 56.5948L139.135 65.529L145.182 65.1454ZM158.694 57.4046C159.185 56.6119 159.884 55.9363 160.79 55.3778C161.715 54.7981 162.787 54.4696 164.004 54.3924C165.421 54.3025 166.721 54.5708 167.903 55.1972C169.105 55.8224 170.076 56.7628 170.817 58.0184C171.577 59.2528 172.011 60.7183 172.118 62.4148C172.226 64.1114 171.982 65.6399 171.387 67.0003C170.811 68.3395 169.966 69.4051 168.854 70.1971C167.762 70.9878 166.507 71.4281 165.09 71.518C163.873 71.5952 162.779 71.4141 161.809 70.9746C160.86 70.5338 160.071 69.9526 159.444 69.2308L160.096 79.5002L155.904 79.766L154.351 55.2753L158.542 55.0094L158.694 57.4046ZM167.837 62.6864C167.773 61.6884 167.509 60.8434 167.045 60.1515C166.599 59.4383 166.024 58.9136 165.322 58.5774C164.639 58.2399 163.908 58.0959 163.13 58.1453C162.371 58.1934 161.666 58.4385 161.012 58.8808C160.378 59.3018 159.874 59.8949 159.502 60.66C159.149 61.4238 159.005 62.3047 159.068 63.3027C159.132 64.3007 159.386 65.1563 159.832 65.8695C160.298 66.5814 160.873 67.1161 161.557 67.4735C162.26 67.8097 162.991 67.9538 163.749 67.9056C164.527 67.8563 165.233 67.6111 165.867 67.1701C166.52 66.7279 167.023 66.1248 167.375 65.361C167.747 64.5959 167.901 63.7044 167.837 62.6864ZM178.985 56.1175C179.476 55.3248 180.175 54.6493 181.081 54.0908C182.006 53.511 183.078 53.1826 184.295 53.1053C185.712 53.0154 187.012 53.2837 188.194 53.9101C189.396 54.5353 190.368 55.4757 191.109 56.7313C191.868 57.9657 192.302 59.4312 192.409 61.1278C192.517 62.8244 192.273 64.3529 191.678 65.7133C191.102 67.0524 190.258 68.118 189.146 68.91C188.053 69.7007 186.799 70.141 185.382 70.2309C184.164 70.3081 183.07 70.127 182.101 69.6875C181.151 69.2468 180.362 68.6655 179.735 67.9437L180.387 78.2131L176.195 78.479L174.642 53.9882L178.833 53.7223L178.985 56.1175ZM188.128 61.3993C188.065 60.4013 187.801 59.5564 187.336 58.8644C186.89 58.1512 186.316 57.6265 185.613 57.2903C184.93 56.9529 184.2 56.8088 183.421 56.8582C182.663 56.9063 181.957 57.1515 181.303 57.5937C180.669 58.0147 180.165 58.6078 179.793 59.3729C179.441 60.1367 179.296 61.0177 179.359 62.0157C179.423 63.0136 179.677 63.8692 180.123 64.5824C180.589 65.2944 181.164 65.829 181.848 66.1865C182.551 66.5226 183.282 66.6667 184.04 66.6186C184.819 66.5692 185.525 66.324 186.158 65.8831C186.811 65.4408 187.314 64.8378 187.666 64.0739C188.039 63.3088 188.193 62.4173 188.128 61.3993ZM198.771 46.8664L200.177 69.0219L195.985 69.2878L194.58 47.1323L198.771 46.8664ZM205.266 50.0617C204.528 50.1086 203.895 49.9183 203.366 49.4908C202.857 49.0422 202.58 48.4686 202.536 47.77C202.491 47.0714 202.694 46.4773 203.144 45.9879C203.613 45.4772 204.216 45.1984 204.955 45.1516C205.693 45.1047 206.317 45.3056 206.827 45.7543C207.355 46.1817 207.641 46.7447 207.685 47.4433C207.73 48.1419 207.518 48.7466 207.049 49.2572C206.599 49.7467 206.005 50.0149 205.266 50.0617ZM207.458 51.9067L208.51 68.4934L204.318 68.7592L203.266 52.1726L207.458 51.9067ZM211.047 60.0057C210.938 58.2892 211.193 56.77 211.81 55.4483C212.426 54.1066 213.331 53.0472 214.524 52.2701C215.716 51.473 217.111 51.0239 218.707 50.9226C220.763 50.7922 222.493 51.2035 223.896 52.1566C225.318 53.0885 226.317 54.468 226.894 56.2951L222.373 56.5819C222.088 55.8785 221.643 55.3456 221.039 54.9831C220.454 54.5994 219.742 54.4341 218.903 54.4873C217.706 54.5633 216.786 55.0625 216.143 55.9851C215.499 56.8877 215.227 58.1374 215.328 59.7342C215.428 61.311 215.856 62.5164 216.61 63.3503C217.363 64.1642 218.338 64.5332 219.536 64.4573C221.232 64.3497 222.292 63.5209 222.715 61.9711L227.236 61.6843C226.891 63.5098 226.073 64.9945 224.783 66.1385C223.493 67.2825 221.83 67.919 219.794 68.0482C218.197 68.1494 216.758 67.89 215.476 67.2699C214.193 66.6299 213.161 65.6933 212.382 64.4602C211.601 63.2071 211.156 61.7223 211.047 60.0057ZM229.054 58.8034C228.948 57.1268 229.183 55.6189 229.759 54.2797C230.355 52.9393 231.2 51.8837 232.294 51.1129C233.407 50.3409 234.672 49.9099 236.089 49.82C237.327 49.7416 238.421 49.9227 239.37 50.3634C240.34 50.8029 241.128 51.3842 241.735 52.1072L241.585 49.742L245.807 49.4742L246.859 66.0609L242.638 66.3286L242.484 63.9035C241.994 64.7161 241.287 65.4123 240.362 65.992C239.455 66.5505 238.383 66.869 237.146 66.9475C235.748 67.0362 234.448 66.7579 233.245 66.1128C232.062 65.4664 231.09 64.516 230.329 63.2617C229.586 61.9861 229.162 60.5 229.054 58.8034ZM242.111 58.0353C242.047 57.0174 241.792 56.1618 241.347 55.4685C240.901 54.7553 240.327 54.2306 239.624 53.8944C238.92 53.5383 238.179 53.3849 237.401 53.4343C236.622 53.4837 235.916 53.7189 235.281 54.1399C234.647 54.5609 234.143 55.154 233.771 55.9191C233.417 56.6629 233.272 57.5339 233.335 58.5319C233.399 59.5299 233.654 60.3954 234.101 61.1286C234.567 61.8405 235.142 62.3752 235.826 62.7326C236.53 63.0888 237.261 63.2428 238.02 63.1947C238.798 63.1453 239.515 62.9095 240.169 62.4872C240.823 62.0449 241.326 61.4519 241.68 60.708C242.032 59.9442 242.176 59.0533 242.111 58.0353ZM254.999 52.3481L255.508 60.3719C255.544 60.9308 255.699 61.3318 255.975 61.5748C256.27 61.7966 256.737 61.8872 257.375 61.8467L259.321 61.7233L259.546 65.2562L256.911 65.4233C253.378 65.6474 251.503 64.0429 251.285 60.6098L250.778 52.6158L248.802 52.7412L248.583 49.2981L250.559 49.1728L250.299 45.071L254.521 44.8032L254.781 48.905L258.493 48.6695L258.712 52.1126L254.999 52.3481ZM263.509 46.3674C262.77 46.4143 262.137 46.224 261.609 45.7965C261.099 45.3479 260.822 44.7743 260.778 44.0757C260.734 43.3771 260.937 42.783 261.387 42.2936C261.855 41.7829 262.459 41.5041 263.197 41.4573C263.936 41.4104 264.56 41.6113 265.069 42.06C265.597 42.4874 265.883 43.0504 265.928 43.749C265.972 44.4476 265.76 45.0523 265.291 45.563C264.841 46.0524 264.247 46.3206 263.509 46.3674ZM265.7 48.2124L266.752 64.7991L262.56 65.0649L261.508 48.4783L265.7 48.2124ZM278.276 64.3387C276.679 64.44 275.219 64.1818 273.898 63.5643C272.575 62.9267 271.503 61.9827 270.682 60.7321C269.881 59.4803 269.427 58.0061 269.319 56.3095C269.212 54.6129 269.486 53.0925 270.142 51.7483C270.818 50.4028 271.783 49.3396 273.036 48.5587C274.288 47.7578 275.712 47.3068 277.309 47.2055C278.906 47.1042 280.376 47.3717 281.719 48.008C283.06 48.6243 284.142 49.5577 284.962 50.8082C285.803 52.0575 286.277 53.5305 286.385 55.2271C286.493 56.9236 286.198 58.4453 285.502 59.7921C284.826 61.1376 283.852 62.2114 282.58 63.0135C281.327 63.7944 279.892 64.2361 278.276 64.3387ZM278.044 60.686C278.802 60.6379 279.5 60.4133 280.135 60.0123C280.79 59.59 281.293 58.9969 281.646 58.2331C281.998 57.4693 282.141 56.5584 282.074 55.5005C281.974 53.9237 281.478 52.7427 280.586 51.9576C279.714 51.1512 278.678 50.786 277.481 50.862C276.283 50.9379 275.302 51.431 274.539 52.3412C273.793 53.2301 273.471 54.463 273.571 56.0399C273.671 57.6167 274.137 58.8096 274.97 59.6185C275.822 60.4061 276.846 60.762 278.044 60.686ZM298.11 45.9162C300.086 45.7908 301.723 46.3183 303.02 47.4985C304.316 48.6588 305.035 50.3567 305.177 52.5922L305.794 62.3227L301.602 62.5885L301.021 53.4269C300.938 52.1096 300.544 51.1225 299.841 50.4657C299.137 49.7889 298.216 49.4866 297.078 49.5588C295.921 49.6322 295.025 50.0497 294.392 50.8113C293.778 51.5517 293.513 52.5806 293.596 53.8979L294.177 63.0595L289.986 63.3254L288.934 46.7387L293.125 46.4728L293.256 48.5387C293.77 47.7847 294.443 47.1808 295.276 46.7272C296.127 46.2523 297.072 45.982 298.11 45.9162Z" fill="black"/>
</svg>
