<svg width="565" height="565" viewBox="0 0 565 565" fill="none" xmlns="http://www.w3.org/2000/svg">
<g clip-path="url(#clip0_1_156)">
<path d="M505.723 283.027C509.367 271.074 506.328 254.951 498.941 247.043L329.554 65.6949C322.167 57.7869 313.213 61.0708 309.57 73.0221L256.759 246.267C253.116 258.219 256.154 274.343 263.541 282.251L432.928 463.599C440.314 471.506 449.269 468.223 452.912 456.271L505.723 283.027Z" fill="#EBAE31"/>
<path d="M325.055 60.878C321.952 57.5552 316.317 55.5795 312.48 56.4681L305.529 58.0789C303.365 58.5807 303.03 60.5094 304.781 62.3838L496.492 267.632C506.329 265.352 507.853 256.584 499.894 248.063L325.055 60.878Z" fill="#EBAE31"/>
<path d="M318.45 74.2087C321.605 64.0352 315.355 56.9637 304.502 58.4273C303.515 58.56 302.482 59.4188 302.195 60.3441L241.074 257.433C240.213 260.208 241.917 262.136 244.876 261.737L255.174 260.349C258.371 259.918 261.72 257.136 262.65 254.139L318.45 74.2087Z" fill="#EBAE31"/>
<path d="M498.685 278.075C501.127 270.063 499.089 259.255 494.138 253.955L314.968 62.1328C307.894 54.5601 299.32 57.7047 295.831 69.1497L245.261 235.043C241.772 246.488 244.682 261.928 251.755 269.501L427.081 457.206C434.154 464.779 442.729 461.634 446.218 450.189L498.685 278.075Z" fill="#00040E" fill-opacity="0.78"/>
<path d="M493.388 271.898C494.351 268.74 493.548 264.48 491.596 262.391L308.054 65.889C306.103 63.7996 303.737 64.667 302.774 67.825L248.124 247.104C247.161 250.262 247.964 254.523 249.915 256.612L433.457 453.113C435.409 455.203 437.775 454.335 438.738 451.177L493.388 271.898Z" fill="#FFF2D7"/>
<path d="M244.88 250.321C240.372 245.496 232.19 242.627 226.62 243.917L71.1865 279.936C51.1327 284.583 48.0248 302.459 64.2495 319.83L228.897 496.102C237.911 505.753 254.274 511.491 265.415 508.91L436.997 469.149C442.569 467.858 443.432 462.893 438.924 458.067L244.88 250.321Z" fill="#EBAE31"/>
<path d="M382.023 149.571L382.887 146.738L419.961 186.429L418.929 189.815C418.491 191.251 417.769 192.048 417.057 192.309C416.381 192.557 415.547 192.38 414.704 191.478L383.63 158.21C382.778 157.298 382.147 155.872 381.847 154.28C381.548 152.693 381.589 150.996 382.023 149.571ZM237.408 241.93C240.023 241.324 243.299 241.689 246.488 242.807C249.672 243.924 252.713 245.774 254.862 248.074L442.289 448.733C444.445 451.042 445.232 453.294 444.926 455.049C444.628 456.766 443.25 458.185 440.648 458.788L272.139 497.837C266.789 499.077 260.136 498.325 253.702 496.068C247.272 493.813 241.115 490.074 236.753 485.404L71.7832 308.786C65.6428 302.213 63.246 295.633 64.1677 290.332C65.0827 285.07 69.3043 280.886 76.829 279.142L237.408 241.93Z" fill="black" fill-opacity="0.85" stroke="black"/>
<path d="M172.208 409.485L134.346 368.949L132.155 376.135C130.342 382.084 131.855 390.109 135.531 394.046L160.07 420.317C163.747 424.254 168.204 422.62 170.018 416.67L172.208 409.485ZM240.209 268.779L222.198 272.953L234.818 286.465L252.83 282.291L240.209 268.779Z" fill="#00040E" fill-opacity="0.78"/>
<path d="M239.883 269.848L224.049 273.518L235.144 285.395L250.979 281.727L239.883 269.848Z" fill="#EBAE31"/>
<path d="M222.198 272.953L204.185 277.127L216.806 290.639L234.818 286.465L222.198 272.953Z" fill="#00040E" fill-opacity="0.78"/>
<path d="M221.872 274.022L206.037 277.691L217.132 289.57L232.966 285.9L221.872 274.022Z" fill="#EBAE31"/>
<path d="M216.806 290.639L198.794 294.813L211.415 308.324L229.427 304.151L216.806 290.639Z" fill="#00040E" fill-opacity="0.78"/>
<path d="M216.481 291.708L200.646 295.377L211.741 307.256L227.575 303.586L216.481 291.708Z" fill="#EBAE31"/>
<path d="M211.415 308.324L193.403 312.499L206.024 326.01L224.035 321.836L211.415 308.324Z" fill="#00040E" fill-opacity="0.78"/>
<path d="M211.089 309.394L195.254 313.063L206.35 324.942L222.184 321.272L211.089 309.394Z" fill="#EBAE31"/>
<path d="M206.024 326.01L188.011 330.185L200.633 343.696L218.644 339.522L206.024 326.01Z" fill="#00040E" fill-opacity="0.78"/>
<path d="M205.698 327.08L189.863 330.749L200.959 342.627L216.792 338.958L205.698 327.08Z" fill="#EBAE31"/>
<path d="M252.83 282.291L234.818 286.465L247.439 299.977L265.451 295.803L252.83 282.291Z" fill="#00040E" fill-opacity="0.78"/>
<path d="M252.505 283.36L236.67 287.029L247.765 298.908L263.599 295.238L252.505 283.36Z" fill="#EBAE31"/>
<path d="M234.818 286.465L216.806 290.639L229.427 304.151L247.439 299.977L234.818 286.465Z" fill="#00040E" fill-opacity="0.78"/>
<path d="M234.492 287.534L218.658 291.204L229.753 303.081L245.587 299.413L234.492 287.534Z" fill="#EBAE31"/>
<path d="M229.427 304.151L211.415 308.324L224.035 321.837L242.048 317.662L229.427 304.151Z" fill="#00040E" fill-opacity="0.78"/>
<path d="M229.101 305.22L213.267 308.889L224.361 320.767L240.196 317.098L229.101 305.22Z" fill="#EBAE31"/>
<path d="M224.035 321.837L206.024 326.01L218.644 339.522L236.657 335.348L224.035 321.837Z" fill="#00040E" fill-opacity="0.78"/>
<path d="M223.71 322.905L207.876 326.575L218.97 338.453L234.805 334.784L223.71 322.905Z" fill="#EBAE31"/>
<path d="M218.644 339.522L200.633 343.696L213.253 357.207L231.265 353.034L218.644 339.522Z" fill="#00040E" fill-opacity="0.78"/>
<path d="M218.318 340.591L202.484 344.261L213.579 356.139L229.414 352.47L218.318 340.591Z" fill="#EBAE31"/>
<path d="M265.45 295.803L247.439 299.977L260.059 313.488L278.071 309.315L265.45 295.803Z" fill="#00040E" fill-opacity="0.78"/>
<path d="M265.125 296.872L249.291 300.542L260.385 312.419L276.22 308.751L265.125 296.872Z" fill="#EBAE31"/>
<path d="M247.439 299.977L229.427 304.151L242.048 317.662L260.059 313.488L247.439 299.977Z" fill="#00040E" fill-opacity="0.78"/>
<path d="M247.113 301.046L231.278 304.715L242.374 316.594L258.208 312.924L247.113 301.046Z" fill="#EBAE31"/>
<path d="M242.048 317.662L224.035 321.837L236.657 335.348L254.668 331.174L242.048 317.662Z" fill="#00040E" fill-opacity="0.78"/>
<path d="M241.722 318.731L225.887 322.401L236.982 334.28L252.816 330.61L241.722 318.731Z" fill="#EBAE31"/>
<path d="M236.657 335.348L218.644 339.522L231.265 353.034L249.277 348.86L236.657 335.348Z" fill="#00040E" fill-opacity="0.78"/>
<path d="M236.331 336.417L220.496 340.087L231.591 351.965L247.425 348.296L236.331 336.417Z" fill="#EBAE31"/>
<path d="M231.265 353.034L213.253 357.207L225.874 370.72L243.886 366.545L231.265 353.034Z" fill="#00040E" fill-opacity="0.78"/>
<path d="M230.939 354.103L215.105 357.772L226.2 369.651L242.034 365.981L230.939 354.103Z" fill="#EBAE31"/>
<path d="M278.072 309.315L260.059 313.488L272.681 327L290.692 322.826L278.072 309.315Z" fill="#00040E" fill-opacity="0.78"/>
<path d="M277.746 310.383L261.911 314.053L273.006 325.932L288.84 322.262L277.746 310.383Z" fill="#EBAE31"/>
<path d="M260.059 313.488L242.048 317.662L254.668 331.174L272.68 327L260.059 313.488Z" fill="#00040E" fill-opacity="0.78"/>
<path d="M259.733 314.558L243.9 318.227L254.994 330.105L270.829 326.436L259.733 314.558Z" fill="#EBAE31"/>
<path d="M254.668 331.174L236.657 335.348L249.277 348.86L267.289 344.686L254.668 331.174Z" fill="#00040E" fill-opacity="0.78"/>
<path d="M254.342 332.243L238.508 335.913L249.603 347.791L265.438 344.122L254.342 332.243Z" fill="#EBAE31"/>
<path d="M249.277 348.86L231.265 353.034L243.886 366.545L261.898 362.372L249.277 348.86Z" fill="#00040E" fill-opacity="0.78"/>
<path d="M248.951 349.929L233.117 353.598L244.211 365.477L260.046 361.807L248.951 349.929Z" fill="#EBAE31"/>
<path d="M243.886 366.545L225.874 370.72L238.494 384.231L256.507 380.058L243.886 366.545Z" fill="#00040E" fill-opacity="0.78"/>
<path d="M243.56 367.615L227.726 371.284L238.82 383.163L254.655 379.493L243.56 367.615Z" fill="#EBAE31"/>
<path d="M290.692 322.826L272.68 327L285.301 340.512L303.313 336.338L290.692 322.826Z" fill="#00040E" fill-opacity="0.78"/>
<path d="M290.366 323.896L274.532 327.564L285.626 339.443L301.461 335.773L290.366 323.896Z" fill="#EBAE31"/>
<path d="M272.681 327L254.668 331.174L267.289 344.686L285.301 340.512L272.681 327Z" fill="#00040E" fill-opacity="0.78"/>
<path d="M272.355 328.069L256.52 331.739L267.615 343.618L283.449 339.948L272.355 328.069Z" fill="#EBAE31"/>
<path d="M267.289 344.686L249.277 348.86L261.898 362.372L279.909 358.198L267.289 344.686Z" fill="#00040E" fill-opacity="0.78"/>
<path d="M266.963 345.755L251.128 349.425L262.224 361.303L278.058 357.634L266.963 345.755Z" fill="#EBAE31"/>
<path d="M261.898 362.372L243.886 366.545L256.507 380.058L274.518 375.883L261.898 362.372Z" fill="#00040E" fill-opacity="0.78"/>
<path d="M261.572 363.441L245.737 367.11L256.833 378.988L272.667 375.319L261.572 363.441Z" fill="#EBAE31"/>
<path d="M256.507 380.058L238.494 384.231L251.115 397.744L269.127 393.569L256.507 380.058Z" fill="#00040E" fill-opacity="0.78"/>
<path d="M256.181 381.127L240.346 384.796L251.441 396.674L267.275 393.005L256.181 381.127Z" fill="#EBAE31"/>
<path d="M303.313 336.338L285.301 340.512L297.922 354.024L315.934 349.85L303.313 336.338Z" fill="#00040E" fill-opacity="0.78"/>
<path d="M302.987 337.407L287.152 341.077L298.247 352.955L314.082 349.286L302.987 337.407Z" fill="#EBAE31"/>
<path d="M285.301 340.512L267.289 344.686L279.909 358.198L297.922 354.024L285.301 340.512Z" fill="#00040E" fill-opacity="0.78"/>
<path d="M284.975 341.581L269.141 345.25L280.235 357.129L296.07 353.459L284.975 341.581Z" fill="#EBAE31"/>
<path d="M279.909 358.198L261.898 362.372L274.518 375.883L292.531 371.71L279.909 358.198Z" fill="#00040E" fill-opacity="0.78"/>
<path d="M279.584 359.267L263.75 362.936L274.844 374.815L290.679 371.145L279.584 359.267Z" fill="#EBAE31"/>
<path d="M274.518 375.883L256.507 380.058L269.127 393.569L287.139 389.396L274.518 375.883Z" fill="#00040E" fill-opacity="0.78"/>
<path d="M274.192 376.952L258.358 380.622L269.453 392.501L285.288 388.831L274.192 376.952Z" fill="#EBAE31"/>
<path d="M269.127 393.569L251.115 397.744L263.736 411.255L281.748 407.082L269.127 393.569Z" fill="#00040E" fill-opacity="0.78"/>
<path d="M268.801 394.638L252.967 398.308L264.061 410.187L279.896 406.517L268.801 394.638Z" fill="#EBAE31"/>
<path d="M315.934 349.85L297.922 354.024L310.543 367.536L328.554 363.362L315.934 349.85Z" fill="#00040E" fill-opacity="0.78"/>
<path d="M315.608 350.919L299.773 354.588L310.869 366.467L326.703 362.797L315.608 350.919Z" fill="#EBAE31"/>
<path d="M297.922 354.024L279.909 358.198L292.53 371.71L310.543 367.536L297.922 354.024Z" fill="#00040E" fill-opacity="0.78"/>
<path d="M297.596 355.093L281.761 358.763L292.857 370.64L308.691 366.972L297.596 355.093Z" fill="#EBAE31"/>
<path d="M292.53 371.71L274.518 375.883L287.139 389.396L305.152 385.221L292.53 371.71Z" fill="#00040E" fill-opacity="0.78"/>
<path d="M292.204 372.779L276.37 376.448L287.465 388.326L303.3 384.657L292.204 372.779Z" fill="#EBAE31"/>
<path d="M287.139 389.396L269.127 393.569L281.748 407.082L299.761 402.907L287.139 389.396Z" fill="#00040E" fill-opacity="0.78"/>
<path d="M286.813 390.465L270.979 394.134L282.074 406.012L297.909 402.343L286.813 390.465Z" fill="#EBAE31"/>
<path d="M328.554 363.362L310.543 367.536L323.163 381.048L341.175 376.874L328.554 363.362Z" fill="#00040E" fill-opacity="0.78"/>
<path d="M328.228 364.431L312.394 368.101L323.489 379.978L339.324 376.31L328.228 364.431Z" fill="#EBAE31"/>
<path d="M310.543 367.536L292.53 371.71L305.152 385.221L323.163 381.048L310.543 367.536Z" fill="#00040E" fill-opacity="0.78"/>
<path d="M310.217 368.605L294.382 372.274L305.477 384.153L321.311 380.483L310.217 368.605Z" fill="#EBAE31"/>
<path d="M305.152 385.221L287.139 389.396L299.76 402.907L317.772 398.734L305.152 385.221Z" fill="#00040E" fill-opacity="0.78"/>
<path d="M304.826 386.291L288.991 389.96L300.086 401.839L315.92 398.169L304.826 386.291Z" fill="#EBAE31"/>
<path d="M299.76 402.907L281.748 407.082L294.369 420.593L312.381 416.419L299.76 402.907Z" fill="#00040E" fill-opacity="0.78"/>
<path d="M299.434 403.977L283.6 407.646L294.695 419.525L310.529 415.855L299.434 403.977Z" fill="#EBAE31"/>
<path d="M341.175 376.874L323.163 381.048L335.784 394.559L353.796 390.385L341.175 376.874Z" fill="#00040E" fill-opacity="0.78"/>
<path d="M340.85 377.943L325.015 381.612L336.11 393.491L351.944 389.821L340.85 377.943Z" fill="#EBAE31"/>
<path d="M323.163 381.048L305.152 385.221L317.772 398.734L335.784 394.559L323.163 381.048Z" fill="#00040E" fill-opacity="0.78"/>
<path d="M322.837 382.117L307.003 385.786L318.098 397.664L333.933 393.995L322.837 382.117Z" fill="#EBAE31"/>
<path d="M317.772 398.734L299.76 402.907L312.38 416.419L330.393 412.245L317.772 398.734Z" fill="#00040E" fill-opacity="0.78"/>
<path d="M317.446 399.803L301.612 403.472L312.707 415.35L328.541 411.681L317.446 399.803Z" fill="#EBAE31"/>
<path d="M353.796 390.385L335.784 394.559L348.404 408.071L366.417 403.897L353.796 390.385Z" fill="#00040E" fill-opacity="0.78"/>
<path d="M353.47 391.455L337.636 395.124L348.73 407.002L364.565 403.333L353.47 391.455Z" fill="#EBAE31"/>
<path d="M335.784 394.559L317.772 398.733L330.393 412.245L348.404 408.071L335.784 394.559Z" fill="#00040E" fill-opacity="0.78"/>
<path d="M335.458 395.629L319.623 399.298L330.719 411.177L346.553 407.507L335.458 395.629Z" fill="#EBAE31"/>
<path d="M330.393 412.245L312.381 416.419L325.002 429.931L343.013 425.757L330.393 412.245Z" fill="#00040E" fill-opacity="0.78"/>
<path d="M330.067 413.314L314.232 416.984L325.328 428.863L341.162 425.193L330.067 413.314Z" fill="#EBAE31"/>
<path d="M366.417 403.897L348.404 408.071L361.026 421.583L379.037 417.409L366.417 403.897Z" fill="#00040E" fill-opacity="0.78"/>
<path d="M366.091 404.966L350.256 408.636L361.351 420.515L377.185 416.845L366.091 404.966Z" fill="#EBAE31"/>
<path d="M348.404 408.071L330.393 412.245L343.013 425.757L361.026 421.583L348.404 408.071Z" fill="#00040E" fill-opacity="0.78"/>
<path d="M348.078 409.141L332.245 412.81L343.339 424.688L359.174 421.019L348.078 409.141Z" fill="#EBAE31"/>
<path d="M379.037 417.409L361.026 421.583L373.646 435.095L391.658 430.921L379.037 417.409Z" fill="#00040E" fill-opacity="0.78"/>
<path d="M378.711 418.479L362.877 422.147L373.972 434.026L389.807 430.356L378.711 418.479Z" fill="#EBAE31"/>
<path d="M391.658 430.921L373.646 435.095L386.267 448.607L404.278 444.433L391.658 430.921Z" fill="#00040E" fill-opacity="0.78"/>
<path d="M391.332 431.99L375.497 435.66L386.593 447.538L402.427 443.869L391.332 431.99Z" fill="#EBAE31"/>
<path d="M361.026 421.583L343.013 425.757L355.634 439.269L373.646 435.095L361.026 421.583Z" fill="#00040E" fill-opacity="0.78"/>
<path d="M360.7 422.652L344.865 426.322L355.96 438.2L371.794 434.531L360.7 422.652Z" fill="#EBAE31"/>
<path d="M181.301 346.458C178.515 343.475 173.458 341.701 170.014 342.499L113.862 355.512L189.586 436.582L245.739 423.57C249.182 422.772 249.715 419.703 246.929 416.72L181.301 346.458Z" fill="#EBAE31"/>
<g clip-path="url(#clip1_1_156)">
<path d="M390.539 194.452C365.975 173.623 360.398 190.696 342.521 178.608C331.221 170.966 322.211 159.848 322.211 159.848C316.582 157.446 318.828 179.233 328.869 186.555C338.911 193.877 352.203 208.647 352.203 208.647C352.203 208.647 354.444 185.789 375.584 195.443C394.112 203.905 404.221 237.065 385.724 247.679C374.574 254.077 357.285 236.63 343.071 234.762C331.536 233.246 328.343 244.037 328.343 244.037C328.343 244.037 322.013 261.873 343.189 289.188C356.482 305.902 368.865 319.516 386.221 316.528C369.604 308.349 340.788 279.465 341.378 259.413C341.896 241.827 356.814 254.813 376.067 261.717C396.456 269.028 401.732 254.949 403.753 251.122C405.646 247.54 412.929 228.467 398.779 205.337C396.126 201 393.619 197.064 390.539 194.452ZM379.668 206.305C376.856 203.198 372.772 202.312 370.548 204.326C368.323 206.34 368.8 210.491 371.613 213.598C374.425 216.705 378.509 217.591 380.734 215.577C382.958 213.563 382.481 209.412 379.668 206.305ZM352.388 212.92C308.592 197.995 295.778 231.716 307.891 268.46C320.005 305.204 385.417 373.26 420.59 326.105C408.927 331.856 372.752 343.916 335.29 297.083C335.274 297.063 335.261 297.044 335.245 297.023C325.711 284.69 322.474 277.52 322.474 277.52C322.474 277.52 322.468 277.564 322.468 277.565L322.466 277.55C301.44 232.394 325.06 207.017 358.211 227.526C354.021 220.976 352.973 217.436 352.388 212.92ZM433.308 302.024C433.279 301.975 433.244 301.945 433.203 301.936C430.787 301.388 397.585 316.888 368.859 267.713C368.859 267.713 356.777 264.261 353.345 261.464C348.523 257.534 366.66 290.341 389.923 307.589C406.672 320.006 425.462 317.371 426.296 317.247C430.942 308.93 433.104 301.969 433.104 301.969L433.404 302.74C433.403 302.415 433.38 302.145 433.308 302.024Z" fill="url(#paint0_linear_1_156)"/>
</g>
</g>
<defs>
<linearGradient id="paint0_linear_1_156" x1="341.51" y1="142.452" x2="310.655" y2="356.999" gradientUnits="userSpaceOnUse">
<stop stop-color="#F3C82D"/>
<stop offset="0.524706" stop-color="#E59C2D"/>
</linearGradient>
<clipPath id="clip0_1_156">
<rect width="452" height="452" fill="white" transform="translate(131.798) rotate(16.953)"/>
</clipPath>
<clipPath id="clip1_1_156">
<rect width="196.727" height="123.957" fill="white" transform="translate(343.167 140.182) rotate(47.8438)"/>
</clipPath>
</defs>
</svg>
