<svg width="192" height="192" viewBox="0 0 36 36" fill="none" xmlns="http://www.w3.org/2000/svg">
<g clip-path="url(#clip0_2_48)">
<path d="M16.0888 0C11.6952 0.415775 7.61303 2.46429 4.63846 5.746C1.66388 9.02771 0.0102124 13.3073 0 17.7499C0.0101779 22.1926 1.66383 26.4722 4.63841 29.754C7.61299 33.0357 11.6952 35.0842 16.0888 35.5V31.2299C12.8403 30.8056 9.85578 29.2069 7.6914 26.7315C5.52701 24.2562 4.33037 21.073 4.32444 17.7752C4.3304 14.4775 5.52706 11.2944 7.69144 8.81903C9.85582 6.34369 12.8403 4.74497 16.0888 4.32076V0ZM20.2428 0.0598458V4.42437C23.3495 4.99358 26.1597 6.64108 28.1847 9.08032C30.2097 11.5196 31.3214 14.5962 31.3264 17.7752C31.3256 20.9573 30.2158 24.0383 28.1904 26.4813C26.165 28.9242 23.3525 30.5744 20.2428 31.1441V35.4402C24.4757 34.8357 28.3497 32.7134 31.1528 29.4634C33.9558 26.2134 35.4994 22.0541 35.5 17.7499C35.4994 13.4458 33.9557 9.2865 31.1527 6.03652C28.3497 2.78655 24.4757 0.6643 20.2428 0.0598458Z" fill="url(#paint0_linear_2_48)"/>
<path d="M17.8346 8.13379C16.5832 8.13379 15.3441 8.38192 14.188 8.86402C13.0319 9.34612 11.9815 10.0527 11.0966 10.9436C10.2118 11.8344 9.50989 12.8919 9.03101 14.0558C8.55214 15.2197 8.30567 16.4672 8.30566 17.727C8.31015 20.2134 9.27343 22.601 10.9925 24.3864C12.7115 26.1718 15.0519 27.2155 17.5204 27.2975L17.5202 27.2977H23.6884L26.9724 27.2824L23.9886 25.0418C25.0449 24.1423 25.8939 23.022 26.4767 21.7588C27.0595 20.4956 27.3621 19.1198 27.3634 17.727C27.3633 16.4602 27.1139 15.2061 26.6298 14.0369C26.1456 12.8677 25.4363 11.8066 24.5426 10.9149L21.9978 13.4996C22.5628 14.0585 23.0121 14.7246 23.3198 15.4594C23.6274 16.1943 23.7873 16.9832 23.7901 17.7806C23.7901 18.5727 23.6351 19.357 23.3341 20.0888C23.033 20.8206 22.5917 21.4855 22.0354 22.0456C21.479 22.6057 20.8186 23.0499 20.0917 23.3531C19.3648 23.6562 18.5858 23.8122 17.799 23.8122C16.2101 23.8122 14.6862 23.1767 13.5627 22.0456C12.4391 20.9144 11.8079 19.3803 11.8079 17.7806C11.8079 16.181 12.4391 14.6468 13.5627 13.5157C14.6862 12.3846 16.2101 11.7491 17.799 11.7491C18.5725 11.7535 19.3378 11.9086 20.0528 12.2059L22.7237 9.49304C21.2459 8.60358 19.5563 8.13386 17.8346 8.13379Z" fill="url(#paint1_linear_2_48)"/>
</g>
<defs>
<linearGradient id="paint0_linear_2_48" x1="9.95556" y1="0.353411" x2="27.0766" y2="33.478" gradientUnits="userSpaceOnUse">
<stop stop-color="#F3C836"/>
<stop offset="1" stop-color="#E59C2D"/>
</linearGradient>
<linearGradient id="paint1_linear_2_48" x1="9.80125" y1="0.437881" x2="27.1062" y2="33.6342" gradientUnits="userSpaceOnUse">
<stop stop-color="#F3C836"/>
<stop offset="1" stop-color="#E59C2D"/>
</linearGradient>
</defs>
</svg>
