<?xml version="1.0" encoding="UTF-8"?>
<svg version="1.1" xmlns="http://www.w3.org/2000/svg" width="300" height="300">
<defs>
<linearGradient id="orangeGradient" x1="0%" y1="0%" x2="100%" y2="100%">
<stop offset="0%" style="stop-color:#FF6B35;stop-opacity:1" />
<stop offset="50%" style="stop-color:#F7931E;stop-opacity:1" />
<stop offset="100%" style="stop-color:#E85D04;stop-opacity:1" />
</linearGradient>
</defs>
<path d="M0 0 C3.53214485 2.01836849 5.80160052 4.07796533 7 8 C6.92523438 9.22847656 6.85046875 10.45695313 6.7734375 11.72265625 C6.74491597 16.30995614 8.52812507 19.16241325 11.3125 22.6875 C11.76544434 23.2870752 12.21838867 23.88665039 12.68505859 24.50439453 C14.09993304 26.35603668 15.54446456 28.1802085 17 30 C17.64122803 30.81476807 17.64122803 30.81476807 18.29541016 31.64599609 C41.6106444 61.07343099 77.67881291 90.2109508 115 99 C118.37241261 98.65459005 119.57561364 98.42438636 122 96 C126.20269808 94.90184903 129.83166157 94.51742543 133.875 96.1875 C136.98441476 98.83964789 138.80235576 100.70551925 139.43359375 104.83984375 C139.44419278 113.24487228 139.44419278 113.24487228 137.125 117.1875 C134.01732561 119.83816345 132.3756585 120.11965226 128.375 120.0625 C127.55773437 120.05347656 126.74046875 120.04445313 125.8984375 120.03515625 C125.27195312 120.02355469 124.64546875 120.01195313 124 120 C123.82017578 121.29647461 123.82017578 121.29647461 123.63671875 122.61914062 C123.00187122 125.99006416 122.04366887 128.89629686 120.8125 132.09375 C120.36543701 133.27348389 119.91837402 134.45321777 119.45776367 135.66870117 C119.22012299 136.29183197 118.9824823 136.91496277 118.73764038 137.55697632 C105.07763352 173.53889583 96.97371943 209.92934895 92 248 C92.62390625 248.28875 93.2478125 248.5775 93.890625 248.875 C96.91701805 250.48907629 97.67499053 251.81997726 99 255 C99.65938121 259.83016597 99.723518 263.66427446 97.375 268 C93.48066444 271.27944047 90.50630159 272.07927903 85.4375 271.8125 C81.1430348 270.79744459 78.08868432 269.68354314 75.63777161 265.89344788 C74.18678829 263.79581832 74.18678829 263.79581832 71.94291687 263.71311951 C70.7562719 263.86370567 70.7562719 263.86370567 69.5456543 264.01733398 C68.6405864 264.12182861 67.73551849 264.22632324 66.80302429 264.33398438 C65.82001846 264.46998047 64.83701263 264.60597656 63.82421875 264.74609375 C62.79960037 264.87121338 61.77498199 264.99633301 60.71931458 265.12524414 C57.37215054 265.54053905 54.03018906 265.9877033 50.6875 266.4375 C48.3881484 266.73349588 46.08866846 267.0284965 43.7890625 267.32250977 C37.18729547 268.17692318 30.59270214 269.07847888 24 270 C23.15407288 270.11746582 22.30814575 270.23493164 21.43658447 270.35595703 C4.04810805 272.78551576 -12.77789307 276.40070707 -29.63525391 281.32324219 C-31.74810017 281.92790973 -33.86454558 282.48175187 -36 283 C-35.88140625 283.58007812 -35.7628125 284.16015625 -35.640625 284.7578125 C-34.91152411 289.17616389 -34.66032978 291.33279064 -36.75 295.4375 C-39.282571 298.32181698 -40.88759515 299.84946088 -44.7421875 300.37109375 C-53.2596433 300.55163832 -53.2596433 300.55163832 -57.1875 297.625 C-60.09712192 293.41106481 -60.51452881 290.05807986 -60 285 C-59.37612061 282.98624258 -58.71659018 280.98266058 -58 279 C-78.85285871 262.99862271 -110.59346002 246.13589312 -138 249 C-139.47929495 250.25418485 -140.95688884 251.51119996 -142.3984375 252.80859375 C-145.17439502 254.87363532 -147.61406895 255 -151 255 C-155.64275364 253.36138107 -158.60444733 251.33042214 -161 247 C-161.73837427 242.87338494 -161.8777023 238.97786371 -160.15234375 235.08984375 C-156.85654356 230.54275671 -153.13761551 230.13701327 -148 229 C-147.36310584 226.35658005 -146.7406983 223.71087603 -146.125 221.0625 C-145.95097656 220.34642578 -145.77695313 219.63035156 -145.59765625 218.89257812 C-142.31293253 204.59794714 -141.67069681 190.26218651 -141.73925781 175.65209961 C-141.75000412 172.93645998 -141.73927631 170.22147951 -141.7265625 167.50585938 C-141.71931225 156.84183448 -142.36430937 146.5453608 -144 136 C-144.6602417 135.81123291 -145.3204834 135.62246582 -146.00073242 135.42797852 C-152.3182573 133.5752204 -152.3182573 133.5752204 -155 131.3125 C-157.21889351 126.18130877 -157.4432087 122.42293321 -155.8125 117.1875 C-154.02716465 114.04777232 -153.18843485 112.59421742 -150 111 C-144.1028807 109.44227037 -141.25664601 110.47276634 -136 113 C-132.51011727 113 -131.49535645 112.28073779 -128.59765625 110.4296875 C-127.717146 109.86991211 -126.83663574 109.31013672 -125.92944336 108.73339844 C-124.98335205 108.12012695 -124.03726074 107.50685547 -123.0625 106.875 C-122.08482666 106.24625977 -121.10715332 105.61751953 -120.09985352 104.96972656 C-105.6293293 95.59869485 -91.48024659 85.75403835 -78 75 C-77.05713135 74.25218262 -77.05713135 74.25218262 -76.09521484 73.48925781 C-68.00180988 67.05598834 -60.14514683 60.46462711 -52.58984375 53.40625 C-50.45343107 51.42128739 -48.28557485 49.51068511 -46.0625 47.625 C-37.97719367 40.60533028 -30.23351882 32.83677874 -23.3671875 24.62109375 C-22.17167697 23.20355984 -20.87372992 21.87372992 -19.5625 20.5625 C-17.54525976 17.25422601 -17.87293782 14.9996063 -18.04296875 11.21484375 C-17.9782553 7.87915981 -16.82684364 5.74026547 -15 3 C-10.53901336 -1.12616645 -5.77984508 -0.78036484 0 0 Z M2 21 C-0.17728073 21.87644433 -0.17728073 21.87644433 -2 24 C-2.5816416 35.377906 -0.87510544 46.8751831 0.23388672 58.18457031 C0.49868518 60.90087951 0.74790748 63.61795221 0.98388672 66.33691406 C1.32576251 70.27462325 1.7120089 74.20733244 2.1015625 78.140625 C2.25197495 79.96258392 2.25197495 79.96258392 2.40542603 81.8213501 C2.96270686 88.83246217 2.96270686 88.83246217 7.05615234 94.17871094 C8.02762207 94.77973633 8.9990918 95.38076172 10 96 C11 98 11 98 10.9375 101.75 C11.59691566 108.75344903 16.54770235 114.07517316 20.76098633 119.41967773 C21.91751214 120.89478938 23.02347382 122.40915789 24.125 123.92578125 C24.74375 124.61027344 25.3625 125.29476562 26 126 C29.32573903 126.05155273 29.32573903 126.05155273 33 125 C33.70511719 124.9175 34.41023438 124.835 35.13671875 124.75 C41.31122549 123.88793972 44.32505497 121.19119778 48.765625 116.97265625 C55.66854502 110.87829505 64.01362542 109.74201795 73 110 C81.20196376 111.15270842 87.95410175 114.8290896 95 119 C96.39491567 119.79328248 97.79060582 120.58520671 99.1875 121.375 C100.115625 121.91125 101.04375 122.4475 102 123 C103.7755291 121.58922306 105.54525031 120.17113464 107.3125 118.75 C108.79169922 117.56664063 108.79169922 117.56664063 110.30078125 116.359375 C113.59031946 113.52398188 113.59031946 113.52398188 116 110 C115.98135415 107.46555465 115.98135415 107.46555465 115 105 C112.89865768 103.56585625 112.89865768 103.56585625 110.171875 102.7109375 C109.15440186 102.33243652 108.13692871 101.95393555 107.08862305 101.56396484 C105.98687744 101.17160645 104.88513184 100.77924805 103.75 100.375 C87.18962808 94.12110104 71.31640279 86.5041029 57 76 C56.4750293 75.61489258 55.95005859 75.22978516 55.40917969 74.83300781 C47.90770883 69.29149947 40.76178438 63.43099205 34 57 C33.44586426 56.47841309 32.89172852 55.95682617 32.32080078 55.41943359 C23.51979784 47.08674524 15.8717469 38.35664251 8.70703125 28.58203125 C6.6663179 25.81244086 4.53550432 23.34186198 2 21 Z M-13 22 C-13.40089844 22.43119141 -13.80179687 22.86238281 -14.21484375 23.30664062 C-21.86635885 31.52204289 -29.57241806 39.67468121 -37.5 47.625 C-38.13292969 48.26244141 -38.76585938 48.89988281 -39.41796875 49.55664062 C-43.78104146 53.90599298 -48.3309573 57.98317127 -53 62 C-54.08273027 62.94972451 -55.16480231 63.90020016 -56.24609375 64.8515625 C-65.1890561 72.65230766 -74.47801561 79.9211702 -84 87 C-84.72203613 87.5377002 -85.44407227 88.07540039 -86.18798828 88.62939453 C-96.31295727 96.13680969 -106.6808655 103.20865273 -117.28125 110.02734375 C-118.04308594 110.51960449 -118.80492187 111.01186523 -119.58984375 111.51904297 C-121.29872709 112.56909224 -123.04624314 113.55740381 -124.81640625 114.50048828 C-127.36817257 115.88179779 -129.73777081 117.18163698 -132 119 C-132.83939269 122.2607041 -132.83939269 122.2607041 -132 125 C-123.39991651 130.06764018 -114.66530339 134.89616598 -105.875 139.625 C-104.86751709 140.18219727 -103.86003418 140.73939453 -102.82202148 141.31347656 C-101.86755127 141.82104492 -100.91308105 142.32861328 -99.9296875 142.8515625 C-99.07616699 143.31385254 -98.22264648 143.77614258 -97.34326172 144.25244141 C-95.02155447 145.26800775 -95.02155447 145.26800775 -92.90673828 144.15380859 C-92.27751465 143.77305176 -91.64829102 143.39229492 -91 143 C-87.14689752 142.64971796 -84.86452877 142.44581489 -81.5625 144.5625 C-77.94751574 146.590418 -74.90417989 145.7753762 -71 145 C-68.38395034 144.22057902 -65.91079854 143.41412941 -63.375 142.4375 C-62.6855127 142.17356445 -61.99602539 141.90962891 -61.28564453 141.63769531 C-44.08874183 134.81571832 -29.5622245 123.34170479 -15.50854492 111.55810547 C-14.81994385 110.9807666 -14.13134277 110.40342773 -13.421875 109.80859375 C-12.50293457 109.03213501 -12.50293457 109.03213501 -11.56542969 108.23999023 C-10 107 -10 107 -8 106 C-7.47264892 103.52550645 -7.17057941 101.05273251 -6.85546875 98.54296875 C-6 96 -6 96 -3.44458008 94.19628906 C-0.75344798 92.25325875 -0.75344798 92.25325875 -0.64257812 89.42797852 C-0.8349707 87.88775024 -0.8349707 87.88775024 -1.03125 86.31640625 C-1.16789063 85.07262207 -1.30453125 83.82883789 -1.4453125 82.54736328 C-1.53393555 81.83590149 -1.62255859 81.1244397 -1.71386719 80.39141846 C-2.0343353 77.71303511 -2.29811375 75.03242014 -2.5546875 72.34716797 C-3.06701063 66.99025565 -3.60670453 61.6366093 -4.15673828 56.28344727 C-4.50242 52.91391103 -4.84319217 49.54390142 -5.18359375 46.17382812 C-5.40335321 44.02080344 -5.62339502 41.86780756 -5.84375 39.71484375 C-5.99535583 38.21170876 -5.99535583 38.21170876 -6.15002441 36.6782074 C-6.29522522 35.27503014 -6.29522522 35.27503014 -6.44335938 33.84350586 C-6.52694702 33.02635605 -6.61053467 32.20920624 -6.69665527 31.36729431 C-7.01904119 28.85140303 -7.32806619 26.44904003 -8 24 C-10.47636012 22.62533375 -10.47636012 22.62533375 -13 22 Z M-5 110 C-5.83660156 110.66644531 -6.67320312 111.33289063 -7.53515625 112.01953125 C-27.52130486 127.87542215 -48.12792447 143.76448712 -73 151 C-73 151.33 -73 151.66 -73 152 C-57.7373377 155.40523595 -57.7373377 155.40523595 -43 152.87890625 C-41.65966131 151.59320093 -40.32941847 150.29699363 -39 149 C-36.19579049 148.56103534 -33.85583862 148.75380702 -31 149 C-30.34 150.32 -29.68 151.64 -29 153 C-21.67242007 152.82850345 -14.9539554 151.53416603 -9 147 C-8.29167216 145.35060802 -7.62205091 143.68382745 -7 142 C-6.01 141.34 -5.02 140.68 -4 140 C-3.30216316 137.10193015 -3.30216316 137.10193015 -3.05078125 133.6796875 C-2.92509766 132.42285156 -2.79941406 131.16601562 -2.66992188 129.87109375 C-2.55048382 128.53908914 -2.43134708 127.20705747 -2.3125 125.875 C-2.1829041 124.53503345 -2.05205982 123.19518701 -1.91992188 121.85546875 C-1.60095488 118.57129008 -1.29488598 115.28641416 -1 112 C-2.32 111.34 -3.64 110.68 -5 110 Z M5 111 C2.94988175 113.05011825 3.2621073 116.99190945 2.9375 119.8125 C2.84807129 120.57554443 2.75864258 121.33858887 2.66650391 122.12475586 C1.97227096 128.4303745 1.78001383 134.65706545 2 141 C2.99 141.33 3.98 141.66 5 142 C5.05422947 143.4370809 5.09289723 144.87475462 5.125 146.3125 C5.14820313 147.11300781 5.17140625 147.91351563 5.1953125 148.73828125 C5 151 5 151 3 154 C3.27840036 158.91840629 4.16437704 162.93560709 7 167 C10.46705538 168.24061217 10.46705538 168.24061217 14 169 C15.71875 170.55078125 15.71875 170.55078125 17 172 C21.66790051 170.21579597 26.33071333 168.41908785 30.98925781 166.6105957 C32.57483434 165.99710155 34.16174775 165.387051 35.75 164.78051758 C38.03224841 163.90827076 40.30940817 163.02376739 42.5859375 162.13671875 C43.29744965 161.86784348 44.00896179 161.5989682 44.74203491 161.32194519 C48.30236761 159.92029048 49.82099583 159.26850626 52 156 C52 155.01 52 154.02 52 153 C48.39256383 151.97275368 48.39256383 151.97275368 44.875 152.9375 C44.25625 153.288125 43.6375 153.63875 43 154 C42.01 154 41.02 154 40 154 C40.33 151.69 40.66 149.38 41 147 C39.58367866 145.89539041 38.16692736 144.79133212 36.75 143.6875 C35.96109375 143.07261719 35.1721875 142.45773438 34.359375 141.82421875 C32.2537703 140.19620982 30.13390657 138.59064137 28 137 C27.25556641 137.72316406 27.25556641 137.72316406 26.49609375 138.4609375 C22.10942517 142.53962366 18.91221552 144.89145959 13 146 C13.13339957 138.52962434 15.74654706 135.15743683 21 130 C19.41925289 125.35544529 16.93017811 121.65809467 14.125 117.6875 C13.69058594 117.04232422 13.25617188 116.39714844 12.80859375 115.73242188 C11.38748242 113.64987714 11.38748242 113.64987714 9 111 C7.68 111 6.36 111 5 111 Z M62 119 C62.93103324 121.32758311 63.65382128 122.74357132 65.6875 124.25 C70.06883072 125.67097212 73.70984999 125.54900001 77.9375 123.75 C78.9584375 122.88375 78.9584375 122.88375 80 122 C80 120.68 80 119.36 80 118 C76.89998878 116.19883608 74.57517903 115.7038499 71 115.6875 C70.154375 115.67074219 69.30875 115.65398437 68.4375 115.63671875 C65.54669465 116.06755993 64.17173725 117.09470274 62 119 Z M118 117 C116.32756598 118.28419041 114.66218553 119.57757185 113 120.875 C112.071875 121.59429687 111.14375 122.31359375 110.1875 123.0546875 C109.1046875 124.01761719 109.1046875 124.01761719 108 125 C108 125.66 108 126.32 108 127 C111.22114157 129.31592022 111.22114157 129.31592022 115 130 C115.69906942 128.40084119 116.38389468 126.79544955 117.0625 125.1875 C117.44535156 124.29417969 117.82820313 123.40085937 118.22265625 122.48046875 C119.29461205 119.9080764 119.29461205 119.9080764 118 117 Z M-136 131 C-138.418953 132.97167745 -138.418953 132.97167745 -138.1875 136.75 C-138.1635496 139.18336036 -137.93046166 141.41096019 -137.5234375 143.81640625 C-133.35456238 169.17187807 -135.27753054 197.58970015 -140.76660156 222.50341797 C-140.94030273 223.30408691 -141.11400391 224.10475586 -141.29296875 224.9296875 C-141.4530542 225.62304199 -141.61313965 226.31639648 -141.77807617 227.03076172 C-142.03870253 229.34342637 -141.84810379 230.83177471 -141 233 C-140.01 233.66 -139.02 234.32 -138 235 C-132.55105255 231.74306335 -132.55105255 231.74306335 -127.11328125 228.4675293 C-122.26475313 225.53764983 -117.40069609 222.64372175 -112.48443604 219.82923889 C-109.94162228 218.3688083 -107.41074376 216.88838509 -104.88098145 215.40548706 C-103.63568438 214.68187887 -102.38528458 213.96697585 -101.12976074 213.26126099 C-91.81759977 208.03638887 -91.81759977 208.03638887 -86.69775391 198.95605469 C-86 197 -86 197 -83.7734375 194.77734375 C-81.76814305 193.10511007 -81.76814305 193.10511007 -81.5390625 190.44140625 C-81.81897244 181.0644232 -82.12959081 170.68361035 -86 162 C-88.1285848 160.65055364 -88.1285848 160.65055364 -90.625 160.125 C-92.08333333 159.75 -93.54166667 159.375 -95 159 C-95.01168213 158.35063477 -95.02336426 157.70126953 -95.03540039 157.03222656 C-95.43764177 152.77782609 -95.84771146 149.95441573 -99.23779297 147.14648438 C-102.2488774 145.50568573 -105.2850189 144.099179 -108.4375 142.75 C-110.54126557 141.7884271 -112.6441357 140.82489266 -114.74609375 139.859375 C-115.78362793 139.39724609 -116.82116211 138.93511719 -117.89013672 138.45898438 C-121.93839026 136.55975662 -125.78907716 134.37132233 -129.64477539 132.11035156 C-132.16904128 130.71571394 -132.16904128 130.71571394 -136 131 Z M34 133 C35.59231949 137.29926263 38.39313359 139.35005733 42 142 C42.99 142 43.98 142 45 142 C46.83832664 138.89782379 47.47446226 136.60591321 47 133 C42.25017246 129.8334483 39.02988518 130.70062392 34 133 Z M55.875 142.375 C54.14974557 144.82438148 54.14974557 144.82438148 53 147 C53.33 147.66 53.66 148.32 54 149 C55.7325 148.7215625 55.7325 148.7215625 57.5 148.4375 C60.6417412 147.99577892 62.88279743 148.1507758 65.9375 148.9375 C69.00533801 149.45592193 69.85240389 149.09878117 72.50390625 147.32421875 C74.79721158 145.30366961 76.96013897 143.27595605 79 141 C79 140.67 79 140.34 79 140 C66.38798568 136.74241343 66.38798568 136.74241343 55.875 142.375 Z M102 134 C101.67 134.66 101.34 135.32 101 136 C101.98287008 138.00847365 102.98377342 140.00819591 104 142 C104 142.99 104 143.98 104 145 C101.875 145.4375 101.875 145.4375 99 145 C96.723853 142.87310854 94.8541278 140.4976567 93 138 C89.09164029 139.70094873 85.89232866 142.26441433 82.5625 144.875 C82.00240234 145.30941406 81.44230469 145.74382812 80.86523438 146.19140625 C79.76082354 147.04967651 78.66052833 147.91327256 77.56469727 148.7824707 C76.11681747 149.90910147 74.6223751 150.97519371 73.125 152.03515625 C70.83317068 153.79514105 70.83317068 153.79514105 70.43359375 156.25390625 C70.43552734 157.39666016 70.43552734 157.39666016 70.4375 158.5625 C70.43241135 161.58006864 70.39606533 162.5822819 68.28515625 164.80859375 C65.45127747 166.2860861 64.12206355 165.9831765 61 165.5 C56.31835406 165.35642952 53.92666267 166.36031309 50.40014648 169.46972656 C48.34031792 171.45206837 46.34064129 173.48113773 44.37841797 175.56005859 C43.17275222 176.81953726 41.90513408 178.01910914 40.62890625 179.20703125 C32.27499873 186.99507694 21.6655787 198.9797666 18 210 C18.22592587 211.89531846 18.22592587 211.89531846 19 214 C19.0935376 215.05920654 19.1870752 216.11841309 19.28344727 217.2097168 C20.43628214 221.17799691 22.74753185 222.39772426 26.2565918 224.38085938 C28.56165164 225.56291859 30.86923632 226.71411863 33.19921875 227.84375 C34.43591485 228.46233071 35.6718102 229.08251468 36.90693665 229.70422363 C39.49470032 231.00017893 42.0900081 232.27904726 44.69213867 233.54589844 C48.0176802 235.16612529 51.3232483 236.82297426 54.62422466 238.4925766 C57.17327539 239.77756523 59.73090457 241.04463653 62.29154396 242.30635071 C63.51354555 242.91060424 64.73310155 243.51983108 65.95004845 244.13420105 C74.63951854 248.75920419 74.63951854 248.75920419 84 248 C84.99 247.67 85.98 247.34 87 247 C87.08975098 246.21278564 87.17950195 245.42557129 87.27197266 244.61450195 C91.18780282 210.89593695 98.10767679 178.27589206 109.2734375 146.1496582 C110.55855383 142.65788088 110.55855383 142.65788088 111 139 C110.2575 138.731875 109.515 138.46375 108.75 138.1875 C106.13363446 137.05770579 104.19812889 135.79106798 102 134 Z M-14.3125 154.75 C-17.86021031 156.20287184 -21.09558917 157.30023707 -24.875 157.9375 C-29.15314379 158.81309855 -31.3936631 160.38475849 -34 164 C-34.75901149 167.60530459 -33.79193203 170.83131826 -32.22265625 174.15234375 C-29.12998335 178.8259357 -24.88620232 182.32267001 -19.38671875 183.61328125 C-11.866792 183.99417479 -5.65333744 181.25119456 1 178 C2.7255395 170.43154455 1.37267179 164.88826095 -1.28515625 157.6875 C-2.81690553 154.79365682 -2.81690553 154.79365682 -5.8515625 153.515625 C-9.43309893 152.92907065 -11.01450426 153.32331147 -14.3125 154.75 Z M-78 156 C-79.71824601 157.59563401 -79.71824601 157.59563401 -81 160 C-80.73247948 163.15917666 -80.73247948 163.15917666 -79.75 166.625 C-77.67533901 175.36939342 -77.29750249 184.04414916 -77 193 C-74.48896715 194.1319689 -74.48896715 194.1319689 -71 194 C-67.37374528 192.12848445 -64.193044 189.69820719 -60.9375 187.25 C-59.17663397 185.96237473 -57.41494086 184.67587961 -55.65234375 183.390625 C-54.87882568 182.81344727 -54.10530762 182.23626953 -53.30834961 181.64160156 C-51 180 -51 180 -48.27172852 178.50683594 C-45.61924773 177.10151544 -45.61924773 177.10151544 -45 173.5 C-44 170 -44 170 -41.375 168.3125 C-40.59125 167.879375 -39.8075 167.44625 -39 167 C-38.56880833 163.0252897 -38.56880833 163.0252897 -40.875 160.7890625 C-45.25729891 158.28019637 -49.03148359 158.40983738 -54 158.375 C-55.8790514 158.32699444 -57.75797311 158.27361051 -59.63671875 158.21484375 C-60.5498584 158.18632324 -61.46299805 158.15780273 -62.40380859 158.12841797 C-67.66926317 157.86796761 -72.82529845 156.98885763 -78 156 Z M29.5625 171.6875 C28.41716797 172.13544922 27.27183594 172.58339844 26.09179688 173.04492188 C24.99029297 173.48771484 23.88878906 173.93050781 22.75390625 174.38671875 C21.74658447 174.79108154 20.7392627 175.19544434 19.70141602 175.61206055 C16.8711817 177.06618455 15.18751676 178.72429601 13 181 C10.37109375 181.65234375 10.37109375 181.65234375 7.4375 181.9375 C0.98376467 182.80276095 -4.24593186 185.03235068 -10 188 C-10.63960029 190.64207784 -10.63960029 190.64207784 -10 194 C-7.81955062 197.13597894 -5.16668857 199.715544 -2.4375 202.375 C-1.73302734 203.11105469 -1.02855469 203.84710938 -0.30273438 204.60546875 C4.10297062 209.1408569 4.10297062 209.1408569 10.02734375 210.4765625 C11.00832031 210.31929687 11.98929688 210.16203125 13 210 C13.44988281 209.07960937 13.89976562 208.15921875 14.36328125 207.2109375 C22.11693895 191.77764269 32.58296763 179.8840278 45 168 C39.67817825 166.22605942 34.57835219 169.64796392 29.5625 171.6875 Z M-33 181 C-33.66 181.33 -34.32 181.66 -35 182 C-36.46854334 181.87990418 -37.93586817 181.74471248 -39.40234375 181.6015625 C-46.49629741 181.53265199 -51.03534887 185.31211761 -56.5625 189.375 C-58.05620117 190.42300781 -58.05620117 190.42300781 -59.58007812 191.4921875 C-64.48223723 194.6110706 -64.48223723 194.6110706 -68 199 C-67.15912842 199.05160278 -67.15912842 199.05160278 -66.30126953 199.10424805 C-45.7106326 200.4449467 -25.31600641 203.326107 -5.78125 210.1796875 C-3.07480749 211.32155989 -3.07480749 211.32155989 -1 210 C-2.97897819 207.83096751 -4.97949718 205.69227947 -7 203.5625 C-7.82951172 202.64500977 -7.82951172 202.64500977 -8.67578125 201.70898438 C-13.05955719 197.14884963 -15.76213809 196.46916122 -22 196 C-24 193 -24 193 -24.6875 189.625 C-26.45693995 184.73797538 -28.63449856 183.66780643 -33 181 Z M-69.87109375 207.453125 C-70.24363281 208.29359375 -70.61617188 209.1340625 -71 210 C-74.42409056 212.56806792 -77.84442619 212.29161921 -82 212 C-82.804375 211.619646 -83.60875 211.23929199 -84.4375 210.84741211 C-86.95013507 209.7318002 -86.95013507 209.7318002 -89.25390625 210.76000977 C-90.01574219 211.23237061 -90.77757812 211.70473145 -91.5625 212.19140625 C-92.43189209 212.71806885 -93.30128418 213.24473145 -94.19702148 213.78735352 C-95.12200439 214.37315186 -96.0469873 214.9589502 -97 215.5625 C-97.96172119 216.151521 -98.92344238 216.74054199 -99.91430664 217.34741211 C-102.95391196 219.2143753 -105.97715222 221.10605075 -109 223 C-110.95607668 224.209878 -112.91308672 225.41824848 -114.87109375 226.625 C-118.41959888 228.81346901 -121.96040744 231.01355328 -125.49609375 233.22265625 C-129.28119725 235.57685473 -133.11301782 237.81847703 -137 240 C-137 240.66 -137 241.32 -137 242 C-136.33170166 242.12528076 -135.66340332 242.25056152 -134.97485352 242.37963867 C-106.05671691 247.84969883 -78.64566423 254.80720771 -55.46289062 273.8112793 C-50.88824073 277.41215337 -47.73281229 278.09246471 -42 278 C-40.515 278.495 -40.515 278.495 -39 279 C-36.45065125 278.22002068 -33.99558344 277.36422653 -31.5 276.4375 C-1.61700402 266.0432818 30.53969218 263.1812567 61.84179688 259.8996582 C62.85306641 259.79355225 63.86433594 259.68744629 64.90625 259.578125 C65.77572266 259.48950195 66.64519531 259.40087891 67.54101562 259.30957031 C70.06030584 258.99240788 72.51706617 258.52792908 75 258 C75.33 256.68 75.66 255.36 76 254 C68.77704703 250.29590271 61.5456447 246.6090981 54.30276871 242.94413567 C50.93997713 241.24185178 47.58042446 239.53373612 44.22753906 237.81201172 C40.9925665 236.15111034 37.75005865 234.50590143 34.50170135 232.87134171 C33.26289656 232.24454005 32.02692549 231.61210552 30.79389191 230.97402573 C29.06840231 230.08231013 27.33177176 229.21225253 25.59472656 228.34326172 C24.60877502 227.8414035 23.62282349 227.33954529 22.60699463 226.82247925 C20.05007863 225.71974643 20.05007863 225.71974643 17.78900146 226.83914185 C17.19863098 227.22222504 16.6082605 227.60530823 16 228 C13.78125 228.23046875 13.78125 228.23046875 11.5 228.1875 C10.7471875 228.18105469 9.994375 228.17460937 9.21875 228.16796875 C7.04009857 228.00303563 5.09795189 227.59600906 3 227 C2.97164062 226.39671875 2.94328125 225.7934375 2.9140625 225.171875 C2.59613069 222.50812201 2.13054536 220.43892931 1 218 C-2.00629927 215.76027371 -5.42220686 214.9984539 -9 214 C-10.18722656 213.60296875 -11.37445313 213.2059375 -12.59765625 212.796875 C-27.89751767 207.76988644 -44.20102403 204.7643418 -60.3125 204.4375 C-61.05298584 204.41067139 -61.79347168 204.38384277 -62.55639648 204.35620117 C-66.22391735 204.38275533 -67.59071999 204.46340741 -69.87109375 207.453125 Z " fill="url(#orangeGradient)" transform="translate(161,0)"/>
</svg>
