<svg width="197" height="36" viewBox="0 0 197 36" fill="none" xmlns="http://www.w3.org/2000/svg">
<g clip-path="url(#clip0_2_48)">
<path d="M16.0888 0C11.6952 0.415775 7.61303 2.46429 4.63846 5.746C1.66388 9.02771 0.0102124 13.3073 0 17.7499C0.0101779 22.1926 1.66383 26.4722 4.63841 29.754C7.61299 33.0357 11.6952 35.0842 16.0888 35.5V31.2299C12.8403 30.8056 9.85578 29.2069 7.6914 26.7315C5.52701 24.2562 4.33037 21.073 4.32444 17.7752C4.3304 14.4775 5.52706 11.2944 7.69144 8.81903C9.85582 6.34369 12.8403 4.74497 16.0888 4.32076V0ZM20.2428 0.0598458V4.42437C23.3495 4.99358 26.1597 6.64108 28.1847 9.08032C30.2097 11.5196 31.3214 14.5962 31.3264 17.7752C31.3256 20.9573 30.2158 24.0383 28.1904 26.4813C26.165 28.9242 23.3525 30.5744 20.2428 31.1441V35.4402C24.4757 34.8357 28.3497 32.7134 31.1528 29.4634C33.9558 26.2134 35.4994 22.0541 35.5 17.7499C35.4994 13.4458 33.9557 9.2865 31.1527 6.03652C28.3497 2.78655 24.4757 0.6643 20.2428 0.0598458Z" fill="url(#paint0_linear_2_48)"/>
<path d="M17.8346 8.13379C16.5832 8.13379 15.3441 8.38192 14.188 8.86402C13.0319 9.34612 11.9815 10.0527 11.0966 10.9436C10.2118 11.8344 9.50989 12.8919 9.03101 14.0558C8.55214 15.2197 8.30567 16.4672 8.30566 17.727C8.31015 20.2134 9.27343 22.601 10.9925 24.3864C12.7115 26.1718 15.0519 27.2155 17.5204 27.2975L17.5202 27.2977H23.6884L26.9724 27.2824L23.9886 25.0418C25.0449 24.1423 25.8939 23.022 26.4767 21.7588C27.0595 20.4956 27.3621 19.1198 27.3634 17.727C27.3633 16.4602 27.1139 15.2061 26.6298 14.0369C26.1456 12.8677 25.4363 11.8066 24.5426 10.9149L21.9978 13.4996C22.5628 14.0585 23.0121 14.7246 23.3198 15.4594C23.6274 16.1943 23.7873 16.9832 23.7901 17.7806C23.7901 18.5727 23.6351 19.357 23.3341 20.0888C23.033 20.8206 22.5917 21.4855 22.0354 22.0456C21.479 22.6057 20.8186 23.0499 20.0917 23.3531C19.3648 23.6562 18.5858 23.8122 17.799 23.8122C16.2101 23.8122 14.6862 23.1767 13.5627 22.0456C12.4391 20.9144 11.8079 19.3803 11.8079 17.7806C11.8079 16.181 12.4391 14.6468 13.5627 13.5157C14.6862 12.3846 16.2101 11.7491 17.799 11.7491C18.5725 11.7535 19.3378 11.9086 20.0528 12.2059L22.7237 9.49304C21.2459 8.60358 19.5563 8.13386 17.8346 8.13379Z" fill="url(#paint1_linear_2_48)"/>
</g>
<path d="M65.712 29.024L62.784 25.856C62.064 26.064 61.272 26.168 60.408 26.168C58.856 26.168 57.424 25.808 56.112 25.088C54.816 24.352 53.784 23.336 53.016 22.04C52.264 20.728 51.888 19.256 51.888 17.624C51.888 15.992 52.264 14.528 53.016 13.232C53.784 11.936 54.816 10.928 56.112 10.208C57.424 9.472 58.856 9.104 60.408 9.104C61.976 9.104 63.408 9.472 64.704 10.208C66.016 10.928 67.048 11.936 67.8 13.232C68.552 14.528 68.928 15.992 68.928 17.624C68.928 19.16 68.592 20.552 67.92 21.8C67.264 23.032 66.352 24.024 65.184 24.776L69.192 29.024H65.712ZM54.696 17.624C54.696 18.856 54.936 19.944 55.416 20.888C55.912 21.816 56.592 22.536 57.456 23.048C58.32 23.544 59.304 23.792 60.408 23.792C61.512 23.792 62.496 23.544 63.36 23.048C64.224 22.536 64.896 21.816 65.376 20.888C65.872 19.944 66.12 18.856 66.12 17.624C66.12 16.392 65.872 15.312 65.376 14.384C64.896 13.456 64.224 12.744 63.36 12.248C62.496 11.752 61.512 11.504 60.408 11.504C59.304 11.504 58.32 11.752 57.456 12.248C56.592 12.744 55.912 13.456 55.416 14.384C54.936 15.312 54.696 16.392 54.696 17.624ZM83.6666 12.776V26H80.9306V24.44C80.4986 24.984 79.9306 25.416 79.2266 25.736C78.5386 26.04 77.8026 26.192 77.0186 26.192C75.9786 26.192 75.0426 25.976 74.2106 25.544C73.3946 25.112 72.7466 24.472 72.2666 23.624C71.8026 22.776 71.5706 21.752 71.5706 20.552V12.776H74.2826V20.144C74.2826 21.328 74.5786 22.24 75.1706 22.88C75.7626 23.504 76.5706 23.816 77.5946 23.816C78.6186 23.816 79.4266 23.504 80.0186 22.88C80.6266 22.24 80.9306 21.328 80.9306 20.144V12.776H83.6666ZM86.3646 19.328C86.3646 18 86.6366 16.824 87.1806 15.8C87.7406 14.776 88.4926 13.984 89.4366 13.424C90.3966 12.848 91.4526 12.56 92.6046 12.56C93.6446 12.56 94.5486 12.768 95.3166 13.184C96.1006 13.584 96.7246 14.088 97.1886 14.696V12.776H99.9486V26H97.1886V24.032C96.7246 24.656 96.0926 25.176 95.2926 25.592C94.4926 26.008 93.5806 26.216 92.5566 26.216C91.4206 26.216 90.3806 25.928 89.4366 25.352C88.4926 24.76 87.7406 23.944 87.1806 22.904C86.6366 21.848 86.3646 20.656 86.3646 19.328ZM97.1886 19.376C97.1886 18.464 96.9966 17.672 96.6126 17C96.2446 16.328 95.7566 15.816 95.1486 15.464C94.5406 15.112 93.8846 14.936 93.1806 14.936C92.4766 14.936 91.8206 15.112 91.2126 15.464C90.6046 15.8 90.1086 16.304 89.7246 16.976C89.3566 17.632 89.1726 18.416 89.1726 19.328C89.1726 20.24 89.3566 21.04 89.7246 21.728C90.1086 22.416 90.6046 22.944 91.2126 23.312C91.8366 23.664 92.4926 23.84 93.1806 23.84C93.8846 23.84 94.5406 23.664 95.1486 23.312C95.7566 22.96 96.2446 22.448 96.6126 21.776C96.9966 21.088 97.1886 20.288 97.1886 19.376ZM102.63 19.376C102.63 18.016 102.902 16.824 103.446 15.8C104.006 14.76 104.774 13.96 105.75 13.4C106.726 12.84 107.846 12.56 109.11 12.56C110.71 12.56 112.03 12.944 113.07 13.712C114.126 14.464 114.838 15.544 115.206 16.952H112.254C112.014 16.296 111.63 15.784 111.102 15.416C110.574 15.048 109.91 14.864 109.11 14.864C107.99 14.864 107.094 15.264 106.422 16.064C105.766 16.848 105.438 17.952 105.438 19.376C105.438 20.8 105.766 21.912 106.422 22.712C107.094 23.512 107.99 23.912 109.11 23.912C110.694 23.912 111.742 23.216 112.254 21.824H115.206C114.822 23.168 114.102 24.24 113.046 25.04C111.99 25.824 110.678 26.216 109.11 26.216C107.846 26.216 106.726 25.936 105.75 25.376C104.774 24.8 104.006 24 103.446 22.976C102.902 21.936 102.63 20.736 102.63 19.376ZM123.165 19.4L129.261 26H125.565L120.669 20.312V26H117.933V8.24H120.669V18.56L125.469 12.776H129.261L123.165 19.4ZM136.718 26.168C135.598 26.168 134.59 25.976 133.694 25.592C132.798 25.192 132.094 24.632 131.582 23.912C131.07 23.192 130.814 22.352 130.814 21.392H133.742C133.806 22.112 134.086 22.704 134.582 23.168C135.094 23.632 135.806 23.864 136.718 23.864C137.662 23.864 138.398 23.64 138.926 23.192C139.454 22.728 139.718 22.136 139.718 21.416C139.718 20.856 139.55 20.4 139.214 20.048C138.894 19.696 138.486 19.424 137.99 19.232C137.51 19.04 136.838 18.832 135.974 18.608C134.886 18.32 133.998 18.032 133.31 17.744C132.638 17.44 132.062 16.976 131.582 16.352C131.102 15.728 130.862 14.896 130.862 13.856C130.862 12.896 131.102 12.056 131.582 11.336C132.062 10.616 132.734 10.064 133.598 9.68C134.462 9.296 135.462 9.104 136.598 9.104C138.214 9.104 139.534 9.512 140.558 10.328C141.598 11.128 142.174 12.232 142.286 13.64H139.262C139.214 13.032 138.926 12.512 138.398 12.08C137.87 11.648 137.174 11.432 136.31 11.432C135.526 11.432 134.886 11.632 134.39 12.032C133.894 12.432 133.646 13.008 133.646 13.76C133.646 14.272 133.798 14.696 134.102 15.032C134.422 15.352 134.822 15.608 135.302 15.8C135.782 15.992 136.438 16.2 137.27 16.424C138.374 16.728 139.27 17.032 139.958 17.336C140.662 17.64 141.254 18.112 141.734 18.752C142.23 19.376 142.478 20.216 142.478 21.272C142.478 22.12 142.246 22.92 141.782 23.672C141.334 24.424 140.67 25.032 139.79 25.496C138.926 25.944 137.902 26.168 136.718 26.168ZM148.898 15.008V22.328C148.898 22.824 149.01 23.184 149.234 23.408C149.474 23.616 149.874 23.72 150.434 23.72H152.114V26H149.954C148.722 26 147.778 25.712 147.122 25.136C146.466 24.56 146.138 23.624 146.138 22.328V15.008H144.578V12.776H146.138V9.488H148.898V12.776H152.114V15.008H148.898ZM153.724 19.328C153.724 18 153.996 16.824 154.54 15.8C155.1 14.776 155.852 13.984 156.796 13.424C157.756 12.848 158.812 12.56 159.964 12.56C161.004 12.56 161.908 12.768 162.676 13.184C163.46 13.584 164.084 14.088 164.548 14.696V12.776H167.308V26H164.548V24.032C164.084 24.656 163.452 25.176 162.652 25.592C161.852 26.008 160.94 26.216 159.916 26.216C158.78 26.216 157.74 25.928 156.796 25.352C155.852 24.76 155.1 23.944 154.54 22.904C153.996 21.848 153.724 20.656 153.724 19.328ZM164.548 19.376C164.548 18.464 164.356 17.672 163.972 17C163.604 16.328 163.116 15.816 162.508 15.464C161.9 15.112 161.244 14.936 160.54 14.936C159.836 14.936 159.18 15.112 158.572 15.464C157.964 15.8 157.468 16.304 157.084 16.976C156.716 17.632 156.532 18.416 156.532 19.328C156.532 20.24 156.716 21.04 157.084 21.728C157.468 22.416 157.964 22.944 158.572 23.312C159.196 23.664 159.852 23.84 160.54 23.84C161.244 23.84 161.9 23.664 162.508 23.312C163.116 22.96 163.604 22.448 163.972 21.776C164.356 21.088 164.548 20.288 164.548 19.376ZM169.99 19.376C169.99 18.016 170.262 16.824 170.806 15.8C171.366 14.76 172.134 13.96 173.11 13.4C174.086 12.84 175.206 12.56 176.47 12.56C178.07 12.56 179.39 12.944 180.43 13.712C181.486 14.464 182.198 15.544 182.566 16.952H179.614C179.374 16.296 178.99 15.784 178.462 15.416C177.934 15.048 177.27 14.864 176.47 14.864C175.35 14.864 174.454 15.264 173.782 16.064C173.126 16.848 172.798 17.952 172.798 19.376C172.798 20.8 173.126 21.912 173.782 22.712C174.454 23.512 175.35 23.912 176.47 23.912C178.054 23.912 179.102 23.216 179.614 21.824H182.566C182.182 23.168 181.462 24.24 180.406 25.04C179.35 25.824 178.038 26.216 176.47 26.216C175.206 26.216 174.086 25.936 173.11 25.376C172.134 24.8 171.366 24 170.806 22.976C170.262 21.936 169.99 20.736 169.99 19.376ZM190.524 19.4L196.62 26H192.924L188.028 20.312V26H185.292V8.24H188.028V18.56L192.828 12.776H196.62L190.524 19.4Z" fill="white"/>
<defs>
<linearGradient id="paint0_linear_2_48" x1="9.95556" y1="0.353411" x2="27.0766" y2="33.478" gradientUnits="userSpaceOnUse">
<stop stop-color="#F3C836"/>
<stop offset="1" stop-color="#E59C2D"/>
</linearGradient>
<linearGradient id="paint1_linear_2_48" x1="9.80125" y1="0.437881" x2="27.1062" y2="33.6342" gradientUnits="userSpaceOnUse">
<stop stop-color="#F3C836"/>
<stop offset="1" stop-color="#E59C2D"/>
</linearGradient>
<clipPath id="clip0_2_48">
<rect width="35.5" height="35.5" fill="white"/>
</clipPath>
</defs>
</svg>
