<svg width="460" height="161" viewBox="0 0 460 161" fill="none" xmlns="http://www.w3.org/2000/svg">
<rect x="9.00806" y="-0.000244141" width="452" height="130" rx="19" transform="rotate(3.97335 9.00806 -0.000244141)" fill="#F1E1C8"/>
<path d="M31.294 73.5368L31.2297 74.4625L26.3136 74.1211L26.0242 78.287L30.1742 78.5753L30.1099 79.501L25.9599 79.2128L25.6029 84.3524L24.4856 84.2748L25.2606 73.1177L31.294 73.5368ZM33.9724 77.7324C34.2548 77.2067 34.6564 76.8123 35.1772 76.5491C35.7087 76.2866 36.3416 76.1809 37.0758 76.2319L36.9949 77.3971L36.6916 77.376C35.8829 77.3198 35.2186 77.4929 34.6988 77.8952C34.179 78.2974 33.8837 79.0094 33.8127 80.0309L33.4746 84.8992L32.3573 84.8216L32.9626 76.1066L34.0799 76.1842L33.9724 77.7324ZM41.9461 85.6159C41.1268 85.559 40.3998 85.3267 39.7652 84.9191C39.1419 84.5016 38.6621 83.9443 38.3256 83.2473C38.0004 82.5404 37.8693 81.7347 37.9321 80.8303C37.9949 79.9258 38.2412 79.1516 38.6708 78.5079C39.1012 77.8534 39.6588 77.3683 40.3437 77.0523C41.0293 76.7257 41.7818 76.5908 42.6011 76.6477C43.4205 76.7046 44.1471 76.9422 44.781 77.3605C45.4262 77.7689 45.9114 78.3265 46.2366 79.0334C46.5731 79.7304 46.7099 80.5311 46.6471 81.4356C46.585 82.3294 46.3388 83.1036 45.9084 83.758C45.478 84.4124 44.9147 84.9026 44.2184 85.2284C43.5229 85.5437 42.7655 85.6728 41.9461 85.6159ZM42.0138 84.6423C42.5884 84.6822 43.1293 84.5914 43.6365 84.37C44.1445 84.138 44.5656 83.7716 44.8997 83.2709C45.2453 82.7603 45.4446 82.1219 45.4979 81.3558C45.5511 80.5896 45.4468 79.9355 45.1851 79.3934C44.9241 78.8406 44.5577 78.4196 44.086 78.1302C43.615 77.8302 43.0922 77.6602 42.5175 77.6203C41.9429 77.5804 41.4016 77.6764 40.8937 77.9085C40.3864 78.1298 39.9654 78.4962 39.6305 79.0076C39.3069 79.509 39.1186 80.1428 39.0654 80.909C39.0121 81.6751 39.1107 82.3342 39.3611 82.8862C39.6228 83.4283 39.9838 83.849 40.4442 84.1483C40.916 84.4377 41.4391 84.6023 42.0138 84.6423ZM59.3726 77.7806C60.3941 77.8515 61.2016 78.2338 61.7949 78.9272C62.3997 79.6107 62.6596 80.5644 62.5746 81.7881L62.2198 86.8958L61.1185 86.8193L61.4644 81.8393C61.5301 80.8922 61.3516 80.1528 60.9288 79.6209C60.506 79.0889 59.9008 78.7956 59.1134 78.7409C58.294 78.684 57.6208 78.9099 57.0936 79.4186C56.5664 79.9273 56.267 80.6977 56.1953 81.7299L55.8671 86.4545L54.7658 86.378L55.1117 81.398C55.1774 80.451 54.9989 79.7115 54.5761 79.1796C54.1533 78.6477 53.5428 78.354 52.7447 78.2986C51.9254 78.2417 51.2521 78.4676 50.7249 78.9763C50.1978 79.4849 49.8983 80.2554 49.8266 81.2876L49.4985 86.0122L48.3811 85.9346L48.9865 77.2196L50.1038 77.2972L49.9996 78.7976C50.3139 78.2741 50.7361 77.8918 51.2661 77.6506C51.7968 77.3987 52.3761 77.2946 53.0039 77.3382C53.7594 77.3907 54.4066 77.6174 54.9455 78.0184C55.4949 78.4201 55.873 78.981 56.0796 79.701C56.3617 79.0256 56.7974 78.5266 57.3865 78.204C57.9869 77.8715 58.649 77.7303 59.3726 77.7806ZM70.6964 80.2833C70.9788 79.7576 71.3804 79.3631 71.9013 79.0999C72.4327 78.8374 73.0656 78.7317 73.7998 78.7827L73.7189 79.9479L73.4156 79.9268C72.6069 79.8707 71.9426 80.0437 71.4228 80.446C70.9031 80.8483 70.6077 81.5602 70.5367 82.5817L70.1986 87.45L69.0813 87.3724L69.6866 78.6574L70.8039 78.735L70.6964 80.2833ZM83.0829 83.5173C83.0563 83.9004 83.0253 84.1923 82.99 84.393L75.7594 83.8908C75.7455 84.5527 75.866 85.1278 76.1208 85.6159C76.3756 86.1041 76.7286 86.4868 77.1798 86.7641C77.6317 87.0307 78.1343 87.1832 78.6877 87.2217C79.4113 87.2719 80.03 87.1385 80.5439 86.8213C81.0684 86.5049 81.4312 86.0543 81.6322 85.4695L82.8133 85.5515C82.5414 86.388 82.0354 87.0532 81.2954 87.5472C80.5668 88.0312 79.6757 88.2366 78.6223 88.1634C77.8029 88.1065 77.0812 87.8746 76.4573 87.4677C75.834 87.0502 75.3595 86.4933 75.0336 85.7971C74.7191 85.0909 74.5933 84.2856 74.6561 83.3811C74.7189 82.4766 74.9549 81.6964 75.364 81.0405C75.7731 80.3846 76.3148 79.8983 76.989 79.5816C77.6632 79.2649 78.4153 79.1354 79.2453 79.193C80.0753 79.2507 80.7864 79.4818 81.3784 79.8865C81.9811 80.2919 82.426 80.8146 82.713 81.4547C83.0113 82.0849 83.1347 82.7725 83.0829 83.5173ZM81.9519 83.4067C82.0076 82.7583 81.913 82.1958 81.6681 81.719C81.4339 81.2429 81.0908 80.8716 80.6389 80.605C80.1869 80.3384 79.6843 80.1858 79.1309 80.1474C78.3009 80.0897 77.5748 80.3066 76.9526 80.798C76.3304 81.2894 75.9537 82.0171 75.8226 82.981L81.9519 83.4067ZM84.5864 84.0548C84.6485 83.161 84.8837 82.3914 85.2921 81.7462C85.7012 81.0903 86.2322 80.6032 86.8852 80.285C87.5495 79.9569 88.2807 79.8206 89.0788 79.876C89.8449 79.9293 90.5237 80.1635 91.115 80.5788C91.7063 80.9941 92.1249 81.5097 92.3708 82.1256L92.7167 77.1456L93.834 77.2232L93.0136 89.0347L91.8963 88.9571L92.0316 87.0098C91.7234 87.5979 91.2524 88.0677 90.6185 88.4193C89.9853 88.7602 89.2591 88.9022 88.4397 88.8453C87.6417 88.7899 86.9363 88.5538 86.3237 88.137C85.7218 87.721 85.2636 87.1599 84.9491 86.4537C84.6452 85.7483 84.5243 84.9486 84.5864 84.0548ZM92.199 84.5996C92.2477 83.8973 92.147 83.2701 91.8966 82.7181C91.6463 82.1661 91.281 81.7291 90.8008 81.407C90.3313 81.0857 89.7986 80.9044 89.2027 80.863C88.5855 80.8201 88.0226 80.92 87.5139 81.1627C87.0052 81.4054 86.5887 81.7827 86.2644 82.2948C85.9515 82.797 85.7699 83.4099 85.7197 84.1335C85.6702 84.8465 85.7649 85.4839 86.0039 86.0458C86.2542 86.5978 86.6142 87.0345 87.0837 87.3558C87.554 87.6664 88.0977 87.8432 88.7149 87.8861C89.3108 87.9275 89.8634 87.8215 90.3729 87.5682C90.893 87.3156 91.3151 86.9333 91.6394 86.4212C91.9637 85.9091 92.1502 85.3019 92.199 84.5996ZM103.783 84.9551C103.756 85.3382 103.725 85.6301 103.69 85.8308L96.4596 85.3286C96.4457 85.9905 96.5661 86.5656 96.8209 87.0538C97.0757 87.5419 97.4287 87.9246 97.8799 88.2019C98.3318 88.4685 98.8345 88.6211 99.3878 88.6595C100.111 88.7098 100.73 88.5763 101.244 88.2592C101.769 87.9427 102.131 87.4921 102.332 86.9073L103.513 86.9894C103.241 87.8259 102.736 88.4911 101.996 88.985C101.267 89.469 100.376 89.6744 99.3224 89.6012C98.503 89.5443 97.7814 89.3124 97.1574 88.9055C96.5342 88.488 96.0596 87.9311 95.7337 87.2349C95.4192 86.5287 95.2934 85.7234 95.3562 84.8189C95.4191 83.9144 95.655 83.1342 96.0641 82.4783C96.4732 81.8224 97.0149 81.3361 97.6891 81.0194C98.3634 80.7027 99.1155 80.5732 99.9455 80.6308C100.775 80.6885 101.486 80.9196 102.079 81.3243C102.681 81.7297 103.126 82.2525 103.413 82.8926C103.711 83.5227 103.835 84.2103 103.783 84.9551ZM102.652 84.8445C102.708 84.1961 102.613 83.6336 102.368 83.1568C102.134 82.6807 101.791 82.3094 101.339 82.0428C100.887 81.7762 100.384 81.6236 99.8311 81.5852C99.0011 81.5276 98.275 81.7444 97.6527 82.2358C97.0305 82.7272 96.6539 83.4549 96.5228 84.4188L102.652 84.8445ZM108.485 90.2377C107.485 90.1682 106.682 89.8825 106.075 89.3806C105.48 88.8688 105.173 88.2113 105.154 87.408L106.303 87.4878C106.322 87.981 106.523 88.3959 106.906 88.7326C107.3 89.0594 107.843 89.2468 108.535 89.2948C109.141 89.337 109.625 89.2262 109.985 88.9626C110.357 88.6996 110.557 88.3554 110.586 87.9297C110.607 87.6318 110.528 87.3804 110.35 87.1755C110.172 86.9707 109.937 86.8047 109.647 86.6776C109.368 86.5406 108.983 86.3909 108.491 86.2285C107.854 86.0131 107.339 85.8063 106.947 85.6079C106.554 85.4096 106.226 85.1355 105.961 84.7857C105.708 84.4259 105.601 83.9641 105.64 83.4001C105.67 82.9745 105.825 82.5896 106.106 82.2456C106.386 81.9015 106.768 81.6393 107.251 81.459C107.734 81.2787 108.273 81.2093 108.869 81.2507C109.806 81.3157 110.544 81.6076 111.086 82.1264C111.628 82.6345 111.891 83.305 111.876 84.138L110.759 84.0604C110.762 83.5474 110.589 83.1237 110.238 82.7892C109.898 82.4448 109.409 82.2505 108.771 82.2061C108.207 82.167 107.74 82.2682 107.37 82.5098C107.001 82.7515 106.802 83.0691 106.775 83.4629C106.751 83.8034 106.833 84.0924 107.019 84.3299C107.217 84.5575 107.466 84.7459 107.766 84.895C108.066 85.0335 108.472 85.1953 108.983 85.3805C109.599 85.5944 110.088 85.794 110.449 85.9795C110.811 86.165 111.114 86.4213 111.358 86.7484C111.603 87.0754 111.713 87.4947 111.688 88.0062C111.655 88.4744 111.498 88.8859 111.217 89.2406C110.937 89.5846 110.56 89.8472 110.088 90.0282C109.615 90.2093 109.081 90.2791 108.485 90.2377ZM114.908 80.1465C114.685 80.131 114.499 80.0379 114.35 79.8672C114.202 79.6965 114.136 79.494 114.152 79.2599C114.168 79.0258 114.261 78.8398 114.431 78.702C114.602 78.5534 114.799 78.4869 115.023 78.5025C115.246 78.518 115.432 78.6111 115.581 78.7818C115.73 78.9418 115.796 79.1389 115.78 79.373C115.764 79.6071 115.67 79.7985 115.5 79.947C115.329 80.0955 115.132 80.162 114.908 80.1465ZM115.353 81.8293L114.747 90.5443L113.63 90.4667L114.236 81.7517L115.353 81.8293ZM121.547 82.1313C122.366 82.1882 123.066 82.4292 123.646 82.8544C124.226 83.2797 124.629 83.7941 124.854 84.3979L124.986 82.4984L126.103 82.576L125.482 91.5145C125.427 92.3126 125.202 93.008 124.808 93.6008C124.425 94.1943 123.913 94.6346 123.273 94.9216C122.632 95.2192 121.918 95.3407 121.131 95.286C120.013 95.2084 119.101 94.8777 118.393 94.2939C117.695 93.7109 117.288 92.9555 117.171 92.0278L118.272 92.1043C118.422 92.7242 118.75 93.2335 119.257 93.6322C119.774 94.0317 120.421 94.2584 121.198 94.3124C121.762 94.3515 122.276 94.2643 122.74 94.0506C123.203 93.8475 123.579 93.5208 123.867 93.0703C124.155 92.6198 124.321 92.0754 124.365 91.4369L124.515 89.2821C124.197 89.8588 123.721 90.3229 123.087 90.6745C122.464 91.0162 121.743 91.1586 120.924 91.1017C120.126 91.0462 119.421 90.8101 118.808 90.3933C118.206 89.9773 117.748 89.4162 117.433 88.71C117.129 88.0046 117.009 87.205 117.071 86.3111C117.133 85.4173 117.363 84.6474 117.76 84.0014C118.169 83.3455 118.7 82.8584 119.353 82.5403C120.018 82.2122 120.749 82.0758 121.547 82.1313ZM124.683 86.8559C124.732 86.1536 124.631 85.5265 124.381 84.9745C124.13 84.4225 123.765 83.9854 123.285 83.6634C122.816 83.3421 122.283 83.1607 121.687 83.1193C121.07 83.0765 120.507 83.1764 119.998 83.419C119.489 83.6617 119.073 84.0391 118.749 84.5512C118.436 85.0534 118.254 85.6663 118.204 86.3899C118.154 87.1028 118.249 87.7402 118.488 88.3021C118.738 88.8541 119.098 89.2908 119.568 89.6121C120.038 89.9228 120.582 90.0995 121.199 90.1424C121.795 90.1838 122.348 90.0778 122.857 89.8245C123.377 89.572 123.799 89.1896 124.124 88.6775C124.448 88.1654 124.634 87.5582 124.683 86.8559ZM132.751 82.8774C133.794 82.9499 134.623 83.3335 135.237 84.0285C135.853 84.7128 136.118 85.6668 136.033 86.8905L135.678 91.9982L134.577 91.9217L134.923 86.9417C134.989 85.9946 134.799 85.2544 134.355 84.721C133.922 84.1884 133.295 83.8936 132.476 83.8367C131.635 83.7783 130.947 83.9977 130.409 84.495C129.872 84.9924 129.568 85.7571 129.496 86.7893L129.166 91.5458L128.049 91.4682L128.654 82.7532L129.771 82.8308L129.668 84.3152C129.982 83.8024 130.409 83.4258 130.949 83.1853C131.491 82.9342 132.091 82.8316 132.751 82.8774ZM141.141 92.5059C140.141 92.4365 139.337 92.1508 138.731 91.6488C138.135 91.137 137.828 90.4795 137.809 89.6762L138.958 89.7561C138.978 90.2493 139.179 90.6642 139.562 91.0009C139.956 91.3276 140.499 91.515 141.191 91.5631C141.797 91.6052 142.281 91.4945 142.641 91.2308C143.012 90.9679 143.213 90.6236 143.242 90.198C143.263 89.9 143.184 89.6486 143.006 89.4438C142.828 89.2389 142.593 89.073 142.303 88.9459C142.023 88.8088 141.638 88.6591 141.147 88.4967C140.51 88.2814 139.995 88.0745 139.602 87.8762C139.21 87.6778 138.881 87.4037 138.617 87.0539C138.364 86.6942 138.257 86.2323 138.296 85.6684C138.326 85.2427 138.481 84.8579 138.761 84.5138C139.042 84.1698 139.423 83.9076 139.906 83.7273C140.389 83.547 140.929 83.4775 141.525 83.5189C142.461 83.584 143.2 83.8759 143.741 84.3946C144.284 84.9027 144.547 85.5733 144.532 86.4062L143.415 86.3286C143.418 85.8156 143.244 85.3919 142.893 85.0574C142.554 84.7131 142.065 84.5187 141.426 84.4744C140.862 84.4352 140.396 84.5364 140.026 84.7781C139.656 85.0197 139.458 85.3374 139.43 85.7311C139.407 86.0716 139.488 86.3606 139.675 86.5981C139.873 86.8257 140.122 87.0141 140.422 87.1632C140.722 87.3017 141.128 87.4636 141.639 87.6487C142.255 87.8626 142.744 88.0623 143.105 88.2478C143.466 88.4333 143.769 88.6895 144.014 89.0166C144.258 89.3437 144.368 89.763 144.343 90.2745C144.311 90.7427 144.154 91.1541 143.873 91.5088C143.592 91.8529 143.216 92.1154 142.743 92.2965C142.271 92.4775 141.737 92.5473 141.141 92.5059ZM152.658 85.3668L152.283 90.7778C152.246 91.3098 152.321 91.684 152.509 91.9002C152.697 92.1164 153.047 92.2423 153.558 92.2778L154.579 92.3487L154.513 93.3064L153.316 93.2232C152.528 93.1686 151.955 92.947 151.597 92.5586C151.24 92.1596 151.091 91.5397 151.149 90.6991L151.525 85.2881L150.312 85.2039L150.377 84.2621L151.591 84.3464L151.742 82.1596L152.876 82.2384L152.724 84.4251L155.118 84.5914L155.053 85.5331L152.658 85.3668ZM160.161 93.8271C159.342 93.7701 158.615 93.5379 157.98 93.1303C157.357 92.7127 156.877 92.1555 156.541 91.4585C156.216 90.7516 156.084 89.9459 156.147 89.0414C156.21 88.1369 156.456 87.3628 156.886 86.719C157.316 86.0646 157.874 85.5794 158.559 85.2634C159.244 84.9368 159.997 84.802 160.816 84.8589C161.636 84.9158 162.362 85.1534 162.996 85.5716C163.641 85.98 164.127 86.5376 164.452 87.2445C164.788 87.9415 164.925 88.7423 164.862 89.6468C164.8 90.5406 164.554 91.3147 164.124 91.9691C163.693 92.6236 163.13 93.1137 162.434 93.4396C161.738 93.7548 160.981 93.884 160.161 93.8271ZM160.229 92.8534C160.804 92.8933 161.344 92.8026 161.852 92.5812C162.36 92.3492 162.781 91.9828 163.115 91.4821C163.46 90.9715 163.66 90.3331 163.713 89.5669C163.766 88.8008 163.662 88.1466 163.4 87.6045C163.139 87.0518 162.773 86.6307 162.301 86.3413C161.83 86.0413 161.307 85.8713 160.733 85.8314C160.158 85.7915 159.617 85.8876 159.109 86.1196C158.602 86.341 158.181 86.7074 157.846 87.2187C157.522 87.7202 157.334 88.354 157.281 89.1201C157.227 89.8863 157.326 90.5454 157.576 91.0974C157.838 91.6395 158.199 92.0602 158.659 92.3595C159.131 92.6488 159.654 92.8135 160.229 92.8534ZM170.769 90.041C170.831 89.1472 171.061 88.3773 171.459 87.7313C171.868 87.0754 172.399 86.5883 173.052 86.2701C173.717 85.942 174.448 85.8057 175.246 85.8612C176.076 85.9188 176.775 86.1599 177.345 86.5843C177.925 87.0095 178.327 87.5293 178.552 88.1437L178.685 86.2283L179.802 86.3059L179.197 95.0209L178.079 94.9433L178.213 93.012C177.895 93.5887 177.419 94.0528 176.786 94.4044C176.163 94.7461 175.437 94.8881 174.607 94.8304C173.819 94.7757 173.119 94.54 172.507 94.1232C171.905 93.7072 171.447 93.1461 171.132 92.4399C170.828 91.7345 170.707 90.9349 170.769 90.041ZM178.382 90.5858C178.431 89.8835 178.33 89.2564 178.08 88.7043C177.829 88.1523 177.464 87.7153 176.984 87.3933C176.514 87.072 175.982 86.8906 175.386 86.8492C174.768 86.8063 174.206 86.9062 173.697 87.1489C173.188 87.3916 172.772 87.769 172.447 88.2811C172.134 88.7833 171.953 89.3961 171.903 90.1197C171.853 90.8327 171.948 91.4701 172.187 92.032C172.437 92.584 172.797 93.0207 173.267 93.342C173.737 93.6527 174.281 93.8294 174.898 93.8723C175.494 93.9137 176.046 93.8077 176.556 93.5544C177.076 93.3019 177.498 92.9195 177.822 92.4074C178.147 91.8953 178.333 91.2881 178.382 90.5858ZM181.54 90.7892C181.602 89.8953 181.838 89.1258 182.246 88.4805C182.655 87.8246 183.186 87.3376 183.839 87.0194C184.503 86.6913 185.235 86.555 186.033 86.6104C186.799 86.6636 187.478 86.8979 188.069 87.3132C188.66 87.7285 189.079 88.2441 189.325 88.8599L189.671 83.8799L190.788 83.9575L189.968 95.7691L188.85 95.6915L188.985 93.7442C188.677 94.3322 188.206 94.802 187.572 95.1536C186.939 95.4946 186.213 95.6366 185.394 95.5797C184.596 95.5242 183.89 95.2881 183.278 94.8714C182.676 94.4553 182.217 93.8942 181.903 93.1881C181.599 92.4826 181.478 91.683 181.54 90.7892ZM189.153 91.334C189.202 90.6317 189.101 90.0045 188.851 89.4525C188.6 88.9005 188.235 88.4635 187.755 88.1414C187.285 87.8201 186.752 87.6388 186.157 87.5974C185.539 87.5545 184.976 87.6544 184.468 87.8971C183.959 88.1397 183.543 88.5171 183.218 89.0292C182.905 89.5314 182.724 90.1443 182.674 90.8679C182.624 91.5808 182.719 92.2183 182.958 92.7802C183.208 93.3322 183.568 93.7688 184.038 94.0901C184.508 94.4008 185.052 94.5776 185.669 94.6204C186.265 94.6618 186.817 94.5559 187.327 94.3026C187.847 94.05 188.269 93.6677 188.593 93.1556C188.918 92.6435 189.104 92.0363 189.153 91.334ZM195.69 95.0759L199.157 87.6503L200.338 87.7324L196.237 96.2046L194.976 96.117L192.086 87.1592L193.283 87.2423L195.69 95.0759ZM201.04 92.1436C201.102 91.2498 201.332 90.4798 201.73 89.8338C202.139 89.178 202.67 88.6909 203.323 88.3727C203.987 88.0446 204.719 87.9083 205.517 87.9637C206.347 88.0214 207.046 88.2625 207.616 88.6869C208.195 89.1121 208.598 89.6319 208.822 90.2463L208.955 88.3309L210.073 88.4085L209.467 97.1235L208.35 97.0459L208.484 95.1146C208.166 95.6912 207.69 96.1554 207.056 96.507C206.434 96.8487 205.708 96.9907 204.878 96.933C204.09 96.8783 203.39 96.6426 202.778 96.2258C202.176 95.8098 201.717 95.2487 201.403 94.5425C201.099 93.8371 200.978 93.0375 201.04 92.1436ZM208.653 92.6884C208.702 91.9861 208.601 91.3589 208.35 90.8069C208.1 90.2549 207.735 89.8179 207.255 89.4959C206.785 89.1746 206.252 88.9932 205.656 88.9518C205.039 88.9089 204.476 89.0088 203.968 89.2515C203.459 89.4942 203.042 89.8716 202.718 90.3837C202.405 90.8858 202.224 91.4987 202.173 92.2223C202.124 92.9353 202.219 93.5727 202.458 94.1346C202.708 94.6866 203.068 95.1233 203.537 95.4446C204.008 95.7553 204.551 95.932 205.169 95.9749C205.765 96.0163 206.317 95.9103 206.827 95.657C207.347 95.4044 207.769 95.0221 208.093 94.51C208.417 93.9979 208.604 93.3907 208.653 92.6884ZM216.721 88.7099C217.764 88.7823 218.592 89.166 219.207 89.8609C219.822 90.5452 220.088 91.4992 220.003 92.7229L219.648 97.8306L218.546 97.7541L218.892 92.7741C218.958 91.8271 218.769 91.0869 218.325 90.5535C217.891 90.0208 217.265 89.726 216.446 89.6691C215.605 89.6107 214.916 89.8302 214.379 90.3275C213.842 90.8248 213.538 91.5896 213.466 92.6218L213.135 97.3783L212.018 97.3007L212.623 88.5857L213.741 88.6633L213.638 90.1477C213.951 89.6349 214.378 89.2582 214.919 89.0178C215.46 88.7667 216.061 88.6641 216.721 88.7099ZM221.911 93.6093C221.974 92.7048 222.209 91.9299 222.617 91.2847C223.027 90.6288 223.563 90.1421 224.227 89.8247C224.891 89.4966 225.633 89.361 226.452 89.4179C227.527 89.4926 228.392 89.8199 229.046 90.4C229.712 90.9809 230.114 91.7359 230.252 92.665L229.055 92.5819C228.95 91.9437 228.659 91.4317 228.183 91.0458C227.719 90.65 227.12 90.4266 226.386 90.3756C225.8 90.3349 225.264 90.4314 224.778 90.6649C224.291 90.8984 223.891 91.2716 223.577 91.7844C223.275 92.2873 223.097 92.9219 223.044 93.688C222.991 94.4542 223.079 95.1125 223.308 95.663C223.547 96.2143 223.892 96.6392 224.342 96.9378C224.792 97.2363 225.309 97.4059 225.894 97.4466C226.629 97.4976 227.253 97.3645 227.767 97.0473C228.292 96.7203 228.651 96.2427 228.844 95.6146L230.042 95.6977C229.777 96.5775 229.275 97.2644 228.535 97.7583C227.795 98.2522 226.893 98.4622 225.829 98.3883C225.01 98.3314 224.293 98.0999 223.68 97.6937C223.067 97.2769 222.603 96.7208 222.288 96.0253C221.974 95.3191 221.848 94.5138 221.911 93.6093ZM240.126 94.4255C240.1 94.8086 240.069 95.1004 240.034 95.3011L232.803 94.7989C232.789 95.4609 232.909 96.0359 233.164 96.5241C233.419 97.0123 233.772 97.395 234.223 97.6722C234.675 97.9389 235.178 98.0914 235.731 98.1298C236.455 98.1801 237.073 98.0466 237.587 97.7295C238.112 97.4131 238.475 96.9625 238.676 96.3776L239.857 96.4597C239.585 97.2962 239.079 97.9614 238.339 98.4553C237.61 98.9393 236.719 99.1447 235.666 99.0716C234.846 99.0146 234.125 98.7827 233.501 98.3759C232.878 97.9583 232.403 97.4015 232.077 96.7052C231.763 95.999 231.637 95.1937 231.7 94.2892C231.762 93.3847 231.998 92.6046 232.407 91.9487C232.817 91.2928 233.358 90.8065 234.032 90.4897C234.707 90.173 235.459 90.0435 236.289 90.1012C237.119 90.1588 237.83 90.39 238.422 90.7946C239.025 91.2 239.469 91.7228 239.756 92.3629C240.055 92.9931 240.178 93.6806 240.126 94.4255ZM238.995 94.3148C239.051 93.6665 238.957 93.1039 238.712 92.6271C238.477 92.1511 238.134 91.7797 237.682 91.5131C237.23 91.2465 236.728 91.094 236.174 91.0555C235.344 90.9979 234.618 91.2148 233.996 91.7062C233.374 92.1976 232.997 92.9252 232.866 93.8891L238.995 94.3148ZM241.63 94.9629C241.692 94.0691 241.927 93.2995 242.336 92.6543C242.745 91.9984 243.276 91.5114 243.929 91.1932C244.593 90.8651 245.324 90.7288 246.122 90.7842C246.888 90.8374 247.567 91.0717 248.158 91.487C248.75 91.9023 249.168 92.4179 249.414 93.0337L249.76 88.0537L250.878 88.1313L250.057 99.9429L248.94 99.8652L249.075 97.9179C248.767 98.506 248.296 98.9758 247.662 99.3274C247.029 99.6684 246.303 99.8104 245.483 99.7535C244.685 99.698 243.98 99.4619 243.367 99.0451C242.765 98.6291 242.307 98.068 241.993 97.3618C241.689 96.6564 241.568 95.8568 241.63 94.9629ZM249.242 95.5077C249.291 94.8054 249.19 94.1783 248.94 93.6263C248.69 93.0743 248.324 92.6372 247.844 92.3152C247.375 91.9939 246.842 91.8125 246.246 91.7711C245.629 91.7283 245.066 91.8282 244.557 92.0708C244.049 92.3135 243.632 92.6909 243.308 93.203C242.995 93.7052 242.813 94.3181 242.763 95.0417C242.714 95.7546 242.808 96.392 243.047 96.954C243.298 97.506 243.658 97.9426 244.127 98.2639C244.597 98.5746 245.141 98.7514 245.758 98.7942C246.354 98.8356 246.907 98.7297 247.416 98.4763C247.936 98.2238 248.359 97.8414 248.683 97.3294C249.007 96.8173 249.194 96.2101 249.242 95.5077ZM260.96 92.8894L258.932 92.7486L258.393 100.522L257.275 100.444L257.815 92.671L256.602 92.5867L256.667 91.645L257.881 91.7292L257.923 91.1227C257.988 90.1756 258.276 89.4953 258.786 89.0816C259.307 88.6687 260.11 88.4999 261.195 88.5753L261.129 89.533C260.405 89.4827 259.885 89.5856 259.567 89.8416C259.261 90.0983 259.085 90.5512 259.04 91.2003L258.998 91.8068L261.025 91.9476L260.96 92.8894ZM270.334 92.5942L269.728 101.309L268.611 101.232L268.717 99.6993C268.424 100.224 268.002 100.612 267.45 100.862C266.898 101.113 266.292 101.215 265.632 101.169C264.589 101.097 263.76 100.718 263.145 100.034C262.53 99.339 262.265 98.3797 262.35 97.156L262.704 92.0643L263.805 92.1408L263.461 97.1048C263.395 98.0518 263.579 98.7917 264.012 99.3243C264.456 99.8577 265.088 100.153 265.907 100.21C266.748 100.268 267.437 100.049 267.974 99.5514C268.511 99.0541 268.815 98.2894 268.887 97.2572L269.216 92.5166L270.334 92.5942ZM276.982 92.8956C278.025 92.968 278.853 93.3517 279.468 94.0466C280.083 94.7309 280.349 95.6849 280.264 96.9086L279.909 102.016L278.807 101.94L279.153 96.9598C279.219 96.0128 279.03 95.2726 278.586 94.7392C278.152 94.2065 277.526 93.9117 276.707 93.8548C275.866 93.7964 275.177 94.0159 274.64 94.5132C274.103 95.0105 273.799 95.7753 273.727 96.8075L273.396 101.564L272.279 101.486L272.885 92.7714L274.002 92.849L273.899 94.3334C274.212 93.8206 274.639 93.4439 275.18 93.2035C275.721 92.9524 276.322 92.8498 276.982 92.8956ZM282.172 97.795C282.235 96.8905 282.47 96.1156 282.879 95.4704C283.288 94.8145 283.824 94.3278 284.488 94.0104C285.152 93.6823 285.894 93.5467 286.713 93.6036C287.788 93.6783 288.653 94.0056 289.307 94.5857C289.973 95.1666 290.375 95.9216 290.513 96.8507L289.316 96.7676C289.211 96.1294 288.92 95.6174 288.444 95.2315C287.98 94.8357 287.381 94.6123 286.647 94.5613C286.061 94.5206 285.525 94.6171 285.039 94.8506C284.552 95.0841 284.152 95.4572 283.838 95.9701C283.536 96.473 283.358 97.1076 283.305 97.8737C283.252 98.6399 283.34 99.2982 283.569 99.8487C283.809 100.4 284.153 100.825 284.603 101.123C285.053 101.422 285.57 101.592 286.155 101.632C286.89 101.683 287.514 101.55 288.028 101.233C288.553 100.906 288.912 100.428 289.105 99.8003L290.303 99.8834C290.038 100.763 289.536 101.45 288.796 101.944C288.056 102.438 287.154 102.648 286.09 102.574C285.271 102.517 284.554 102.286 283.941 101.879C283.328 101.463 282.864 100.906 282.549 100.211C282.235 99.5048 282.109 98.6995 282.172 97.795ZM294.161 95.1955L293.785 100.606C293.748 101.139 293.824 101.513 294.012 101.729C294.2 101.945 294.55 102.071 295.06 102.106L296.082 102.177L296.015 103.135L294.818 103.052C294.031 102.997 293.458 102.776 293.1 102.387C292.743 101.988 292.594 101.368 292.652 100.528L293.028 95.1168L291.815 95.0325L291.88 94.0908L293.093 94.1751L293.245 91.9883L294.378 92.0671L294.227 94.2538L296.621 94.4201L296.555 95.3618L294.161 95.1955ZM299.136 92.9429C298.913 92.9273 298.727 92.8342 298.578 92.6635C298.43 92.4928 298.364 92.2904 298.38 92.0563C298.396 91.8222 298.489 91.6362 298.659 91.4983C298.83 91.3498 299.027 91.2833 299.251 91.2988C299.474 91.3143 299.66 91.4074 299.809 91.5781C299.958 91.7382 300.024 91.9353 300.008 92.1694C299.992 92.4035 299.898 92.5948 299.728 92.7433C299.557 92.8919 299.36 92.9584 299.136 92.9429ZM299.581 94.6257L298.975 103.341L297.858 103.263L298.464 94.5481L299.581 94.6257ZM305.312 103.909C304.492 103.852 303.765 103.62 303.131 103.212C302.507 102.795 302.028 102.238 301.691 101.541C301.366 100.834 301.235 100.028 301.298 99.1235C301.36 98.219 301.607 97.4448 302.036 96.8011C302.467 96.1466 303.024 95.6615 303.709 95.3455C304.395 95.0189 305.147 94.884 305.967 94.9409C306.786 94.9978 307.513 95.2354 308.146 95.6537C308.792 96.0621 309.277 96.6197 309.602 97.3266C309.939 98.0236 310.075 98.8243 310.013 99.7288C309.95 100.623 309.704 101.397 309.274 102.051C308.843 102.706 308.28 103.196 307.584 103.522C306.888 103.837 306.131 103.966 305.312 103.909ZM305.379 102.935C305.954 102.975 306.495 102.885 307.002 102.663C307.51 102.431 307.931 102.065 308.265 101.564C308.611 101.054 308.81 100.415 308.863 99.649C308.917 98.8828 308.812 98.2287 308.551 97.6866C308.29 97.1338 307.923 96.7128 307.451 96.4234C306.98 96.1234 306.458 95.9534 305.883 95.9135C305.308 95.8736 304.767 95.9696 304.259 96.2017C303.752 96.423 303.331 96.7894 302.996 97.3008C302.672 97.8022 302.484 98.436 302.431 99.2022C302.378 99.9683 302.476 100.627 302.727 101.179C302.988 101.722 303.349 102.142 303.81 102.442C304.281 102.731 304.805 102.896 305.379 102.935ZM316.449 95.637C317.492 95.7094 318.321 96.0931 318.935 96.788C319.551 97.4723 319.816 98.4263 319.731 99.65L319.376 104.758L318.275 104.681L318.621 99.7012C318.687 98.7542 318.497 98.0139 318.053 97.4806C317.62 96.9479 316.993 96.6531 316.174 96.5962C315.333 96.5378 314.645 96.7573 314.107 97.2546C313.57 97.7519 313.266 98.5167 313.194 99.5488L312.864 104.305L311.747 104.228L312.352 95.5128L313.469 95.5904L313.366 97.0748C313.68 96.562 314.107 96.1853 314.648 95.9449C315.189 95.6938 315.789 95.5911 316.449 95.637ZM321.64 100.52C321.702 99.6266 321.932 98.8566 322.33 98.2107C322.739 97.5548 323.27 97.0677 323.923 96.7495C324.587 96.4214 325.319 96.2851 326.117 96.3405C326.947 96.3982 327.646 96.6393 328.216 97.0637C328.796 97.4889 329.198 98.0087 329.422 98.6231L329.555 96.7077L330.673 96.7853L330.067 105.5L328.95 105.423L329.084 103.491C328.766 104.068 328.29 104.532 327.656 104.884C327.034 105.225 326.308 105.367 325.478 105.31C324.69 105.255 323.99 105.019 323.378 104.603C322.776 104.187 322.317 103.625 322.003 102.919C321.699 102.214 321.578 101.414 321.64 100.52ZM329.253 101.065C329.302 100.363 329.201 99.7358 328.95 99.1837C328.7 98.6317 328.335 98.1947 327.855 97.8727C327.385 97.5514 326.852 97.37 326.257 97.3286C325.639 97.2857 325.076 97.3856 324.568 97.6283C324.059 97.871 323.643 98.2484 323.318 98.7605C323.005 99.2626 322.824 99.8755 322.774 100.599C322.724 101.312 322.819 101.95 323.058 102.511C323.308 103.063 323.668 103.5 324.138 103.821C324.608 104.132 325.152 104.309 325.769 104.352C326.365 104.393 326.917 104.287 327.427 104.034C327.947 103.781 328.369 103.399 328.693 102.887C329.018 102.375 329.204 101.768 329.253 101.065ZM334.556 93.9436L333.735 105.755L332.618 105.677L333.439 93.866L334.556 93.9436ZM337.544 95.6106C337.32 95.5951 337.134 95.502 336.986 95.3313C336.837 95.1606 336.771 94.9582 336.787 94.7241C336.804 94.49 336.897 94.304 337.067 94.1661C337.237 94.0176 337.435 93.951 337.658 93.9666C337.881 93.9821 338.067 94.0752 338.216 94.2459C338.365 94.406 338.432 94.603 338.416 94.8372C338.399 95.0713 338.306 95.2626 338.135 95.4111C337.964 95.5596 337.767 95.6261 337.544 95.6106ZM337.988 97.2935L337.383 106.008L336.266 105.931L336.871 97.2158L337.988 97.2935ZM341.906 98.5118L341.53 103.923C341.493 104.455 341.568 104.829 341.756 105.045C341.945 105.261 342.294 105.387 342.805 105.423L343.826 105.494L343.76 106.451L342.563 106.368C341.775 106.314 341.203 106.092 340.845 105.704C340.487 105.305 340.338 104.685 340.396 103.844L340.772 98.4331L339.559 98.3488L339.625 97.4071L340.838 97.4914L340.99 95.3046L342.123 95.3834L341.971 97.5701L344.365 97.7364L344.3 98.6781L341.906 98.5118ZM353.391 98.3633L347.329 110.821L346.164 110.74L348.144 106.708L345.17 97.7923L346.399 97.8777L348.852 105.522L352.241 98.2835L353.391 98.3633ZM355.45 105.403L353.5 109.47L352.734 109.416L354.205 105.316L355.45 105.403ZM374.271 99.8136L369.404 108.233L368.287 108.155L367.676 100.783L363.451 107.819L362.333 107.741L361.741 98.9433L362.891 99.0232L363.213 106.616L367.488 99.3425L368.621 99.4212L369.166 107.045L373.17 99.7371L374.271 99.8136ZM379.602 100.056C380.336 100.107 380.954 100.294 381.456 100.617C381.958 100.93 382.325 101.341 382.557 101.849C382.8 102.357 382.899 102.926 382.856 103.553C382.836 103.841 382.797 104.095 382.739 104.315C382.653 104.63 382.569 104.913 382.487 105.164L375.257 104.662C375.211 104.862 375.181 105.052 375.169 105.233C375.112 106.052 375.313 106.702 375.771 107.183C376.24 107.665 376.858 107.932 377.624 107.986C378.358 108.037 379.014 107.906 379.592 107.593C380.17 107.28 380.607 106.835 380.904 106.257L382.101 106.34C381.68 107.166 381.051 107.823 380.216 108.31C379.391 108.787 378.452 108.989 377.399 108.916C376.314 108.841 375.462 108.472 374.845 107.809C374.24 107.136 373.975 106.262 374.049 105.187C374.071 104.868 374.127 104.535 374.215 104.188C374.437 103.295 374.812 102.524 375.338 101.877C375.875 101.229 376.512 100.75 377.25 100.438C377.988 100.125 378.772 99.998 379.602 100.056ZM381.587 104.267C381.661 103.973 381.705 103.725 381.719 103.523C381.771 102.767 381.572 102.171 381.122 101.733C380.671 101.295 380.073 101.051 379.328 100.999C378.785 100.961 378.256 101.042 377.74 101.241C377.223 101.441 376.762 101.762 376.357 102.204C375.953 102.646 375.658 103.193 375.474 103.843L381.587 104.267ZM22.6145 103.824C22.6773 102.92 22.9129 102.145 23.3213 101.5C23.7303 100.844 24.2667 100.357 24.9303 100.04C25.5946 99.7114 26.3365 99.5758 27.1558 99.6327C28.2306 99.7074 29.0953 100.035 29.75 100.615C30.4154 101.196 30.8173 101.951 30.956 102.88L29.7588 102.797C29.6535 102.159 29.3629 101.647 28.8872 101.261C28.4228 100.865 27.8235 100.641 27.0893 100.59C26.504 100.55 25.9681 100.646 25.4814 100.88C24.9947 101.113 24.5946 101.486 24.2809 101.999C23.9787 102.502 23.801 103.137 23.7477 103.903C23.6945 104.669 23.7825 105.327 24.0115 105.878C24.2512 106.429 24.596 106.854 25.0457 107.153C25.4954 107.451 26.0129 107.621 26.5982 107.661C27.3324 107.712 27.9564 107.579 28.4703 107.262C28.9956 106.935 29.3549 106.458 29.5482 105.829L30.7453 105.913C30.481 106.792 29.9789 107.479 29.2389 107.973C28.4989 108.467 27.5968 108.677 26.5327 108.603C25.7134 108.546 24.997 108.315 24.3837 107.909C23.7711 107.492 23.3072 106.936 22.992 106.24C22.6775 105.534 22.5516 104.729 22.6145 103.824ZM36.4174 109.29C35.5981 109.233 34.8711 109.001 34.2365 108.593C33.6132 108.175 33.1334 107.618 32.7968 106.921C32.4717 106.214 32.3406 105.409 32.4034 104.504C32.4662 103.6 32.7124 102.825 33.1421 102.182C33.5725 101.527 34.1301 101.042 34.815 100.726C35.5006 100.399 36.2531 100.265 37.0724 100.322C37.8918 100.378 38.6184 100.616 39.2523 101.034C39.8975 101.443 40.3827 102 40.7079 102.707C41.0444 103.404 41.1812 104.205 41.1184 105.109C41.0563 106.003 40.8101 106.777 40.3797 107.432C39.9493 108.086 39.386 108.576 38.6897 108.902C37.9942 109.217 37.2368 109.347 36.4174 109.29ZM36.4851 108.316C37.0597 108.356 37.6006 108.265 38.1078 108.044C38.6158 107.812 39.0369 107.445 39.371 106.945C39.7166 106.434 39.9159 105.796 39.9692 105.03C40.0224 104.263 39.9181 103.609 39.6564 103.067C39.3954 102.514 39.029 102.093 38.5573 101.804C38.0863 101.504 37.5635 101.334 36.9888 101.294C36.4142 101.254 35.8729 101.35 35.365 101.582C34.8577 101.804 34.4367 102.17 34.1018 102.681C33.7782 103.183 33.5899 103.817 33.5367 104.583C33.4834 105.349 33.582 106.008 33.8324 106.56C34.0941 107.102 34.4551 107.523 34.9155 107.822C35.3873 108.111 35.9104 108.276 36.4851 108.316ZM51.0076 101.418L50.4022 110.133L49.2849 110.055L49.3914 108.523C49.0983 109.048 48.6758 109.435 48.1237 109.686C47.5717 109.936 46.9659 110.038 46.3061 109.993C45.2633 109.92 44.4342 109.542 43.8188 108.858C43.2041 108.163 42.9393 107.203 43.0243 105.98L43.378 100.888L44.4793 100.964L44.1345 105.928C44.0687 106.875 44.2526 107.615 44.686 108.148C45.1302 108.681 45.7619 108.976 46.5812 109.033C47.4219 109.092 48.1107 108.872 48.6478 108.375C49.1849 107.878 49.4893 107.113 49.561 106.081L49.8903 101.34L51.0076 101.418ZM54.8908 98.576L54.0704 110.388L52.9531 110.31L53.7735 98.4984L54.8908 98.576ZM56.3936 106.154C56.4557 105.261 56.6909 104.491 57.0992 103.846C57.5083 103.19 58.0394 102.703 58.6923 102.385C59.3566 102.057 60.0878 101.92 60.8859 101.976C61.6521 102.029 62.3308 102.263 62.9221 102.678C63.5134 103.094 63.932 103.609 64.178 104.225L64.5239 99.2451L65.6412 99.3227L64.8208 111.134L63.7035 111.057L63.8387 109.109C63.5306 109.697 63.0595 110.167 62.4256 110.519C61.7925 110.86 61.0662 111.002 60.2469 110.945C59.4488 110.889 58.7435 110.653 58.1309 110.237C57.5289 109.821 57.0707 109.259 56.7562 108.553C56.4524 107.848 56.3315 107.048 56.3936 106.154ZM64.0061 106.699C64.0549 105.997 63.9541 105.37 63.7038 104.818C63.4534 104.266 63.0882 103.829 62.608 103.507C62.1384 103.185 61.6057 103.004 61.0098 102.963C60.3927 102.92 59.8297 103.02 59.321 103.262C58.8123 103.505 58.3958 103.882 58.0716 104.394C57.7587 104.897 57.5771 105.509 57.5268 106.233C57.4773 106.946 57.572 107.583 57.811 108.145C58.0614 108.697 58.4213 109.134 58.8908 109.455C59.3611 109.766 59.9048 109.943 60.522 109.986C61.1179 110.027 61.6706 109.921 62.18 109.668C62.7001 109.415 63.1223 109.033 63.4466 108.521C63.7708 108.009 63.9573 107.401 64.0061 106.699ZM79.9703 107.359C79.9437 107.742 79.9127 108.034 79.8774 108.235L72.6468 107.732C72.6329 108.394 72.7533 108.969 73.0081 109.458C73.2629 109.946 73.6159 110.328 74.0671 110.606C74.5191 110.872 75.0217 111.025 75.575 111.063C76.2986 111.114 76.9173 110.98 77.4312 110.663C77.9557 110.347 78.3185 109.896 78.5195 109.311L79.7007 109.393C79.4287 110.23 78.9227 110.895 78.1827 111.389C77.4541 111.873 76.5631 112.078 75.5096 112.005C74.6903 111.948 73.9686 111.716 73.3446 111.309C72.7214 110.892 72.2468 110.335 71.921 109.639C71.6065 108.933 71.4806 108.127 71.5435 107.223C71.6063 106.318 71.8422 105.538 72.2513 104.882C72.6604 104.226 73.2021 103.74 73.8763 103.423C74.5506 103.107 75.3027 102.977 76.1327 103.035C76.9627 103.092 77.6737 103.323 78.2658 103.728C78.8685 104.134 79.3133 104.656 79.6003 105.296C79.8987 105.927 80.022 106.614 79.9703 107.359ZM78.8392 107.248C78.8949 106.6 78.8004 106.037 78.5555 105.561C78.3212 105.085 77.9781 104.713 77.5262 104.447C77.0743 104.18 76.5716 104.027 76.0183 103.989C75.1883 103.931 74.4622 104.148 73.84 104.64C73.2178 105.131 72.8411 105.859 72.71 106.823L78.8392 107.248ZM83.6185 100.571L82.7981 112.383L81.6808 112.305L82.5012 100.494L83.6185 100.571ZM93.5469 108.302C93.5203 108.685 93.4894 108.977 93.454 109.178L86.2235 108.675C86.2096 109.337 86.33 109.912 86.5848 110.401C86.8396 110.889 87.1926 111.271 87.6438 111.549C88.0957 111.815 88.5984 111.968 89.1517 112.006C89.8753 112.057 90.494 111.923 91.0079 111.606C91.5324 111.29 91.8952 110.839 92.0962 110.254L93.2773 110.336C93.0054 111.173 92.4994 111.838 91.7594 112.332C91.0308 112.816 90.1397 113.021 89.0863 112.948C88.2669 112.891 87.5453 112.659 86.9213 112.252C86.298 111.835 85.8235 111.278 85.4976 110.582C85.1831 109.876 85.0573 109.07 85.1201 108.166C85.1829 107.261 85.4189 106.481 85.828 105.825C86.2371 105.169 86.7788 104.683 87.453 104.366C88.1272 104.05 88.8794 103.92 89.7094 103.978C90.5394 104.035 91.2504 104.266 91.8424 104.671C92.4451 105.077 92.89 105.599 93.177 106.239C93.4754 106.87 93.5987 107.557 93.5469 108.302ZM92.4159 108.191C92.4716 107.543 92.377 106.98 92.1321 106.504C91.8979 106.028 91.5548 105.656 91.1029 105.39C90.6509 105.123 90.1483 104.97 89.5949 104.932C88.7649 104.874 88.0388 105.091 87.4166 105.583C86.7944 106.074 86.4178 106.802 86.2867 107.766L92.4159 108.191ZM98.4294 112.378L101.896 104.952L103.077 105.035L98.9765 113.507L97.7155 113.419L94.8253 104.461L96.0224 104.544L98.4294 112.378ZM103.779 109.446C103.841 108.552 104.071 107.782 104.469 107.136C104.878 106.48 105.409 105.993 106.062 105.675C106.727 105.347 107.458 105.21 108.256 105.266C109.086 105.324 109.785 105.565 110.355 105.989C110.935 106.414 111.337 106.934 111.562 107.548L111.695 105.633L112.812 105.711L112.207 114.426L111.089 114.348L111.223 112.417C110.905 112.993 110.429 113.458 109.796 113.809C109.173 114.151 108.447 114.293 107.617 114.235C106.829 114.18 106.129 113.945 105.517 113.528C104.915 113.112 104.457 112.551 104.142 111.845C103.838 111.139 103.717 110.34 103.779 109.446ZM111.392 109.991C111.441 109.288 111.34 108.661 111.09 108.109C110.839 107.557 110.474 107.12 109.994 106.798C109.524 106.477 108.992 106.295 108.396 106.254C107.778 106.211 107.216 106.311 106.707 106.554C106.198 106.796 105.782 107.174 105.457 107.686C105.145 108.188 104.963 108.801 104.913 109.524C104.863 110.237 104.958 110.875 105.197 111.437C105.447 111.989 105.807 112.425 106.277 112.747C106.747 113.057 107.291 113.234 107.908 113.277C108.504 113.318 109.056 113.212 109.566 112.959C110.086 112.707 110.508 112.324 110.832 111.812C111.157 111.3 111.343 110.693 111.392 109.991ZM116.75 106.93L116.374 112.341C116.337 112.873 116.413 113.248 116.601 113.464C116.789 113.68 117.138 113.806 117.649 113.841L118.671 113.912L118.604 114.87L117.407 114.787C116.619 114.732 116.047 114.511 115.689 114.122C115.332 113.723 115.182 113.103 115.241 112.263L115.616 106.852L114.403 106.767L114.469 105.826L115.682 105.91L115.834 103.723L116.967 103.802L116.815 105.989L119.209 106.155L119.144 107.097L116.75 106.93ZM128.665 110.741C128.639 111.124 128.608 111.416 128.573 111.617L121.342 111.115C121.328 111.777 121.449 112.352 121.703 112.84C121.958 113.328 122.311 113.711 122.762 113.988C123.214 114.255 123.717 114.407 124.27 114.446C124.994 114.496 125.613 114.362 126.126 114.045C126.651 113.729 127.014 113.278 127.215 112.693L128.396 112.775C128.124 113.612 127.618 114.277 126.878 114.771C126.149 115.255 125.258 115.461 124.205 115.387C123.385 115.33 122.664 115.099 122.04 114.692C121.417 114.274 120.942 113.717 120.616 113.021C120.302 112.315 120.176 111.51 120.239 110.605C120.301 109.701 120.537 108.92 120.947 108.264C121.356 107.609 121.897 107.122 122.572 106.806C123.246 106.489 123.998 106.359 124.828 106.417C125.658 106.475 126.369 106.706 126.961 107.11C127.564 107.516 128.008 108.039 128.295 108.679C128.594 109.309 128.717 109.996 128.665 110.741ZM127.534 110.631C127.59 109.982 127.496 109.42 127.251 108.943C127.016 108.467 126.673 108.096 126.221 107.829C125.769 107.562 125.267 107.41 124.713 107.371C123.883 107.314 123.157 107.531 122.535 108.022C121.913 108.513 121.536 109.241 121.405 110.205L127.534 110.631ZM136.303 107.342L137.434 114.847L142.113 107.746L143.278 107.827L134.966 120.128L133.785 120.046L136.5 116.049L135.058 107.256L136.303 107.342ZM146.478 116.934C145.754 116.884 145.126 116.696 144.592 116.37C144.06 116.034 143.657 115.589 143.386 115.036C143.126 114.472 143.021 113.829 143.071 113.105C143.139 112.126 143.425 111.243 143.929 110.454C144.433 109.655 145.101 109.044 145.932 108.621C146.764 108.187 147.67 108.004 148.649 108.072C149.373 108.122 150.001 108.315 150.533 108.652C151.067 108.977 151.469 109.422 151.74 109.986C152.011 110.54 152.122 111.178 152.072 111.902C152.003 112.892 151.711 113.78 151.197 114.568C150.682 115.355 150.009 115.966 149.177 116.4C148.356 116.824 147.457 117.002 146.478 116.934ZM146.671 116.002C147.426 116.054 148.116 115.899 148.74 115.536C149.375 115.174 149.88 114.669 150.257 114.021C150.644 113.375 150.864 112.663 150.918 111.886C150.979 111.013 150.77 110.331 150.291 109.838C149.822 109.345 149.2 109.072 148.423 109.018C147.667 108.966 146.978 109.121 146.354 109.484C145.74 109.848 145.245 110.353 144.869 111.001C144.492 111.648 144.277 112.36 144.223 113.137C144.163 113.999 144.367 114.681 144.835 115.184C145.303 115.677 145.915 115.949 146.671 116.002ZM162.584 109.168L160.446 117.776L159.329 117.699L159.707 116.185C159.307 116.703 158.81 117.085 158.216 117.333C157.621 117.58 156.994 117.681 156.334 117.635C155.441 117.573 154.739 117.284 154.229 116.767C153.721 116.24 153.499 115.514 153.563 114.588C153.587 114.247 153.635 113.94 153.707 113.668L154.955 108.638L156.056 108.714L154.833 113.617C154.774 113.859 154.735 114.113 154.716 114.379C154.667 115.081 154.822 115.632 155.179 116.031C155.547 116.42 156.077 116.639 156.769 116.687C157.578 116.743 158.292 116.547 158.911 116.098C159.531 115.638 159.975 114.937 160.244 113.993L161.467 109.09L162.584 109.168ZM165.411 110.92C165.693 110.394 166.095 110 166.615 109.737C167.147 109.474 167.78 109.368 168.514 109.419L168.433 110.585L168.13 110.563C167.321 110.507 166.657 110.68 166.137 111.083C165.617 111.485 165.322 112.197 165.251 113.218L164.913 118.087L163.795 118.009L164.401 109.294L165.518 109.372L165.411 110.92ZM177.764 119.108C176.945 119.051 176.218 118.818 175.583 118.411C174.96 117.993 174.48 117.436 174.144 116.739C173.819 116.032 173.688 115.226 173.75 114.322C173.813 113.417 174.059 112.643 174.489 112C174.919 111.345 175.477 110.86 176.162 110.544C176.848 110.217 177.6 110.082 178.419 110.139C179.239 110.196 179.965 110.434 180.599 110.852C181.244 111.261 181.73 111.818 182.055 112.525C182.391 113.222 182.528 114.023 182.465 114.927C182.403 115.821 182.157 116.595 181.727 117.25C181.296 117.904 180.733 118.394 180.037 118.72C179.341 119.035 178.584 119.164 177.764 119.108ZM177.832 118.134C178.407 118.174 178.948 118.083 179.455 117.862C179.963 117.63 180.384 117.263 180.718 116.763C181.063 116.252 181.263 115.614 181.316 114.847C181.369 114.081 181.265 113.427 181.003 112.885C180.742 112.332 180.376 111.911 179.904 111.622C179.433 111.322 178.91 111.152 178.336 111.112C177.761 111.072 177.22 111.168 176.712 111.4C176.205 111.622 175.784 111.988 175.449 112.499C175.125 113.001 174.937 113.634 174.884 114.401C174.83 115.167 174.929 115.826 175.179 116.378C175.441 116.92 175.802 117.341 176.262 117.64C176.734 117.929 177.257 118.094 177.832 118.134ZM188.902 110.835C189.945 110.908 190.774 111.292 191.388 111.986C192.004 112.671 192.269 113.625 192.184 114.848L191.829 119.956L190.728 119.88L191.074 114.9C191.139 113.953 190.95 113.212 190.506 112.679C190.073 112.146 189.446 111.852 188.627 111.795C187.786 111.736 187.097 111.956 186.56 112.453C186.023 112.95 185.719 113.715 185.647 114.747L185.317 119.504L184.199 119.426L184.805 110.711L185.922 110.789L185.819 112.273C186.133 111.76 186.56 111.384 187.1 111.143C187.642 110.892 188.242 110.79 188.902 110.835ZM196.238 108.394L195.417 120.205L194.3 120.128L195.12 108.316L196.238 108.394ZM199.226 110.061C199.002 110.045 198.816 109.952 198.668 109.782C198.519 109.611 198.453 109.409 198.469 109.174C198.486 108.94 198.579 108.754 198.749 108.616C198.919 108.468 199.116 108.401 199.34 108.417C199.563 108.432 199.749 108.526 199.898 108.696C200.047 108.856 200.114 109.053 200.097 109.287C200.081 109.522 199.988 109.713 199.817 109.861C199.646 110.01 199.449 110.076 199.226 110.061ZM199.67 111.744L199.065 120.459L197.948 120.381L198.553 111.666L199.67 111.744ZM206.298 112.044C207.34 112.116 208.169 112.5 208.784 113.195C209.399 113.879 209.664 114.833 209.579 116.057L209.225 121.164L208.123 121.088L208.469 116.108C208.535 115.161 208.346 114.421 207.902 113.887C207.468 113.355 206.842 113.06 206.022 113.003C205.182 112.945 204.493 113.164 203.956 113.661C203.419 114.159 203.114 114.923 203.043 115.956L202.712 120.712L201.595 120.635L202.2 111.92L203.318 111.997L203.215 113.482C203.528 112.969 203.955 112.592 204.496 112.352C205.037 112.101 205.638 111.998 206.298 112.044ZM219.914 117.079C219.888 117.462 219.857 117.754 219.821 117.955L212.591 117.453C212.577 118.115 212.697 118.69 212.952 119.178C213.207 119.666 213.56 120.049 214.011 120.326C214.463 120.593 214.966 120.745 215.519 120.784C216.243 120.834 216.861 120.701 217.375 120.383C217.9 120.067 218.263 119.616 218.464 119.032L219.645 119.114C219.373 119.95 218.867 120.615 218.127 121.109C217.398 121.593 216.507 121.799 215.454 121.725C214.634 121.669 213.913 121.437 213.289 121.03C212.665 120.612 212.191 120.055 211.865 119.359C211.551 118.653 211.425 117.848 211.488 116.943C211.55 116.039 211.786 115.258 212.195 114.603C212.605 113.947 213.146 113.46 213.82 113.144C214.495 112.827 215.247 112.697 216.077 112.755C216.907 112.813 217.618 113.044 218.21 113.449C218.813 113.854 219.257 114.377 219.544 115.017C219.843 115.647 219.966 116.335 219.914 117.079ZM218.783 116.969C218.839 116.32 218.744 115.758 218.5 115.281C218.265 114.805 217.922 114.434 217.47 114.167C217.018 113.9 216.516 113.748 215.962 113.709C215.132 113.652 214.406 113.869 213.784 114.36C213.162 114.851 212.785 115.579 212.654 116.543L218.783 116.969ZM227.579 115.607C227.896 115.041 228.366 114.587 228.988 114.245C229.622 113.894 230.354 113.747 231.184 113.804C231.972 113.859 232.666 114.094 233.268 114.511C233.882 114.917 234.34 115.472 234.644 116.178C234.959 116.873 235.086 117.668 235.024 118.562C234.962 119.456 234.726 120.231 234.317 120.887C233.918 121.543 233.387 122.036 232.723 122.364C232.069 122.692 231.348 122.83 230.561 122.775C229.742 122.718 229.042 122.477 228.462 122.052C227.883 121.616 227.475 121.096 227.239 120.491L226.82 126.525L225.719 126.448L226.61 113.615L227.712 113.692L227.579 115.607ZM233.89 118.483C233.941 117.76 233.84 117.127 233.589 116.586C233.349 116.034 232.994 115.604 232.524 115.293C232.054 114.982 231.51 114.805 230.893 114.763C230.297 114.721 229.739 114.827 229.219 115.079C228.71 115.333 228.293 115.715 227.968 116.227C227.644 116.74 227.458 117.347 227.409 118.049C227.36 118.751 227.461 119.378 227.711 119.931C227.962 120.483 228.322 120.919 228.791 121.24C229.271 121.563 229.809 121.744 230.405 121.786C231.022 121.828 231.585 121.729 232.094 121.486C232.603 121.233 233.015 120.85 233.329 120.337C233.654 119.814 233.841 119.196 233.89 118.483ZM238.391 115.989C238.673 115.463 239.075 115.069 239.596 114.806C240.127 114.543 240.76 114.437 241.494 114.488L241.413 115.654L241.11 115.633C240.301 115.576 239.637 115.749 239.117 116.152C238.598 116.554 238.302 117.266 238.231 118.288L237.893 123.156L236.776 123.078L237.381 114.363L238.498 114.441L238.391 115.989ZM250.777 119.223C250.751 119.606 250.72 119.898 250.685 120.099L243.454 119.597C243.44 120.259 243.561 120.834 243.815 121.322C244.07 121.81 244.423 122.193 244.874 122.47C245.326 122.736 245.829 122.889 246.382 122.927C247.106 122.978 247.725 122.844 248.238 122.527C248.763 122.211 249.126 121.76 249.327 121.175L250.508 121.257C250.236 122.094 249.73 122.759 248.99 123.253C248.261 123.737 247.37 123.942 246.317 123.869C245.497 123.812 244.776 123.58 244.152 123.174C243.529 122.756 243.054 122.199 242.728 121.503C242.414 120.797 242.288 119.991 242.351 119.087C242.413 118.182 242.649 117.402 243.059 116.746C243.468 116.09 244.009 115.604 244.684 115.287C245.358 114.971 246.11 114.841 246.94 114.899C247.77 114.956 248.481 115.188 249.073 115.592C249.676 115.998 250.121 116.52 250.408 117.161C250.706 117.791 250.829 118.478 250.777 119.223ZM249.646 119.112C249.702 118.464 249.608 117.902 249.363 117.425C249.128 116.949 248.785 116.577 248.333 116.311C247.881 116.044 247.379 115.892 246.825 115.853C245.995 115.796 245.269 116.012 244.647 116.504C244.025 116.995 243.648 117.723 243.517 118.687L249.646 119.112ZM255.48 124.506C254.48 124.436 253.676 124.15 253.069 123.649C252.474 123.137 252.167 122.479 252.148 121.676L253.297 121.756C253.316 122.249 253.517 122.664 253.9 123.001C254.295 123.327 254.838 123.515 255.529 123.563C256.136 123.605 256.619 123.494 256.98 123.231C257.351 122.968 257.551 122.623 257.581 122.198C257.602 121.9 257.523 121.648 257.345 121.443C257.166 121.239 256.932 121.073 256.641 120.946C256.362 120.809 255.977 120.659 255.486 120.496C254.848 120.281 254.334 120.074 253.941 119.876C253.548 119.678 253.22 119.403 252.956 119.054C252.703 118.694 252.596 118.232 252.635 117.668C252.664 117.242 252.819 116.858 253.1 116.514C253.38 116.169 253.762 115.907 254.245 115.727C254.728 115.547 255.268 115.477 255.864 115.519C256.8 115.584 257.539 115.876 258.08 116.394C258.622 116.902 258.886 117.573 258.871 118.406L257.753 118.328C257.757 117.815 257.583 117.392 257.232 117.057C256.893 116.713 256.404 116.518 255.765 116.474C255.201 116.435 254.734 116.536 254.365 116.778C253.995 117.019 253.797 117.337 253.769 117.731C253.746 118.071 253.827 118.36 254.014 118.598C254.212 118.825 254.461 119.014 254.76 119.163C255.061 119.301 255.467 119.463 255.978 119.648C256.594 119.862 257.082 120.062 257.444 120.247C257.805 120.433 258.108 120.689 258.353 121.016C258.597 121.343 258.707 121.763 258.682 122.274C258.65 122.742 258.493 123.154 258.212 123.509C257.931 123.853 257.555 124.115 257.082 124.296C256.61 124.477 256.076 124.547 255.48 124.506ZM268.843 120.478C268.817 120.861 268.786 121.153 268.75 121.354L261.52 120.851C261.506 121.513 261.626 122.088 261.881 122.577C262.136 123.065 262.489 123.447 262.94 123.725C263.392 123.991 263.895 124.144 264.448 124.182C265.172 124.233 265.79 124.099 266.304 123.782C266.829 123.466 267.192 123.015 267.393 122.43L268.574 122.512C268.302 123.349 267.796 124.014 267.056 124.508C266.327 124.992 265.436 125.197 264.383 125.124C263.563 125.067 262.842 124.835 262.218 124.428C261.594 124.011 261.12 123.454 260.794 122.758C260.48 122.052 260.354 121.246 260.417 120.342C260.479 119.437 260.715 118.657 261.124 118.001C261.533 117.345 262.075 116.859 262.749 116.542C263.424 116.226 264.176 116.096 265.006 116.154C265.836 116.211 266.547 116.442 267.139 116.847C267.742 117.253 268.186 117.775 268.473 118.415C268.772 119.046 268.895 119.733 268.843 120.478ZM267.712 120.367C267.768 119.719 267.673 119.156 267.429 118.68C267.194 118.204 266.851 117.832 266.399 117.566C265.947 117.299 265.445 117.146 264.891 117.108C264.061 117.05 263.335 117.267 262.713 117.759C262.091 118.25 261.714 118.978 261.583 119.942L267.712 120.367ZM275.256 116.834C276.299 116.906 277.128 117.29 277.743 117.985C278.358 118.669 278.623 119.623 278.538 120.847L278.183 125.954L277.082 125.878L277.428 120.898C277.494 119.951 277.305 119.211 276.861 118.677C276.427 118.145 275.801 117.85 274.981 117.793C274.141 117.734 273.452 117.954 272.915 118.451C272.378 118.949 272.073 119.713 272.002 120.745L271.671 125.502L270.554 125.424L271.159 116.709L272.276 116.787L272.173 118.271C272.487 117.759 272.914 117.382 273.455 117.141C273.996 116.89 274.597 116.788 275.256 116.834ZM280.446 121.733C280.509 120.828 280.745 120.054 281.153 119.408C281.562 118.752 282.099 118.266 282.762 117.948C283.427 117.62 284.168 117.485 284.988 117.542C286.062 117.616 286.927 117.944 287.582 118.524C288.247 119.105 288.649 119.86 288.788 120.789L287.591 120.706C287.485 120.067 287.195 119.555 286.719 119.169C286.255 118.774 285.655 118.55 284.921 118.499C284.336 118.459 283.8 118.555 283.313 118.789C282.827 119.022 282.426 119.395 282.113 119.908C281.811 120.411 281.633 121.046 281.58 121.812C281.526 122.578 281.614 123.236 281.843 123.787C282.083 124.338 282.428 124.763 282.878 125.061C283.327 125.36 283.845 125.53 284.43 125.57C285.164 125.621 285.788 125.488 286.302 125.171C286.827 124.844 287.187 124.366 287.38 123.738L288.577 123.821C288.313 124.701 287.811 125.388 287.071 125.882C286.331 126.376 285.429 126.586 284.365 126.512C283.545 126.455 282.829 126.224 282.216 125.817C281.603 125.401 281.139 124.844 280.824 124.149C280.509 123.443 280.384 122.637 280.446 121.733ZM298.662 122.549C298.635 122.932 298.605 123.224 298.569 123.425L291.339 122.923C291.325 123.585 291.445 124.16 291.7 124.648C291.955 125.136 292.308 125.519 292.759 125.796C293.211 126.063 293.714 126.215 294.267 126.253C294.99 126.304 295.609 126.17 296.123 125.853C296.648 125.537 297.01 125.086 297.211 124.501L298.393 124.583C298.121 125.42 297.615 126.085 296.875 126.579C296.146 127.063 295.255 127.268 294.201 127.195C293.382 127.138 292.66 126.906 292.036 126.5C291.413 126.082 290.939 125.525 290.613 124.829C290.298 124.123 290.172 123.317 290.235 122.413C290.298 121.508 290.534 120.728 290.943 120.072C291.352 119.416 291.894 118.93 292.568 118.613C293.242 118.297 293.995 118.167 294.825 118.225C295.655 118.282 296.366 118.514 296.958 118.918C297.56 119.324 298.005 119.846 298.292 120.487C298.591 121.117 298.714 121.804 298.662 122.549ZM297.531 122.439C297.587 121.79 297.492 121.228 297.247 120.751C297.013 120.275 296.67 119.903 296.218 119.637C295.766 119.37 295.263 119.218 294.71 119.179C293.88 119.122 293.154 119.338 292.532 119.83C291.91 120.321 291.533 121.049 291.402 122.013L297.531 122.439ZM300.559 127.589C300.324 127.572 300.133 127.479 299.985 127.308C299.847 127.138 299.786 126.936 299.802 126.702C299.818 126.468 299.906 126.282 300.066 126.143C300.236 125.995 300.439 125.928 300.673 125.945C300.896 125.96 301.077 126.053 301.215 126.223C301.364 126.383 301.431 126.58 301.414 126.814C301.398 127.048 301.305 127.24 301.134 127.388C300.974 127.537 300.782 127.604 300.559 127.589Z" fill="#00040E" fill-opacity="0.85"/>
<path d="M56.7262 35.4515L49.4393 55.9358L44.5012 55.5928L41.6138 40.4463L36.4805 55.0357L31.5702 54.7247L27.3968 33.4143L31.886 33.7261L34.4405 50.2027L39.8169 34.277L44.4857 34.6012L47.3756 51.0109L52.2071 35.1376L56.7262 35.4515ZM74.0247 48.9526C73.9831 49.5511 73.9058 50.0871 73.7927 50.5604L61.6719 49.7185C61.6885 50.9225 62.0424 51.8893 62.7335 52.619C63.4246 53.3486 64.3088 53.7509 65.3862 53.8257C66.9425 53.9338 68.0962 53.3423 68.8475 52.0513L73.3666 52.3652C72.7769 53.9281 71.7676 55.1811 70.3388 56.1244C68.9114 57.0477 67.2101 57.4408 65.2349 57.3036C63.6387 57.1927 62.2264 56.7438 60.998 55.9568C59.7909 55.1512 58.8733 54.075 58.2451 52.7282C57.6369 51.3829 57.3916 49.8622 57.5094 48.1663C57.6286 46.4504 58.0824 44.9683 58.8708 43.7199C59.6592 42.4716 60.7061 41.5419 62.0116 40.9309C63.3171 40.3199 64.7879 40.0712 66.4239 40.1848C68.0001 40.2943 69.3832 40.7312 70.5731 41.4955C71.7829 42.2612 72.6834 43.296 73.2744 44.6001C73.8868 45.8857 74.1369 47.3365 74.0247 48.9526ZM69.7683 47.454C69.8231 46.3752 69.4937 45.4903 68.7798 44.7992C68.0674 44.0881 67.1625 43.6944 66.0652 43.6182C65.0277 43.5462 64.1276 43.8044 63.365 44.393C62.6237 44.963 62.1344 45.8011 61.8972 46.9073L69.7683 47.454ZM81.6553 43.9493C82.2494 43.1886 83.0327 42.5915 84.0051 42.1578C84.9974 41.7255 86.1021 41.5517 87.3192 41.6362C88.7358 41.7346 89.9885 42.1724 91.0772 42.9498C92.1859 43.7285 93.0244 44.7891 93.5928 46.1317C94.1824 47.4558 94.4184 48.9657 94.3006 50.6616C94.1828 52.3576 93.739 53.8404 92.9691 55.1101C92.2207 56.3612 91.2429 57.3057 90.0358 57.9436C88.8486 58.5829 87.5467 58.8533 86.1301 58.755C84.8931 58.669 83.8224 58.3541 82.9179 57.8101C82.0348 57.2475 81.3409 56.5578 80.8363 55.7409L80.672 58.1052L76.4821 57.8142L78.0204 35.6675L82.2103 35.9585L81.6553 43.9493ZM90.0209 50.3644C90.0902 49.3668 89.9403 48.4943 89.5712 47.7469C89.2234 46.981 88.7235 46.3849 88.0715 45.9587C87.4394 45.5339 86.7343 45.2945 85.9562 45.2404C85.198 45.1878 84.4659 45.3374 83.7598 45.6893C83.0751 46.0227 82.4975 46.5439 82.0273 47.253C81.577 47.9635 81.3172 48.8176 81.2479 49.8152C81.1786 50.8128 81.3178 51.6945 81.6656 52.4605C82.0333 53.2278 82.5325 53.8338 83.1632 54.2786C83.8152 54.7048 84.5203 54.9442 85.2785 54.9969C86.0566 55.051 86.7888 54.9013 87.4749 54.548C88.181 54.1961 88.7592 53.6649 89.2095 52.9544C89.6797 52.2453 89.9502 51.3819 90.0209 50.3644ZM103.091 59.9331C101.735 59.8388 100.534 59.5149 99.49 58.9612C98.4472 58.3875 97.6357 57.6596 97.0555 56.7772C96.4952 55.8963 96.2204 54.945 96.2313 53.9233L100.451 54.2164C100.487 54.8604 100.759 55.4106 101.269 55.867C101.798 56.3248 102.472 56.5821 103.29 56.6389C104.088 56.6944 104.718 56.5777 105.179 56.289C105.66 56.0016 105.918 55.6085 105.952 55.1097C105.99 54.571 105.738 54.1526 105.198 53.8544C104.678 53.5377 103.831 53.1781 102.656 52.7757C101.44 52.3905 100.444 52.0106 99.668 51.6359C98.9121 51.2626 98.2676 50.7267 97.7348 50.0281C97.2219 49.3309 97.0042 48.4236 97.0818 47.3063C97.1456 46.3885 97.4631 45.5685 98.0345 44.8464C98.6259 44.1256 99.4257 43.5798 100.434 43.2087C101.462 42.8391 102.644 42.7007 103.981 42.7935C105.956 42.9307 107.498 43.539 108.606 44.6184C109.715 45.6778 110.271 47.0496 110.275 48.7339L106.264 48.4553C106.25 47.7928 106.007 47.2546 105.534 46.8409C105.083 46.4086 104.449 46.164 103.631 46.1072C102.872 46.0545 102.274 46.1533 101.836 46.4035C101.417 46.6552 101.191 47.0304 101.156 47.5292C101.117 48.0878 101.367 48.5362 101.905 48.8743C102.444 49.1924 103.292 49.542 104.448 49.923C105.625 50.3055 106.591 50.6833 107.347 51.0566C108.103 51.4299 108.736 51.9751 109.248 52.6923C109.781 53.3909 110.019 54.2895 109.963 55.3883C109.896 56.346 109.567 57.1852 108.976 57.9059C108.405 58.6281 107.605 59.174 106.577 59.5436C105.57 59.8947 104.408 60.0245 103.091 59.9331ZM116.487 41.9481C115.749 41.8968 115.147 41.6244 114.68 41.1309C114.234 40.6187 114.036 40.0135 114.084 39.3152C114.133 38.6169 114.412 38.0549 114.923 37.6293C115.455 37.1851 116.09 36.9886 116.828 37.0399C117.567 37.0912 118.158 37.3729 118.604 37.885C119.071 38.3785 119.28 38.9745 119.232 39.6728C119.183 40.3711 118.893 40.9423 118.361 41.3865C117.85 41.8122 117.226 41.9994 116.487 41.9481ZM118.415 44.0668L117.264 60.6468L113.074 60.3558L114.225 43.7757L118.415 44.0668ZM127.194 48.1348L126.637 56.1555C126.598 56.7142 126.699 57.1322 126.941 57.4096C127.203 57.6684 127.654 57.82 128.292 57.8643L130.238 57.9995L129.993 61.531L127.359 61.348C123.827 61.1027 122.181 59.2642 122.419 55.8325L122.974 47.8417L120.999 47.7045L121.238 44.2628L123.213 44.4L123.498 40.2999L127.718 40.593L127.433 44.6931L131.144 44.9509L130.905 48.3926L127.194 48.1348ZM149.02 54.1617C148.978 54.7602 148.901 55.2962 148.788 55.7695L136.667 54.9276C136.684 56.1316 137.037 57.0985 137.729 57.8281C138.42 58.5577 139.304 58.96 140.381 59.0348C141.938 59.1429 143.091 58.5514 143.843 57.2604L148.362 57.5743C147.772 59.1372 146.763 60.3903 145.334 61.3335C143.907 62.2568 142.205 62.6499 140.23 62.5127C138.634 62.4018 137.222 61.9529 135.993 61.1659C134.786 60.3603 133.868 59.2841 133.24 57.9374C132.632 56.592 132.387 55.0713 132.505 53.3754C132.624 51.6595 133.078 50.1774 133.866 48.9291C134.654 47.6807 135.701 46.751 137.007 46.14C138.312 45.529 139.783 45.2803 141.419 45.3939C142.995 45.5034 144.378 45.9403 145.568 46.7046C146.778 47.4703 147.678 48.5051 148.27 49.8092C148.882 51.0948 149.132 52.5456 149.02 54.1617ZM144.763 52.6631C144.818 51.5844 144.489 50.6994 143.775 50.0083C143.062 49.2972 142.158 48.9036 141.06 48.8273C140.023 48.7553 139.123 49.0135 138.36 49.6021C137.619 50.1721 137.13 51.0102 136.892 52.1164L144.763 52.6631ZM164.014 46.3018L163.651 51.5392L170.684 52.0277L170.453 55.3497L163.42 54.8612L163.035 60.3979L170.966 60.9487L170.729 64.3605L158.608 63.5186L160.062 42.599L172.182 43.4409L171.945 46.8527L164.014 46.3018ZM184.893 48.4437C186.868 48.5809 188.421 49.3202 189.551 50.6617C190.682 51.9833 191.17 53.7614 191.014 55.996L190.339 65.7226L186.149 65.4315L186.785 56.2736C186.876 54.9568 186.617 53.9263 186.007 53.1823C185.399 52.4183 184.526 51.9968 183.389 51.9178C182.231 51.8374 181.289 52.1328 180.56 52.804C179.854 53.4565 179.454 54.4412 179.363 55.7581L178.727 64.916L174.537 64.625L175.689 48.0449L179.878 48.336L179.735 50.401C180.344 49.7215 181.091 49.2121 181.976 48.8726C182.883 48.5146 183.856 48.3716 184.893 48.4437ZM204.829 49.8284C206.086 49.9157 207.184 50.2727 208.123 50.8992C209.063 51.5058 209.765 52.3666 210.229 53.4814C210.714 54.5776 210.905 55.874 210.801 57.3704L210.125 67.0969L205.935 66.8059L206.571 57.648C206.663 56.3311 206.404 55.3007 205.794 54.5566C205.185 53.7926 204.312 53.3711 203.175 53.2921C202.018 53.2118 201.075 53.5071 200.347 54.1783C199.64 54.8309 199.241 55.8156 199.149 57.1324L198.513 66.2904L194.323 65.9993L195.862 43.8527L200.051 44.1437L199.521 51.7753C200.11 51.0945 200.867 50.5857 201.793 50.249C202.719 49.8924 203.732 49.7522 204.829 49.8284ZM213.612 58.949C213.729 57.273 214.161 55.8094 214.909 54.5583C215.678 53.3085 216.655 52.374 217.841 51.7547C219.046 51.1367 220.358 50.877 221.774 50.9754C223.011 51.0613 224.071 51.3855 224.954 51.9481C225.858 52.512 226.562 53.1925 227.068 53.9894L227.232 51.6251L231.452 51.9182L230.301 68.4983L226.081 68.2052L226.249 65.781C225.656 66.5217 224.863 67.1182 223.869 67.5704C222.897 68.0041 221.792 68.178 220.555 68.092C219.159 67.995 217.907 67.5472 216.799 66.7485C215.712 65.9513 214.874 64.8807 214.286 63.5367C213.719 62.1741 213.494 60.6449 213.612 58.949ZM226.657 59.9152C226.727 58.8976 226.588 58.0158 226.239 57.2699C225.891 56.5039 225.391 55.9078 224.739 55.4816C224.088 55.0355 223.374 54.7854 222.596 54.7313C221.818 54.6773 221.086 54.8169 220.402 55.1503C219.717 55.4836 219.139 56.0049 218.669 56.714C218.22 57.4045 217.961 58.2486 217.892 59.2462C217.822 60.2438 217.961 61.1356 218.307 61.9214C218.675 62.6888 219.174 63.2948 219.805 63.7396C220.456 64.1857 221.16 64.4352 221.918 64.4878C222.696 64.5419 223.438 64.4029 224.142 64.0709C224.849 63.719 225.426 63.1978 225.875 62.5072C226.325 61.7967 226.586 60.9327 226.657 59.9152ZM244.749 52.6012C246.724 52.7384 248.277 53.4778 249.406 54.8193C250.537 56.1409 251.025 57.9189 250.87 60.1536L250.195 69.8801L246.005 69.5891L246.641 60.4312C246.732 59.1143 246.473 58.0839 245.863 57.3398C245.255 56.5758 244.382 56.1543 243.244 56.0753C242.087 55.995 241.145 56.2904 240.416 56.9615C239.709 57.6141 239.31 58.5988 239.219 59.9156L238.583 69.0736L234.393 68.7825L235.544 52.2025L239.734 52.4935L239.591 54.5585C240.199 53.8791 240.946 53.3696 241.832 53.0302C242.739 52.6721 243.711 52.5292 244.749 52.6012ZM253.677 61.792C253.797 60.0761 254.25 58.604 255.037 57.3756C255.825 56.1272 256.862 55.1968 258.148 54.5844C259.435 53.9521 260.876 53.6913 262.472 53.8022C264.527 53.945 266.187 54.5815 267.452 55.7119C268.738 56.8236 269.546 58.3232 269.876 60.2106L265.357 59.8967C265.167 59.1618 264.797 58.5748 264.246 58.1356C263.717 57.6778 263.033 57.4198 262.195 57.3616C260.998 57.2784 260.02 57.6515 259.26 58.4809C258.502 59.2903 258.068 60.4931 257.957 62.0893C257.848 63.6655 258.112 64.9168 258.749 65.8432C259.388 66.7496 260.306 67.2444 261.503 67.3275C263.199 67.4453 264.359 66.7641 264.983 65.2838L269.502 65.5977C268.918 67.3615 267.911 68.725 266.481 69.6882C265.051 70.6514 263.318 71.0623 261.283 70.921C259.687 70.8101 258.295 70.3625 257.106 69.5783C255.919 68.7741 255.021 67.7093 254.411 66.3839C253.803 65.0385 253.558 63.5079 253.677 61.792ZM288.196 63.8288C288.155 64.4273 288.077 64.9633 287.964 65.4366L275.843 64.5947C275.86 65.7987 276.214 66.7656 276.905 67.4952C277.596 68.2248 278.48 68.6271 279.558 68.7019C281.114 68.81 282.268 68.2185 283.019 66.9275L287.538 67.2414C286.948 68.8043 285.939 70.0574 284.51 71.0006C283.083 71.9239 281.382 72.317 279.406 72.1798C277.81 72.0689 276.398 71.62 275.169 70.833C273.962 70.0274 273.045 68.9512 272.417 67.6045C271.808 66.2591 271.563 64.7384 271.681 63.0425C271.8 61.3267 272.254 59.8445 273.042 58.5962C273.831 57.3478 274.878 56.4181 276.183 55.8071C277.489 55.1961 278.959 54.9474 280.595 55.061C282.172 55.1705 283.555 55.6074 284.745 56.3717C285.954 57.1374 286.855 58.1723 287.446 59.4763C288.058 60.7619 288.308 62.2127 288.196 63.8288ZM283.94 62.3303C283.995 61.2515 283.665 60.3665 282.951 59.6754C282.239 58.9643 281.334 58.5707 280.237 58.4944C279.199 58.4224 278.299 58.6806 277.536 59.2692C276.795 59.8392 276.306 60.6773 276.069 61.7835L283.94 62.3303ZM312.412 57.3011C314.447 57.4425 316.04 58.1846 317.189 59.5275C318.361 60.8518 318.868 62.6313 318.713 64.8659L318.038 74.5925L313.848 74.3014L314.484 65.1435C314.574 63.8466 314.313 62.8361 313.702 62.112C313.092 61.368 312.219 60.9565 311.081 60.8775C309.944 60.7985 309.012 61.0846 308.285 61.7358C307.58 62.3684 307.182 63.3332 307.092 64.63L306.456 73.788L302.266 73.4969L302.902 64.339C302.992 63.0421 302.731 62.0316 302.12 61.3075C301.51 60.5635 300.636 60.152 299.499 60.073C298.342 59.9926 297.4 60.278 296.673 60.9292C295.968 61.5618 295.57 62.5266 295.48 63.8235L294.844 72.9814L290.654 72.6904L291.805 56.1103L295.995 56.4014L295.856 58.4065C296.443 57.7456 297.17 57.2448 298.035 56.9039C298.921 56.5645 299.872 56.4301 300.89 56.5008C302.187 56.5908 303.325 56.9506 304.303 57.5799C305.284 58.1893 306.018 59.0221 306.506 60.0785C307.111 59.1582 307.942 58.4441 309 57.9362C310.078 57.4296 311.215 57.2179 312.412 57.3011ZM338.027 67.29C337.986 67.8886 337.908 68.4245 337.795 68.8978L325.674 68.0559C325.691 69.26 326.045 70.2268 326.736 70.9564C327.427 71.6861 328.311 72.0883 329.389 72.1632C330.945 72.2713 332.099 71.6798 332.85 70.3887L337.369 70.7026C336.779 72.2655 335.77 73.5186 334.341 74.4619C332.914 75.3852 331.213 75.7782 329.237 75.641C327.641 75.5302 326.229 75.0812 325.001 74.2942C323.794 73.4886 322.876 72.4125 322.248 71.0657C321.639 69.7203 321.394 68.1997 321.512 66.5038C321.631 64.7879 322.085 63.3058 322.873 62.0574C323.662 60.809 324.709 59.8793 326.014 59.2683C327.32 58.6573 328.79 58.4086 330.427 58.5223C332.003 58.6318 333.386 59.0686 334.576 59.8329C335.786 60.5986 336.686 61.6335 337.277 62.9376C337.889 64.2231 338.139 65.6739 338.027 67.29ZM333.771 65.7915C333.826 64.7127 333.496 63.8277 332.782 63.1366C332.07 62.4255 331.165 62.0319 330.068 61.9557C329.03 61.8836 328.13 62.1419 327.368 62.7304C326.626 63.3004 326.137 64.1386 325.9 65.2448L333.771 65.7915ZM350.841 59.9703C352.816 60.1075 354.369 60.8469 355.498 62.1884C356.63 63.5099 357.117 65.288 356.962 67.5226L356.287 77.2492L352.097 76.9582L352.733 67.8002C352.824 66.4834 352.565 65.453 351.955 64.7089C351.347 63.9449 350.474 63.5234 349.337 63.4444C348.179 63.3641 347.237 63.6594 346.508 64.3306C345.801 64.9832 345.402 65.9679 345.311 67.2847L344.675 76.4426L340.485 76.1516L341.636 59.5716L345.826 59.8626L345.683 61.9276C346.291 61.2481 347.038 60.7387 347.924 60.3992C348.831 60.0412 349.803 59.8983 350.841 59.9703ZM366.062 64.7265L365.505 72.7471C365.466 73.3058 365.567 73.7238 365.809 74.0012C366.071 74.26 366.522 74.4116 367.16 74.456L369.106 74.5911L368.86 78.1226L366.227 77.9396C362.695 77.6943 361.049 75.8558 361.287 72.4241L361.842 64.4333L359.867 64.2961L360.106 60.8544L362.081 60.9916L362.366 56.8915L366.586 57.1846L366.301 61.2847L370.012 61.5425L369.773 64.9842L366.062 64.7265ZM378.2 79.0419C376.843 78.9477 375.643 78.6237 374.599 78.0701C373.556 77.4964 372.744 76.7684 372.164 75.8861C371.604 75.0052 371.329 74.0538 371.34 73.0321L375.56 73.3253C375.595 73.9693 375.868 74.5195 376.377 74.9759C376.907 75.4337 377.581 75.691 378.399 75.7478C379.197 75.8032 379.826 75.6866 380.287 75.3978C380.769 75.1105 381.026 74.7174 381.061 74.2186C381.098 73.6799 380.847 73.2615 380.306 72.9633C379.787 72.6465 378.94 72.287 377.765 71.8846C376.549 71.4994 375.553 71.1195 374.777 70.7448C374.021 70.3715 373.376 69.8356 372.843 69.137C372.33 68.4397 372.113 67.5325 372.19 66.4152C372.254 65.4974 372.572 64.6774 373.143 63.9553C373.735 63.2345 374.534 62.6886 375.542 62.3176C376.571 61.9479 377.753 61.8095 379.09 61.9024C381.065 62.0396 382.607 62.6479 383.714 63.7272C384.824 64.7866 385.38 66.1585 385.383 67.8428L381.373 67.5642C381.359 66.9016 381.115 66.3635 380.643 65.9498C380.192 65.5175 379.557 65.2729 378.739 65.2161C377.981 65.1634 377.383 65.2622 376.944 65.5124C376.526 65.764 376.299 66.1392 376.265 66.638C376.226 67.1967 376.476 67.6451 377.013 67.9831C377.553 68.3013 378.4 68.6509 379.557 69.0319C380.733 69.4143 381.699 69.7922 382.455 70.1655C383.211 70.5387 383.845 71.084 384.356 71.8011C384.889 72.4997 385.128 73.3984 385.071 74.4972C385.005 75.4548 384.676 76.2941 384.085 77.0148C383.513 77.737 382.713 78.2829 381.685 78.6525C380.679 79.0036 379.517 79.1334 378.2 79.0419Z" fill="black"/>
</svg>
