<svg width="521" height="511" viewBox="0 0 521 511" fill="none" xmlns="http://www.w3.org/2000/svg">
<rect x="270.605" width="95.3072" height="95.3072" rx="6" fill="#0D99FF" fill-opacity="0.75"/>
<rect x="281.194" y="10.5896" width="74.1279" height="74.1279" rx="6" fill="white" fill-opacity="0.75"/>
<rect x="291.784" y="21.1794" width="52.9485" height="52.9485" rx="3" fill="#0D99FF" fill-opacity="0.75"/>
<rect x="302" y="28" width="31.7691" height="16" rx="3" fill="white" fill-opacity="0.75"/>
<rect x="302" y="51" width="31.7691" height="16" rx="3" fill="white" fill-opacity="0.75"/>
<path d="M271.495 157.524L282.806 140.527C283.356 139.658 284.312 139.132 285.34 139.132H352.452C353.481 139.132 354.437 139.658 354.987 140.527L366.298 157.524C366.918 158.504 366.918 159.754 366.298 160.734L354.987 177.731C354.437 178.6 353.481 179.127 352.452 179.127H285.34C284.312 179.127 283.356 178.6 282.806 177.731L271.495 160.734C270.875 159.754 270.875 158.504 271.495 157.524Z" fill="#BD8AFF" fill-opacity="0.75"/>
<path d="M278.652 157.673L288.141 144.3C288.697 143.464 289.635 142.961 290.639 142.961H347.945C348.949 142.961 349.887 143.464 350.443 144.3L359.932 157.673C360.601 158.679 360.601 159.988 359.932 160.994L350.443 174.366C349.887 175.203 348.949 175.705 347.945 175.705H290.639C289.635 175.705 288.697 175.203 288.141 174.366L278.652 160.994C277.984 159.988 277.984 158.679 278.652 157.673Z" fill="#E4CCFF" fill-opacity="0.75"/>
<path d="M318.896 105.807V128.632" stroke="#CFA4FF" stroke-opacity="0.5" stroke-width="8" stroke-linecap="round" stroke-linejoin="bevel"/>
<ellipse cx="134.038" cy="157.464" rx="34.0383" ry="34.4638" fill="#6BE192" fill-opacity="0.75"/>
<ellipse cx="134.038" cy="158.102" rx="27.2306" ry="27.0179" fill="#7FEDA4" fill-opacity="0.75"/>
<rect x="117" y="150" width="34.0383" height="16" rx="3" fill="white" fill-opacity="0.75"/>
<path d="M260.531 158.959L178.575 157.634" stroke="#CFA4FF" stroke-opacity="0.5" stroke-width="8" stroke-linecap="round" stroke-linejoin="bevel"/>
<ellipse cx="34.0383" cy="305.068" rx="34.0383" ry="34.4638" fill="#6BE192" fill-opacity="0.75"/>
<ellipse cx="34.038" cy="305.707" rx="27.2306" ry="27.0179" fill="#7FEDA4" fill-opacity="0.75"/>
<rect x="17" y="298" width="34.0383" height="16" rx="3" fill="white" fill-opacity="0.75"/>
<path d="M89.4999 157.464H58.0382C44.7834 157.464 34.0382 168.209 34.0382 181.464V260.104" stroke="#CFA4FF" stroke-opacity="0.5" stroke-width="8" stroke-linecap="round" stroke-linejoin="bevel"/>
<rect x="266.775" y="222.525" width="102.966" height="40.846" rx="3" fill="#F24822" fill-opacity="0.75"/>
<rect x="274.009" y="229.333" width="88.4996" height="27.3725" rx="3" fill="#FF8165" fill-opacity="0.75"/>
<rect x="280.524" y="232.854" width="76.0119" height="19.5518" rx="3" fill="#FFC1B4" fill-opacity="0.75"/>
<path d="M318.896 189.627V212.026" stroke="#CFA4FF" stroke-opacity="0.5" stroke-width="8" stroke-linecap="round" stroke-linejoin="bevel"/>
<path d="M263.458 329.985L275.669 312.774C276.227 311.947 277.16 311.45 278.157 311.45H350.7C351.698 311.45 352.631 311.947 353.188 312.774L365.4 329.985C366.082 330.998 366.082 332.324 365.4 333.337L353.188 350.547C352.631 351.375 351.698 351.871 350.7 351.871H278.157C277.16 351.871 276.227 351.375 275.669 350.547L263.458 333.337C262.775 332.324 262.775 330.998 263.458 329.985Z" fill="#BD8AFF" fill-opacity="0.75"/>
<path d="M270.73 329.987L280.985 316.441C281.547 315.646 282.46 315.173 283.434 315.173H345.423C346.397 315.173 347.31 315.646 347.873 316.441L358.128 329.987C358.862 331.026 358.862 332.414 358.128 333.452L347.873 346.998C347.31 347.793 346.397 348.266 345.423 348.266H283.434C282.46 348.266 281.547 347.793 280.985 346.998L270.73 333.452C269.995 332.414 269.995 331.026 270.73 329.987Z" fill="#E4CCFF" fill-opacity="0.75"/>
<path d="M108.24 407.588H58.0382C44.7834 407.588 34.0382 396.843 34.0382 383.588V350.032" stroke="#CFA4FF" stroke-opacity="0.5" stroke-width="8" stroke-linecap="round" stroke-linejoin="bevel"/>
<path d="M134.038 202.428V239.928L134.038 307.661C134.038 320.916 144.784 331.661 158.038 331.661H252.446" stroke="#CFA4FF" stroke-opacity="0.5" stroke-width="8" stroke-linecap="round" stroke-linejoin="bevel"/>
<rect x="262.946" y="387.611" width="102.966" height="40.846" rx="3" fill="#F24822" fill-opacity="0.75"/>
<rect x="270.179" y="394.419" width="88.4996" height="27.3725" rx="3" fill="#FF8165" fill-opacity="0.75"/>
<rect x="276.694" y="397.94" width="76.0119" height="19.5518" rx="3" fill="#FFC1B4" fill-opacity="0.75"/>
<path d="M314.429 362.371V377.111" stroke="#CFA4FF" stroke-opacity="0.5" stroke-width="8" stroke-linecap="round" stroke-linejoin="bevel"/>
<rect x="262.946" y="467.176" width="102.966" height="40.846" rx="3" fill="#F24822" fill-opacity="0.75"/>
<rect x="270.179" y="473.983" width="88.4996" height="27.3725" rx="3" fill="#FF8165" fill-opacity="0.75"/>
<rect x="276.694" y="477.505" width="76.0119" height="19.5518" rx="3" fill="#FFC1B4" fill-opacity="0.75"/>
<path d="M314.429 438.957V456.676" stroke="#CFA4FF" stroke-opacity="0.5" stroke-width="8" stroke-linecap="round" stroke-linejoin="bevel"/>
<path d="M318.896 189.627V212.026" stroke="#CFA4FF" stroke-opacity="0.5" stroke-width="8" stroke-linecap="round" stroke-linejoin="bevel"/>
<ellipse cx="471.643" cy="476.536" rx="34.0383" ry="34.4638" fill="#6BE192" fill-opacity="0.75"/>
<ellipse cx="471.643" cy="477.174" rx="27.2306" ry="27.0179" fill="#7FEDA4" fill-opacity="0.75"/>
<rect x="455" y="468" width="34.0383" height="16" rx="3" fill="white" fill-opacity="0.75"/>
<rect x="423.99" y="311.45" width="95.3072" height="95.3072" rx="6" fill="#0D99FF" fill-opacity="0.75"/>
<rect x="434.579" y="322.04" width="74.1279" height="74.1279" rx="6" fill="white" fill-opacity="0.75"/>
<rect x="445.169" y="332.63" width="52.9485" height="52.9485" rx="3" fill="#0D99FF" fill-opacity="0.75"/>
<rect x="456" y="340" width="31.7691" height="16" rx="3" fill="white" fill-opacity="0.75"/>
<rect x="456" y="361.179" width="31.7691" height="16" rx="3" fill="white" fill-opacity="0.75"/>
<path d="M142.961 467.197C142.961 465.541 144.304 464.197 145.961 464.197H192.063C193.72 464.197 195.063 465.54 195.063 467.197V508C195.063 509.657 193.72 511 192.063 511H145.961C144.304 511 142.961 509.657 142.961 508V467.197Z" fill="#EBAA48" fill-opacity="0.75"/>
<path d="M170.192 487.599C170.192 500.523 158.095 511 143.174 511C128.252 511 116.156 500.523 116.156 487.599C116.156 474.674 128.252 464.197 143.174 464.197C158.095 464.197 170.192 474.674 170.192 487.599Z" fill="#EBAA48" fill-opacity="0.75"/>
<path d="M218.271 487.599C218.271 500.523 206.841 511 192.742 511C178.643 511 167.213 500.523 167.213 487.599C167.213 474.674 178.643 464.197 192.742 464.197C206.841 464.197 218.271 474.674 218.271 487.599Z" fill="#EBAA48" fill-opacity="0.75"/>
<path d="M146.674 473.154C146.674 471.497 148.017 470.154 149.674 470.154H187.924C189.581 470.154 190.924 471.497 190.924 473.154V502.182C190.924 503.839 189.581 505.182 187.924 505.182H149.674C148.017 505.182 146.674 503.839 146.674 502.182V473.154Z" fill="#FCBF62" fill-opacity="0.75"/>
<path d="M166.788 487.668C166.788 497.341 156.882 505.182 144.663 505.182C132.444 505.182 122.538 497.341 122.538 487.668C122.538 477.995 132.444 470.154 144.663 470.154C156.882 470.154 166.788 477.995 166.788 487.668Z" fill="#FCBF62" fill-opacity="0.75"/>
<path d="M211.037 487.668C211.037 497.341 201.132 505.182 188.913 505.182C176.693 505.182 166.788 497.341 166.788 487.668C166.788 477.995 176.693 470.154 188.913 470.154C201.132 470.154 211.037 477.995 211.037 487.668Z" fill="#FCBF62" fill-opacity="0.75"/>
<path d="M147.641 478.685C147.641 477.028 148.984 475.685 150.641 475.685H182.083C183.74 475.685 185.083 477.028 185.083 478.685V496.087C185.083 497.743 183.74 499.087 182.083 499.087H150.641C148.984 499.087 147.641 497.743 147.641 496.087V478.685Z" fill="#FFDFAE" fill-opacity="0.75"/>
<path d="M164.66 487.386C164.66 493.848 156.85 499.087 147.216 499.087C137.581 499.087 129.771 493.848 129.771 487.386C129.771 480.924 137.581 475.685 147.216 475.685C156.85 475.685 164.66 480.924 164.66 487.386Z" fill="#FFDFAE" fill-opacity="0.75"/>
<path d="M204.23 487.386C204.23 493.848 195.372 499.087 184.445 499.087C173.519 499.087 164.66 493.848 164.66 487.386C164.66 480.924 173.519 475.685 184.445 475.685C195.372 475.685 204.23 480.924 204.23 487.386Z" fill="#FFDFAE" fill-opacity="0.75"/>
<path d="M142.961 387.633C142.961 385.976 144.304 384.633 145.961 384.633H192.063C193.72 384.633 195.063 385.976 195.063 387.633V428.435C195.063 430.092 193.72 431.435 192.063 431.435H145.961C144.304 431.435 142.961 430.092 142.961 428.435V387.633Z" fill="#EBAA48" fill-opacity="0.75"/>
<path d="M170.192 408.034C170.192 420.958 158.095 431.435 143.174 431.435C128.252 431.435 116.156 420.958 116.156 408.034C116.156 395.11 128.252 384.633 143.174 384.633C158.095 384.633 170.192 395.11 170.192 408.034Z" fill="#EBAA48" fill-opacity="0.75"/>
<path d="M218.271 408.034C218.271 420.958 206.841 431.435 192.742 431.435C178.643 431.435 167.213 420.958 167.213 408.034C167.213 395.11 178.643 384.633 192.742 384.633C206.841 384.633 218.271 395.11 218.271 408.034Z" fill="#EBAA48" fill-opacity="0.75"/>
<path d="M146.674 393.589C146.674 391.933 148.017 390.589 149.674 390.589H187.924C189.581 390.589 190.924 391.933 190.924 393.589V422.618C190.924 424.275 189.581 425.618 187.924 425.618H149.674C148.017 425.618 146.674 424.275 146.674 422.618V393.589Z" fill="#FCBF62" fill-opacity="0.75"/>
<path d="M166.788 408.104C166.788 417.777 156.882 425.618 144.663 425.618C132.444 425.618 122.538 417.777 122.538 408.104C122.538 398.431 132.444 390.59 144.663 390.59C156.882 390.59 166.788 398.431 166.788 408.104Z" fill="#FCBF62" fill-opacity="0.75"/>
<path d="M211.037 408.104C211.037 417.776 201.132 425.618 188.913 425.618C176.693 425.618 166.788 417.777 166.788 408.104C166.788 398.431 176.693 390.589 188.913 390.589C201.132 390.589 211.037 398.431 211.037 408.104Z" fill="#FCBF62" fill-opacity="0.75"/>
<path d="M147.641 399.121C147.641 397.464 148.984 396.121 150.641 396.121H182.083C183.74 396.121 185.083 397.464 185.083 399.121V416.522C185.083 418.179 183.74 419.522 182.083 419.522H150.641C148.984 419.522 147.641 418.179 147.641 416.522V399.121Z" fill="#FFDFAE" fill-opacity="0.75"/>
<path d="M164.66 407.821C164.66 414.284 156.85 419.522 147.216 419.522C137.581 419.522 129.771 414.284 129.771 407.821C129.771 401.359 137.581 396.121 147.216 396.121C156.85 396.121 164.66 401.359 164.66 407.821Z" fill="#FFDFAE" fill-opacity="0.75"/>
<path d="M204.23 407.821C204.23 414.283 195.372 419.522 184.445 419.522C173.519 419.522 164.66 414.284 164.66 407.821C164.66 401.359 173.519 396.121 184.445 396.121C195.372 396.121 204.23 401.359 204.23 407.821Z" fill="#FFDFAE" fill-opacity="0.75"/>
<path d="M445.689 222.547C445.689 220.89 447.032 219.547 448.689 219.547H494.791C496.448 219.547 497.791 220.89 497.791 222.547V263.35C497.791 265.006 496.448 266.35 494.791 266.35H448.689C447.032 266.35 445.689 265.006 445.689 263.35V222.547Z" fill="#EBAA48" fill-opacity="0.75"/>
<path d="M472.92 242.948C472.92 255.873 460.823 266.35 445.902 266.35C430.98 266.35 418.884 255.873 418.884 242.948C418.884 230.024 430.98 219.547 445.902 219.547C460.823 219.547 472.92 230.024 472.92 242.948Z" fill="#EBAA48" fill-opacity="0.75"/>
<path d="M520.999 242.948C520.999 255.872 509.569 266.35 495.47 266.35C481.371 266.35 469.941 255.872 469.941 242.948C469.941 230.024 481.371 219.547 495.47 219.547C509.569 219.547 520.999 230.024 520.999 242.948Z" fill="#EBAA48" fill-opacity="0.75"/>
<path d="M449.402 228.504C449.402 226.847 450.746 225.504 452.402 225.504H490.652C492.309 225.504 493.652 226.847 493.652 228.504V257.532C493.652 259.189 492.309 260.532 490.652 260.532H452.402C450.746 260.532 449.402 259.189 449.402 257.532V228.504Z" fill="#FCBF62" fill-opacity="0.75"/>
<path d="M469.516 243.018C469.516 252.691 459.61 260.532 447.391 260.532C435.172 260.532 425.266 252.691 425.266 243.018C425.266 233.345 435.172 225.504 447.391 225.504C459.61 225.504 469.516 233.345 469.516 243.018Z" fill="#FCBF62" fill-opacity="0.75"/>
<path d="M513.766 243.018C513.766 252.691 503.86 260.532 491.641 260.532C479.422 260.532 469.516 252.691 469.516 243.018C469.516 233.345 479.422 225.504 491.641 225.504C503.86 225.504 513.766 233.345 513.766 243.018Z" fill="#FCBF62" fill-opacity="0.75"/>
<path d="M450.369 234.035C450.369 232.378 451.712 231.035 453.369 231.035H484.811C486.468 231.035 487.811 232.378 487.811 234.035V251.436C487.811 253.093 486.468 254.436 484.811 254.436H453.369C451.712 254.436 450.369 253.093 450.369 251.436V234.035Z" fill="#FFDFAE" fill-opacity="0.75"/>
<path d="M467.388 242.735C467.388 249.198 459.578 254.436 449.944 254.436C440.309 254.436 432.499 249.198 432.499 242.735C432.499 236.273 440.309 231.035 449.944 231.035C459.578 231.035 467.388 236.273 467.388 242.735Z" fill="#FFDFAE" fill-opacity="0.75"/>
<path d="M506.958 242.736C506.958 249.198 498.1 254.436 487.173 254.436C476.246 254.436 467.388 249.198 467.388 242.735C467.388 236.273 476.246 231.035 487.173 231.035C498.1 231.035 506.958 236.273 506.958 242.736Z" fill="#FFDFAE" fill-opacity="0.75"/>
<path d="M471.643 417.258V431.572" stroke="#CFA4FF" stroke-opacity="0.5" stroke-width="8" stroke-linecap="round" stroke-linejoin="bevel"/>
<path d="M471.156 209.811L471.156 183.129C471.156 169.874 460.411 159.129 447.156 159.129H377.263" stroke="#CFA4FF" stroke-opacity="0.5" stroke-width="8" stroke-linecap="round" stroke-linejoin="bevel"/>
<path d="M108.645 486.513H58.0381C44.7832 486.513 34.0381 475.767 34.0381 462.513V350.032" stroke="#CFA4FF" stroke-opacity="0.5" stroke-width="8" stroke-linecap="round" stroke-linejoin="bevel"/>
</svg>
