<svg width="83" height="81" viewBox="0 0 83 81" fill="none" xmlns="http://www.w3.org/2000/svg">
<path d="M53.2709 51.6647L54.8462 50.1362L51.1883 46.5462L49.6134 48.0747L53.2709 51.6647ZM60.1361 49.496L66.7432 53.0012L69.2208 48.5537L62.6136 45.0484L60.1361 49.496ZM68.0152 59.9679L63.1023 64.7351L66.7598 68.3251L71.6727 63.5579L68.0152 59.9679ZM60.1088 66.27C55.0945 66.726 42.1216 66.3197 28.0759 52.6901L24.4182 56.28C39.7457 71.1533 54.334 71.8796 60.5902 71.3106L60.1088 66.27ZM28.0759 52.6901C14.6874 39.6983 12.4696 28.7713 12.1935 24.0307L7.01435 24.318C7.36177 30.2844 10.1079 42.3939 24.4182 56.28L28.0759 52.6901ZM32.8322 31.8316L33.824 30.8691L30.1665 27.2792L29.1746 28.2417L32.8322 31.8316ZM34.6136 18.6002L30.2528 12.9154L26.1001 15.9493L30.4608 21.6342L34.6136 18.6002ZM15.5859 11.678L10.1577 16.9454L13.8154 20.5353L19.2436 15.268L15.5859 11.678ZM31.0034 30.0366C29.1746 28.2417 29.1721 28.2441 29.1696 28.2465C29.1688 28.2473 29.1663 28.2498 29.1646 28.2514C29.1612 28.2548 29.1578 28.2581 29.1543 28.2616C29.1473 28.2686 29.14 28.2759 29.1325 28.2834C29.1176 28.2986 29.1017 28.315 29.0851 28.3327C29.0517 28.368 29.0151 28.4084 28.9758 28.4541C28.8974 28.5454 28.8086 28.6578 28.7152 28.7923C28.528 29.0619 28.324 29.4184 28.151 29.8668C27.7978 30.7816 27.6084 31.9875 27.8458 33.4807C28.31 36.4011 30.3709 40.2586 35.65 45.3812L39.3076 41.7912C34.3673 36.9973 33.1905 34.0799 32.9719 32.7046C32.8678 32.0501 32.9757 31.728 33.0055 31.6517C33.0234 31.6045 33.0321 31.5997 33.0099 31.6319C32.9989 31.6477 32.9806 31.6723 32.9518 31.7056C32.9377 31.7222 32.9207 31.7411 32.901 31.7621C32.891 31.7726 32.8806 31.7836 32.8688 31.7952C32.8633 31.801 32.8574 31.8069 32.8512 31.813C32.8481 31.816 32.845 31.8191 32.8419 31.8222C32.8405 31.8237 32.8381 31.8261 32.837 31.8269C32.8346 31.8292 32.8322 31.8316 31.0034 30.0366ZM35.65 45.3812C40.9309 50.5054 44.9021 52.4997 47.8995 52.9486C49.4311 53.1777 50.6661 52.9948 51.603 52.6543C52.0622 52.4872 52.4281 52.2905 52.7048 52.1096C52.8431 52.0191 52.9586 51.933 53.0524 51.8571C53.0994 51.8193 53.1409 51.7839 53.1772 51.7515C53.1955 51.7353 53.2125 51.7201 53.2281 51.7056C53.236 51.6981 53.2433 51.6911 53.2505 51.6843C53.254 51.6809 53.2575 51.6776 53.2609 51.6742C53.2626 51.6725 53.2654 51.6701 53.2661 51.6695C53.2685 51.6671 53.2709 51.6647 51.4422 49.8696C49.6134 48.0747 49.6158 48.0724 49.6182 48.07C49.6189 48.0693 49.6214 48.067 49.6231 48.0653C49.6262 48.0623 49.6293 48.0592 49.6324 48.0562C49.639 48.0504 49.6449 48.0447 49.6508 48.039C49.6629 48.0278 49.6743 48.0177 49.685 48.0079C49.7064 47.989 49.7258 47.9725 49.7431 47.959C49.777 47.9313 49.8022 47.9138 49.8178 47.9033C49.85 47.8824 49.8434 47.8918 49.7922 47.9104C49.7075 47.9411 49.3682 48.0467 48.6862 47.9445C47.2569 47.7308 44.2464 46.5833 39.3076 41.7912L35.65 45.3812ZM30.2528 12.9154C26.7277 8.32002 19.7959 7.59287 15.5859 11.678L19.2436 15.268C21.0823 13.4837 24.348 13.6653 26.1001 15.9493L30.2528 12.9154ZM12.1935 24.0307C12.1255 22.8626 12.6744 21.6424 13.8154 20.5353L10.1577 16.9454C8.2995 18.7485 6.83863 21.301 7.01435 24.318L12.1935 24.0307ZM63.1023 64.7351C62.1519 65.6575 61.1331 66.1769 60.1088 66.27L60.5902 71.3106C63.1306 71.0794 65.2122 69.827 66.7598 68.3251L63.1023 64.7351ZM33.824 30.8691C37.2288 27.5652 37.4819 22.3394 34.6136 18.6002L30.4608 21.6342C31.8562 23.4532 31.6487 25.8409 30.1665 27.2792L33.824 30.8691ZM66.7432 53.0012C69.5715 54.5018 70.012 58.03 68.0152 59.9679L71.6727 63.5579C76.3079 59.06 74.8786 51.555 69.2208 48.5537L66.7432 53.0012ZM54.8462 50.1362C56.1742 48.8476 58.3118 48.5283 60.1361 49.496L62.6136 45.0484C58.8662 43.0602 54.2154 43.6093 51.1883 46.5462L54.8462 50.1362Z" fill="#EBAE31"/>
</svg>
